/* XPM */
static char *out[] = {
/* columns rows colors chars-per-pixel */
"64 64 171 2 ",
"   c #1C1C0A",
".  c #2C1E11",
"X  c #132C05",
"o  c #1A2009",
"O  c #172B08",
"+  c #1C2B0A",
"@  c #113104",
"#  c #1B3507",
"$  c #153807",
"%  c #1D330A",
"&  c #173B09",
"*  c #1E3C0B",
"=  c #22260D",
"-  c #29210F",
";  c #232C0D",
":  c #292C0F",
">  c #23340D",
",  c #29340F",
"<  c #233B0E",
"1  c #2A3C0F",
"2  c #2B2511",
"3  c #252C11",
"4  c #2C2D12",
"5  c #332514",
"6  c #3A2717",
"7  c #322C15",
"8  c #3B2C17",
"9  c #3C2C19",
"0  c #263510",
"q  c #2C3412",
"w  c #263C11",
"e  c #2B3C13",
"r  c #333415",
"t  c #3A3317",
"y  c #333B16",
"u  c #393C16",
"i  c #35351A",
"p  c #3B3519",
"a  c #353C19",
"s  c #3B3C1A",
"d  c #402D1A",
"f  c #43341C",
"g  c #4A341E",
"h  c #423C1D",
"j  c #4A3C1F",
"k  c #4E3720",
"l  c #463D22",
"z  c #4C3D22",
"x  c #533B23",
"c  c #583F26",
"v  c #174509",
"b  c #1D430C",
"n  c #174B0A",
"m  c #1E4B0D",
"M  c #1D530D",
"N  c #1E590E",
"B  c #23430E",
"V  c #28440D",
"C  c #224C0E",
"Z  c #294B0F",
"A  c #22530E",
"S  c #225A0F",
"D  c #264411",
"F  c #2C4413",
"G  c #254C11",
"H  c #2C4C14",
"J  c #2F4219",
"K  c #2E4A18",
"L  c #324416",
"P  c #314C16",
"I  c #354419",
"U  c #3B441B",
"Y  c #354C19",
"T  c #3B4C1C",
"R  c #255412",
"E  c #2C5315",
"W  c #255B12",
"Q  c #2C5B15",
"!  c #2E5418",
"~  c #2F5C18",
"^  c #315316",
"/  c #325B17",
"(  c #34541A",
")  c #3A541D",
"_  c #345C1A",
"`  c #3A5B1D",
"'  c #1D600E",
"]  c #21620F",
"[  c #266313",
"{  c #2C6316",
"}  c #256913",
"|  c #2B6A16",
" . c #2E6318",
".. c #2E6B19",
"X. c #316116",
"o. c #34641B",
"O. c #3A631E",
"+. c #346B1C",
"@. c #396B1E",
"#. c #2F7219",
"$. c #34731C",
"%. c #39721F",
"&. c #35781E",
"*. c #3E4B20",
"=. c #3E5420",
"-. c #3D5C21",
";. c #3D6421",
":. c #376D20",
">. c #3C6C21",
",. c #377320",
"<. c #3C7422",
"1. c #3C7B23",
"2. c #43441E",
"3. c #4B411F",
"4. c #424C1E",
"5. c #41521E",
"6. c #405A1F",
"7. c #444521",
"8. c #4A4522",
"9. c #434B22",
"0. c #4B4B24",
"q. c #494D29",
"w. c #524C24",
"e. c #574129",
"r. c #5A452B",
"t. c #544C28",
"y. c #435421",
"u. c #4B5225",
"i. c #435C22",
"p. c #4B5C25",
"a. c #4F572B",
"s. c #4E5E2A",
"d. c #545627",
"f. c #505B27",
"g. c #53532A",
"h. c #525C2A",
"j. c #585F2E",
"k. c #5A5A31",
"l. c #64552F",
"z. c #655E3A",
"x. c #695D39",
"c. c #725C3A",
"v. c #436424",
"b. c #496325",
"n. c #426B25",
"m. c #486B27",
"M. c #4C6529",
"N. c #466F28",
"B. c #4C6B2A",
"V. c #56652E",
"C. c #536A2D",
"Z. c #437426",
"A. c #427B25",
"S. c #457528",
"D. c #4A732A",
"F. c #457B29",
"G. c #4D7B2D",
"H. c #5C6230",
"J. c #567035",
"K. c #5B7134",
"L. c #647039",
"P. c #35831F",
"I. c #3E8024",
"U. c #418126",
"Y. c #46822A",
"T. c #4B822C",
"R. c #4B8A2D",
"E. c #4B952F",
"W. c #5F8A38",
"Q. c #579B36",
"!. c #738045",
/* pixels */
"Q F 6.p.w K ~ Q E 7.q F o.U.;.o.X.X.O.%.r Z P S.Q ~ <.;.i.D H L Y -.E +.o.K _ >.F.o.) F E 2 I _ +.1.P E o.Q H , , o L a.E R B Q ",
"e K _ ` e ( { ( K ) 6 U Q +.Q _ y / O.@.H ) ;.E { _ E 3 2.B I q -.o.H _ F _ O.U I.! N.>.~ r -.O.o...+.Q O.E E &.o.n.H ) Q G > _ ",
"_ _ ^ ` L E  .Q L ( 4 A %.^ E o.P L / Q / O.P C { J E w Y o._ 7 ! o.J H { _ ) P _ ( I +.( G +.^ R o.D _ >.+.K y.X.T @._ H F L E ",
"G ^ [ ` Y G ~ P F B H ^ o.G W E +./ _ O.S.( u.5.+.H  ._ N.:.K 0 e _ ^ 1 Q H P n.~ , U q.H +.E ^ E ~ ^ E ( ( o.^ F E E ( @.Q ) W ",
"7 Y W E ;.H ! =., Z ) @.+.< Z Q m ..{ O.G _ u <.G @.E.@.~ O.*.v.L.;.R H H _ A.B [ e *.y.H o./ G B W a ) _ 2 L / G L C b m  ._ ~ ",
"Y / {  .L ( L E @ > ( +.O.F Z m N Q F E C o.E %.1.Y.o.+.>.A.Z.o.&.I.>.B.+.>./ L ) y.*.%.Q > G V > Q F 5.` < V Y Q R ; R < { o.! ",
") o.+.R o.E O.o.< < V Q 0.[ E G W E e G { ( _ @.` ) F _ E :.Q.I p %...Q A._ F @.=.-.F E ( B , 4 e b H p O.;.T ) ^ E ~ F ( +.+._ ",
"Z K +.C o.6.T <...| @.E Y } ~ _ E E 1 e _ o.+._ o.( q o.Q A.Z.F.;.! 1._ @.Q _ E <.e H V E * 2 4 > + H 2.< i.p.C V < [ 1...o.[ Z ",
"o.( G U.@.Z.%.%.m | ~ o.H } W _ G / f , V ;.^ ( E ! I v ;.;.o.o...+.;.S.&.~ _ ( ( B E G e * U 7.# > H e.2.y.u.T > Z _ ( $.Q #.b ",
"Q ( O.H n.b.y E } |  .H { Q 0 _ O P 2.J _ @./ H H _ v { ;.O.F A _ 0 o.>.%.+.O./ ) L H H _ o.a a.r.u 4.l.y.P z Y G Q ) +._ m $.G ",
"~ ;.^ O.n.h T E C r K S Z Q C ( H Y ( ; s K ( H -.D F ( o.) > < _ F E o.O.+.%.~ o.F L n.v.E s t u p.j y.( ( 4 u F E ~ +.( _ Q ..",
"o.` / ) Y _ F E E a ^ m S E H ! S L E E F F E p G.G 0.^ F n.) E +.| m ` { +.@.X.o.{ %.S.( E r.3.v.V 0.i.8.I > L _ B K +._ =.#._ ",
";.o.` ;.E ..+.W e f r > A } V h : R C y p / E S.i.! ` T I P F B E ^ R E @...H Y V G >.<.> * s.r.3.o.y._ S.,...I E E P +._ o.|  .",
"Q G E ` Q ;.) R ..O.H * M { R V 5 R | Q @.K _ N.i.! L F Q _ G J E ^ 4 ( ^ W _ O.E < >.H m # 7.O.Y R / o.a B.r 9 T 1 e ~ W | 1.$.",
"> 8 B O.,.+.[ o.( F D n Q D > % G -.H < Q e v.G 0 Y L -.> Y P | D P E ^ , Z C Q / P n.Q C V o.* _ m L P =.k.T 9 f ^ ( [ A C %.( ",
"; 5.$.~ ;. .W E 0 ) D A e r + r U R b 4 o.P F + K S.;.>.o.` F { / _ w K V _ o.~ { E @.Q G o.G e 0 F 3 E o.L 4 O.^ o.R _ H B $.E ",
"! -.( ^ @.F p / F q { G X L G T y.H G + I E V q ) O.( ~ Q ..O._ H @.K r L G W F E V / P E Q b > 2 D w e { N.) v.n.v.=.Q M K #./ ",
"E ~ ^ Y / Y t.h > * Q L 0.` o.H r Y D R Y ( G F _ s 4.` H 4.; D G n.o.r Y J 0 _ H < F L F +.b * v.0 w ) / ) U q T a h G $ =.Z A ",
"Q C < ( K 2 4.^ h P Q > y T -.` 9 i._ G q P G ) V P ` b.V.6.P Q e n.L _ ( T U _ E e L / P o.1.T.<.E / e _ E F e F > F ;.o.( { C ",
"v D 3 K G T @.i.D.y F e 1 T r B.K.;.D I , e ;.~ > P d.T 4 r , < G ` L Y i.Q Q :.~ +.,.H Q +.<.^ Y T L > K ( _ Y U ) F v.y.O.D C ",
"b V e ( H  .( T j o.E J Y T 9.U L E ! W E ) Y * b 8.h F 2.I Y H Q <.L H -.I Q s ..@.Q @.L E O.Z o.L ` ` ! O.O.F U n.n.;.M.Q E < ",
"b E _ Q +.V E Y x 2.o.( U >./ ^ G E _ _ { ^ e b i._ 5 K f g > L F T ) Y ` ~ Y R [ ,.$.O.E ;.F { s k T P ` ) F r i.p.@.%.O.%._ E ",
",.;.v.B E A 0 L x d _ o.) I 1 9._ y.O.Q Q o.R G 7 7 5 ( h r.> , ( ) T F o.> D B H o.V Q +.( > W ( _ e Y * ) ) 7.` b.O.( G O.;.D.",
"R R R > H W W W U p Q n.n.m.Z.I ;.o.> ( D Q ~ H a 7 5.P . 5 r L U L 9.y.( C R D D ..C < ;.H D Q D 6 s ` * u ( ) F >./ ;.T F q 0 ",
"S.* Q W | / ) Y o.i.O.;.G.T n.T ( H F G B b M Q P U L h k z k y I L 6 ) V D * + < ~ E E _ +._ ! W ( 2.d ( I i.O.I +.O.H L _ o.;.",
";.;.m m { { ) T P _ ( @.) i.@.( ( { q +...J.g J m O.<.i.h x 5.F I ; y P r D C b * Y m G ) Y W $.E Z M.r ) f ` o._ %._ / ` O.$.4.",
"D { +._ C b ( ) I C B _ o.n.F E F _ I.&.+.F U ( :.o.Z.7.y.g I u ,   C ! E I 4 * O L H G K _ $.H G ; y M.r ) 9.^ S.U.%.o.y _ H H ",
"J ( q y i.^ D L T U R H T E { b L <.{ ,.Q ] +.F.1.Q 0 i.4 d r < C W Q f.G a g L * a a  .+.E J F G > 7 H.L o.u 0.` R.( U ..Y F + ",
"D D : L ) V B w 6 E i.H ` Q Y ~ >.<.| y :.R ;.;.-.;.( v.a 6 0.Y A _ o.6 =.p.U y.( i q W o.~ 2 +.G G P ) Y P F l O.( <.Y F H * 4 ",
"P ) q F H m < 4 f Z %._ O.a q o.X.Q ;.v.;.=.P y.i.>.a o.T U f Q q.y.n.h i t.i.I T U _ K _ +.e o.b ! 7.u.O.H L G ( F _ -.J Q w m ",
":.H r r _ D G , s ;.) %.T _ o.+.E C 0 o.:.a J i H ..O.~ ;.I Q q 2.i.B ) i z d./ Y ;.~ Y _ >.P >.E I C.i.F.%.+.o._ F P E J E { ..",
"> E 0 r D < O F e ) ` H +.G G F _ H ( _ ( n.e e _ ~ ` ` A.G G Y U i.* f p.f e ! 5 ` F.,.Q P G ;.% :._ ( 6._ H K O.X.H V _ J _ H ",
"u B > ( e 3 2.) o.:.W :.U.<.b W C O._ P e ) ` = F ` Y <.Q E e +.) v.@.=.V.( -._ +.b E T O.+._ n.+.&.P.E U _ w o._ Z G E { @.H w ",
"U * ~ > F > y 4.f +.o.+._ [ +.` X.Y : ^ U r ) ^ E H P 1.Q (  .o.T u.Y U s O.n.9.) M e < H ( +.o.F 6., Y ` Q Q F o.< [ U F ( Y ( ",
") L H e F < w s 5 o.e  .H o.~ F L @.F q ^ > U P H E ` T o.Z G R Y ) v.) -.;.( u # W W D e H ( o._ F 5 e O.K :.<.O.< D ( n.J r T ",
"F <.7.t < E _ a F i.9.p [ W K V , e ` P y e i.` _ ;.>.n.:.^ K ..e v.) Y Y 1.;.H D W < E B T > <.Q  .a 4._ = a y.E F w +.y _ Y L ",
"2 R K g u U E {   F g.9 B E _ A Q b ` @.@./ O.v._ D o.G o.H Y R _ 1.) a ..>.O.+.! < R W w ) C N._ ( Y o.i.;.=._ F > * E Y ^ ) i.",
"s.H a T i.2.R H Q L 2.p Z < H Q q q * ( ( ( _ O. ._ H w ~ 7 r _ _ -.o.o...T Y F.H * ..H E e E v._ I ! o.y.H ; t i.> ; F / F U y.",
"^ K ~ ` U f N ..G D _ q H C L V e U E M.Q <._ 1.o.{ m C :.q ! _ +.Y ) H W ( ) T o.F &.E > w H / { ( _ ! E e % t 5.A 1 u Q T =.v.",
"Q <.H _ U / { J W R o.2 S A K +.Q _ o.K O.>.P T T ( P ..:.+.( F a ` _ _ R ( T Y _ o.o.b F F Z ) ~ E +.Q o.! :.-.S.M.n._ N E ( P ",
"E o.H O.o.M D B e >.K W m F y.R * a M.! G +.%...o.V R b / ;.K 0 a v.Y Z.H Q _ ( ( _ R L H E Y ) -.{ D _ >.+.m L ) 0.i.b.m _ T _ ",
"` | / H ` * N R <.~ G @.b D Z ; T < ( D C Q X._ $.W W R Y o.S.=.p.T n.Z./ _ 6.P P O.E > + H ( ` O.( ( e O.<.G a P T h ( E H U < ",
"D.@.>.C >.N D w n.L q ! Q D R *.s a I Y > Q / / _ > C R o.w =.G X.T.O.a ` V _ E ..` R q r e @.U p L F I r _ E P _ v.y H E E w q ",
"h.G Z.P S.G u E v.a ( D < ~ w g.t.U ) ) A o.F w Z.( Y _ Q R ;.D O.@._ ( Y o.@.I E ` B Y r O.{ I F Y =.1.e Y A A E >.G E G ( R I ",
"3.r X._ ;.4 m -.B.u.O.L h.o.I k 9 H T E E ) h.J O.E e Y _ Z ( F _ B _ Y _ T ^ U < <._ i.P G O.4.y T 8.n.L @.o.E O.( / +._ O._ O.",
"x.T Q _ -.3 y.y._ r B ` ) W v.f s 9._ +.q q ~ < n.O.q 4 e L / @.G 1 _ ( ` v.) ` _ n.G ( Z > ^ Y 4.) p.< y Y ) L :._ E F .._ _ ` ",
"b.{ m _ J r J u =.> L 2.< D ;.S.-.( { o.o.F ) O._ > e 0.5.T >./ 7 O.%.P _ | L Z b ( O.( n 9 Y a 7 Q U.A ` O.W q O.o.( +.` Q { @.",
"~ R E n.Y q L I _ T L i E P J u.q ( _ G.n.-.F._ o.9.q a z.p._ L +._ T U 0.H F < B Y K Q / r a Y L / I E 9._ b ( R.A._ Q ; ) P +.",
"R $ * <.( T ( ) %.) F F Y e % H ( _ _ +.( ;.` K E U 2.J V.) O.C F.3 2.8 9.5.%.( e I W * 0 X./ T P E ( 6.u ( b ` o._ ( G ~ 5 J Z.",
"R B ( v.+.O P P _ r b o.o.R W o.;. .<.:.( n.I H F E v.O.Y Y A.S.E Y a a N.K y y Y T G * H ( H , p o.#.$.Z ^ O.v.+.T L E & > 7.) ",
"< G O.*.( ( ^ ! u F B Y ) L 1 > D F I @.` K.O.V L _ E G X.O.@.@.;.;._ ^ ( E 5.Y _ E R ( < R e h 5.` O.) F (  .Q _ a ) F % G 4 H ",
"Y _ v.T Y T ) u 0 H ) f T K <.<.! w e o.p.M.I _ o.X.H E V o.` ;.O.K Q K y.` h.4.e w :.; r V W y u h / +.` ^ < Z E ` H o.o.) 3 H ",
"^ ^ ;.T e T E ( | j.1 : L Y o.C A.H E K 7 >.a ( L Z ^ R 0 L @.D.P Q E r c.G.( e r Y * I z r e > e s ..X.Z.E # ; Q ;.>.( F e -.) ",
"b @.Y y I u B e , _ O.O.^ J ( < P ` N.Y ;.O.I ( E V E * w D o.o.R U H > *.e =.:.7 +.w h e + b E 5.i.Z Q ~ o.E t _ _ ~ I I ` G :.",
"/ ;.L a F < u D - 5.2.y C Q 4.I E L ( o.-.Y _ r 1 G 7 q R E O.+.( 0 % T 7 z =.( o.D e g y W < K 7 , V { ..o.&.X.E G D  .) i.H b ",
"X.Y s t , > e > z 6 v.U X.^ U r ) ` E ) i.Y F D H < 2.@.( ( O.$.e > ( e.x c -.L ( 4 w *.9.A W R U < = A * o.A.@.E G Y _ e ( K G ",
"( ) 8.s t 7 e.V 0 t F _ / h L K G ` E Y ` ( e B E ( ( L Y , / F { ~ b.2 k 0.T 4 Y D K y Y b i F  .R w B v +.Y.1.E <.;.e V E E ; ",
"P 4.L > g U 5., > w.I E Q ` 6 < E ( i.i.T P V q E e F P ` g / H E ..( ( 7 K a ; L -.G N._ 4.z V.9.1.H W ..+.T o.>.;.Y a R F y F ",
"P T ) : 2.U V., < e.4.[ -.o.4 e ..Z.m._ ( P + H +.G J 6 H m E L Q _ F.F E ^ _ T ) ) O.<.O.-.J h.!.~ F { A  .+.@.>.I.o.Q < J a H ",
"> s ` 4 < y f.U T L g v E ~ r U +.H ` a ;.Y F 4 P _ V 6 r ` H -._ G ;.E > ^ q 9 F y.{ ( ~ b.) v.T b o.G G :.o.<.A.+...( Q ( F D ",
"H , ` q u.w.M.5.L I F M L P i.` ..%.>.r E O.L T T ( b.^ J +.X...A R ..G F 1 ^ V.y.Y +.L ) A.T.-.;.(  .W D ) o.:.<.I.M ' E K P > ",
"3 ` G.9.J.v.A.6.T ( n..._  .o.o.I.v.-.4 n.I _ ( U _ t.W.I.U.,.E # B I F I u z T S.q | H >.L +.@.D > 1.( F +.%.( H _ W -.F Q # E ",
"=.B.0.H.T ( _ $.( i.H o.D ( <.a ~ E O.I v.L P ;.;.1.~ R Q R T.o.W F Q _ ;.s.0.) _ o.~ -.n.D.>.;.R e ....o.` Y H K R E D i.O.E H ",
"e I y.V.D T _ | :.J.` _ o.H n.o.! q o.O.U _ _ _ D.Z. .T v.G ( U F { ! _ _ ;.G T ` ( o.T P K F ) C ~ <.G :.o._ e e w T F | W E E "
};
