/* XPM */
static char *out[] = {
/* columns rows colors chars-per-pixel */
"64 64 220 2 ",
"   c #0E140B",
".  c #151D0C",
"X  c #151714",
"o  c #161D11",
"O  c #1B1E14",
"+  c #152707",
"@  c #162A06",
"#  c #1A2D06",
"$  c #14240A",
"%  c #1A250D",
"&  c #162A0B",
"*  c #1C2C0C",
"=  c #133005",
"-  c #1B3406",
";  c #1D3C06",
":  c #17340A",
">  c #1D330B",
",  c #1E3B0A",
"<  c #172411",
"1  c #1B2313",
"2  c #1D2B12",
"3  c #1E3411",
"4  c #262B0E",
"5  c #222E0C",
"6  c #223406",
"7  c #233B06",
"8  c #293E07",
"9  c #23340D",
"0  c #29350D",
"q  c #243B0B",
"w  c #2B3C0C",
"e  c #323A0A",
"r  c #323C0D",
"t  c #212514",
"y  c #232C13",
"u  c #2A2E15",
"i  c #232619",
"p  c #2A271B",
"a  c #252B1A",
"s  c #2C2D1B",
"d  c #302E17",
"f  c #322E1C",
"g  c #243312",
"h  c #2B3414",
"j  c #253B12",
"k  c #2C3B13",
"l  c #253219",
"z  c #2C331A",
"x  c #27381A",
"c  c #2D3A1B",
"v  c #323516",
"b  c #333C15",
"n  c #3A3C15",
"m  c #33341B",
"M  c #3A351D",
"N  c #343B1A",
"B  c #3B3C1C",
"V  c #2C2A21",
"C  c #342E21",
"Z  c #2E3520",
"A  c #353421",
"S  c #3B3522",
"D  c #363A20",
"F  c #3D3B21",
"G  c #403E14",
"H  c #423D1D",
"J  c #433626",
"K  c #433C23",
"L  c #493E25",
"P  c #463E28",
"I  c #4A3E2A",
"U  c #1C4204",
"Y  c #1E4A01",
"T  c #1F4109",
"R  c #254405",
"E  c #2B4406",
"W  c #254A05",
"Q  c #2C4C05",
"!  c #25420B",
"~  c #2C430C",
"^  c #25490A",
"/  c #2C4B0A",
"(  c #334406",
")  c #334C06",
"_  c #3B4A07",
"`  c #33450D",
"'  c #3A440E",
"]  c #334B0C",
"[  c #3A4B0C",
"{  c #265205",
"}  c #2D5204",
"|  c #27510A",
" . c #2E5209",
".. c #345305",
"X. c #3A5306",
"o. c #345C05",
"O. c #3B5A05",
"+. c #33520A",
"@. c #3B530C",
"#. c #345A0A",
"$. c #3B5A0B",
"%. c #264211",
"&. c #2D4313",
"*. c #2D4912",
"=. c #2E4618",
"-. c #344313",
";. c #3A4414",
":. c #344A12",
">. c #3B4B13",
",. c #35421A",
"<. c #3C431B",
"1. c #344A19",
"2. c #3C4A1A",
"3. c #335111",
"4. c #3C5313",
"5. c #3E5A12",
"6. c #3C521A",
"7. c #2F6302",
"8. c #366304",
"9. c #3C6206",
"0. c #3D620A",
"q. c #3D6B08",
"w. c #3B4221",
"e. c #3A4529",
"r. c #3F5620",
"t. c #46450E",
"y. c #424D0D",
"u. c #425206",
"i. c #415A04",
"p. c #43540C",
"a. c #4A520E",
"s. c #435B0C",
"d. c #4B5C0C",
"f. c #52570D",
"g. c #555A0C",
"h. c #5D5E0F",
"j. c #434415",
"k. c #484610",
"l. c #434C14",
"z. c #4A4D14",
"x. c #43441D",
"c. c #4A451D",
"v. c #434A1B",
"b. c #4B4C1C",
"n. c #504C13",
"m. c #524E1D",
"M. c #445314",
"N. c #4A5315",
"B. c #455A13",
"V. c #4A5B12",
"C. c #45531B",
"Z. c #4B531C",
"A. c #435C18",
"S. c #4C5B1B",
"D. c #525415",
"F. c #545A14",
"G. c #5C5817",
"H. c #53541C",
"J. c #5C541C",
"K. c #535B1B",
"L. c #5A5C1B",
"P. c #675D1B",
"I. c #416605",
"U. c #4A6301",
"Y. c #446B05",
"T. c #44630A",
"R. c #4B630D",
"E. c #496B08",
"W. c #4C6B0C",
"Q. c #54640C",
"!. c #5C640D",
"~. c #556E0C",
"^. c #5A6C08",
"/. c #4D7104",
"(. c #4C730E",
"). c #53710A",
"_. c #426312",
"`. c #4B6413",
"'. c #4C6A13",
"]. c #4B621A",
"[. c #526313",
"{. c #5C6314",
"}. c #556A15",
"|. c #5D6B13",
" X c #53641B",
".X c #5B631A",
"XX c #54691C",
"oX c #597519",
"OX c #5B751D",
"+X c #646F0D",
"@X c #6C740E",
"#X c #696514",
"$X c #636B14",
"%X c #626619",
"&X c #6D7416",
"*X c #677718",
"=X c #637C19",
"-X c #444322",
";X c #4A4423",
":X c #464A22",
">X c #4A4B23",
",X c #4C4328",
"<X c #4B4828",
"1X c #534B24",
"2X c #534829",
"3X c #4C5421",
"4X c #455B23",
"5X c #535423",
"6X c #535B22",
"7X c #5B5F21",
"8X c #4F6120",
"9X c #556222",
"0X c #586724",
"qX c #676729",
"wX c #678211",
"eX c #7A821A",
"rX c #7F8B18",
"tX c #688128",
"yX c #7DA222",
"uX c #97A91A",
/* pixels */
"k d.[ b 2 l.8 0 s.[ [ [ b <.0 ;.h m B K K y 7 &.3 2 l w :.9.! Q x.c.P.b.r j.x v l 7 -.n l s b l h g z k h l y &.7 ; z.< r 0 O.% ",
", n * ` v m h 9 &.<.b L.<.w g n -.w.S >Xm m g >.w 3 &.` 6 ~ - V.`.>.D.j.j.z.j k ~ ;.* % k -.@.l b <.c 5.x o l < 3.i * g & ! 2 O ",
"E p./ X.R ..{ k 0 ,.-..XD./ % w 0 v s B m v -.y k  Xk ..8 ..^ 6 i.:.;.b.k v s q -.( g k i 1 s A 4Xi i *.6 C.* . >.0 % j & &.;.> ",
"- } Y /.Q +.9 9 s S.:Xb.y w ~ 5 v N f <.b b ,.-.y 9 k Q R E [.M.] ' ` k.j.h i v h h.! q j m <.l.y m l # $ 0 y ! 3 ~ ~ ~ ] +.u.] ",
"$.W ~.;.w , O w 2 j Z.N.>.8 ' j s B H H <.:.y &.% l % w ..W ! e B.;.h c.N.x t.g ;.l.$.@.a.,.>.N.y y 9 ! @ 8 w > % 7 _ w I.+.0 9 ",
"B.6 E R.2 E N.] % C.E c ~ ^.q &.v J x.b.B 2.H.a.b i 0 $.E E Q 7 ;.h l.2.v h ;.j.E l.B.d.w F N.F z y 5 b 8 k 9 2 :.w * > 0 / q - ",
"8 ~ 7 ] -.[.2 1 j.w j X -.h w k n ;.B -XP.h l.% &.1 / 8 7 ! ^ $.k M.;.M.;.N & 3 > > w {.y s <.<.v ~ 7 < b q g 3 ;.& R & 9 w %.6 ",
"c.s.Q ^ 6 [ ;.` * k ] ] g z &.* t -X;XH k.;.k -.%.> ..@.1 ~ 7 s.B 2.j.-.b ;X:.@.[ '.~ x ,.N N x.g ` w 7 ..6 k q l # #.8 b w N m ",
"B N.s.~ 6 6 p.e ` ~ E.R i.~ ` * s ;.v Z.z.b w [ ` -.8 q ~ ) T.w J ;Xc.h k c k k N.s.w v.s B ,XF s , R q V.* h y 5 [ o.Q -.B H x.",
"x..Xe V.~ +.' @.k 8 8 # _ ;.# 4 y ' G.j.[ ;.-.t.u ;.` E ^ *.[ m m B j.n h &.N 2.;.-.,.;.9XF <Xj.-.) / q 9 k &.w ! 1 9 [ s F B v.",
"b.c.;.@.&.Q > w v ! 0 &.p.w j 0 0 0 k.j.-.v.M L.n w n M.0 #Xn N m w.-.g x ` m t >.-.-.m :X;X<.v M.) +.+.~ w k * , r ] [ [ n <.B ",
"x.;.>.q ` 8 [ 5 b b k 8 k v v e . k k.H x.x.s n u n N j.b C.r v m A ,.v 3 s.j -.j.v.Z.v.<.2X,X-X-.@.X.y., 9 E e X.) ) +.j.l.l.<.",
"<.%X$.) q 8.! Q 0 b g 0 n N ;.e h e G G m H <.c.N B n B h h F H S B B i @.<.-.#.<.B K ;Xf S >X;.% 0 +.g -.h , ! 8 E 7 5.;.-.` <.",
"<.<.` 8 / ( _ 8 - b <.* ' 0 p 1 v s u G n L.v.<.B s B x.<.c.F S K B s V ;.k -..X-.j.F <X:Xv D N -.~ g % 2 &.~ ` [.#.7 ( :.k 5 <.",
"0 b v ^ [ 9 8 #.7 E t.b M s 4 g i n s G N s H.b.m j.v z M A J S u Z f F <.M ;.:.g ;.h K ,Xk 2 3 ~ * k * . c 2 6 M.M.d.R 8 x.>.z.",
";.M.h ;.j r -.0 ~ b h j.;Xp v t v h n b.N N.h >.b Z.<.b.,Xm -Xg p 1 f z N 5 g w 3 ] ` <.w.:.) c 2 * g c & < j X.# s.E ..{ l.k 4.",
"N v :Xm v 5 / #.+.w b h S M >Xx.v x.N N b >.N.b M.h b <.K <.B -.y l t * k h h k -.7 :.v -.~ E ..~ 3 c 1 % ^ 9 > [ E !  .'.) < M.",
"s k a -.m.:.E 8 / 8 k G u ~ B <.P <.v.v z.N ` h v c b M :XF B B l b y ;.;.<.3.w g <.;.B ` ) ( E.8 &.1 g ! g j 6 -., &.q q ,.o v.",
"s m j.v b -.^ 6 5 ;.k ;.# w b m b k j.;.-.<.2.v <.<.<.K J x.,.h ~ b y [.-.l.4.- w p.[ V.@.!.@.E / # * ;.& X > * % 9 l <.l i t g ",
"N ;.j 4.>./ -.@.^ , d.>.;.x l y i > d. ., h ;.b b ;.b ;XM B B b h N 1 <.v.b >.:.~ p.N.-.B.R.Q $.X.] l / ! -.! < l :.k l ,.B ~ :X",
"S.`.b 0 g ;.h f.* k 0 p.5 M.0 >.` @.-.8 0 ;.N ;.m m B :XH F B <.>.s N v.b h l l 3 $ [.0 g U 9 M.E > 6.~ ) 9 9 # :.1.^ c s >.t b ",
"e.g N u D b ` h ;.6 ! 5.E @.3.7 % @.,.-.n c.S K m v.N <.B m h u j ` v m >.3 k 2 x 8 w * +.) R ) R 9 3.k :.j > , w 4X1 w.i m >.;.",
"u y ;.z ;.j.x.>.u 9 i.c ] +., R 8 5 z g 0 g m S C N m v.z m j 0 n R 9 k M., :.g g -.+.% @.X.Q / 5.6 [ w 3.] ) 2 9 C.-.N ;.c :XB ",
"@.~ 4.-..X0 } ` 9 k ;.`.l.rXQ ~ [ ) 9 w 9 g V S I ;.j N 2.;.:.k C.Q @.Q  .E [ > % y ! q ` 8 [ ] 9 B N h 8 - q.~ 7 ~ l.N.4.@.6.2.",
"` ~ ;.6.z.g 8 $.y g j [ o.g.W 9 R ~ / j.b 1 m v ;X;Xv.,.v v 2.k * Q Y.8.W [ ) q 5 q , , q ) 7 ` : w.<.v.q q :.&.- # XXV.[ N.j.:.",
"-.x ;.R.y v k * g [ w b [ h 0 [ q x h 5 k 1 m s F S 3Xm N B <.:.g ^ T ..Q | %.w q -./ Q X.T.U @.j v F j.-.> k 8 8 b 8 ` ) 2.x.~ ",
"3 c <.m A M.' $ f.|.8 y.d.w / ` r :.j :.w b x.S B F B F c.<.2.` / ! 4.Q ] , k @.5 +.^ 8 ) ) / >.>.v.:Xb ;.;.+./ k 2.M.~ ,.t k ;.",
"5 j N 2 N.Q.k 9 h.@.;.! ( ) ..9.^.i.6 B.h S.l.;.5Xx.K B :XK.' 4.q /  . .! T.=.y &.] ~ / } @.}.] h v.<.-.6.,.N.>.<.A.B.q *.` 2.b ",
"l ~ 2 g b a.~ j s.d.g.) ) ) Q /.W O.} O.k N.[ j.<.b.L L B ;.y h #.* ) * * Q ` &., ) > , / R +.w ` B.v N S.v.3Xb ;.u k c * 4.;.;.",
"! s.U / &.[ R ' ] g./ Q / ) E._ Q i.Q d.j.p.`.i.j.b.;XK <.W > @.%.! #.*.$ W q | : 6 &.^ *.Q ) # >.N.v :.k 2.x.;.M.3.( ` ] @.'.|.",
"R ).R W ..q.9 E b T.Q ..X.E E ) E U.7 Q >.>.z.rX/ C.B <XK x. Xc :.8 U @.~ Q  .R / | &.&.q W T...) Q.6.].OXk 2.-.) [ +...>.] 8 0 ",
"..d.! &.y b < k v 8 [ O.o.) E u.( X.8 = [ 4.|.' k 4.S.7Xc.V.g > j ^ &./ +.O.{ ../ ] j ] ~ O.Q { ..$.XX X}.) B :.:.3._.] s.E.] w ",
"R 5 ;.2 O $ z i ~ u. .8.o.wX+.I.R I.+X- ) &.$X, d.;..X;.b k l (._.&.E / , s.Q 6 ! w g q 1.o.W { wXY.oX].l.N <.N.@.&.>.T.~ ).k ] ",
") ! w v g 1 h a ' r _ 8 $.( 9.R.7 O.$X8 } j * -.*.6.V.B.4.! & ! 1.8 #.^ -.3.8 I.w ..3 w j { { o.o.I.B.0X>.>.C.~ 5.#.3.M.~ { 7 W ",
"O./ ;.>.v &.% y T.^ q W W ~ 9.R ^.Q Q $.) b N.5.2 &.N q 4.&.1 ^ 3.^ ^ :.h s.j + 3.~ q ~ o.W T.7.O...B.9XB -.2.;.4.R.R.k ! , h :.",
":.`.p.:.B.&.g   y.` 2.[ @.) @.R i.~ ` ~ R |.l.5.~ C.=.3.].;.e.r.6.j / q 5.+.! R ^ Q ;.k - | R '.0.+.1.*X`.5XS.b.M.s.V.;.` H.b.v.",
"b j.B.&.v l <.1 s.T , @.E w @.h j.x.&.@.d.[ N.].C.uX0X_.yXN.S.2.<Xk k 5 r j m R Q &.k [ : [ w oX#.].B.}.'.l.H.S.B.B.@.-.;.>X:X<.",
"c n v.b B C V z X.E X.Q > N.l.B v ,.h V.eX>.k q tXA.tX=XtX0Xw.q v k 2.;.>.x.-XB h {.#.g 3 $.+.d.5.B.~ S.oX2.d.5. .$.1.:XZ.x.<.2.",
"<.u N N s C g ;.0 ^ I.) U j v N 2.;.>.B c.x.-.>.` OX`.S.A.3XC.6Xv.x v.L.;.f ;.m.M -X1Xk 5.[ o.wX4.[ [.*XwX<.p.O.) 3 Q 8 :XB m F ",
"D a Z S S 3 >.0./ 8 ..) ..V.q B n j.<.<Xx.<.<.;.+.@.`.8X0XS.S.b.x.j.w F <.m s M f ;X-X-X-.|.k j K./ V.eXV.$X$XF.`.] X.~.s M p F ",
"S -X-.z V % j ` ! r ..- Q y.;.D k M.B x.>X<.2.7 ) E @.C.3XZ.qX;X;.v.2.D D &.s B B F L ;XF &Xl K.N b.l.z.V.[ 4.B.V.k q ;.c :.k M ",
"B k , > c j % , ` $ q 7 $.6 g -.<.y.<.B H j.[ +.i.( #.5Xj.<X>X;Xv.<.H.b F j B m F K S K ;X:Xv N <.> ] M.~ , ;.&.X.9 &.N.M.b v N ",
"v k o.: h - 1 3 b & - 7 x q E 4 0 -.g l.,.N.;.k k w Q.3X>X<X:Xv.>Xx.N.k e.;.c.-XM K -XK B H h &.M.@.a w ] ~ -.! q :.> p.k x N m ",
"g k #.j ~ o.R.j :.) > > ;./ +.N ) 9 n.x.<.n ,.~ x [ _ K.:X5X6X6XB m <.B z z.H S K H -X>XL 1X>.5 ) _ Q E W.q &.! x k * ;.7 2.! g ",
"g 9 [ * W +.% Q h <.b g b 7 p.k $ 9 k B <.m h v y 3.-.r ~ Z.;.B :X1X5X<.;.$.v b B K L S L 2Xf h N.~ E 5 ^ q - , 9 > ~ g w j 2 , ",
"5 j k : 0 R q / q v b ~ ) / ) ] Q ( O.;.<.b y.:.l.4.}.oXR.B.M.;.;.5XL.N.;.>.B.j.;.M 2XI K <.D m h ~ / ^ (.T ] k * 9 +.i #.q * q ",
": %.* / $.- { q j , s 2 c 7  .$.Q R.%Xv z l.<.' N.+.M.L.N.l.B b.x.v.<.D.K.M.>.~ b <.L <Xw h F N k b 2.g k $ q 6.&.% k 3 = +.*  X",
"y y i &.$ &.j * 9 q y q c $.` ` ;.k F x.g s :XN.N.;.;.Z.Z.C.B H Z..XM.[ ;.Z.:.0 N.;.2.F ! $X9 g , 8 8 C.B b b 9 ;.0 :.:.` 0 B x.",
":XB s y 7 -.x ;.h ;.g -.x E e N.2.B A n <.N j.k -.b ;.<.:Xj.'.L.F.b j.h k v F.D.{.p.l.v...[.6.4.k B l.-.;.2.:X;.k ;.M.-.@.;.2.:X",
"h A m :.Q ;.` -.` H <.u v ` -.v j.v A ,.z h z.;.N z <.<.b.N.2.b.;.M.&.~ v.1X5.k >.:.v ] q k 1.1.z N v.2.<.:X;X:XN B l.:Xv.D S m ",
"C.j ~ ,.) ;.:.N.<./ l.,.B v.k k h 0 u l h O ;.h k -.H.N.j.2.N.>.&Xd. XC.H B F b C.2.b z c j 1.2.g 6Xn <.B >.z 2.&.B m x.w.<.B l.",
"8 w [ M.@.;.@.l.j.K.l.N n -.b.2.b x z s g z N.' S.-.Z.;X;X:Xv.N M.N.v.>X;X<Xm m v v.N k O :.h j l 3XB m ;.k m -.N v.[ :.>X Xd.$.",
"M.^ d.$Xl.z.F.R ] d.[ :Xv j.k c N b B &.w z g &.* 2.j.;.>.:XH..XK.F >X<.:Xx.B v :Xv.v.,.-.;.1.: N j.P D ,.z B h <.C.M.M.B.K.:.M.",
"x.l.v.m ;.{.L.!.) V.k d u N.c ;.m z N 2.@.j a *.j e :.B.>.N.v.7Xb.:Xv H H.6.n m B :X<.v.2.@.6 }.c b ,X;.<.,.S u s ;.;.B.2.L.x.<.",
"N >.N.n N.@.R.[.;.b.;X-.g w w B.y V A p <.i Z z q > +.` :.B.N -XZ.j.S.N x.B x.N <.2.M.v h q / Q 0 :.<.<Xv m K L N.N j.>.C.K.N -X",
"x.! p.!.R.>.}.' l.S m -X-.b.z N B g z m s y &.t B.# -.7 8 -.9 b b.{.-.t A v.j.k u j ] $.:.Y [ q q g g i x N 1X,X,Xj.L.B 5X<.l.v ",
"L.Q #.Q i.b L.b h F h ;.v.B H ;Xb.;.3X3./ ] 9 ;.[ ! , ^ ! R.[ ] N.p.7 #Xj n j.k y c > &.}.! ! -.& 2 ~ Z t F M <XI J 2XH f ;.l.j ",
",.h 5 @.w 9 <.k ;.z <.p c B m C -Xz -Xb ;.j h k >.-.4.! [ 7 @X@Xa.f.y.#X[ n L.@.9 w :.h [ & ` w * j 3.Z -.g s <Xx.K L L J c.N l.",
"x k B -.;.<.:.Q y 0 4.u -XB C S S B M N N k 9 -.v 4.9 w ! `  .>.! {.J.m.j.N l.[ ! / -.q 8  .4.8 '.7 [ [ 4.b >Xm M ;XB f m.n x.b ",
"n m 5Xv.B b.B ` q ~ ~ 9 M.l.x.S x.K z m b 4.y y 0 x b :.` :.;.z.F.j.J.H.c.-.l 9 :.n & 4.# * g , @.~ & 9 ` z S N >Xx.b.H.<.J.x.:X",
"N m S x.y l.u C.E M.k 1.r [ j.v.<.K <.m n / y 1.h ,.h m b B.0 h L.b.m.x.F b.D.n k ~ q *... .q :.U #.U q k 9 ;.B L.C ;X1Xc.S H S ",
"2.M.b Z.j R.9 7 C.* k -.+.) > ' v x.C.h j *.*.OXk u -.-.w 4.~ q ~ z.z.b.B B h >.>.F.e 2 ~ -.- 8 Q  .r w } 9 -.-.m m ;X;X-Xn -X;X",
"h k k ) ~ ` ~ ] k *.* 9 k ;.&.9 M.,.M <.v y 6.> b g n j >.-.-.-.>.C.n <.b h u c 9 k . c k t ~ w 6 '.[ [ g q $ 7 r +.j.4.H b .Xh ",
"s.~ / v.` [ d.).q :.w , b ;.z 0 [ v.z A A z / &.9 5 % +._ k q 9 n j.v ;.b.4.y m u 5 0 * x i x -.9 9 > ! j 6.< h 2 s.w * B.k w ;."
};
