/* XPM */
static char *out[] = {
/* columns rows colors chars-per-pixel */
"64 64 199 2 ",
"   c #211D0E",
".  c #1B240A",
"X  c #1E2C0C",
"o  c #1F300C",
"O  c #22250E",
"+  c #222C0E",
"@  c #24340E",
"#  c #29350F",
"$  c #26390F",
"%  c #293C0F",
"&  c #242511",
"*  c #2B2513",
"=  c #252C11",
"-  c #2C2C13",
";  c #2F2D1A",
":  c #312515",
">  c #322C16",
",  c #342C19",
"<  c #3A2D1B",
"1  c #263311",
"2  c #2C3413",
"3  c #273B10",
"4  c #2B3C12",
"5  c #2F3419",
"6  c #2F3D1A",
"7  c #333416",
"8  c #383117",
"9  c #323C14",
"0  c #393D16",
"q  c #343419",
"w  c #3B341B",
"e  c #343C1A",
"r  c #3A3C1A",
"t  c #363123",
"y  c #343C22",
"u  c #383927",
"i  c #3B3D24",
"p  c #3D3E2C",
"a  c #41351D",
"s  c #423C1D",
"d  c #493D1F",
"f  c #43392D",
"g  c #2D410F",
"h  c #31440F",
"j  c #2D4211",
"k  c #2E4813",
"l  c #324413",
"z  c #394416",
"x  c #344B14",
"c  c #394C15",
"v  c #34431A",
"b  c #3B441B",
"n  c #364A1A",
"m  c #3B4B1A",
"M  c #365115",
"N  c #3B5315",
"B  c #3E5A16",
"V  c #375018",
"C  c #3C531B",
"Z  c #3E5819",
"A  c #364322",
"S  c #3A4423",
"D  c #374B22",
"F  c #3C4A22",
"G  c #3C442A",
"H  c #3E4A2B",
"J  c #3E5421",
"K  c #3F5824",
"L  c #42431C",
"P  c #444D1C",
"I  c #484E1F",
"U  c #415616",
"Y  c #415B17",
"T  c #41541B",
"R  c #435B1A",
"E  c #4A5D1B",
"W  c #44601A",
"Q  c #4B671C",
"!  c #4D691D",
"~  c #434523",
"^  c #434D25",
"/  c #44452C",
"(  c #414A2C",
")  c #4C4A2D",
"_  c #534B23",
"`  c #425324",
"'  c #445A24",
"]  c #44532B",
"[  c #49552D",
"{  c #465A2C",
"}  c #495B2C",
"|  c #464632",
" . c #494535",
".. c #444C33",
"X. c #4A4C36",
"o. c #4C473A",
"O. c #4D4D3B",
"+. c #465431",
"@. c #495434",
"#. c #475832",
"$. c #4B5B35",
"%. c #4C543A",
"&. c #4C5B39",
"*. c #565B36",
"=. c #50573E",
"-. c #515C3C",
";. c #4C6427",
":. c #4F6332",
">. c #53633A",
",. c #5C6E3B",
"<. c #56713A",
"1. c #4E4D41",
"2. c #535443",
"3. c #5B5344",
"4. c #565B43",
"5. c #585840",
"6. c #575448",
"7. c #5A554C",
"8. c #565B49",
"9. c #5C5B4D",
"0. c #5D5A50",
"q. c #605E4D",
"w. c #625D55",
"e. c #645F58",
"r. c #576144",
"t. c #596346",
"y. c #5C6C40",
"u. c #5D634B",
"i. c #5E6A4B",
"p. c #5E6251",
"a. c #64634F",
"s. c #626B4D",
"d. c #65724E",
"f. c #636454",
"g. c #646C53",
"h. c #686B55",
"j. c #666459",
"k. c #6A665D",
"l. c #6B6B5B",
"z. c #697355",
"x. c #6C735C",
"c. c #6F785A",
"v. c #737B52",
"b. c #6D6761",
"n. c #6E6A61",
"m. c #716D65",
"M. c #746E69",
"N. c #727265",
"B. c #767B66",
"V. c #787E62",
"C. c #76736B",
"Z. c #79756D",
"A. c #757869",
"S. c #7B7C6D",
"D. c #7B7771",
"F. c #7E7C73",
"G. c #817D76",
"H. c #827E79",
"J. c #7C8866",
"K. c #7D836E",
"L. c #7F8271",
"P. c #828375",
"I. c #838974",
"U. c #84827A",
"Y. c #88857D",
"T. c #868B78",
"R. c #8A8C7E",
"E. c #8A8680",
"W. c #8D8B84",
"Q. c #908D87",
"!. c #918E89",
"~. c #8F9084",
"^. c #929384",
"/. c #969B87",
"(. c #95938C",
"). c #98958F",
"_. c #96988A",
"`. c #9A9B8E",
"'. c #979590",
"]. c #999791",
"[. c #9C9B94",
"{. c #9F9C98",
"}. c #A09F97",
"|. c #A19F9A",
" X c #A0A296",
".X c #A4A39C",
"XX c #A9AB9F",
"oX c #A7A4A0",
"OX c #A9A6A2",
"+X c #ACABA5",
"@X c #AFAEA9",
"#X c #B1AFAA",
"$X c #ADB1A3",
"%X c #B0B1A6",
"&X c #B3B2AC",
"*X c #B7B6B1",
"=X c #BAB7B3",
"-X c #BBBAB4",
";X c #BFBCB8",
/* pixels */
"Q.C.%.7 7 2 3 4 (.' 9 v % g l x 4 4.XX].P.- h.Y.).+X( = 0..X(.8.Y B % l c B @ # 3 @ > + + O 1 4 k 3 j x x 4 g 4 5 q @ x j h % ] ",
"] S e * * 0 v 5 6.3 v Z 4 v l 2 E.E.[.OXC.X., j.w.G.^ 2 t ].f.j 4 j l = z g % l @ = > - w - & + 1 l V l @ @ c 4 = 3 x 1 x j c x ",
"3 x z q 2 5 2 y +.4 n { u.E.$.n D.[.H.oX].G.a t ; * q 2 6 G l @ 1 @ @ 1 c l j 4 4 = a - * , * & 1 9 4 l x j m l x W j o k N $ $ ",
"j x n ; 5 @ x 4 j 2 k x v ` e j w.W.].+X#XZ.> w , q > 8 2 1 @ $ 4 K.s.3 l x $ 2 0 - < : , * , - j @ v 4 g g z N M o g 3 M l $ x ",
"x l e b P v n F.{ @ 4 k 1 x 3 z f.W.@X+X'.m C 5., 7 w L 9 - + @ e D.].p.@ 3 4 & 8 > 5 v 4 $ m 2 m 4 @ 3 j x # g x x # % x x B x ",
"l z 0 q E x A W.I.l % % 4 $ + 3 F P.W.!.] l e ) w v b n m q 5 0 n i U.+Xx.l x x b 5 # 1 m 5 7 1 j c @ @ j j 4 g x % 4 $ g B g M ",
"n E m q v x n '.[.H k N l x + X 4 H {.J.M C C V C j 5 c E z z 0 s l e O..XF l x z l P 9 9 4 w z c j 3 z 1 z 1 $ 4 j x l l x x Y ",
"- 9 5 5 e g n U.[._.o l % % 9 6 3 j y j N x N M x g h g E V Y 2 2 4 x j v e @ % 3 r P b L l 4 n 1 + $ # 4 l 2 3 j z g % g @ $ 2 ",
"5 1 9 5 4 j g H.F.A.] l g j n ).1 x j o k k l Y x $ x l x x N 2 9 P @ @ @ 3 r 2 z z P m T c 4 9 , q v + % 9 l $ x B x g 9 @ + 9 ",
"c + + 1 X @ @ o 3 j % x $ g n O.H k 4 g 3 o $ x x 4 + x x % N $ 3 l # 9 x 4 9 8 j l 3 D +X,.$ x 9 = 0 9 4 4 j N g g h @ N h 2 9 ",
"2 b 1 l 3 X j j 3 4 x H $.l @ @ x g o X 4 @ $ % # l 3 B j M B x 4 m - + j l x 9 l z x y G.^.C B 9 z ~ - 0 1 C x % # 9 % - r m T ",
"0 0 2 4 1 j k v u.6.F.[.U.[.&.l j o 3 g 3 4 3 $ $ l @ $ l g x z x % j @ j N j x l l % l T v H s _ c 7 7 7 J m j P 0 0 > , > b r ",
"5 9 2 j x g b [.oX|.e.F.|.(.E./.$.j M B h % l @ @ @ % % % x x N c $ % j @ B k j 3 c z N g g P b m m 4 j 4 l 4 j m e q w 7 : w 5 ",
"e 9 2 j @ x j 6 f..XQ.+X!.).).D.!.g.l N ] $ x x 9 + % M j X j x z T v I.R.B.J.:.z c x c l K.v.n N z j l l V Y B l l 2 4 j n r 7 ",
"n l 4 7 j j $ @ 4 f.w.k.w.m.G.(..X=.l x ,.m 9 0 z l @ g g $ % l 9 n m  .F.6.D.] h B @ N x l.g.4 c l x j $ x % x l 9 j 4 j m v m ",
"x j 4 # H I.&.o j $ 4.M.Y.G.m.[.u.9 L 9 T x 7 O 0 2 j % N x B x x 4 9 + j.7.j.A.B.% % l 3 S.+.j g 3 l x k j j % j 4 z v x V 9 m ",
"V j j 3 +.'.{.T.u.C 4 @.~.(.2.5 j J ] 9 C N j # 9 v 4 3 x x l N c j x 9 6 4.j v >.m g x j B.l g $ $ x V j x Y $ l % l 9 j 4 n l ",
"x %.U.i.x Z.{.b.F.-XJ.K F ( b | l..XK.x l 4 x 0 r 4 1 4 4 C # 4 E @ 4 4 0 l l h N g x h l +.j g x x @ n u.4 @ x l % 9 1 @ 1 4 3 ",
".X.XM.W.k N.{.@Xb.'.(.F.m _.@XP.k.E.g.+.F c x j 1 3 x $ @ x 2 1 l 4 @ $ 2 O 9 h % @ c c l x @ g l ( L.[.|.F.+ @ # z 7 4 3 1 v c.",
"+X&X{.H.....E.[.!.Z..XO.j [.|.OXE.A.D S x.n B V x j j B 7 - # + 1 $ l 2 3 9 & 6 % z 7 - m ] z +.!.!.[.Q.%XW.t.&X[.h.4.e @ %.D.F.",
"[.@X'.t.D k H 1.W.Z.9.l z n.!.!.@.[ t.V l m 3 @ x j j 9 0 & 2 0 z l z l 9 q w 7 7 w < a z l 2 R f.U.E.&X-Xp.%.).P.%.S j i.D e.e.",
"O.y j N @ X j 3 l ' e x x F.N.F d.D.^.1 l # k X 4 x j 5 & e = 4 M x l @ R 9 s r 9 - q > 9 2 0 9 4 t.9.7.N.2.1 @ 3 X j f.Z...- f ",
"9 4 1 j $ j g o $ $ . B c S l z.}.).U.x.j c x @ j j 3 g 4 k 5 x k M j j 4 b m r w w 9 1 4 l > 9 2 1 @ 9 + 7 = @ j @ G |.H.l.1 5 ",
"3 3 x o o $ j k $ x l x j 6 XX*XE.[.U.U.3 @ x x x 3 3 @ 3 z 0 l j M x j 3 0 e r w - 5 1 = h 7 - v l 1 4 l - * 4 j #.(.).=X+Xy @ ",
"l $ N 4 # j @ $ $ j x x x 1 [.+X X[.F.[.%.@ o 3 j j $ $ W z P C j 3 c j x x 5 r - e e 0 4 l 7 7 e l j 1 z l 1 3 &.[.E.M.M.8.x x ",
"$ x j j 4 @ @ 3 = v l 3 % h j.Q.+X+X~.~.).1 g 3 3 3 o g x w 9 4 k 3 3 j 4 k 3 - < , i z 2 9 - q / >.<.J x } y.4 B.!.x.] @ 3 3 j ",
"x x l 4 @.T.l.n.x.] 4 1 l & f H.H.{.+X-XOX$.x $ m l x k j 3 5 = 3 j 3 j g j $ z q & 7 ~ - > w p ^.}._.&.j.D.C.Z.] T B 3 o 3 1 @ ",
"@ l 0 q ; j.-.n k $ 3 1 c q u m.b.(.E.Y.H $ g l l k 3 3 + k 1 + n x j @ $ x j B l l 9 : v 5 7 N.W.[.[...[.(.!.F.+.F.P.T.P.z.3 3 ",
"$ 3 r 5 l r 4 4 @ j 3 1 m 7 / (.m.0.P.F x l c 4 l j j k 4 3 4 9 j l % j k j c z 9 5 d a r v 2 e.+XW.+Xi.D.).n..X] '.].F.F.F.X j ",
"+ 1 2 4 j l 1 @ k k x x l T 5 `..XN.~ @ j j b l g 4 3 x g g @ v 4 1 3 o $ @ x P L 2 2 : r 5 3 v m.D.%.n m v :.@.D ].-XoXQ.+Xy 3 ",
"j 1 x @ $ $ $ k 3 4 x ;.l l 3 2.k.r e @ ] L.v l $ @ @ 3 3 @ 4 = k j @ j % x % z r T z 7 , 7 2 + 4 @.4.).n j N j n j.'.oX;XoXu.o ",
"4 j l @ j j x % j j } (.,.M 4 2 c l n s.E.Y.3 1 j @ x j 2 5 P 4 n 3 j j % h l 0 w v 7 0 - e P 2 + v )..X%.l @ V j v N.U.&XoXK.3 ",
"@ h # # X g % x j x x 2.] j l L r 9 i ..n.f.4 x @ X 3 l 7 7 j 1 x 1 @ $ @ @ g g 5 m m c 9 9 l 0 = > 9.S 4 M M $ j k v M.*XU.j n ",
". c c # X % $ % @ j M N l l 4 k Y n l l n C l x S . 1 x z e 7 9 1 4 h h g $ j j j 4 j + 4 l Y z s * e 3 1 $ 3 3 o M g g 5 3 3 j ",
"# 7 9 O % . $ @ o g g h N l j x 4 l v l B 3 3 6 W.J 4 4 x 5 7 = x 4 l x $ x 3 $ 1 4 % % 4 j 2 + 9 4 b 4 1 H W.R.&.k g o 4 3 1 g ",
"7 - - 7 9 @ @ c j j g l @ h g g M j l j l F x 4 4.C.z 0 # 9 ; . 9 - l l x j 4 j $ 3 2 c $ l 2 9 @ = 1 v A.Z.OXOX..M M X @ 4 1 ; ",
"- * q > - - @ - j % h 9 3 j c x j x N c l.(.%.9 0 / G l 4 * d * 2 3 l N k h Y h $ + - 4 l > 8 z 0 9 s.@X+XC.E.`.4 @ j # + 4 - : ",
"8 q q q q q *   * 7 4 9 5 4 % @ g x S % J D.(.z 5 2 m 7 > a : * = @ h c V c g l 4 x + 4 V # z v 3 G }.Q..XQ.D.H @ + & = 7 7 q e ",
"- 5 q * = - - - 7 & = - 7 9 h % h Y ' h.# >.M.P.> e 9 z w 7 q e 7 O % h 4 % x l B m 9 l z z z L 8 o.k.E.U.Z.=.j @ + 7 = w , , S ",
"5 6 e , e q : > b * : 7 9 9 j N U E x p h.m 4.G.*.b T m b ` m 8 * & - c @ @ z j l N z z c L 9 w , T.+XY.).G.9 2 4 @ 7 : , w 5 e ",
"1 v 9 , q 7 w , q , * q @ l x N N h x m 9.y 4 v S V m Y W R 9 > e ; , - 4 4 9 c 2 N l 0 > s 9 z r O..X XQ.+.r l n 7 v v r r n j ",
"4 , 8 w w * * , - z r 9 # $ x c x c @ % l l D ..4 4 x l k c b I 0 ; > : 1 l % 3 % N V 4 4 e 9 9 2 v N.E.i.V Y % w n 2 # z 2 4 j ",
"4 i a , f 0 q w e 9 7 - O l # $ g x @ $ x M u.r.j j 1 j g x P x l 9 = : q 4 c x x c x l % # - 7 l j F H.e x B c z z 9 % n V 4 x ",
"4 q ; : L r a L l 4 4 m 3 2 + # @ h j B j J '.:.j j o 3 $ M 9 Y 9 x 2 q - - z l % b } &.t.f.z.[ m k k 4 @ l l @ z 0 8 j k j 3 3 ",
"j v k v j 2 , s d - 9 z l j @ $ # 7 % x l i.[.F 3 3 4 k g $ z U x l 7 0 * - 0 1 x l.W.[.[.H.m.^.v j j x $ 4 j x 4 4 9 4 3 j k j ",
"j j k j x j q S r < w L 7 4 h g # = 2 l 1 F.].j S W.H 4 g x N z c L 0 0 * z 6 l U z v 0 A A ^ G ~ 4 l j x x M V 4 3 3 X 4 k j l ",
"3 M $ $ 3 2 V m e S r - - - z $ # - 2 - 4.#XG.b F.W.i.g V N ! R l q - 9 # 2 l z 2 = 3 1 1 z l z 9 F l l x x g C j 3 l l 4 # o 3 ",
"1 1 x 4 3 j l x n n P L < * : 0 > : - v  .Z.A.[.F.~.H M x g 0 b z 8 w w 4 1 l l 7 4 4 r w = l z 5 ^ T.v % l j j 1 3 4 9 1 @ @ 1 ",
"& - k 4 @ x 4 $ $ x E 6 < , , < b q - k ` p.G.2.U.I.6 x x j l 9 l b - 2 v 1 l l 9 n 2 9 q - l x j T 9.l S 3 3 + @ 3 @ 3 k j e 2 ",
"= 6 2 3 o j @ j @ 4 v C q q q ` P P e j B ..m.u.P.W.x x l Y x n k x n n m 3 k l = l b 8 e 0 C W M x m e [.R.2 @ 4 $ 3 l $ k n 7 ",
"2 = 3 1 j k j % 4 @ 4 z V e m l 9 j 4 @ l k i.Z.T -.j x l $ x x x M 4 3 x 1 3 l 4 x - e n n l l $ l 2 S E.G.`.t.o j 3 k @ j 4 n ",
"% @ X 1 M $ $ 9 = j C j 1 x % M j l 3 j V % K m.s.j B l 3 @ 3 j 3 ` g.x x j @ 4 4 n 3 j k 4 x x g l l C F.(.[.|.S.4 3 j l m k 1 ",
"3 $ $ O g $ @ 2 X j N l 1 4 l % x Y h j x $ g $.F.x c N $ x M k 8.Y.p.l x j x 3 j g k M % j x l $ N g 4 q.E.D.E.+X[.%.% @ 1 1 3 ",
"c 0 * = % x 4 4 j j j $ $ $ $ 4 j l k g M j j M 2.z z h j c H $X;Xf.n $ j x j l j j x 3 x M l c h c @ $ +.W.]..X+X%XOXF.v 4 @ 1 ",
"=.7 , * 4 3 l x j $ @ @ j N X g $ @ l F k g x P 5 7 $ h % m j.[.B.l j j x l j l j g 3 3 g l N V x x N c n F.H.|.;X]..X[.%Xg.2 -.",
"i 9 - = 4 # 4 3 3 k j % N g $ j j l l j.i.x 9 P 2 * > [ ;.% R P x x j # l j j $ 4 k j k $ $ x j h N h x 4 F.H.e.m.m.u.O.G A 6 q ",
"j k 4 l % 4 % j x j $ k B h j $ X j N n l.`.@.l v m 2 l.=X^.i.@ x ] a.v l % k % j k $ j $ $ j # l X g x 3 r ~ l x c V % x Z V l ",
"+ 9 9 k % = % l g j g M l N k $ $ $ z $ ^ j.@.l S.[.x O.Y.|.(.v @ x l l 9 4 @ N M 4 x M $ l l % 3 g $ k j @ l 9 l % j 3 C x 4 c ",
"4 m @ 1 @ O g l l $ % @ k j g $ j x g k x e 4 6 k.Y.B.j.p i : 7 # @ l l % % x $ x g l 4 9 $ l x k @ x g j @ 9 - 1 l n H x M l Z ",
"k l @ 4 9 @ g $ $ @ g $ j % 4 x j x j g j 3 @ j x ^ 1.K.V.3.w w * 4 4 j Q l x % N x l x z g x % g g $ x k % 4 1 l $ u k 4 3 j Z ",
"v S 9 1 1 3 X $ @ D x @ g g B % $ j $ k g $ k 4 v u.8.n..XXX`.u.5 3 % h % h % % g k 3 k 3 k k g g j 3 $ k l v A h h 4 1 1 A x.(.",
"A 9.Y.I.d.v 9 . x -.f.t.D x l l @ j $ $ 3 x 3 #.Y.W.1.o.w.&X+X/.m l B h c z z h B j j M o $ k $ g g j $ j $ n 0./.I.@ v L.Y.f.u.",
"4 v / m...j 2 o + $ . h % @ z % $ 3 j x M j s.*X@X+XO.t w.Z.#X%XQ x N x 9 z j g j M 3 k j 3 j 3 o 3 k g l @ 4 *.j.f.= F 2.H j j ",
"4.I.5 2 e 6 x 2 ^ l % + + $ k g $ 3 n t.D x n.m.(.W.] O j.k.3.Y.' h h x 9 $ 2 @ k 1 j k 4 1 j j g X g 3 j j l 2 O.h.1 2 + j 1 k "
};
