/* XPM */
static char *out[] = {
/* columns rows colors chars-per-pixel */
"64 64 254 2 ",
"   c #37481F",
".  c #574E2E",
"X  c #4A5A28",
"o  c #545829",
"O  c #545C2C",
"+  c #554D30",
"@  c #595A37",
"#  c #625C33",
"$  c #67593B",
"%  c #735D37",
"&  c #54622D",
"*  c #526B2A",
"=  c #5A682A",
"-  c #5C6433",
";  c #5C6B35",
":  c #5C6839",
">  c #5C7636",
",  c #646B2E",
"<  c #61752D",
"1  c #677B2C",
"2  c #636334",
"3  c #636C35",
"4  c #686639",
"5  c #636B3C",
"6  c #6B6C3B",
"7  c #77693B",
"8  c #736C3C",
"9  c #627334",
"0  c #6C7335",
"q  c #6C7B34",
"w  c #64723C",
"e  c #6C733C",
"r  c #647A39",
"t  c #6D7B3B",
"y  c #767538",
"u  c #73733C",
"i  c #747B3B",
"p  c #7A7C3B",
"a  c #715C44",
"s  c #5A6B41",
"d  c #6C6445",
"f  c #666843",
"g  c #6D6D42",
"h  c #746343",
"j  c #736C44",
"k  c #796847",
"l  c #746B4B",
"z  c #7B6C4C",
"x  c #6C7342",
"c  c #657D44",
"v  c #6D7A44",
"b  c #6C7449",
"n  c #687848",
"m  c #747343",
"M  c #7B7444",
"N  c #747B43",
"B  c #7B7B44",
"V  c #75744B",
"C  c #7C744B",
"Z  c #747B4A",
"A  c #7B7B4B",
"S  c #7D6650",
"D  c #7D6B53",
"F  c #697751",
"G  c #777656",
"H  c #7D7353",
"J  c #757D51",
"K  c #7B7C52",
"L  c #817E3E",
"P  c #836B4C",
"I  c #837545",
"U  c #837C44",
"Y  c #8A7947",
"T  c #83744D",
"R  c #89754C",
"E  c #847C4C",
"W  c #8B7C4C",
"Q  c #836D52",
"!  c #8A6C52",
"~  c #847453",
"^  c #8B7554",
"/  c #847C53",
"(  c #8B7C54",
")  c #877659",
"_  c #8D755B",
"`  c #857B59",
"'  c #8D7C5A",
"]  c #917455",
"[  c #927D54",
"{  c #997E56",
"}  c #92755C",
"|  c #937D5C",
" . c #9A7E5D",
".. c #867C60",
"X. c #8E7D61",
"o. c #947C62",
"O. c #9A7D63",
"+. c #967968",
"@. c #A07F65",
"#. c #6A8338",
"$. c #708D31",
"%. c #73833B",
"&. c #748639",
"*. c #7B843D",
"=. c #7B8A3C",
"-. c #6A8247",
";. c #748144",
":. c #7D8244",
">. c #788A46",
",. c #73834B",
"<. c #7C844C",
"1. c #7D8C4C",
"2. c #7C9248",
"3. c #6E8552",
"4. c #7D8453",
"5. c #7D8A53",
"6. c #7A8858",
"7. c #7E9156",
"8. c #848345",
"9. c #858A45",
"0. c #8B8845",
"q. c #83834B",
"w. c #8B834C",
"e. c #848A4D",
"r. c #8D8B4C",
"t. c #92844D",
"y. c #938B4D",
"u. c #988F4E",
"i. c #879649",
"p. c #8C924C",
"a. c #93924E",
"s. c #9C934E",
"d. c #949A4C",
"f. c #848353",
"g. c #8C8454",
"h. c #848B53",
"j. c #8B8B54",
"k. c #84835B",
"l. c #8C835B",
"z. c #848B5B",
"x. c #8C8C5A",
"c. c #938454",
"v. c #998555",
"b. c #938B54",
"n. c #9B8C55",
"m. c #94845B",
"M. c #9B855C",
"N. c #948C5B",
"B. c #9B8B5C",
"V. c #8C9353",
"C. c #8B9459",
"Z. c #949254",
"A. c #9B9255",
"S. c #959A52",
"D. c #93935B",
"F. c #9B935C",
"G. c #969B58",
"H. c #9C9A5C",
"J. c #A48A5A",
"K. c #A38B5D",
"L. c #A29A57",
"P. c #A3925C",
"I. c #A49B5D",
"U. c #9AA459",
"Y. c #A1A459",
"T. c #8C8661",
"R. c #8C8C63",
"E. c #958362",
"W. c #9C8464",
"Q. c #948B63",
"!. c #9C8B63",
"~. c #958769",
"^. c #9D846A",
"/. c #9D8B6A",
"(. c #8B9163",
"). c #889064",
"_. c #959463",
"`. c #9C9264",
"'. c #9C9A63",
"]. c #959768",
"[. c #9B946A",
"{. c #9F996B",
"}. c #998971",
"|. c #9E9472",
" X c #A18565",
".X c #A38C64",
"XX c #A98E66",
"oX c #A2866B",
"OX c #A48C6B",
"+X c #A98D6D",
"@X c #B28467",
"#X c #A49365",
"$X c #AA9465",
"%X c #A39A64",
"&X c #AA9B66",
"*X c #A4936B",
"=X c #AB946C",
"-X c #A39A6C",
";X c #AB9A6C",
":X c #B3966C",
">X c #B49A6C",
",X c #B99C6E",
"<X c #A48C72",
"1X c #A78C77",
"2X c #AA8E74",
"3X c #A59372",
"4X c #AC9473",
"5X c #A69A74",
"6X c #AD9A73",
"7X c #AD947B",
"8X c #A4987A",
"9X c #AC9C7A",
"0X c #B29574",
"qX c #B39B74",
"wX c #B99C74",
"eX c #B2957B",
"rX c #B49B7B",
"tX c #BB9C7B",
"yX c #99A368",
"uX c #A8A267",
"iX c #ACA26C",
"pX c #B5A36C",
"aX c #AAA275",
"sX c #B3A274",
"dX c #BAA475",
"fX c #B4A27B",
"gX c #BBA37C",
"hX c #B7A878",
"jX c #BCAA7C",
"kX c #A9B174",
"lX c #C29E7B",
"zX c #C3A57C",
"xX c #C4AA7B",
"cX c #C6B37F",
"vX c #AC9F81",
"bX c #B49B82",
"nX c #BA9D82",
"mX c #B39F89",
"MX c #A8A581",
"NX c #B5A382",
"BX c #BCA383",
"VX c #BBA983",
"CX c #BCA389",
"ZX c #BEA88C",
"AX c #C2A582",
"SX c #C3AA83",
"DX c #C4A98B",
"FX c #C8A888",
"GX c #CBB287",
"HX c #D9B788",
"JX c #CAAD93",
"KX c #D4B895",
"LX c #E2BC88",
"PX c #EAC691",
/* pixels */
"!.!.7X|  .c.I / c.B.Z.#XtXqX[./ g b 6 6 e.u 1 6 V 7Xj.e.i.#.1 %.q = q a.L.a.0.E.N H.K 8X^.1X XoXqX) ] oX2X} m B wXLXPXqXQ.fX6XqX",
"-X!.Q.=X&X#X6XB.m.M.+X*XW.AX3Xn K c <.B.w.V.i B g.Q '.D.>.%.< %.$.=.>.!.B.S.w.A ; b.,.|._ W.5XA  XM.O.W.qX=Xx.N.[ $XHXpX=X{.5X-X",
";XCXB.U xXwXeX+X( +XrX4XM.W fX].6.c <.B.>Xj.0 2 F.5X[.g.:.p.6 =.&.A U.:.e T <.= m & - d W.O.^.N.g .XW. XrXN.=X:XtX%XSXGXQ.' 5X/.",
"qX!.W.$XqXlXnX$XSX0X+X4Xm.' T.R.z.z.NXfXdXB.p B !.*X^.m.V >.> u 0 * yX#.L w.M e.V & < ,.m.9X4XW.M B.| E.rXtX=XqXrXfXgX*X6XrX3XgX",
"&XB.W g.#XqX4XXXrX^.=X<XV 4.rXW.8XK VXfXe.tXN.*.x ' 3X].<.h.r V.H.m.E q.;.U 0 0 - g.:.C 4X3X.X4X!.-XW.OXoX;XXX3 qXtX=XqXqX;XH.I.",
"uX*X*Xw.f.XXQ.wX+X!.B.#XQ.h.F.6X9X-XdX#XE.OXM.u Z o O ; g.f.V.B.V U f.m B y B E g.x A g.` W.N.OX4XtX!.=X XW.`.e.b.;XXX;XI.$Xa.L.",
"I.U g..XK Q.Q.-X.XB.A.u.S.9.A.#XfXsX'.w.Z.!.#Xw.`.Z m.B.B.( #X;X<.A E r.q 9.XX0 v.v.B t g.C .X^.~ ) g.*X*X$XqXa.q.&X#XiXxXrXB.pX",
"dX:XI.b.l.b.B.a.6XwXL y.p.*.A.A.H.`.#Xw.D.E v.W.;X.XXXt.y.h.N.=XqX4XrX#XA.g.>X$X`.B.c.;. XqXl.| %X'.`.l.D.r.Q.w.=.L.d.s.hX>X#X&X",
">X$Xt.0X=Xp.$.i B.n.p 8.r.p U dXH.F.b.:.N Z.b.#XW T T #XfXgXW.5X4X7X7X#X;X`.tX=X>Xr.j.B Q #X$ +. X;XB.v.8.;X3X*XS.U.r.xXS.0.:XnX",
"K.0.pXFXgX:.#.r.F.*X}.g.i = d.6XF.F.e.F.N r.i t.w.2 0 B.DXeXl /.+.7X4X5Xh.`.qX>X>XwXB L.I.tXeX} _ fXqX&XE rX4XqXiXH.wXGXa.b. XC ",
"n.r.Y O. .W #.G.U qXB X = e./ B.=Xg.j.N.B e.=.9.y ;.>.Z.eXbXN.5XT W.nXbXm.<XBXCXN.6XM.tXFXM.Y  XY 3XgX`.[ 6X#XtX&XuXa.B.P.&XI *.",
"b.s.Z.c./.;Xd.$Xq.8 y 0 =.c.Z.#XB.n.%Xg.g.M m u 0 B c.W.9XR.k.H A [.<X5Xg.7XbX<XoXF.R 0X+X Xq.. ( W.!.*X>XqX6XwXdXqXDXhXb.H.H.r.",
"M 7 L v.`.Y pX+X( g.u M p L `.:XJ.4XW m 3 u O & 2 M I 6 : H A f.Q.4X<X_.) eX+.+.<XoX/.+Xx.| i.q ;XiXjXdX>XAXnX2XDXgXCXKX$XsX!.y.",
"n.$Xt.n.n.J.P.u u ( w.w.y.w.qXwX,X#XN.5 j 6 v & u B g.x x.j.h.x.N.W.E.[.|.^.oX7X3Xl.A | p E.U.b.b.D.BXzX&X XeXAXrX XBXeXpXxXXXs.",
"J.:X$XJ.dX;X&X#XD.Y E.6X8.-XB.:X4X=Xb.E C & ; w R M w r b m.~ D.~ *X[ 1XbX<XnXoXrX5Xx.8 !.#X>XwXxXuXv.{.=XlXoXtX4Xc.sX4XnX4Xb.D.",
"J.J.:X,X=XGXwX0X:X4X' W.v.7X=X4XtX=X].Q.` w v Z + 4 C ].Q.z.` ~ ' l.m ^.1X<X2XbX~.j 9 3 g.E.tXAXtXf.} 9XM.+.oXeX;XqXKXeXA | g.%X",
"P.B./.+XgXwXwXtXoX=Xg.oXOXrX.X' zXAXQ.n z.g w @ u 5 k.3X9Xf._.g _  XW.nX<X2X2XoXsXh.>.N.j.p ;X=X#X&XGXFX^.oXO.2XoX X6X4Xm.l.f.Q.",
"D.=Xv.!.M.SXBXeXXXwXwX+XeX0XqXM.( 5X{.3.J K > B b.i f.rX0XqXx.Z Z V m.DX3X<XOX/.#XD.6X| w.w.K.8.M M.FXtXtXW.h _ -XwX,X0XT.3.K z.",
"4.].'.C.F.=XqX=X=XeXwXnX:XOX^.[ ( !.9X|.6.n > 4.$XH.D.#X^.Q.,.t : q.rXbXgXtX#X4 U.;Xg.T ).f.<.> q E J. X( W 7.z <XzXlXSXhX(.R.Z ",
"z.z.z.,.f.6XOX X=XgXoX/.oX4XW./ / l./ {.k.7.{.z.v.>XF./.G E.E.Z > z ` 6Xq.m.v.M M H.( A K N > X : 6 W f.e o 4.x.gXzXAX`.VXx.x.(.",
"!./.(.n f.E.E.`.zX+X.X4X4X7X) 5 _.rXOXR.].k.fX=XjXzX#Xl.5 F f.4.,.V 6.[.*.;.%.q.E 8.C x.6X_._.,.yXD.q.r ;.6 g.gXSX0X!.2XgXiX;Xl.",
"m.~ `.s F R./.8X4X.X!./.rX3X[.6.#X6XM.5X8XK hXCXqX=XtXN.f V ) G l n A _.e.< 9.y.c.G.N.y.B.g.g.>.p.W 1.A h.M 5XM.!.+X} @XrXzXtX<X",
"6X5X6X].).).G CX/.M.=XrXE.3XDX4XOXqX9XNX{.aXjXNX6Xb.gXOXA g.9Xl.b c 5.v.>XD.m r.c..X=Xb.m. X8 2 >.D.w j.A.m T.X.OXo.@.0XeXnX7X7X",
"OX<X4XBX=XNXMX3X;X.X! 4X6XzXAXAX5XOX^.NX5X3X!./.*X7X~.^.M.l.l.].K 7.VXqXtX#X>.A w.B.h ` ) l.3 u -XV.7.q.a.v.8X1X| O.@.nX2XoXbXeX",
"eX4XH |  X=XrX7X~ Q T v.wXxXLXKX!.`.6XVX#X*XfXl.3X3XK.M.m./ 6XW.8X/ fXZXq.N.h.p.i g.f.M c.-.h / E F.F.t.w.gX XW.| [ zXJXCXbXoX0X",
"o.fX*X' ! W.7X7XW.E N e.J.xXLXPXP.P.rX_.=X5X5XF.!.' ;XOXk.5.=X*X9X|.jX4X!.x.N 5 # o 0 u U., B y <.Z.:XS.y.c.oXl c.q.o.mX}.nX7XoX",
"| .XoXv.^.| 0X4X.XsXl..Xm.q.jXGXzXXX` 3X9XQ.sXBXtXc.8 W.9X4X=XOXNX6X5XQ.oX&Xp.<.> = 0 t t < = < =.a.a.P.< r.E.5 j.h.J |.3X} | m.",
"f.-X` XX .^ 4X4X!.N.XX:XgX%XGXqXqX3Xl.vX8XfX#XfXT.dX#X*XSXFX4X`.NX`.=X3XtX`.:.1.U.&.#.< 9.t #.* t B &Xd.Y.w.B r 6 h.,.-X! !  X7X",
"E ~ # { W.W.^.rXgX=XqX6XgXgXNXrX:X6XgXqXW.3X;XrX( 7 M.qXHXPXdX#X].9X/.g.D {.C.D.2.< 1 < q #.d.i.V.!.v.A &Xb.9 m & X ; f ' ^.oX3X",
"#X/.A v.A o.E.9XqX=XM.g.fXfXrX=XwX4XVXjXSX$XP.=Xm.I B v.J.GXGXwXV NXbXsX' {.N.g.e.2.e.6 $.=.8.x.U.<.0 N M N 0 3 :.X X X k.` eXeX",
"#XqX`.g.v. X<X+XOXqXc.; #XrX=X6XVX=XXXrXKXsX&X6X%X;X[ .X#XhXqX=XqXqXXXN.hXl.Q.Q.B D.>.i L &.X > kX< =.w.w.k A e j A %.;.OX3XeX4X",
"l.W.P W.a  .=X XOXW._.Z l.=X!.W.K.+X`.jXrX#XsX#XN.^ { =XqXgXfXwXqXrXVX*X6XW.^.!.: Z 2.; 2 :.:.r.g.=.i.0 B , %.= 3 W h.u ' <X<XOX",
"v._ OXl.i [ ] m.g.m.#Xx.b.0X=X X=XgX_.:X0XB.dX>XN.g.W.T OXfX=XrX0X#XdXj.l 0X+X5XN 4.5.-.e.F.%XT C x k b.J.0 0 u h & C A l.$ <X X",
"!.!.vXW.|  .[ {  X!.#Xm.N.J.{ | M.E.C.F.W.( zXdX-XU M q.m 6X X.X=X`.;Xl.4 d 5 g N N.B i.Z.( C M N.v p *.q q y 0 u N l.E.=XN.OXOX",
" XW.W.OX! |  X| !. X2 v.; 7 M.N.j x 8 C m b m.5Xj.N.( N.h.;XXXM..X/ w.A e   > v x.g.m.XXqX{.x q.^ b.p q &.= y < = O g ^.1X4X X_ ",
"} O.P P ' [ W.o.| M.k g.A 6 B.N.h.e N W b n / V !.#XN.#Xb.s.J.!.4.F.u g.e.> N #Xb.P.b.w.=XN._.`.aXrXA.b.U H.8.#.;.iX{.`.~ ^ ~ g ",
"| ^ -Xm.l.M  .( =X{ m.b.j u | | m.g N `.'.7.Z x.B.v.B.#Xa.d.r.XXg.!.%X6 5.X H.&X&XS.h.`.W.tXeXbX3Xm.B.%XS.&X7 & V H g d l.Q ' v.",
"h +X' k.<.;.Z l.M.XX~ g.h.w R R m.4.C #X#X=X_.l.M..XpX6X#XI.;XU b.`.-XB h.k.=XgX6X3XBXW.7X4X2X1X4X!.5Xq.g.j.w.m b.{._.aXNX!.h | ",
"l.a M Q.5XA A R [ ) f.o 4 V D.g.c.@ Z !.$XgXqX/.m.XXcXdX$XI.jX&XXXS.*XQ.5XqXCXAXZXDXrXl S E.O.eXrXfXsXV.D.U 8.#Xf.-XNXqX~._._.W ",
"f.x.4..XXX^ g.7 I [ N A X / n.# k q.O @ M.4XW.m.| .XdXy.XX0XBXI.B.P.tXW.o.7XFXCXbXBXeX].`.fX~ | qXfX;XQ.P.g.i g.D.!.+.W./.G D [ ",
"-X-X*X7X3Xk.6 e 4 7 4 x v g.M 5.Z.g.Z <.A | [ *XB.dXv.9.K..X} y.v.zXFX+X7X+.E.^.JXfXvXQ.l.E.E C rXeXc.v qX-XB / rXGX;Xo.!./ j ' ",
"*X5XCXW.OX7.1.-.x.j.<.;.x q.$XR h M.K g x.W.*X.XqX*XzXH.v.y.w.0.y.R o.<XbX9XR.Q mX9X[.` V / 6.N.BXtXz.x.#XE [ .X^.+.@.O.~ m.Z.`.",
"g.+X7XrX3XVXuX1.uX( M N <.Y $Xl.% % R m `.!.OXjX=X!.F.b.U.8.<.n.0.B.W.^ +./.' V $ d D 4.x x.D. X+.3X_.N.B.r.$X .OX@. .2XOX( 6 M ",
"P.OX7X^.! 4X/.5 ` f.x.l.M ^ . ; @ w.r.%.P.&X6XXX| .X=XB..Xn.t.M 7 p W.T.} *XZ t & ,.n D.h.z.b.*X) OX*X-XOXOXXX$ P +.] P W.N.8 w.",
"0XnX2X` m.' d G /./ n K f.@ : e ; B 8.V.b.[ OXqX!.m.tXsXxXP.s.K.P.t.b.l.D Q._.w c ].m f.`.b.H ^.N.' 4X[.( _ ' H V ! O.OX XT j.;X",
"<X~...3Xm.!.k.m.W.m.,.h.`.h.<.<.w 5 D.!.( J.[ W.m..X2XgX6XB.y.t.,X$XXXx.Z V b : c Z ` z k -Xf.k -Xj o.E.-XS l T l./ S W.E.E.OXeX",
"W.D K 3XoXO. X^.] .XR.Q.` m.jXF.j.v x T Y :X{  X( qX0XQ.' j.&X$XJ.$XqXE.l.N 6 ` z.z.~.4.m.z ~.' -X( +X<X` l.V.h ) A Z o.+.O.O.W.",
"/.$ G W.qX XO._ :XXX4.z.f ~ _ 4XN.4.5 A $XXXwX=X XBXm.B B g.N.b.c.XX Xk d w #X_ ~.3X{.v (.j z ^ 2X! tXCX'.A z.f ( [.6.l.` _  XDX",
"~ 3.` o. X] ^._ OXg.3Xx.h.m.` qX=Xl.4.!.oXqXgX3X$X;X=Xb.y.g.M.%.B T B.x / <.' [.mXDX=X3XN.N 6.x.% H AXBXQ.,.$ b W.W.<X3Xf.{.qXoX",
"Q.7.' ' 0Xo.+.W.OXOXrX!.VX6X-X+X[.Q.X.4XW.XX4X4XW.wXqXqXsX:X0.B !.qXl.V.l.Q.+XtXAX0XeX*XC.e.,.s h.`.DXNXN.v Z Z /.` D o.J .X0Xo.",
"@ b d f S _ X.l.qXXX<XeXwXOX3X!.7X7X^.<X+X:Xo.' W.3X6X*X=XdX&XU W 6XOX:XBX/.~ Q ~.| *XQ.4.N 5 & E .XDXJX4X-XA h.M K V f.T.+.o.. ",
"4.k.b V $ $  .P Q =X+XO.M.!.4X7X^.o.7X<XO. X[ Q W.6X' 4XBXm.!.0XzXW.oX3XbX<Xj./.H =XF.3XQ.Q.-.> g.P.tX7XO...g.q.*.<.Z f k.d l a ",
"<.k.N.( E z $ k H ~ a ~ 4.k. XmXD Q ^.^ ' oX| E.W.*X<X7Xo.oXc.OX!.=X# (  X.XP.*Xl.XXsX'.c.D.x >.F.v.eXeXv B N.E.E.m 5 g l.K V Z ",
"9.q.W e i i A - h T.~ !.C._.!.^.3X/.` f.T E.2X!.*X<X}.oX<X1X!.m.' F.#.%XiX0XqXgX5XnXfXJX#Xg.f.f.n.y.| -Xi.#XE b.& 1 x / N./ M m ",
"N U u B j.b.b.h.<.D.e.B.c.w.:.q.Q.K E n.u ` /.7XoX2XeXeX<X3X`.m B.&X&XF.B.gX:X XtXBX0XAXwXGX#XJ.W L .Xb.#XXXg.8 p L w.*XB.n.b.l.",
"e O - I I Z.J.t.F.=Xj.W.W.6 - 1.G.,.N uXi CX+.W._ oX<X<XbX' 9 x / 0XlXtXC -X.X2X2XqXc.qXnXqXb.0.$Xv.n.J.P.B M w.U 8.`.wX:Xl.m 3 ",
"5 ; 7 g.N %.B R  XQ ` } l.3 N &Xa.g.b.v.j.CXOX| | =XoX2X/.F._.( :.!.=X=XdXFX XO.eX=X0XAX/ ' `.I.J.:X#XSX=XqXw.l.;Xj..X:X0X#Xe 4 ",
"w ,.j E <.h.N.E c.A g.c.,.N 8.m B.4XXX!.U  .l.T W OXgXN.q.uXN.} g.b.q u zXtXqXE.Q *XtX=XE.4.l._.#X+X:XdXtX0XtXm.W.+XqX4XqX{.l.l.",
"e 4 2 j j.z.p r.8.*.A.y.e.j.U B n.XXM 8 v.DXC m F.p.i q./ b.f.V <.v > - g.' C h.K 4X0XzXaX6.6.4.=Xl..XgXBX+X=X+X+XgX=Xm.gX/.n 4.",
"c A q.N F.:.b.y.a.=.A.uX'.y.;.r.%.r.8 &.*.g.2 > `.h.=.9.E r.M `.`._.5.h.q.;.0 j #XFXzX-XgX4.].4.z.h.g.:X4XXX0XtXtXOX+X( N.fX6.b ",
"c 4.B.F.F.D.=Xp w.0 i 6XB.j.B.8.p w.u E B.u e.i X x q.8.t.B.qXr.b.E <.q.q.A e.` OXOX XoXgX6X-X!.[.-.z.E.N.qX0XOX0X3X| ~ E.k.3X6.",
"aX-XdX$Xe.e.$X[.A < g.B.#XF.g.M x o - U w.h.= 4 N X i 7.q.M.T _ m.3 N G.>.N.0 ~.X. X X+XtXrXoX/.!.Z f R.|.6X Xm.4X7Xk.Z fX~.Q.5.",
"aXCX:XtX&.p.E w., %.8.>XK..XA m e ; B U M m ;.u m 6 A q.u V N W ,.V E n.j.b.g.rX/.| @XtXeXeX1X4X*XVX].).<X3Xm.qX+X3X9X[.=X#X9Xk.",
"fXtXj.rX#X%XN.W 7 U g.tX:X=Xf.A @ > V # M 2 :.& h OX%X>.- = m V.= W N D.&Xr.n. XR R 2XJXmX2X0X7XE.OX2XmXvX=X^ W.3XgXFX4X+X6X9X5X"
};
