/* XPM */
static char *out[] = {
/* columns rows colors chars-per-pixel */
"64 64 153 2 ",
"   c #2B2506",
".  c #2E2B06",
"X  c #2E2908",
"o  c #312E07",
"O  c #332D0A",
"+  c #3A2E0D",
"@  c #343307",
"#  c #383607",
"$  c #343807",
"%  c #393B07",
"&  c #353409",
"*  c #3B350C",
"=  c #373809",
"-  c #3C3B0A",
";  c #3C2E10",
":  c #3E3510",
">  c #3E3A11",
",  c #40370A",
"<  c #413D0D",
"1  c #483F0F",
"2  c #413713",
"3  c #433C12",
"4  c #4A3E12",
"5  c #4B3E1A",
"6  c #3D4207",
"7  c #3E410A",
"8  c #434607",
"9  c #424C07",
"0  c #43440C",
"q  c #49450E",
"w  c #454B0B",
"e  c #4A4D0D",
"r  c #524F0F",
"t  c #46520A",
"y  c #4C530C",
"u  c #4E5A0B",
"i  c #51550E",
"p  c #525C0D",
"a  c #585E0E",
"s  c #464311",
"d  c #4B4413",
"f  c #474912",
"g  c #4C4B12",
"h  c #4E4519",
"j  c #4F4918",
"k  c #524716",
"l  c #524C14",
"z  c #554D1A",
"x  c #594E1D",
"c  c #4E5212",
"v  c #4F5911",
"b  c #535413",
"n  c #5A5515",
"m  c #555B12",
"M  c #5B5D14",
"N  c #55531A",
"B  c #5A551A",
"V  c #575818",
"C  c #5C5B1A",
"Z  c #625D1C",
"A  c #4F630A",
"S  c #55620D",
"D  c #5A650E",
"F  c #57690C",
"G  c #5B6B0E",
"H  c #5D720D",
"J  c #566211",
"K  c #5C6413",
"L  c #5D6A12",
"P  c #5E611A",
"I  c #5E7111",
"U  c #616D0F",
"Y  c #62740E",
"T  c #657A0F",
"R  c #68790E",
"E  c #616515",
"W  c #636C14",
"Q  c #696D16",
"!  c #63641B",
"~  c #6A661D",
"^  c #656B1A",
"/  c #6A6C1B",
"(  c #716E1D",
")  c #647313",
"_  c #6A7415",
"`  c #667A12",
"'  c #6B7B14",
"]  c #667219",
"[  c #6C731B",
"{  c #6E7A1A",
"}  c #707617",
"|  c #717D17",
" . c #72741C",
".. c #79771F",
"X. c #737B1C",
"o. c #797C1E",
"O. c #5F5921",
"+. c #625620",
"@. c #635A22",
"#. c #656221",
"$. c #6A6523",
"%. c #6D6B22",
"&. c #686428",
"*. c #726C23",
"=. c #776F2A",
"-. c #786D2D",
";. c #6C7321",
":. c #747422",
">. c #787623",
",. c #757A22",
"<. c #7A7B23",
"1. c #7B7629",
"2. c #77782B",
"3. c #7C7B29",
"4. c #7B7433",
"5. c #807D26",
"6. c #827D2B",
"7. c #6D8214",
"8. c #6E8911",
"9. c #6F811B",
"0. c #738316",
"q. c #788617",
"w. c #758B14",
"e. c #75821B",
"r. c #7B831D",
"t. c #768A18",
"y. c #7B8A1C",
"u. c #778122",
"i. c #7C8222",
"p. c #7C8A20",
"a. c #7D8329",
"s. c #80871E",
"d. c #808A1E",
"f. c #82921E",
"g. c #838424",
"h. c #8A8727",
"j. c #848A24",
"k. c #888B26",
"l. c #848329",
"z. c #8B852D",
"x. c #868C2B",
"c. c #8B8C2A",
"v. c #869323",
"b. c #8A9B25",
"n. c #87922A",
"m. c #8D922C",
"M. c #93962D",
"N. c #848631",
"B. c #898334",
"V. c #8D8932",
"C. c #959535",
"Z. c #9A923B",
"A. c #A09740",
/* pixels */
"<.g 0 E p P L ) 0.u Y u % u # P D m S S ' s M [ ) c # 3 Z C c Q y S _ 6 F t.G S y 9 0 G J E - y e y J w K m c [ C ! Q J b G _ _ ",
"X.%.[ b Q m R U 8.A S U 0 c ) m X.J y W 9 @ c m K w 3 7 0 n m E W u H e D G S u G u , C y.- c s g j * [ <.@.M L &.; * b e r p r.",
"V ! K e.G S A 6 Y D y L j b b _ m ) u 6 { u * w s @ C N ^ M i p b M  .y 7.u 7 9 e e u 7 J G < < p / l Z -.z g k M.d h 0 b f ~ 4 ",
"z N g X u 7.L ) D D M i * b P w u % u 8 S L W w % = f 6 M s s l < c ( [ L l S ] m > 0 c ) E q.c p e 0 -.$.B #.^ :.2 g + h P / w ",
"j d O.$.t ) Q ) _ | K * b * % < G w p % y p E M J ^ W p 0 M 4 l n p g 0 c 0 , g s 9 G K 7 u ` J i.E { ! ,.y ! :.@.4 j @./ Z m ! ",
"%.k >.$./ H G e E B.>.l P W s e F D J y 9 u L G T L _ ) m E / z.! E w # + * O * _ p 0 W p y y ` D p ' *. .a V *.! f b / g 3 p B ",
"~ $.*.L K P w E Z g.[ j.w Q ! y S U y y e y S ` { ' e.e./ H M { / E / < l g i f M p 7 M H S t k ) G S e *.W b h s V <.) 3 * 3 V ",
"*.*.* J C c D y [ / 3.[ _ r / p F S G Y p 9 6 H { ' X.1.M E 0 , *./ d n ! K N % C m 0 0 e y e 0 Q P Q } ;.) c j i f E V m 0 u ,.",
"[ B ' F y w ) c g y L c._ } 7 b u y Y p ) A L ) G Y F E 0.E W d.| l.! G p e q C y S L L k s - e.M _ G Q V p a.E _ ) g J * y W  .",
"(  .r.c e % a u > z g $./ / S p G E G _ ' L D J D ) D y W R F L L d.S y g / ] } e 8 V y V L u ) f E V V n ! ,.w G Y y d X.E b / ",
"[ 3.E [ J J b i.V h C l ^ e.' 8 y F D y 7.e.e ` / :.U ! u H p ,.^ i J o 3 V / L w 0 E b s * v u m l @./ n ! 0 w p ) J 0 / i e b ",
",.E W w c K b N M m q b 0 ) w H y _ L y.y ) ' i G ^ ) F J L Q B d n ! m L 0 Q S @ ! p % h * % j 4 d 4 [ Z M d < , q D t u 7.a n ",
"g.) E _ 0 b l J P g p w N i.m ) S S A H y t G W D [ ' y k p m 0 e 0 u - 7 p.l ! p 0 Y 0 0 = X # g z K V V d h + V 4 d 7 i y D E ",
">.F < q 0 e e Q u p w C J L u S ) S p ' w.t 9 Y q.' L X.k i e / K % = 8 - J { m e y a n b y # * j N &.3.C %.5 Z n d # : M < 8 V ",
"V c ' # p e m w & p M i J 0 ! g g T G c ) e w Y Y Y K C [ D q b j # b * 0 J y E w y l G a < O b m v s K c c x < l Z s O   # e m ",
") ` w # # w { m f 0 w / y d ' E 8 - - 8 e y 6 7 S p 7.g #.b D X.4 g 3 ^ 0 7 P L ) < G i - y 0 y b j : K m d ) e Z D w 0 7 0 - l ",
"S  .$.u I V V 7 a J L M Q r b p 7 u 8 w % t - 0 6 w S e.K ! ! ,.E [ q [ g C ] 0 0 | b u u ) ) P J e g b f - d W / W _ w.K y w i ",
"b ' V Q 7 y L ! a n { Q H ' / + b [ p ] w w 0 S m L y u i.P g n V M i V - - K p W _ ^ 7 b w J C G K e.[ m e ' [ Q j.! } | L L ' ",
"m o.J @.W W ! b ~ ! Y i L ( Q / i b D p 6 m G m y 0 w N P / i.,.l B ^ g J 3 { L  ./ y.S / f ) u m L *.%./ E V / M <.: n Q E p E ",
"E i.e.M L u , Q / / u M / / C.b / F S T u D p ) m w y K m $.7 f C ! ^ D y y f y w L ..{ d - c ` ) E q ) E 3.r.[ C.} l.z :.) L p ",
"g G p W ) E Z g.{ s 1.<.:.! ! 7 w V u E / c G b f N f ;.Z *.C s g Z < * c ) 7 J y p K E J 0 0 ;.- b S e Q E ' g.:./ [ x.L [ V O.",
"y F q.Y G { _ :.E p 0 Q Q %.[ @.$.E ] ) i.m M < 7 P P f M.C $.h C l 0 3 %.b * 7 * 0 b u 7 - 7 u ' i H 0.' L _ c.{ [ ^ ,.J / C g ",
"u ) i.r._ ~ ^ l k m n Z [ P X.' / ,.G g.z.r.P / K E l ! } ~ k.=.V d 2 k l u y t X V L u @ = 8 e _ S D F ' m [ M.i.) W f c.9 7 c ",
"M D C z.h.E / M E K 2 l M { | Q G G h.h.:.p W 3.b K M E i ' Q :.~ ! B V E w $ y 6 u M u 0 s J u J y D M e 8 ^ G r.u p K ) b { L ",
"r n X./ c.o.r.b q i < 1.E M L G ` E | N.! % i y.) b K e w < _ m.:.:.n N 0 J e @ 0 L 0 f o - e ;.] X.! Q M - y 6.6.{ e _ M / } ) ",
"| W b :.j.L r.Z B / ~ b y E t.b ) v.<.{ i g n T  .J E ~ E i ' $.~ { _ ( _ m e $ 7 0 = X $ & $ p f g X.m 6 - ' 5.X...} o.X.M E X.",
"E i o. ...V.^ ~ ( ~ Z ` ! e Z Q E g.P X._ %.G _ _ _ ~ X.' y b X.L Q X.0 c 0 6 I 7 - b - w w 7 c / 0 M V y _ u p./ / _ / / / M o.",
"b 1.Z q B l.i q ! V V 0 y  .y b ) { C  . .n D Q ..j./ o.M n r d C  .i # - 6 6 - c 8 < [ ` S J f s d p P L _ } >./ k.X.[ ( Y E / ",
"} ^ p ) V S e w y g.d S ) %.g E Q u  .1./ >.e.} 7.W C ] y.X.Q i d l ] b f 7 7 & # - u I % D ! Z b y b Z L W [ ' X.$._ M } / ,.M ",
"b I b w e ` u 7 y y q 6 w w u w ) ,.X...Z 3.u y y t r.x.3.6.Y i L b [ c & t 7 0 - % b u # q s B _ b 3.8 u  .) 7._ ' _ G j.[ A.K ",
"X.) E u w J ' w u D p - E C - y M :.k.c.Q <.*.Z Q S T J e.:.6.>.V s X - 7 w f c < 0 - y e O 1 b y y e w K [ X.~ ! <.V J ,.e.) L ",
") 6 F ` y ` c L p F a J b b J J ! %.E >...X.3.! e H b.f./ c.,.X.~ X.' F N - w v g :.0 0 M i s  .` e d %.u ^ b W %.M p.[ a.Q K i.",
"H F Y ' u y p 6 m b G b c ^ r.b ~ / 1.X.r.i.M. ._ { m.X.l.L / t...e.;.J K e P u V * b e.b p z.i D w 0 * * s W :.k C W _ 5.y { y ",
"Q u 0 E 0.T } ) S Y S S V } E g.[ / >.d.[ E ' %.i.>.6. .j.' <.l.,.P u.` ` m 3 V c g B z f E 2.>.c V O  .#.a < n @.} s.J i.E g ) ",
"S ' y.X.e.G U F D M / r.F ` ` G i D a p M [ L ) %.5.k.J E [ p | e.- S ` L { J - d + 3 n e e >.%.2.s < m d @ * e M V m P e t E w ",
"p ' ' X.U m ' U G Q p i.[ _ } y.H p ' J J W M X.<.g.g.Q ,.J m | _ 8 - w ) c L p n B d B / a.} V g * 0 s b Z _ { c.M e k e / O b ",
"b W Q Z ^ X.Q A ) M E y L :.' u Y _ G G e K c.Z P E o.E Q p Y p g J b E S ' i * D x q L P E K M 2 O % , 2.m w D  .3 u z } 6.*.<.",
"g.y y 0 / n X.c.Z ..` u b b 8 6 F U D W 7 J [ Z y p y._ t p L _ E P e s.{ ;.E d M < ! M E <./ c r Z P /  .0 w ` ] u e 3 l b V.*.",
"! Q V g k < Q V.) ` ` # w y w S S D L Q e Q { c / p E | u p t E S V L J r.} [ M K u W S n V #.[ V M - ( :.J _ q.) % b f + 2 3. .",
"s g B M b g c ~ m q.J 0 < w b D S S S m g m k > m ,.E 7.Q L ' J y K # T / d W j s / m l e h./  .Q _ _ Q ' y.L L m ^ 7 : > s 0 * ",
"# m z ` q y b S E ) y 0 C G J P ' [ { q.l d s s m J [ W X.L t.e e G p / c.U { i.S e 0 < | W o.X.Q W D D F E p T L F f g 2 b j j ",
"! l V j u b f p D q.G u J y w H L M :.) i.p D >.J b e [ V ' E S w y L c E M *.m.l.z.W _ E V a o.{ { t.| Y i  .W ! K L K :.4.$.E ",
"e %.p | P e 7 %.y y G % i / < G K W X.^ ! ' M e _ t.u t p ' S y 7 J w - q C 3.%.l.M.m X.Q C.5.3.1.X.} | S T a g } L ) ;.o.1.^ u ",
"= $ q ! V J f 0 p J b 0 o O - b L S b p P M u S t M W c e G 7.p p c s - [ d 2 ! ! ) m.<.r.:.1.} E y p E _ Y _ G u o.[ V  .c P M ",
"= e <.D q n D < Q a.` < S . - y 0 Y Y ` m S T 6 S u L X.w _ c c 3 ! * Q 7 f f 4 0 L b %.W <.c.J _ - K _ Q D Y u L f 0 w C V 0 O ",
"p e E i Q J / l b y w 8.o = @ o D ' G u T 9 m u m W p.e.e.E s u M * w f N s m f e = y L P '  .w e  .) D W q.S D p & m 0 0 c &   ",
"< + E E b _ V Q [ ) :.i.= u 9 S e H T T D ' y.8.S S L J :.c c w m p G f d O # b * - I ^ a D Q D  .b E r.E | w L w w c @ d e - l ",
"/ n l D m.$.V / >.{ M u p _ i y 9 G G b H H V L E S u ` Q L # J 7 K p > O + + * V 7 u ;.' G Y P G _ E E G y w y p % 3 - - 0 0 { ",
"V.h Z M b <.&.$.C { M x j G 0 E S p w.p p p b G 8.8 | ) t.y p 6 u p 7 9 A l d b # p p m # G e b.q.S u | D . y p S y 8 p f ) 0 $.",
"k z @.! * 2 6.! V L E W = p w G D 0 i S u w V 7 e < c W - . F e 0 m 8 - P j :.e * - j ` L _ ! / :.<.p X.i.0 m D 9 w = * 7 w J E ",
"< h N ! % @.~ e 0 J s O X X S p y w % w J [ P e m g f $ - # u y p ` { V b , ' m L - ! ^ ] W f ( p ,.[ V.( y ` m - 0 # # 8 = u H ",
"J u g a Z M $.7 ! ,.%.  9 & J ' H 3.! Y o.K < M <.0 d 0 e L e G L p ' ) - d } K S m [ [ K ,.X.K J S e.3.3.d G G y 0 & X @ m G p ",
"Q 7 b P E V l l h k e y g = D p W p ' ' 7.E g d h.p J m P p y 6 D G ,.< - # C $.w S g.J Q _ ' P l.K J ~ a i _ S { ' #   e ! m L ",
"e.' } W / 0 M V ^ 0 A y U m w G w 0 ) p t L K E ,.b f y u Q y 0 <.F i.l l M C / l.<.S %.< y 7.L J 1._ o.[ i.;.e :.S J S m y m ` ",
"} i.X.q.L ^ P J e.v G u D y u Q c ' #.s [ i ! J 4 g - u b W  .l.' p q *.M , 5.X.M.Z.{ w k l.B W } } r.y E 0 g b p { m i.c L D Q ",
"G p.9.J | _ I [ b m H G p m m W ) X.y K b } 3.<.c b N ! b h.L W M J 0 b b Z >.r.[ l.L m b a e { P _ s.7.J e b I u p L J ) E G G ",
"Q E / p 0 P W b 3.F ' G y y % w V b p p 0.E ) K M b L Q m C +.m i M ! %.d d P :.v.Q X.D ) Y ! :.[ $.:.Q G ' ' p M E G F L ) L ` ",
") / 9 } p E 0 M G % p ) $ 6 S ! d w u W J L m :.) L [  .] 7 * g e K x.6.b Q g.{ / j.c.q.D G n  .H - b w G D D b ! E m m L H L 7 ",
"V S i _ e - u C # e w b = u e % - g p G t d C ^ l.L y { b 9 d P M ) ' { ;.L c.m L y.{ ' W L g - e _ S u T ' ! y ) X.L L _ r.} / ",
"e i p i G e J E Y e 0 $ e J y s a * q ' u S T C q b 0 g w p 0 ! w ! p S _ %.^ L u H L F p e ' y i W S Q G g.{ ' ] e _ J G S S q.",
"Q 8 p $ G D [ G D p p - m u 0 0 V g 0.p u = % w w a X O O e w K - 7 e e u I J 3 7 [ ) J H e p y L e L %._ X.G J } S e p D y Y ' ",
"_ 7 e w i 0 a M ` G Q p G 6 y f P 0 p H w 6 % e y 0 . O $ e n.L < J e p u u ` e y b i.L G u e E i ) p p S L D y w c w y ` w 8.' ",
"- T w ' D a L ' E ' | E Y Y t f w Q y y y y e 9 0 & = 6 p e D J 8 P w p G W e H F % S p W G  ...| E } D L L { I w v p e i p u D ",
"- 8 W ] ` W W H F u S D e = y - p y S y u F m [ ' O * s K @ q J c y S w ) i K u G F H - p ' p i <.f.D J G * E J q P p i S G | D "
};
