/* XPM */
static char *out[] = {
/* columns rows colors chars-per-pixel */
"64 64 155 2 ",
"   c gray6",
".  c #141312",
"X  c #191715",
"o  c #1C1A16",
"O  c #1E1C19",
"+  c #211D17",
"@  c #221E19",
"#  c #25211B",
"$  c #2A251E",
"%  c #2E281F",
"&  c #252422",
"*  c #292723",
"=  c #2D2923",
"-  c #2F2C29",
";  c #322B24",
":  c #382F27",
">  c #332E29",
",  c #36312A",
"<  c #3B332B",
"1  c #3F382F",
"2  c #3A3732",
"3  c #3F3A35",
"4  c #41372E",
"5  c #43392F",
"6  c #443C33",
"7  c #493D35",
"8  c #443E39",
"9  c #4B4135",
"0  c #46403A",
"q  c #4C433C",
"w  c #4B4B3E",
"e  c #514437",
"r  c #52473C",
"t  c #54493D",
"y  c #59493D",
"u  c #4E4741",
"i  c #4E4A44",
"p  c #554B42",
"a  c #5B4E43",
"s  c #554E4A",
"d  c #4D5044",
"f  c #5B5046",
"g  c #56524B",
"h  c #5D544C",
"j  c #52584A",
"k  c #5C5B4F",
"l  c #5B5651",
"z  c #5D5954",
"x  c #5F5C58",
"c  c #615346",
"v  c #63564C",
"b  c #64594E",
"n  c #685A4F",
"m  c #635C54",
"M  c #6A5D53",
"N  c #645F58",
"B  c #685D59",
"V  c #6C6156",
"C  c #666059",
"Z  c #6B635B",
"A  c #736357",
"S  c #72655A",
"D  c #74695E",
"F  c #786B5E",
"G  c #686561",
"H  c #6F6A63",
"J  c #746C64",
"K  c #796D62",
"L  c #766F69",
"P  c #786C68",
"I  c #7C7165",
"U  c #7B746B",
"Y  c #7B7771",
"T  c #7E7A74",
"R  c #7C7B79",
"E  c #807366",
"W  c #81766B",
"Q  c #84796E",
"!  c #8A7C6F",
"~  c #847C73",
"^  c #897D72",
"/  c #837E79",
"(  c #8B8175",
")  c #85817D",
"_  c #8C857C",
"`  c #91867B",
"'  c #958A7D",
"]  c #99897A",
"[  c #868481",
"{  c #8B8782",
"}  c #8F8A86",
"|  c #938C84",
" . c #9B8F82",
".. c #948F88",
"X. c #9C9184",
"o. c #969189",
"O. c #9C948B",
"+. c #9A9791",
"@. c #9F9991",
"#. c #A39485",
"$. c #A3968A",
"%. c #A4998D",
"&. c #AB9B8C",
"*. c #A59D93",
"=. c #AA9E92",
"-. c #ABA195",
";. c #A7A19C",
":. c #ABA49A",
">. c #AFA89D",
",. c #B5A696",
"<. c #B8A695",
"1. c #B2A69A",
"2. c #B3AA9D",
"3. c #B9AC9E",
"4. c #ADA7A1",
"5. c #AEA9A1",
"6. c #B4ADA2",
"7. c #BAAEA3",
"8. c #B3AEA9",
"9. c #B7B0A4",
"0. c #BDB2A4",
"q. c #B6B3AB",
"w. c #BCB5AC",
"e. c #BFB8AD",
"r. c #B7B4B2",
"t. c #BDB9B4",
"y. c #C2B5A6",
"u. c #C1B6AA",
"i. c #C4BAAD",
"p. c #C9BCAE",
"a. c #C5BCB2",
"s. c #C9BFB3",
"d. c #C4BFBA",
"f. c #CBC2B5",
"g. c #C7C2BC",
"h. c #CDC5BA",
"j. c #CFC8BB",
"k. c #D1C7BB",
"l. c #D1CABD",
"z. c #CCC7C1",
"x. c #CEC9C2",
"c. c #D4CDC2",
"v. c #D5CFC8",
"b. c #D6D1C6",
"n. c #D7D2C9",
"m. c #D9D5CC",
"M. c #D7D3D1",
"N. c #DBD7D1",
"B. c #DDDAD4",
"V. c #DFDDD9",
"C. c #E0DDD7",
"Z. c #E0DEDA",
"A. c #E2E1DE",
"S. c #E4E3E2",
"D. c #E8E8E9",
/* pixels */
"S s.m.n.l.k.f.m = = = = = ; = % O X # t.A.c.b.N.b.) ) J 2 ; < 4 #.y.<.X.Q Q t : * = = * = t.C.C.Z.A.S.S.S.S.S.A.I , = * * = - m ",
"= K g.c.b.f.r ; = = = = = = $ @ X + o I j.&.Q i * & & * * * * 8 3.n.m.c.c.b.b.c.@.( 6 * h V.B.N.C.A.S.A.A.A.A.A.N.%.= = * < b f.",
"= , Z i.a.4 ; = = = = = % O O O $ % ; 7 3 = * & & & & & # & * 7 0.B.c.l.l.b.m.m.C.A.A.:.w n.N.N.B.Z.A.A.A.A.B.A.B.l.9.= < f h.m.",
"* * < A 7 % @ % = = = % O o O % : n y.f.0 * * & & & & & & & = 6 0.c.c.l.f.c.b.m.Z.Z.A.+.- = U g.b.N.V.A.A.C.B.m.m.l.j.&.v u.c.b.",
"* * = #.a , # ; = = = # o O $ t 2.b.m.B.T = * * & * * = * = = 5 3.b.k.l.j.l.l.n.N.N.B.V * * * * ' j.b.N.N.m.b.b.l.c.h.F 4 0.n.l.",
"* > 2.l.a.p ; ; ; = $ O o # ] k.l.n.B.B.f.= = * * * * = = = = 1 0.B.l.b.k.k.n.b.n.b.0.: = = = = = t f.l.b.j.b.l.k.h.V < % ; f.k.",
", #.c.k.c.a.c , o o O o q h.h.k.m.m.B.B.B.b * * * * * = = = = < y.j.j.k.l.l.m.m.b.l.I = = * = * = = > X.l.A.C.m.p.E ; # # % u a.",
"J m.B.n.c.k.y.a . X @ C n.S.B.n.l.c.B.Z.B.:.> * * = - = = = ; : e.m.l.l.l.l.b.b.b.j.3 = * & & * = = = = Z A.A.A.L : = ; % ; ; h ",
"Z.A.A.m.b.j.m.B.h # ~ A.N.B.B.C.j.n.B.C.m.N.0 & = , t ( ( #.3.e.O O % h F ( u.n.l.' ; = * * & * = = = % # 0 s.U X X % = = = = ; ",
"S.S.B.B.b.b.C.A.s.t A.N.k.n.j.f.l.N.B.B.N.C.` j | f.m.n.c.l.n.S.X   o % ; ; ; w Q t = = = * = = % $ $ # X X 7 # X o % ; = = = = ",
"S.A.Z.B.m.l.A.A.u X L c.A.n.f.f.l.N.N.n.x.U < :.N.n.b.b.b.j.N.D..     $ = % = = < 3.K ; = = = ; % + @ : @ p C.| # O # = = = = * ",
"S.S.A.A.B.b.b.U # X O L l.A.l.f.m.B.n.K ; = * L m.n.b.n.n.l.b.n.X X O $ ; ; % % F j.N.e.V < ; % + # # : g v.m.A.D o O # $ = = = ",
"S.S.A.A.N.l.&.; % # % < W N.f.l.m.w.t ; % = = = b.n.n.n.l.b.m.b.% ; = = = = = > 1.j.n.B.m.' < % % # # m h.C.j.m.B.g O o @ * = = ",
"S.S.S.B.b.i.; % ; # # # # I j.c.&.= = = = % ; = o.N.b.l.j.b.n.N.= = * = = ; = 9 l.l.m.N.m.m.i.y = o s m.A.n.c.N.S.g.$ + o # = = ",
"A.A.Z.N.l.f ; = % $ + # # O Z ( ; = = = $ o o $ 9 j.l.k.j.N.m.M.* & = = = = = O.b.b.m.m.B.b.l.l.g h l.f.l.f.f.B.B.j.X.% O o % = ",
"A.B.B.b.$.= = = = % $ + % * f B % % = = $ X o $ = $.n.B.j.n.N.B.= * * * = * 3 j.N.l.j.l.l.l.b.A.P I c.c.j.j.f.C.n.l.j.b $ # O % ",
"B.N.N.h.> = = * * = = ; = y j.A.b = = = % # % # $ V i.{ L < , - h.u.@.} k = T b.N.m.l.N.m.m.b.W % % #.n.m.c.l.h.c.n.l.0.; $ o o ",
"Z.B.m.U * = * & * * = = ; f.l.n.l.C = ; % O + ; : F : % = = & & S.A.A.S.A.h.z 5.l.m.B.C.C.B.T = = = > >.B.m.m.n.c.m.b.b.V ; o X ",
"g.V.m.= * * = & * * = ; ' m.l.l.m.C.x ; # . X C f.n.Z = = * & O S.S.V.Z.A.o.& * J j.m.B.C.U = = = = = p c.N.B.N.B.B.B.m.y.; X # ",
", B j - * * = * * = = Z m.m.B.l.m.Z.Z.k # # ;.l.b.n.t.& = * & & A.S.B.B.V.3 * * = t >.b.U = ; = ; ; = = K m.B.V.V.B.B.B.f.y J w.",
"* &  .+.m ; = = = = > e.B.N.N.l.N.Z.B.b.k g.Z.l.b.b.B.w * & # * S.A.V.B.4.* * * = = = Z # # = = # % = = : h.N.m.B.B.h.~ 7 < k.B.",
"= 1 S.A.N.3.S , = = S m.n.m.m.j.b.N.n.i.: U b.n.l.j.m.) & & * = B.V.Z.V.J * * * * = C j.; . o $ X . ; = = J V.B.6.M , * * = $.b.",
"= W A.Z.m.b.c.a.' 9 0.l.l.l.b.j.b.n.j.t = = J b.f.b.j.b.- & * = B.V.Z.x.= = * * * k j.A.q.o O % o X ; = * 2 _ 7 , = = * & = U n.",
"= @.Z.Z.B.n.b.b.j.( 5 I 9.l.l.N.N.j.T = = = * H b.n.b.b.T * * = V.N.N.[ * = * * m b.x.b.l.S % # $ $ = = J *.Z * * * * * & & 3 N.",
": l.N.m.n.b.m.b.b.w % ; , f o.b.j.w.= * * * * * L x.n.b.' ( %.e., > H q * * * N c.f.b.c.b.j.6 % = 9 ..x.m.N.X.= * * * * * & & t.",
"r b.m.b.l.n.m.b.i.: ; % ; = % q ) C * * * * * = * Y h.D > -.n.n.= = g M.U , C c.n.b.l.b.m.n.Q m X.j.m.m.n.n.c.1 * * * * & & & [ ",
"W n.b.c.l.j.l.l.( % = % = = = = , e.T , * * = * * > t * = i b.b.= = 8.D.m.M h.c.n.l.m.B.g.J < y.m.k.c.n.c.b.n.b - = * * & & & Y ",
"! l.c.f.j.l.l.b.F ; = ; = = = * s A.A.V.;.G * & $ J N.b $ = 2.n.$ > S.B.Q = B c.c.n.[ i # = % ) B.j.c.b.n.b.m.` = = * = & & & z ",
"X.b.j.l.l.b.j.j.h % % $ = = = * } S.A.B.B.V.t.) 0 n.D.N.C = T m.$ [ Z.^ % = ; ] R , * & = = = Z c.l.j.l.n.b.l.' = % = * & & & & ",
"<.n.c.c.j.j.j.l.% o . o = = * * @.Z.B.B.Z.A.A.m.H z t.S.Z.Z # n.O B._ = ; 8 *._ * & & & * = * = b.N.b.b.c.k.l.#.= ; = = & & & < ",
"0.n.B.b.b.B.k.m.#     X = = * * 0.A.S.S.S.V.V.m.< = = 0 ) Z.G R J +.# ~ :.b.n.1.* = & & & & & , N.n.n.m.c.m.n.f.; = = = * * * > ",
"&.i.h.f.i.i.f.j.X     X = = * * x.S.S.S.S.B.V.V., = * = $ @ ) C ) R m.m.n.n.n.h.= = = * & O & * N.N.n.b.N.D.S.j.: < 5 5 6 7 7 < ",
"< < 1 5 5 5 4 < 9.M.N.j.j.b.n.N.- & @ & * = = = i.m.b.b.m.n.) z Z Y O $ * = = = V.B.B.A.S.S.S.B.- * = = o . . X e.0.3.3.0.0.2.,.",
"< = * * = = % = 7.n.N.b.m.m.m.N., & & & & * * = =.n.b.i.T * i / T G V.) < = = , m.V.V.S.S.A.A.g.* * = * X     o n.j.B.b.b.N.b.j.",
": & & & = % = = #.l.j.l.b.b.B.n.2 = * * & & * * _ 5.h = = h B.O N.# Z V.D.r.z Z m.Z.A.A.V.V.V.>.* = = = + . X : l.j.l.j.l.b.n.0.",
"2 * & * * = * = _ l.b.n.l.f.l.j.J = * * & & = L Q ; = $ k B.[ $ m.T ; V N.S.A.q [ z.V.B.B.V.S.} * = = = $ $ % 5 l.l.b.l.j.j.b.&.",
"J & & & * = = = _ n.b.n.b.l.j.N.) $ = * 0 ) l.b.b.C ; f B.S.d = b.9.; * b N.( & * * J 5.A.A.A.Z * = = = = % = A l.l.l.j.f.l.l.( ",
"/ & & & * = = - a n.b.b.n.b.l.n.a.: g 5.B.n.c.c.b.h.a m.S.g.* = b.b.s = = b : * * * * & , { g.> * = ; = = ; % ( l.l.l.l.b.b.n.( ",
") & & & * * = = < f.b.n.m.m.l.>.S W m.n.b.c.c.n.c.~ , U B.z = * m.n.:.; k f.U * * = * * * * g ~ 0 = = * % % = ,.b.m.b.l.b.m.n.c ",
"v.& & & * * = * * X.m.m.N.o.f : % 4 f.b.b.l.k.l.T = = & q G , = c.3._ Q c.n.x.L = * * * * * =.l.c.O.r : ; = w b.l.m.b.b.m.m.n.< ",
"N.8 & & * = * * & C q.L , = # $ $ = V c.l.N.c.Q = * * & R N.m.V.= * * U b.b.b.l.J * * = = k c.N.N.c.l.2.K 5 U c.b.m.n.N.C.Z.2.= ",
"n.Q * & * = * * 8 ( , * = ; o O $ O o >.A.n.U * = * = * t.A.V.Z.= = & = c.c.c.j.c.J = = 9 f.m.N.j.c.b.j.j.i.9  .j.l.b.m.C.A.) * ",
"c.O.= * = > a %.N.B.U = = = X X # o . = h.~ = * * * * x V.A.V.B.= & & & ) m.c.l.n.c.U = -.m.N.l.l.n.m.n.N.~ = = 4 I 3.N.A.A.6 = ",
"V.l.< 8 U w.B.B.m.B.x.; ; % # $ % ; + # f = = = * * & -.B.Z.A.S.* & & * q B.b.c.c.A.g.b l.B.A.N.b.m.N.N.i.; = = % = : V +.q.* * ",
"g.( e p.B.B.B.Z.B.B.m.F % = = % ; = = g c.>.w ; * * = B.B.V.S.S.& & * * * r.m.b.c.9.: # m B.A.m.b.m.n.N.V = = * * = = * , w m = ",
"# X ; y.N.B.N.B.B.B.N.b.y = ; = = = g V.B.m.f.Z & * T A.A.B.A.S.O & = = = l n.j.J o . + = x B.m.j.b.n.O., = * * & = = * - b.A.t.",
"o o = V c.n.n.n.n.N.N.N.5.; = ; = g C.Z.Z.B.n.l.:.z i.A.S.A.Z.S.& * * = $ , ( 7 = O o ; = = C b.b.l.f.5 = = = & * = * * T N.B.V.",
"o o % ; 7.c.n.l.j.k.b.N.N.#.= % s l.m.m.m.c.n.N.l._ ; C } >.g.Z.* , = Z / u.S % # % # % = = = m A.l.f % = = = * * = = = e.N.N.B.",
"= + + = h k.k.n.C.f.j.j.l.l.( c C.b.j.b.l.l.j.N.n.9 = * * * * = n.N.n.l.B.n.-.> # o X # = ; = $ M k % $ # % $ = = = = U b.N.B.A.",
"; $ o O $  .f.N.C.l.k.b.p.f.J v h.l.b.m.m.m.b.b.X.% = = = = & * m.n.B.l.k.k.l.w $ o X $ = = = % I M o # # + # = = = t f.m.A.A.A.",
"; = + o O $ h.S.N.n.n.C.B.~ O * y f.n.m.m.m.l.l.k = = = = = = = b.n.b.j.l.b.m.O.= ; ; % = = , X.c.k.L # # # % ; = : 2.b.A.A.A.A.",
"= = = O X o s B.m.l.C.m.~ @ # % % 1 X.m.B.n.l.3.< ; = = = = = = j.N.b.l.b.n.m.n.> = = ; % t :.m.c.f.m.U , % $ * ; ` l.N.A.A.A.S.",
"= = = % @ o o J Z.N.c.~ < % @ @ ; = , V i.N.l.U % % = = $ # o X j.c.c.n.n.b.b.m.K * = , J k.B.N.j.c.A.b.F # X # h l.b.N.C.S.A.S.",
"* = = = ; $ o + ' Z./ @ = @ + % = = = = = I f.0 ; = % ; $ .     N.N.j.c.b.b.b.N.6.< C h.m.N.N.l.j.h.n.C.c.J X 8 Z.A.j.m.B.A.A.S.",
"= * = = = % o o @ f O X # % # % = * * = % = 9 I w = % = % X     m.n.l.c.n.n.b.O.J _ V.N.B.B.N.k.k.k.n.j.m.Z.p a.A.C.b.b.N.B.A.D.",
"; = = = = % o   7 a.7 @ $ ; ; = * * * = = = ' l.n.3.( A 9 ; # . d.f.$. ._ b 5 * * 3 N.N.B.N.m.k.B.B.B.n.Z.O.# h V.N.j.b.N.Z.A.Z.",
"h ; ; % = = > 9 M.S.A.m ; = = = * & & * * , f.b.b.b.l.l.l.k.b.h., ; = = = = = * * * -.B.Z.B.b.k.n.m.S.B.K # X X s i.k.l.m.B.B.( ",
"a.q ; # # ; 9 y.m.Z.A.c. .: = = = * * - = V l.n.m.N.l.l.k.f.h.f.4 ; ; = = = * * * * g B.B.B.n.n.j.j.x.h o O X o : f i.b.k.l.-.= ",
"k.f.; % : 9 i.j.k.c.c.c.c.0.y = * = = = , ,.b.n.b.n.j.j.b.k.B.u.4 ; % = = * * * * * = a.B.B.n.c.j.%.; o O $ # = % ; y f.l.0.; * ",
"k.b.e.6 e i.n.l.c.v.m.B.N.b.h.^ = * * * p N.N.N.b.l.l.l.l.j.n.i.4 ; = * = * = * * * = ~ B.m.c.y.V ; O X # = ; = ; # : f &.< * * ",
"n.l.f.A &.j.j.n.N.N.B.Z.Z.Z.N.b.g.U ; = o.Z.Z.B.m.b.l.j.k.c.b.s.4 * & & * & & & & & * 0 f.i.A ; $ O o O * = = = ; # ; < M < * = ",
"m.c.D : > 9.l.B.Z.V.Z.S.A.A.Z.N.N.N.n.d ;.S.S.V.N.m.m.l.k.c.B.h.4 * & & & & & & & = = = y % = % # o @ $ = = = = % = % :.i.V , = ",
"g.U ; * = = %.N.A.A.A.S.A.A.Z.C.N.B.Z.C & 0 ( -.m.b.b.l.c.b.b.a.< * & & & * & O , U %.l.^ X O o O $ = = = = = = ; q s.n.c.g.J = ",
"J = = * * = > U Z.S.A.D.S.S.A.Z.Z.Z.h.- $ = % % 4 c ( ( &.y.h.3.> > 2 * x L } r.N.b.c.B.f.# X o % = ; = = = = ; c a.l.l.b.m.s.D "
};
