/* XPM */
static char *out[] = {
/* columns rows colors chars-per-pixel */
"64 64 79 1 ",
"  c #1E1D1B",
". c #201F1E",
"X c #21211F",
"o c #252423",
"O c #282725",
"+ c #2A2827",
"@ c #2D2C2A",
"# c #302F2D",
"$ c #32312F",
"% c #353432",
"& c #383735",
"* c #3A3937",
"= c #3D3C3A",
"- c #403F3D",
"; c #42403E",
": c #454341",
"> c #494745",
", c #4A4946",
"< c #4D4C4A",
"1 c #504F4C",
"2 c #52504F",
"3 c #555452",
"4 c #585654",
"5 c #5A5957",
"6 c #5D5D5B",
"7 c #605F5E",
"8 c #62615F",
"9 c #656463",
"0 c #6A6867",
"q c #6D6D6B",
"w c #71706F",
"e c #757473",
"r c #787776",
"t c #797877",
"y c #7C7B7A",
"u c #81807F",
"i c #858482",
"p c #888785",
"a c #8A8887",
"s c #8D8C8A",
"d c #908F8E",
"f c #91908F",
"g c #949492",
"h c #989795",
"j c #999897",
"k c #9C9C9A",
"l c #A2A19F",
"z c #A5A4A3",
"x c #A8A7A5",
"c c #AAA9A6",
"v c #ADACAB",
"b c #B0AFAE",
"n c #B1B0AF",
"m c #B4B4B3",
"M c #BBB9B7",
"N c #BDBCBB",
"B c #C1C0BE",
"V c #C6C5C4",
"C c #C8C7C6",
"Z c #C9C8C7",
"A c #CBCAC9",
"S c #D1CFCC",
"D c #D2D0CE",
"F c #D5D4D3",
"G c #D9D6D3",
"H c #DAD9D6",
"J c #DEDCDB",
"K c #E1DFDC",
"L c #E2E1DE",
"P c #E5E4E2",
"I c #E8E7E5",
"U c #EAE9E6",
"Y c #EDECEA",
"T c #F0EFED",
"R c #F2F1EE",
"E c #F5F4F3",
"W c #F8F7F5",
"Q c #F9F8F7",
"! c #FEFEFE",
/* pixels */
"N!W!!!!8oOooo+o+o++Q!!!!RggrOO%@Q!YWngy+o++ooU!!Y!!E!!!!Bo+$Oo@A",
"+mTQ!E8@oOoOO@+@o onTAgo%&&*@$=@!!!U!!!QTf4@uR!EP!!!QW!!!Ao=%oA!",
"ooNQV&@XoooO@@OO+%@AoXOooOo@O$@oQL!W!!!!Q!!Rr!!QQW!!!P!!!!G:OAYW",
"o&os+@oOooOO@@@#og!!: oo oo%OoO$WJ!!!!!!RJQZ*@h!!J!!!!!!!!!Ek!!!",
"%*3!qoXO+@oo@<%fQ!!!s XOOo@+@o#=E!!W!E!!!!!w*+@+l!!E!!W!!!!6%F!!",
"O%E!!qoooo@@%qm!!!YGQooOoO@@@OO$Y!!U!!Q!!!Q+#$#$@6HRE!E!!!5X@<!!",
"oZ!!W!wo+&%%q!!WQ!E!!aX@@@@O@O@+U!!Q!E!!ILf&#&$*&:;DQ!E!!5o.O@8!",
"Z!!!Q!!e@&&Z!!!QQ!!!!Do@&&%@O@@@!!!Q!!!W!R$=$#,2,=:$q!U!6ooOOo+e",
"!!!!!!!!y%A!Q!!!!!E!!!6&&%hgJ!!E&@=9ddQ!!mo+&$=$@$@$@7E8@Oo@oooo",
"!!!!WQELEs!!ER!E!QE!!!vhKG!!!W!!O@@O%*$6gq=%;###@%$+@+s%&&o@o.Oo",
"!EP!!Q!!7Ob!!MQ!REQ!Ky+W!U!!!!!!:@O@+o%%3!k<#&++&$@$+Z!A%#@OOooo",
"!!!!!!!6@O+M!U!W!!Jj&@@aP!!W!!EU=*@%OO*@jW!!k#OO@$@:F!!!M%@OOoOo",
"T!!!!QV$@+@;m!!EGA6@&+@=!!RW!!!!O*o@@O&%T!!!!A3O+$$A!!EQ!6&@O@+O",
"!!!Q!Z;;+$%@%g!!A$O@&%@:A!!J!!!!OOooOoOaW!!!!UH6O&k!PVR!!!9<+@++",
"!!!G!6;-$$$&$&vb@&@@O@@@<!!!!!!Q@OOooOOA!EQQV!!Q6V!!!!!!!!M&@O+o",
"UAW!g+&1#@&@O+erO%oooXoO+UW!!!!QoOoo+o6UQ!!!!QE!6B!!W!!!!E!r%o++",
"!QW!@@&<&#@Oo6WQt%XOOO$&ohIgg*%.!!UipOvQ!!Q!QW!6+@ZT!E!!W!!!o+oo",
"!!!h+@&,&$+O5H!Q!q@@$==&9no&@@@o!!!I!QiL!!Q!!Q5$$&@H!Q!!!!!!d#XO",
"PE!@+&&+%$&@FT!QQ!s$%@@xW!p%%ooo!!!!!g@@s!!W!roXo#O9P!QW!YE!!OO%",
"Oe6*&$$&&=%k!!B!!!!a@9G!!!A*@& +U!Q!P*#@@9CEw&@oo+%+k!!!!!S!!CmW",
"o@!Aa+&&O&6!!!!!!!!Eh!EEQWQ6+$$oU!QQA+@:@&$h#%@ooo=&&R!!!!Td&=W!",
"+5!Q!!g:o:x!!!Q!WE!c%n!Q!!QsO@=&!QQ!<@;*@@A!5@>oX+=+@f!!ZyOo oZ!",
"+g!J!!GYCe!E!!E!!!!3%@bQQYQW#oo+QY!E@*OO&A!YA@=#oo$+@+z4oo..oOg!",
"OUEU!!U!!h=jEQ!!!!y@@@&nE!!!g+@oQW!s@@ooC!!W!g&#o$;,aQg&@@O.oO=!",
"+W!!!!!E!3&@&qNU!G@@:*@ox!!QmgQ!O g6.@OV!!QU!!<O+,A!PQC**@oO o#R",
"y!!!!!!!R@*&&oO,gr@$@-@o@vQ9#ARE Oq!mOZ!!PWE!!kgW!!Q!UZ#*#ooo+=v",
"g!!!E!W!s=o++.oo+!j3+@&@Oog@O6!!OoZ!!a!!!!QWCiOTT!WR!!!y%+@@Oo%g",
"n!!!!!!!g$@O#+o@g!!YC0@+oV!rooIE$<E!6@yQQ!r3-$$b!!L!Q!!h@@@+%@&g",
"QEYQWQ!!6O@@@OoouUQ!!!!g0!!!rOd!@kQ6oO@Vh@OO@%&g!!!!!!!b+@++oO+;",
"U!!!!!!!*@@&OO@.E!QQY!!!d3AERe+Q$!6OoqAd@o@@&++3!!!!!!WW@@+oO@@+",
"!!JL!!!!@O@**++o!!!!!YEQ o.$kRyls8@iU!YP@O=@ o@$Q!!!EQ!!$@+@o@;*",
"Q!QQTUJ!=O:=Oo#o!!!YWWWQooO%@&wytnR!Q!T!OO&ooooX!Q!!I!!E@++*@X@+",
"+@o@;@++E!!T!!QTooO@o&oo!H!Q!Eadya$@@+.oEQ!PQ!!!o@OO:=O&!LIEQ!!W",
"$-+O@+@+!!!Q!!!!@@O @=oOR!!Fg+nqdy!k;X+*WWQ!!!!!o@o*&Oo@!!!!HL!!",
"@$%ooO@@!E!!!!!!:@O%@$O@dv6oonR%Y@tERZ7d!R!WQQ!Ao+oo%o@,!!!!!!!Y",
"O@o++@@OS!!!!!!!g%%@@O%hF@+.vTk@!d+e!!!=d!!!Q!YyOOO#&@OpRQJR!EPP",
"r&@%O$+@h!!QEK!!k%#*6nQQYq+v!To@ELooe!jo@@9ZE!!qOo@@OO@gQ!!!!!!j",
"h&oo@++$hQ!!YQ!EY+hP!!Y!!!g!!N.O!!6O+d+@#&@@=gQ+OooO+@-k!Q!E!!!h",
"s&ooOo@&&DE!Q!!Aac!Q!!Y!!uov!3OoH!N@a!moo@:@@@gk5OO**%$!!!!!!!!0",
"R@oX+o#&&F!J!m=@o5W!Q!QEwo+o9d&O!LdYE!!loO*:@@Q!EAy$@&9!Q!!!!!Y+",
"!ooooO@@%gUs&:@O%*j!Q!Qyoo@@s!Q!oO@g!!!!v%@@@g!!!!!Yh3j!ER!!R!Zo",
"!hoo Xoo6A+#O@+o%=@V!!t%O$&@!!QQooo@!UI!!v@*9!!!!Y!!W!qVRL!!J!sO",
"!Ao .OsY!!p@+&OXO:+5!y@@&-@r!!R!&&$Oz!!W!!m=I!WQ!!!!!g-o-f!!Q!1@",
"!Y@6z!!!!!E&&&Oo+#&%h%*@:@OZ!U!PO@@@6Q!TQQRsQQ!!!!!!!>$+*$+rZG@o",
"QgV!!A!!!!!j+$@oo+%vQA9@%@3EQQ!EO.%#-J!!!A:&i!W!!C!!d@:%%@%&%qyO",
"Oo@!!RE!ET!L0O@oo+N!!!!g@@x!QE!!oOO&$j!!g@+&%dWW!!YZ@&@##%$@@!QP",
"@ %g!!!!!!R!F$&%#lQW!Q!!Ys!!Q!!!o@@*%oj-*=,@+oe!!!H=OO#*<##@g!!!",
"Oo@oQ!!E!!T!FA@Ov!Q!!Q!!!g+eeG!!o@7gMTgO@@OOoo@rQW6oO@#&3%@@!!W!",
"O@O%i!WQ!!!TY!ZvQ!Q!!!!!R=O+OXOoEQ!!!UJ+OoXooo%@r6O@$%@@,&@N!WKY",
"oOo@%M!!!!WQ!!y6E!!A!QW!B@Ooo+@#Q!!!!!!=@O+O+@&@Vx&$$#&$;;6!JW!!",
"+@@@,9!!!YbE!y%O6HR!!!!!7Oo@+o+X!!!!PR!m;$-=&o@A!!f#@%#@;;R!!!!!",
"OO@+@%6!QW!!y$%+o2Z!!!!U%&o#@O*O!!!!WU!!&O+&+9YTW!!n:$+$$FRQ!!!R",
"O+oOo@&M!!!s:#%@o+#j!!Yh@&+o&$=;YQ!!!!!Ls#@&xT!!RWT!NO@@gEW!!!Y!",
"oooOo@$&A!y+#$$&#+&$<g!-&&+@@++;!!!!!!Y!WOdQ!!QYQ!M!!n+6!!W!!L!!",
"oooo@o&&%s+++$&@$$#;&=ug9$=@O@o+!!W!!!BZsN!!!E!!!!RE!!fRYEEQ!!!!",
"oooo@oO@vE7+$@$@&*$%OoC!!Qkhu;+=Q!Wcjy$&&6!!!R!!!!!W!A&r!!!!!!!!",
"q@XOOoox!J!q$;;131@**3TWW!!QQ!!!@@@+@%=&@OL!!!!E!!!!d%%@e!!!!!!z",
"!7@oool!!E!QF:;&&@&@$gHE!!!!!!!H+#@#++#$@od!!R!!Q!!6%#%Ooq!!!!CO",
"!!2@ k!!!!TQRF6@+@%#+!!Q!!!!R!!POOO+@+ooOX+ESW!Q!N:&@+OOOOq!!AO@",
"!!F&k!!!!!!!!!!b@@@*f!!!Q!W!T!!U&@o++@ooX.og!!!!q*,@Oo@OO.oqG@=@",
"!QQsR!!!!!!!!WJ!!h@&GWDU!!!!Q!G!@ooO%oXXoo 2!!do*@@O+OooOO+:z+$o",
"WPsO:F!!!!U!!!!W!!!6I!!Q!!W!Y!K!o@@O@oOoooo,A@#+oo@@oo.oo$6Y!mOo",
"!pO$*oA!!!QW!!!AQ!!q@2gZY!!!U!!!+=@O&%=#=gFRkO o@O@OOoOo+6!!!Im#",
"h@oo%OOM!!!!U!!T!!Loo@oo@9ggPR!!+&@;ghxE!!!!WO@oOoOOoooOp!!!!E!B"
};
