/* XPM */
static char *out[] = {
/* columns rows colors chars-per-pixel */
"64 64 77 1 ",
"  c #545456",
". c #575859",
"X c #5B5C5E",
"o c #605F5E",
"O c #63615E",
"+ c #5D5E61",
"@ c #5F6063",
"# c #626365",
"$ c #686764",
"% c #6B6A65",
"& c #646669",
"* c #67686C",
"= c #6C6C6A",
"- c #716E66",
"; c #716F6A",
": c #757166",
"> c #7B7563",
", c #74726B",
"< c #79766C",
"1 c #7D796D",
"2 c #6C6E71",
"3 c #6F7072",
"4 c #747471",
"5 c #797771",
"6 c #7C7A72",
"7 c #837B66",
"8 c #837D6D",
"9 c #817E73",
"0 c #8E8467",
"q c #8B836C",
"w c #908565",
"e c #90876D",
"r c #958B6E",
"t c #9A8E6D",
"y c #9E916C",
"u c #868174",
"i c #8A8473",
"p c #8E8876",
"a c #878479",
"s c #8C8778",
"d c #8E897C",
"f c #948C73",
"g c #998E71",
"h c #958E7A",
"j c #9C9274",
"k c #9C937A",
"l c #A29674",
"z c #A69975",
"x c #A99C76",
"c c #A1977A",
"v c #A59A7B",
"b c #A99E7A",
"n c #AFA176",
"m c #ADA17D",
"M c #B4A475",
"N c #BAA772",
"B c #BEAC75",
"V c #B4A57A",
"C c #B7A87C",
"Z c #BCAC7C",
"A c #C0AE77",
"S c #C1AF79",
"D c #C3B27C",
"F c #9C9581",
"G c #A39A82",
"H c #AEA381",
"J c #B2A681",
"K c #B6A981",
"L c #BBAD82",
"P c #B5AB88",
"I c #BEB185",
"U c #BDB18A",
"Y c #C6B582",
"T c #C8B784",
"R c #C9B986",
"E c #C7B88A",
"W c #CABA89",
/* pixels */
"XXXX@+$qYDADBAADYYj:@X++X+XX@+@+XX@XXXXXXX++9vDDDDDDSSAMg$++XXXX",
"XXXX+4jYTBAYDADDDDZu+X++XXXX@@@@@&@XX++XXX+#FCDTDWDDDSSBZg,#XXXX",
"XXX+6nTYZDDDDADDYDDrO+**XXXX+X@+@@@@+++XXX+4cSBZDAYWWDTDSNt4+XXX",
"XX+aLTTDADSDDDDABYYn:@*@+XXX@@@@@@X+@@@@&++dLSDDDSADYYDYYAZz6XXX",
"++9xDBYDDDSDADAADBDD7@@+XXX+X@@@@@X@+++@+X#cDADYDSDDYYSABYDDV5++",
"+5lBYYSYDDYDSSADDDDDz%@@@@+@@+&@@X+++X@+X+6xDDSADADYDYADDDTBEl;+",
"%fBSTDDDWWDYDAADDDZWWp1=@@@+X+&@@X@XXX++:6hDADBBDSYYDDYTDDDTDYg%",
"fNSYBSDYYDSBASDDDDBYmOX,:,+@*35165=#@#<,-.=mDADADADYDYDDYDYDDYLf",
"NBDTADTDDBASDASDYDDD>@XX+%p0mmyzylmvjf#X#@#uWDDDBDDRYDDDYWDDSATC",
"BSTDSAYDSAASDDDTYDBmOXXX@=wYTBDDZBDDDk=XXXX=bDADDDDRDDBBYWDDDDAD",
"ZADTTDYSSSTDYSYSDSS>X@@@=8DZBBDDAADYBDi@+XX+gDYABBBDBYBBDDYDADAA",
"ADWDTDDSRDABAYADDYIu%@@X;nDBWYDDDDZDWNV,###,iLDDDBDANDDDBDDDDDYA",
"YDWDDDRTWTSAASSSYH%X%<6<gYDDDDRYDDDDDBBi<11%X,PDAABABYDDDDDADDTB",
"SSDAYSYDDAASAABDj%*++X+%kDDYBSDWYDDDBBNj.++X+X%jDDDDYDDAAASADAAA",
"DRASSSSADSAAASDfX$@XXXX+1WBBYDDDDBBBBDD:XX#XXXXokDNDBYDADDDADDDB",
"YDYDDDSYSSADSDg.X++XXX+@$zDDBBYDYDADYDv+X#+X+##XOrDDDDYDDADAADDA",
"DRZDDBBDAADDDjX++++++X+++qZBDWBDADDDDD<#+@&+#X+@+$jDDZTTDSDDADDD",
"DDBDYDBDDATAV%+#+++++++X+%MDZBBSDSDAZC%X+@@+@++XX#=UYDDSDDDSTDDD",
"cCZSBAYADDDZ-XX+X++++@+#X+zDSBDDBAADAf+&+#++#+X+@#&,LBBDADDARZZl",
"9kcKSDADRbiuX+++#@#++#+#+@9ZYRYYDAADB%+X++++++++X+X.u7mDYRDDnqu:",
"#+;akbSH9$X5-XXX++++&+++&@@JDDDDDSADlX##+X@#+++XXX+;#.O>mWl1%OXX",
"+#++#<h%#XX#<++@*#@+#+++@@+aZBTDTDDC,X#+++++#++XXXX1@@X+$p%@#XX@",
"+XX+X+< @XX#1XX#++#@X+++++@3$MYDZBY4#+@X@@++++#+XXX1@X+Xo6@X**X@",
"XX+@XX;,@XX#1.XX+++++X++++X3+:ZxKY%+X++X++++&@XX#@%5++XX<%@X@*XX",
"XX++#++>+X#,fg:##X&+@@XXX@@#@XiO%i#&%++X+++*++X+%<bf%%++1@++XXXX",
"X++@#+X6#4fVANYb9=#@@@@X@X%c%X$X+-+%k%++++@+++:icWYYn1==,@+XX+++",
"+++@+X+#hcDNBBSDSCg,@X++@;jIM$#X@<=ZBk$#+++@9zVDDABDDDwf#+X+XXXX",
"+++@+XX+jDSWDASDYBBNz<=*&kBDBn:X+<ZDDZk#42hKZDDDDATDBDD>@+@+XX+X",
"+++++++&vYTDASADDSDDDZ,X#=CDDDe++gDDSM%@X$ZDTADAADBYYBYc*+@+XX++",
"+++++++2bDSADDBSDDADBDL;#@%ZDDZX+DDDV$++1MAYTBBRBDSDYDSz2++@+X@+",
"+&+++++5lASADDBSYDASDDNYiO%,fDDqqYZr-#$iTYYDDDNAYDDRDSSv2**@&@@@",
"+@++#@+5tADDDYDTADBDYYDV=XXX@X8qr<+XX+X-IDDDDYADDYTYDDDm4+@+@+@+",
"@@X@@#@6ySRDYWDDDBDYZDDmO+XXX+qrrq+++@X,YDTDDBDADDYDDBDz4X@@@+@X",
"@@@@@*&<lSDDYDDDBBDYDWYZq-,<rDD8qDDg6,;iTBDDDADDDSDYBDBz2XX+@@&X",
"@@X@@++2nZDDDDDBWBBWDBM%++%nDDZ+@DDDM=@@=LDASSDDAADDDADm#X@X++@@",
"+@XX+@+*mYBRYBDDBDDDDC%@+$NDDDe+XfDDDC=#X4ZDDDDDDZSADYYv#XX@@@XX",
"XXXX+@+@0ZDBDDBDDDDBV5**OkDYZI,XX<nDDZg$+@<xBSSDDABDRBZh@XX+@+XX",
"XXXXXXX@p0YDDDDDDnk6@+@@@%gBZ=$+X,%MDk%+++XX=gCDDABNBYjp@XX@@@+X",
"+X+XX@@,$%1nYDWl6%@@@@++@@=f%@O+X:X$h%@@+#+#X##9xYBBna%$5X@@@++X",
"XXXXX@@:@+==hk,@+XX@&@+++@@@@&p<%sX@$@XXX+@@X#+@#-ji,+++1++@@XXX",
"XX*@@@%,XX+X,$+@+X@@+++X+++*+1RDIT:X*+++X#++++++XXo5#++#%=XX*XXX",
"@X**@@6@XX@@1+XX@@@@XX@@+@X%;IBDDDM%&+++++++@@@+#XX9+X++.1XX@XXX",
"+XX@@:pOO++#<XXXXX@@X@XX@++1CDDWDRAC9+@#XX+#++#*##+<#X+#:k6#+@@+",
"+@X>qzRm1O.,%XXXX+X+@@X@@++zDBBDDDYYH+#&+X+#+++@XX+-;+-8JDvkd,@@",
":ujZBDRYDmp1X@XX@X@@@@@@+@:BDDDYDYRYS6+#&+#++#+#X++XihbRADBDLkG9",
"lZDRZDDBDBBI%*@XXX@@@@@@&+jBDDBBDDBDDkXX+++X++++#XX<YDDDADDADZCv",
"YDTYBDDDDDBTP%@X@@X@@@@X+%ZBBDDDSBBDYM=++@++++++#X%LDYSADSADABYD",
"DDDBDDDDYYDYDjOX@+@@@*X@&sDYDDDDDARBAD8@++XX++++X#cDDADADBDDDDTD",
"DYDZADSDDYDSDDrOX@@++@+X$mZDDBBYSYBBDDz$@+XXX@XX$vDSDBASDDDDDDDD",
"ADDDSSSDSDDSDBDkOX+@X@+X:YDBDBBYYDDYBZT9@XXX+#@%jASABADABDBDDBWD",
"AAADSSSSSDDTSASDk;X@+++ozBBBDDDYWDBBYBDk$XX+X*$kSBSADBDDDYDDBYDD",
"BYDDSSDSDDDSABAABP:o;<i<iBBDBDDDYYDWDDDp515:.:EDDDSAAAWRRYDDDRDD",
"ADSDDDYBDDSBADBSYDIs;O@@4nBRDBBDDDDWBDz%X@##8UYDSSTBBADDDDDYYRDD",
"BDDADDDDBBDSAAABBWDf@X+X@pDDDDBBDDDBDD1=X@X.rBZDSTYYADADYDYYYDDB",
"DADDDDRDBBSDWDSSDBZn%X+++5kZYZBZZBDDZw%XXXX$nZDYYDDDDBZDDYBDYYBB",
"ZRDADDWYDSDYRDSSBBBW9@@@+Ofkmmnmzmnk>p;XX+X1DDBTDASDSBBDDDDBTDBM",
"eIYBDYDYDYDDYYSDDDBDH,.;15@@@&2353=&@@,<,#%JYBDADDDABDDYTDAADDZg",
"%gTYYDDDDDYDYDDDBDYBBh1=+XXX+XX++*++@X@+%<pRWDDDBAADDYWWDDDYABg=",
"@;zTBYAADSDDDDBDBDDBm5+XX@XXX+X@@&+@@X@@@@=lDDDDDDBDDYDDYDYDDg=+",
"@@,LDDTDSDWDDDDDDDBZk@X+@@+++X+@@@++@XXXXX@qDADDAADSDDDDDYDDl2@+",
"XXX5lBADRYYDDBDDDDDHaX@@@@@&@@@@@@@XXXXX@=@>CTTAADDDDADBDDYv,@XX",
"XXX@5yBZDYDRWDSDSBBm=@@X++X@@@@X@@XXXXXX**XXrDDDDDADDDDDDYl,X+XX",
"XXXX@;fZBADDDDWDTDCF@@XXXXXXX@@@@@@@XXX@+XX@8ZDDTDAYDBBYYg=@XXX+",
"XXXX@X%gMBBDDDDDDZk6@@XXXXX@X@@X@@@XXX@XX@X@,lDDAABBDBYVp%++XXXX"
};
