/* XPM */
static char *out[] = {
/* columns rows colors chars-per-pixel */
"64 64 193 2 ",
"   c #0E0B07",
".  c #16110D",
"X  c #0B0F14",
"o  c #0B131F",
"O  c #141314",
"+  c #1C1612",
"@  c #1E1914",
"#  c #17181C",
"$  c #1D1B19",
"%  c #231B14",
"&  c #281F15",
"*  c #221E1C",
"=  c #2B2116",
"-  c #25201A",
";  c #2D241B",
":  c #31261C",
">  c #35291E",
",  c #0D1623",
"<  c #0E1825",
"1  c #0C1728",
"2  c #0E1A2C",
"3  c #101721",
"4  c #141A23",
"5  c #1A1E23",
"6  c #121C2C",
"7  c #0E1C30",
"8  c #111E32",
"9  c #211F21",
"0  c #19202A",
"q  c #1D232C",
"w  c #0F223D",
"e  c #142235",
"r  c #1A2434",
"t  c #1D2836",
"y  c #14243B",
"u  c #18263B",
"i  c #1D2B3E",
"p  c #232323",
"a  c #2A2622",
"s  c #2E2925",
"d  c #22262C",
"f  c #2A2728",
"g  c #26292E",
"h  c #2C2B2B",
"j  c #342B23",
"k  c #3A2E22",
"l  c #312D2A",
"z  c #373027",
"x  c #3C3126",
"c  c #35312D",
"v  c #3C342A",
"b  c #252B34",
"n  c #2B2E33",
"m  c #222C3C",
"M  c #2A2F39",
"N  c #312F30",
"B  c #2B3139",
"V  c #2C323B",
"C  c #343335",
"Z  c #393634",
"A  c #3D3934",
"S  c #333539",
"D  c #35393D",
"F  c #3C3B3B",
"G  c #403427",
"H  c #42362A",
"J  c #44392E",
"K  c #493B2E",
"L  c #443C33",
"P  c #4A3E31",
"I  c #433E3A",
"U  c #4C4135",
"Y  c #45413C",
"T  c #4C443A",
"R  c #514437",
"E  c #524639",
"W  c #54493D",
"Q  c #594D3E",
"!  c #132644",
"~  c #182742",
"^  c #162946",
"/  c #1B2B43",
"(  c #132649",
")  c #152B4C",
"_  c #1A2E4B",
"`  c #1B304D",
"'  c #162E53",
"]  c #182F52",
"[  c #172F58",
"{  c #173054",
"}  c #193153",
"|  c #173159",
" . c #1A335B",
".. c #1E385E",
"X. c #253245",
"o. c #2B3542",
"O. c #23334C",
"+. c #2D394C",
"@. c #303640",
"#. c #353B44",
"$. c #3C3E43",
"%. c #333C4B",
"&. c #233654",
"*. c #273850",
"=. c #2B3B55",
"-. c #263A5C",
";. c #2A3B58",
":. c #303E53",
">. c #1C3763",
",. c #1C3961",
"<. c #223C64",
"1. c #283E64",
"2. c #3E4044",
"3. c #36414F",
"4. c #3D424B",
"5. c #364152",
"6. c #394352",
"7. c #3D4B5E",
"8. c #274066",
"9. c #294367",
"0. c #334767",
"q. c #3E4D61",
"w. c #434243",
"e. c #4A4743",
"r. c #4D4843",
"t. c #444549",
"y. c #46494C",
"u. c #4B4B4B",
"i. c #554D42",
"p. c #5A4F42",
"a. c #534E48",
"s. c #575045",
"d. c #5C5144",
"f. c #52514F",
"g. c #5D554A",
"h. c #5F584F",
"j. c #444951",
"k. c #4D4E50",
"l. c #4E5054",
"z. c #4D525A",
"x. c #555454",
"c. c #5D5A56",
"v. c #52575F",
"b. c #5B5A59",
"n. c #625546",
"m. c #615649",
"M. c #645A4D",
"N. c #695D4E",
"B. c #655D52",
"V. c #6A5F51",
"C. c #615F5C",
"Z. c #6D604F",
"A. c #6C6255",
"S. c #63615E",
"D. c #6E6659",
"F. c #716557",
"G. c #716759",
"H. c #746B5D",
"J. c #786E5F",
"K. c #4D5561",
"L. c #515762",
"P. c #515964",
"I. c #5E6063",
"U. c #626160",
"Y. c #686562",
"T. c #6B6966",
"R. c #6B6B6A",
"E. c #766E61",
"W. c #786F61",
"Q. c #726E68",
"!. c #777062",
"~. c #7C7364",
"^. c #74726D",
"/. c #7E7669",
"(. c #7F786C",
"). c #807666",
"_. c #847867",
"`. c #807768",
"'. c #847B6C",
"]. c #887E6E",
"[. c #867E71",
"{. c #887F70",
"}. c #878074",
"|. c #8B8274",
" X c #8E8679",
".X c #8F887C",
"XX c #908677",
"oX c #908778",
"OX c #928A7B",
"+X c #988F7F",
"@X c #958D80",
"#X c #979084",
"$X c #999284",
/* pixels */
"O A ].|.XX{.).H H.oX|.{.|.OX{.[.G./.U G./.}.}.}.D.p v.f.d.M.n.K 4 7 2 , 5 Y O y 9.,.,.,.^ m.|.J.H.J.E.J._./.E.N.* -.! ' [ [ N O ",
"n * J.|.{.E.& i.XX].].]._._.~.~.~._.~.J /.g.4.7 ` y H.~.|.]._.W e ^ ! ) ) e i.D.v h u ..V |.'./.D.J.E.E.~.E.E.~.D.; ` ) ' u * F ",
"[ ~ a H.).: k _.).].].W.H.W.`.]././.G.J e ' | ) ) ! M._. X|.J.T e ! ! ' ) 6 G.|._..X|.T v _.}._.G./.E.~.!.~././.'.H.: X.r a E.{.",
"[ ) y s & k p.E.H.W.).E.).'.'._.D.N.A._.i | ) ' ' ' Y [._.OX'.g.+.;.1. .} # ~.[.'.}.|.H g.G.Z._.W.E.W.~.}.(.~./.(.~.D.& h ).{.XX",
"' ' :.& % : E.W.W.W.F.).~.`.`.P N._.|. XS ) ) ) ` u Y 4.2 2 7 < U d.d.L c p T /.'./.~.: H.|. XH.Q ~./.}.}.}.~./.).G.k % & W.{.OX",
"( =.j H.k % j W.W.).W.W.H.A.i.).'.}.}.[.n.X.r Y N.OXY ^ ) ' ) u F.'._.!.D., ^ 2 q r.U U OX|. X_.G.v Z.}.}.'.E.~.H.K % : k : E.|.",
"&.j W.W.H.K % G G.W.W.W.P E.'._.'..X|.OX_.j {.[.@X|.i./ ) ) ~ 2 M.].H.~.N.7 y ) w ^ + B.'.|.}./.~.H.A.R OXXXE.J.k % j E.p.> & {.",
"f G.'.'.).H.G & P W.E.P {.'.[./.}.|.|.OXoX> J.|.[.'.H., ' t +.0 ).+X}.[.U ) w w w e j _.J.~./.~./.~._.A.x '.'.H % J W.).W.).E J ",
"A././.!.W.~.H.P ; i.k A.{.].|.|.|.|.]._.'.N.L }..XA.g.- j A T : P n.i.h.h.r e ^ e X v Z.m.!.!.E.'.E.E.W.E.R T ; P H.J.~.J.~.XXG.",
"~.E././.~./.W.].W   p.oX|.].|.{.|.XX'.OX X'.k W : E Q. X'.'./.W N. X}./.(./.n.; g l /.G.H.~.G.H.~.A.E.E.~.Q   m.H.E.).W.W.].|.oX",
"/.H.!.'.'.[.oX).E p.> W.OXOX`./.'.}.H.OXA.U M.J .X[.(.[.}.'.[.g.H.'.}.~.}.OXOX|.: 4 $ s.H.H.H.H.~./.`.'.N.: p.k F.W.E.G.W.].].|.",
"/.~.~.'.}.|. Xx W.).V.G |.|.~./.~.'.'.v G.'.|.k D.'.[.'.OX|._.N.D.'.|.'.'.#X.XF.q ! y y p G.H.!./.E.H.A.H `.|.A.P W.E.W.W.~._.|.",
"J.~.~.~.}.}.R F.~.H._.D.x |.{.W.!.i.5 B.|.[._.g.g.~./.}.OX XH.p.!._./.'. XOXXXp.e ) { ] e E G.H./.~.B.v |.+X{.|.'.E H.~.`.G._.|.",
"H.H.!.H./.n.F./.H.W./.E.A.x A.W.I ^ { q }.!.'.D.c /./.).OX(.~.W d.!./.(.'.}.|.W e ) | } f.'.F.N.~.G.z [.{. X_.{.].H.V./.].W.].oX",
"~.H.~.H.H.x E.!.H.D.~.Q.~.D.v S ) ) ' ` A A.V ^ e ~._.'.].].W.J h._.~.}..XOX'.A.!.w.) V (.~.'.!.P x D.{.~.].|.|.{._.E ]._._.~.{.",
"H.H.H.~.T !./._.'.~.!./././.U n ) ) { } q 2 ^ ^ ' g.E._.H.A.p.v E A.G. XOX|.Q }.|..XQ r.!.(././.M F W.~.'./.[. X~.]./.E [.`./.'.",
"~././.~.J././.~.E.E.E.E.H.g././.n { 8.e._.A ) ' ' #.~.i.P j x = ; K s.Z.g./.g.|.(.XXt _ n [.{.b ) ) r.E.J._.}. X'.[._.d.H.~.~.G.",
"'._._.N.|.OX|.~.!.H.H.E.E.G./.~.|.V g.}./._.m | O.u.N./.G.W.W.E g.}.'.`.OXW 2.A.~.Y  .] ' #.S ' ) ) ) A.|.|. X].|.OX}._.d.~._.).",
"d.}.~.H.|.|.].).H.!.H.D.T '.~./.[.#.n /.[.|.M.$.].~.H./.H.H.~.V.G.|.~.'.'.y.{ w A e { ] ] c a.<.' ' | 5 _.H.|.}.}.}.}.|.m.~.~.K ",
"` b v p.H.+X_.~.M.H.E.- y e.(.~.n ) ) n d.m.r 3.OX].H.'.~.~.}.H.E.}././.'.~ ` ` Y T *.~ C (.{.F { ` d A.J }. X_.OXOX'.}.~.v K G.",
",.-.p.L : L m.~.B.G.W y ) } o.I ) { ` ` F /  . .R.}.|.F._.~.W.W.}.|.`.}.Y.| ] V }.~.M.I d.]./.~.5 Y }.|.Z.A.|._.XX_.g.S i e (./.",
",.u }.}._.L O ; x !.$ ! { { _ d.V } { +.A.V ' | { D.6.#._.}./.H.}.|.}.|.A.x.u (.}.`.B ~ M. X).Z < N./.'.}.G }.n.> > *.) | { A.}.",
",.h  X(.(.T _ e X a < ^ { _ e.|. XW 8 T ~.'.n | %.u.| | H.+X).F.~.}.|.J.'..X5.Q.~.b { | r V.m ) ^ D './.|.d.v L ~.}.e ) ' ' u.}.",
"8.J [.'.[.5 ! w 2 g v - 2 u ~.}.'.~.S Y [.}.~.X  X}.K.{ z.|.{.p.|.XX_.}.}.x.{ } O | |  .3.2.| ' ) ! D.g.k J g.].}.'.t.! { ^ e (.",
"y D.}.}.~.6 ) 8 ) : |.H.d.Q Z.|.|.h.y ] M !.S. .S OX}.{ X.d I M.e N A.D.~.! ' $.{.3.} Q.OX).) ) ) q c d.H..X; .X}.#Xg.*.) ) ` ~.",
"O T D.E.Y ~ ! w e M.OXOX|.|.|.i.g.#.) { ] ` 3.| ' C ~.s.~.%.%.|.) s.A.~.h ^ w.OX|.y.W.|.].~.2.$.h.~././.'.'.T ~.'.|.|.w { ^ y p ",
"Y u 6 # p # 7 ^ r ~.OX#X+X].OX|.'.m.y.i { C.XXS.y ! + Q OXS.} oX' '.H.~.H.% './.7.| #.}.G.H.m.[.W._././.(.'.H.i.F.d.L C Y M.H.4.",
"0 ) ) } l H.A.i.h.(.[.[.}.}.OXOXm.XX(./.!.A.}.}.'.Z H.J ). X)  X;.D.~.~.L p.T  .| | $.V.'././.W /.'.'.|.(.[.|.f < / _ v.}./.(.I.",
", ) ' ..L W.~.{.g./.~.[.[.~.'.|.A./.'.'.}.XX(.'.A./.~.W.E /.A.#.$.w.~.U '.OXJ.m l.H._._.W.~.G.E H.'.+XOX.X}.(.; ) ) ) t }.|.|.T ",
"1 ! ^ 1.p.].H.].p.[.[.|./.(.~.H.Q |./.~._.(.|.}.A.D.H.~./.E E.K.P.~.i.`.|.b.+.p |.OX].~.E.E.~.; H.}._.OX|._.[.j i ) ' 2 XX].|.d.",
"2 ^ ! =.d.'._.+Xd. X'.'.'.!./.A.K |.}.}.XX X'.XXn y.W.H.y.~.d.l.S.M.F.V.) ] 6.$. X~.~.H.}.~.H.> Q ~.!.E.].'.(.v m _ ) 2 _.~.'.Q ",
"< 2 2 X.H M.p.H.L m.A.D.D.g.g.T > s.Z.G./.'.~.|.y ) ' 0.w.P.C.k.c.j.P.V oXoXoXd.n.A.H.J.G.N.W % z J i.d.M.m.i.; 0 < e o g.W E J ",
"E d.Q V.2 u 2 t j Q Z.G.Q W U v = E H.`.~.W.H.n.N.}.oX_.2.K.b.b.u.c.P.D &.' ) 7 _._.}.'.~.G.g.= E g.d.~.D.H.A.J /.g.A.K +.e e < ",
"n.].W._.8 ) ` o.Y /.'.'.E.H.!.d.x H.~.}.E.J.`.oXw.X. .O.M.J.M.c.l.d.).u.G.].a.n |.'.|.}.|.|.}.x F./.~._.'.'.}.g.XX|.'.W ;.w ! 2 ",
"M.|.|.OX2 { ) e J '.}.|.OX'._.F.j H.H.~./.|.OX Xg %.T. X/.p.~.P.K.H.W ~.W.W.V.D.|.}.}.'.~.~.'.d.J.~././.}.}.}.T }.J./.Q  .! ^ , ",
"Q |. X].2 ) _ _ s /.}.OXOXOX'.E.E G.E.~.'._.D.j.X.~..X/.p.~.y.F D B./.T ~.~.H.B.'.~.|.}.~.}._.Z.|.}.(.(.}.~.'.!._.~.E.A ..) ) < ",
"x./._.'.4./ / o ; }.}.(.}._.'./.i./.~._.J.o.|  .} T d.J ~.J.~.-.].&.XX_.v H.l `.'.}.N.S.(.'.OXn.OXXX`.XX(.}./.r.W N.D.C } _ ) p ",
"v.G.g.F w.T m.~.s.!.(._././._.E.~.m.W.H.|.%.| j.OX'.+ H.~.A.G.' |.| Y.OXd.. _ ! U. Xt.{ y y.E }.|.oX}.+X$XOX(.0 ^ 8 3 $ # 6 e a.",
"p u ! [ e OX.X(.A.W }.(.W._.!.s.M u./.}.|.V.f.OXOXM ~ l J.H.y.' |.X.%.J.I |.S ) ' %.` } } { y.g.s.}.'.OX.XOXm.i w ! y r.~.G.T O ",
"A.{ ) ' ` M..X[..X: .XA.s.l e ] ) _ _.OXC. .3.oXM ' y '.g.V.n 8 n.$.9 /  .|.oXS { (./.m _ u G.|.'.Z.W Q H.}.- y ! ) 2 |.[.}.M.&.",
"'.e ) ' ( Y '.}.|.Q x H B.A.^ ) ' | #.5.>.| | O } | T.'.'.}.|._.F.XX|.j. .q. X{.O ~.[.[.Y Z /.'.|.G.y e p > B u 8 ( h '.'.'.a 8.",
"|.t.| ) ) e }.G.v x Z.|.(.(.S ^ ) M V.q | ) S /.^.#. X'.}.}._./.F.~.+XA. . .u.6.[ n [.`.L i T |.|.2.) ] y o l X 7 ! r.'.'. Xn ,.",
"[.B.{  .) X.j k Z.|.K |.}.~.A.< I _.|.M.u D [.'.H.` u.N. X_.|.'.E.~.{.].S #.~.] [ ' S i.` {  .V T  .{ { y @ H.v s O Q /.|._./ ,.",
"(.(.8 i F N.'.OX}.|.A.Z.|.'.c 0 ).).[.i.$.M./.[.m } } Y.]./.|./.~.W.~._.G.{.|.R. . .r 2.y ] { _ i.V | ) e p.G.J.~.A.L ; L T ....",
"A.K x '.}.|.OXOX~.XXXXx h.0 { { F }.!.g / X.Y F ) } / /.).(.].D./.{.W.~./.G.].OX:.q V.g.n _ } n !.'.u.y l D.H.A.~.].+XH.g.j B ` ",
"T _.H.A.|.'.}. X}.}.H.}.0 { { ' ,.s.g _ { ) u Z y ) y._.'._.'.N.G.W.W.W.~.E.).).4.B.|.[./.n @.'.(./.'.T !.!././.~.].].|.A.}.}.d.",
"~._./.d._.}.OX XXXXX|.'.A.^ ) ) } D 3.] ) ..i._.F.$.Q OX_.}.}.d.E E.H.G./.p.y.} [ b `.`. XI V ]./.}.A.F.H.H.H.H._.OX|.|.F.'.'.|.",
"G.~./.G.m._.'.}.|.}.'.~.!.Y ^ _ C |.'.n } V  X'.|.M.XXg.A.s.x ; & > ; E i.[.V ) ] ) I W.C >.} n /.G.G.G.E.H.H.H.~./.'.A.OX/._.J.",
"}.~._._.R ~.}.~.|.}./.}.J.J.A C (.~./.E.F d.}.}.].d. XOX|./.F.U v Q J.H.~.~.s.{ ) ^ o 0 ' { ) ) b U ~././.!.(.'.~.~.A.d.J.G.G.E.",
"|.~.'._.}.E _.}.|.}.`.~.}.Z.v T H.'././.o.` 2.J.n.oXoXXX/././.g.U E.}.'.}./.~.r y D Z.v { { ) ^ Y x G.!.!.~.F.E.!.H.G /.E.!.J./.",
"OX`.J.}._.A.W.`.}._.XXXX}.v H.!.B.G.'.Y } { ) y Q |.]._.~./.~.d.W J.'.OX_.~.~.s H.(.~.'.q | ^ g.E.F.v A.E._.G.E.'.d.A./.~.G.E.J.",
"|._.J.~.~.J.E }.|.|.XX_.v D.!./.E.D.U ^ ' { ' 6 n. X@X|.(.(.'.A.m.G.OXOX|././.d.M.(.}.}.M.q H.~.~.}.|.z G.'.E.~.A.W }.}.~.~.E.W.",
"|.}.J.J./.G.W.U A.oXH.v G.J.~.~.E.E.G.p y y w - H.OX@X(.[.}.'.D.F.}.|.XX(.~.(.D.v XX|.M.T _.|.W.'.~.|._.x Z.E.E.v XX}.|.}.~./.`.",
"|._.}.`.G.J.W.G.k Q : Z.}./.~.!.H.H.E.H.Q $ 4 H }.OX@X[.!.}.[.A.Z.(.'.}.}.'.'. Xx M.x A.}.H.|._./.}.XXOX~.: Q U  X|.(.}./.!.~._.",
"XX|._.~.W.`.W.W.W   Q J.!.G.H.!.H.H.!.H.H.H.s B % m.(./.'.|. Xm.d.(.}./.|.F.T ; m.H |.|.|.}.|.}.'.|.`.|.|.s.  d.}.~./.~./.'.E.J.",
"G.XX_.J.~.E.F.x : M.U !.~.H.H.}.~.!.~.A.E.z X 7 ^ i 5 i.D.r.d.v : v j - l d.J..X}.v Z.'.'.'.|.|.|.|.}.XXZ.: g.: H J.~.~.~./.~.d.",
"L R ~.H.~.~.k & U '.}.k A.(.!././.).)./.~.; e w ! ! ! p.{.].OXF.r i t ^ , H.'.[.}.H.j OXOX X|.}.(.[.}._.L A.H.P = k H./._.}.Z.# ",
"'.= > p.E.; % K J.~.XXoXE Z.H.~._. X'._.M.O ^ ) ! ! 6 F.`.H.'.E 2 / ) ) ~ g..X@X[.[.> '.OX}.XX|.'._.G.Q ~.W.W.G.x + K J.~.H.= -.",
"XXG.= k ; % P H././.'.}.|.M.v J._.}.'.+XA T r.h 1 y 4 H.E.).].M.y ) { ) ^ T }.d.t.0 / N.'.'.}./.~.W A.H.G.J.~.~.W.> - k F.- ^ ! ",
"oX|.~.% % x H./.~.~.}.}.}.(.~.d.A.oX|.G.: _._.'.[.T 9 l A W i.x , 2 2 r L.C y *.^ ' ) Z }.}._.d.Q /.).).~.H.W.~.~.J.= @ % ^ ' ' ",
"XXXXA.a & G./.`.~././.}.J.W.!.~.}.F.Z.d.U |.'.'.[.E.4 } .. .*.X.A.(. X|.'.F } ' { ) | / _.d.Q ).'.'.'./.W.`.W.W.J.E k & a y ) ' ",
"'.F.p u O.; H.].~.`.!.~.!.G.!.G.(._.].l T `..X[.}.D.6 ) ] ! ~ 6 Q ~.'.XX/.d.) ) ) ' ' i > ).~.~._._.J.H.W._.].`.W.: : ).H.a ~ | ",
"Z # / ' ' ` ; A.~.H.~.~.J.J.E.G./._.].b ,.y C j M.U y ) ) ! ! 6 n.'.|.|.(.D.y _ e x.A._.L _._.~.~.~.'._.].'.{.XXP k J.{.{.G.$ S ",
"+ S [ ' ' ! -.* N.E./.`.E.E.~.E.~.'.Q  .,.,.,.8.` O u.p , < 2 o R Q d.T I.4.a ~.(.|.[.(.A.U ~.H.'.|.OX|.{.|.XXB.H |.XXOXXX].C O "
};
