/* XPM */
static char *_0d29910aa964e26e4757af0a9b89b79kBpb51LKdUAKxm4V[] = {
/* columns rows colors chars-per-pixel */
"30 30 137 2 ",
"   c #281C16",
".  c #271D19",
"X  c #291E1B",
"o  c #262219",
"O  c #2C221D",
"+  c #30251D",
"@  c #33291F",
"#  c #2D2422",
"$  c #2F2822",
"%  c #312623",
"&  c #342925",
"*  c #3A2C26",
"=  c #352C2A",
"-  c #3A2E2A",
";  c #3C312C",
":  c #3D3532",
">  c #3E3838",
",  c #402E24",
"<  c #42342D",
"1  c #48372D",
"2  c #47392E",
"3  c #4A382E",
"4  c #433632",
"5  c #483730",
"6  c #453934",
"7  c #4A3C35",
"8  c #463C3A",
"9  c #4A3E39",
"0  c #503E37",
"q  c #523F38",
"w  c #4C4036",
"e  c #4D413C",
"r  c #52433D",
"t  c #59463E",
"y  c #4D4441",
"u  c #4F4A44",
"i  c #4F4949",
"p  c #534641",
"a  c #584740",
"s  c #554944",
"d  c #5B4C44",
"f  c #574D4A",
"g  c #5B4E4A",
"h  c #5C514B",
"j  c #5E5552",
"k  c #614D46",
"l  c #604D49",
"z  c #625045",
"x  c #62544C",
"c  c #68564E",
"v  c #66584F",
"b  c #6A594F",
"n  c #635651",
"m  c #685750",
"M  c #655953",
"N  c #6B5B54",
"B  c #665D5A",
"V  c #6B5E59",
"C  c #715E55",
"Z  c #705E59",
"A  c #6E6055",
"S  c #6E615B",
"D  c #736057",
"F  c #796356",
"G  c #76655E",
"H  c #75675E",
"J  c #75655D",
"K  c #74635C",
"L  c #796658",
"P  c #7B655A",
"I  c #7A665E",
"U  c #72685F",
"Y  c #76685F",
"T  c #766A5E",
"R  c #7B685E",
"E  c #6F6460",
"W  c #716360",
"Q  c #736660",
"!  c #746761",
"~  c #766762",
"^  c #726662",
"/  c #7A6760",
"(  c #786662",
")  c #7A6761",
"_  c #716863",
"`  c #776960",
"'  c #776861",
"]  c #776A64",
"[  c #756861",
"{  c #7A6961",
"}  c #7D6B61",
"|  c #7E6C60",
" . c #7E6C62",
".. c #796F65",
"X. c #7B6C64",
"o. c #776C68",
"O. c #7A6F6B",
"+. c #7E6F69",
"@. c #797067",
"#. c #7F7166",
"$. c #7E7169",
"%. c #7B706E",
"&. c #7D726C",
"*. c #7E736D",
"=. c #7E716A",
"-. c #806F67",
";. c #826D65",
":. c #876F69",
">. c #837167",
",. c #847067",
"<. c #837165",
"1. c #80716A",
"2. c #867269",
"3. c #86756B",
"4. c #85736F",
"5. c #85746D",
"6. c #84736B",
"7. c #89776B",
"8. c #8A756C",
"9. c #8B796E",
"0. c #857671",
"q. c #857872",
"w. c #877970",
"e. c #897870",
"r. c #8C7972",
"t. c #897C73",
"y. c #8E7C72",
"u. c #8C7E75",
"i. c #8C7D76",
"p. c #8C7B72",
"a. c #937C73",
"s. c #9A7F74",
"d. c #9E8477",
"f. c #948379",
"g. c #96827A",
"h. c #9B8D84",
"j. c #9E9189",
/* pixels */
"E 9 6 q.j.t.J 5 L K r d 7.| #.% x y.,.p.h...9 < M Y m N 3./ ",
"9 % - g S $.U w b K g e J K x & m K x x e e * ; 9 < - < e 9 ",
"7 e e 6 - ; 6 - M n 8 - h S 8 # 4 * 5 e   e S 1.@.8 * & O . ",
"K 5.J W f X # = 6 6 = # O ; ; s h - n V - x i.t.*.9 r h y % ",
"V 1.] O.g % e j x s ; y p g v [ N ; V K < A g.2.N - 5 r g % ",
"6 r g s % - ! i.3.K 6 j Q V m v r < K V * s D C p < 5 ; p & ",
"; - % = % < K } [ e O : 9 < 5 5 % ; M p & ; ; < & s S 9 4 % ",
"_ B ; y s 5 c F h # > i 6 ; s V y 4 y # e j M M ; N *.4 % e ",
"%.M = g B 6 6 - O r S Y v 9 K P M h c q / K { K 1 K <.3 a -.",
"s 6 % s S f y - % p g m h * N | n h M s ! [ S s r 1.K * 9 M ",
"& 6 4 ; 9 9 s 9 & 6 * & 4 O n t.y % = = 6 s g & 6 Q M - - % ",
"6 n B M M 6 p x s g a & 4 % 4 n = 8 4 % 8 9 < - & & - ; p 4 ",
"p S S Q Q < 7 g r g x ; 8 : % 6 % s s 9 K 5.1.+.x & 9 x ..x ",
"e ~ Q S M * * ; 4 9 5   = ; = ; < ; < < d N +.K h ; x [ $.m ",
"- < ; 9 9 % 6 h ; 7 r + & f g a Z m r e 9 * ; 9 ; % - 6 s 9 ",
"g 6 9 g n M S V ; s +.5 & S V V K m r p y h M n S B : ; y p ",
"S 7 d K t.*.S v , N { n & 4 4 e y 6 ; n h M t.L 7.q.w r K D ",
"h % * 4 6 8 r 5 < x n n - ; g d - 5 K K p p ..+.K n < x 5.{ ",
": 6 y 6 - % 9 r % 8 = & - t p.p.r k g.1.6 X 8 9 7 4 O 8 s e ",
": f s 6 4 * s p w B s O p K +.7.r x a.g.g - e 6 s x ; 4 ; O ",
"; 9 7 0 9 < Z c e $.N X 7 e < 9 % r +.t.n p Y C :.5.9 n x * ",
"V -.;.2.R 9 m V w [ g * r e p p : ; N x 9 < N 8.a.p.2 S J < ",
"Y y.;.7.7.r s h w N r s K K 3.-.e   5 5 < < 1 C a.7.9 J S 6 ",
"7 d t z d O ; # % e - p K ;.s.d.n < d K J S 5 a 2.K 6 @.[ p ",
"6 a r ; & 9 r 0 8 % . 9 m K 8.a.l r C I :.2.K * M _ r { K z ",
"h [ N w e Q +.} B 8 O 6 g d V K s 5 x x x v g + : y - n $.v ",
"p +.K < & g x a : $ % - ; & & 5 6 < e 7 * @ w * = 8 - : n 9 ",
"p ..[ 9 = 4 4 0 ; ; _ n s s ; g N K K / k 5 { C f f 6 O 6 % ",
": o.$.4 ; h M V f 9 0.N s h 4 j n Z N ] x 6 V d p ; < 9 m x ",
"# 8 e O # 6 r K n 5 N r 5 5 & 8 4 4 8 u ; o ; ; O - V <.R b "
};
