/* XPM */
static char *out[] = {
/* columns rows colors chars-per-pixel */
"30 30 15 1 ",
"  c #7E76B6",
". c #767BB3",
"X c #7D7DB6",
"o c #737DB8",
"O c #7D7DB8",
"+ c #8477B6",
"@ c #817DB6",
"# c #817DB8",
"$ c #887EB9",
"% c #7582B6",
"& c #7D81B6",
"* c #7D81B8",
"= c #8181B6",
"- c #8881B6",
"; c #8181B9",
/* pixels */
"&OO@%&@ X&@&-*Oo;&&XXX@@ X&XX;",
"o@ @ XXX=&#X#O**#@X&&XX=&&& ;@",
"XXXX=XX&@XX&*#*O*X&#X*&=*&&&# ",
"X=@&X@&=XX@OO* #XO&==XX+XXOXOX",
"&=XOXX@  -&OO#*#*&X#X&XOOOXOXO",
"X@&OOXXX&=XO##O;O#o#OO*&OO=&X=",
".X@XXX&XXXX&#XO#O@O#OO#X&*X@X+",
"X&@X&XXX X=XXXOOOOX;*O#XXOXX*X",
"X##O**XX&@@X@X*O=XX$OX@@@XX@&*",
"X;*O&OO=&&X=O#OXXX@O@oX&XXX@.*",
"&@+OXX&@XX&&O@O*XX@OXXXXX@XXXX",
"#&XOOO@XXX@XOX#XXXO&XO=OX@&XXX",
"=XOX;O&X&&&X@&&X&&&=&XXXXXX&**",
"@XXOXOO&=+oX#XXX@ == XXX&==;**",
"X&XO##&XX@XX@XO&@X+X%XX=X-XO o",
"*=;*OOXX&X&=O@=oX&*XXOXXOX #OO",
"XX@XOX@X=X@XXXX&&$ O***=X@OOO#",
"&X=XXX&OXX&&==OXXO&O*OOX&XO*=*",
"@ @XXXXXX@=&X$%&XXX@O#O*X&&*#*",
"XX@%XX@X@@@@*#o#&XX#X&#XX@@OOO",
"XX XX&@XXX@@ @X@X*&XX@#OXX&;XX",
"X&&X@@&XX=XXXXXXXXXO#X#XX@*O*X",
"XXX=&@XXX@XX=&XXO#&O@@&XX;#oOX",
"X&XXXXX&XXXX-%&@XXXO@@XOO;#OOX",
"XX&=X&@=*&XX+.&@&X@XX=X@&@XXXX",
"XXX@X&X@&&&OXX&XXXX&&XX@XXXX&X",
"=&&@XXX@@OX&@XXX&X@=XXXXX&X&X&",
"@@.@X&@&O=&XX#XOX@XXX@ X@X@.XO",
"X *&&X&@&# &X&X&X@XX&&=&@XO&&&",
"&=&&&==&XO# X&&&@&&=@X=&&X@= X"
};
