/* XPM */
static char *out[] = {
/* columns rows colors chars-per-pixel */
"30 30 20 1 ",
"  c #354E0C",
". c #37520E",
"X c #39540F",
"o c #3B5611",
"O c #3E5913",
"+ c #425D15",
"@ c #445F18",
"# c #466115",
"$ c #4A6615",
"% c #4D6916",
"& c #466219",
"* c #4A651A",
"= c #4D691A",
"- c #526D16",
"; c #516D1B",
": c #55711D",
"> c #58721E",
", c #546F20",
"< c #567120",
"1 c #5A7521",
/* pixels */
"&&&**#*##$$$+ X$**=:<,@**@==&*",
"=**;=@#%$###XX.+OO@*=;,,****@*",
"<<,,=##$$#+#XXX#OO@*&*;=@OO@@,",
"<1<*$#%$$$#+XXXXoO@*@@**@OO@&=",
",;=&&#%%%$$$#XX+ooOOO&@=&@&&&*",
"*=&&##---$$$#XXXoOOOOO@&*@&***",
"==&&#%%-%$$$##+XOO+ooOO#@@@*==",
",,&&&%:-%%$#####@@OOooOO@&&=;,",
":,@@##%---%$&&#&&@OOOO##%===;:",
"1,OOO+%=--##&&@O+&@+#$%%%=;=:1",
"1;+O+@#$%$+#&&O&#=###%%%%%=:11",
";*&#O+$&$#O#*=O&%%$#O%$$%=*;:1",
"=***@@#$$++*,,*=-%#OO$%%%%#O%=",
"=,***@O@$**;*=*=-%#OOO$%%%OoO#",
"=,**OOOO**;>=&&,-%#$#$%%$#OOo#",
"@&+++OO#=;;,*@&;%$OXO$$$##++OO",
"+@+oo@**#&:=*+@#$#Ooo#####oOOo",
"@*$#&==$&+#&OOO###OoXXXO#$OO#O",
"@=%==::;$&#OX.o#$$#OoXXoOOOo.O",
"#==::::::&OOOo.#####+#oo#OoX.O",
"%-:::-;:::#OO#O+++#$##OO##X.oO",
"%-::::%-:=##$$$#*#$%%#++##o.oO",
"$::-::-%%$=--%-%=$*=%$###+..o+",
"--::%:=%$$%--%--=:::;%$O+o.o##",
"%=-;%=%$#*%%%%%-=111<;*@OOo+**",
"%%=%=%$#+#$%%$$-::1>1;*&&@&&=*",
"#=%%=%%#o+#%%$#$;:>1<,=*@@*===",
"&&**%*#+OO+$$$#$=;1:,,,@O@**=&",
"@+O*==###o+$$#$%;-;:::;*&@&*=&",
"OO@@$*$$##O$#X#%%=;:::;=*&&@@@"
};
