/* XPM */
static char *out[] = {
/* columns rows colors chars-per-pixel */
"30 30 86 1 ",
"  c gray35",
". c gray39",
"X c #676767",
"o c #6F6F6F",
"O c gray46",
"+ c #7C7C7C",
"@ c #7E7E7E",
"# c #838383",
"$ c #848484",
"% c gray52",
"& c #868686",
"* c gray53",
"= c #888888",
"- c #898989",
"; c gray54",
": c #8B8B8B",
"> c gray55",
", c #8D8D8D",
"< c #8E8E8E",
"1 c gray56",
"2 c #909090",
"3 c gray57",
"4 c #929292",
"5 c #939393",
"6 c #959595",
"7 c gray59",
"8 c #979797",
"9 c #989898",
"0 c gray60",
"q c #9A9A9A",
"w c #9B9B9B",
"e c gray61",
"r c #9D9D9D",
"t c gray62",
"y c #9F9F9F",
"u c #A0A0A0",
"i c gray63",
"p c #A2A2A2",
"a c gray64",
"s c #A4A4A4",
"d c #A5A5A5",
"f c gray65",
"g c #A7A7A7",
"h c gray66",
"j c #A9A9A9",
"k c #AAAAAA",
"l c gray67",
"z c #ACACAC",
"x c gray68",
"c c #AEAEAE",
"v c #AFAFAF",
"b c gray69",
"n c #B1B1B1",
"m c #B2B2B2",
"M c gray70",
"N c #B4B4B4",
"B c gray71",
"V c #B6B6B6",
"C c #B7B7B7",
"Z c gray72",
"A c #B9B9B9",
"S c gray73",
"D c #BBBBBB",
"F c #BCBCBC",
"G c gray74",
"H c gray",
"J c gray75",
"K c #C0C0C0",
"L c #C1C1C1",
"P c gray76",
"I c #C3C3C3",
"U c gray77",
"Y c #C5C5C5",
"T c #C6C6C6",
"R c gray78",
"E c #C8C8C8",
"W c gray79",
"Q c #CACACA",
"! c #CBCBCB",
"~ c gray80",
"^ c #CDCDCD",
"/ c #CECECE",
"( c gray81",
") c #D0D0D0",
"_ c gray82",
"` c #D5D5D5",
/* pixels */
"8rM2$CNbMTlFh.iUEHJR/Wl>eNDjvw",
"iZnDVDFYcBMvcopzm=jFkNJDBDkNl ",
"!RQYJDDPxnSVi*4spzZMaSZerkfdz6",
")YLBVFc5gLCyi7xm28jk<xCp#0ihAS",
"LSiNVCVkSGgvhwjd8160@NnVlkmlVF",
"jCtCCFKWZvhSApdt7r9d1alNNMxiZa",
"aZ4NCIR/ABKZJkmyxiyjeuu0lnCyFf",
"EJhNmIY^RLkiSyDMjpie:pp%<cANKP",
"(PSMVBF^!TgvArMVplbi&dSkuBFN7H",
"`HhsicJPSYSVClxn0SVcjGIYIGYPkS",
")by3tbmvxHAnZCbmfNSzMJWEJLPTEL",
"RwbhgCAAZnzvSPVkFgPDFCFIKLFJ!)",
"nnZDlmCKKbhVcSJVZlLZzMUWTRMmDP",
"kJKCxncBDq8LjNIJkae;rzP(^E4q<M",
"xWJAchz0knBRLgKQ!Ec4vJRRMpX+Og",
"SejpfslVLPLRRZvBUFxxlYUGVgzMmh",
"zrbdagzHsmCknnBNKawgffhiNzizbg",
"vVdnSxfFNMCScthSMJbgjdjxAKCklg",
"iHxHFPDPPL51s2-ZJYCtjjhr0xlgu,",
"MIZmA/~RED67a5%gzHDSVchzkNg0ep",
"KQHYQRDG!IBdhltl9cMBZvfgbVcuxl",
"D/)P/HZLYJBMCdDnVznHPMhtMN5psk",
"J_/KELBKPCcYK8!MQHJWYhujNB,ylz",
"YW!AF^LLTJHSd-QPJRG^/Bfnbhrkma",
"WFWGSTUDGLTIh5!~IQJ//ZxNsislDV",
"KSPcGUUbiVGPBmR!DIK!QCvZxbmVsC",
"6fPAMNUZdcMYJkKHL~TmDRAAmMAVcn",
"k#BDbULCnjiITVNTR^KNYYFCiskyPH",
"CdcPTEKAni2GEPm_(!~RLHLCzBSGZk",
"VlnzFC95zDzMKvbWELQ!miFklFV%#u"
};
