/* XPM */
static char *out[] = {
/* columns rows colors chars-per-pixel */
"30 30 31 1 ",
"  c gray35",
". c #626262",
"X c gray39",
"o c #656565",
"O c gray40",
"+ c #676767",
"@ c #686868",
"# c DimGray",
"$ c #6A6A6A",
"% c gray42",
"& c #6C6C6C",
"* c #6D6D6D",
"= c gray43",
"- c #6F6F6F",
"; c gray44",
": c #717171",
"> c #727272",
", c gray45",
"< c #747474",
"1 c gray46",
"2 c #767676",
"3 c #777777",
"4 c gray47",
"5 c #797979",
"6 c gray48",
"7 c #7B7B7B",
"8 c #7C7C7C",
"9 c gray49",
"0 c #7E7E7E",
"q c gray50",
"w c #808080",
/* pixels */
",:8=O77630:76.47w855qq1@:47206",
"74>76437<431w=q45o16:<5647>60 ",
"q6954557>2876<,13761,94;272,7;",
"8351351&>64-6<79-,14:551%11183",
"46*4424<46:42>622,,3$035446<55",
"<9:73238<<:57<4325<7>457651:8:",
":4#72549<,95q16192295341446*0:",
"84>4,64644<>8=064114>43**45297",
"8584631656:26*77<344-373>433@5",
"0325<25417446445*75448577265;2",
"8<1:<4,,>5735637,26,238723346,",
"0&6<17542232775>5=957<26342388",
"143726488734,55361q95255484668",
">76437356*-6-473--;&,,4769:8>7",
">q74436*>3446;q6598-5666>1X;#5",
"w=4,4345864804123434>85452q0w6",
"4-9422<6*2<=155<8>;32,,*31;563",
"35>661,7426q4256<9457465787244",
";6,6263559->52;7674-323:=4454*",
"283::87555-,62=4<7466546272,11",
"6726651<646<35<4*4214312147291",
"2792912333216:816<15743>36>52,",
"385262,431:69$9;q4586,,118-352",
"645<<8457431,+8216<883<532475;",
"8<73<56476661*0646<86217,,4381",
"534;556,:4462378:2,56<,73435=5",
"#172<>7513<65;62<74:<9357565<2",
"6O63;65354<751<7461>6425,<1*69",
"831789753<*688:86575534537qqq1",
"q76593&$181285255276:%85278O#1"
};
