/* XPM */
static char *ccbf60cd3e5f4676faed85e34fa87bf8gSDizHQeaHUbjvrF[] = {
/* columns rows colors chars-per-pixel */
"30 30 199 2 ",
"   c #6C5A3E",
".  c #7A603A",
"X  c #6E5E45",
"o  c #7D6A4A",
"O  c #7A6648",
"+  c #7F6F56",
"@  c #677F50",
"#  c #7E725E",
"$  c #5E796F",
"%  c #5A7C70",
"&  c #4F7367",
"*  c #6F7E6E",
"=  c #7D7A73",
"-  c #797978",
";  c #717D6F",
":  c #876A3C",
">  c #A74F53",
",  c #A55A5A",
"<  c #A75758",
"1  c #836A43",
"2  c #8B6E40",
"3  c #8B724B",
"4  c #8C7247",
"5  c #917241",
"6  c #867659",
"7  c #947B54",
"8  c #837661",
"9  c #8B7E69",
"0  c #8B7C63",
"q  c #827F7B",
"w  c #AB6161",
"e  c #AB6968",
"r  c #7E9138",
"t  c #6D853C",
"y  c #758D43",
"u  c #608253",
"i  c #6A8857",
"p  c #798C54",
"a  c #7B9653",
"s  c #718E47",
"d  c #698866",
"f  c #7B9662",
"g  c #769566",
"h  c #6B8677",
"j  c #7C9470",
"k  c #7C866E",
"l  c #9E971C",
"z  c #A49B19",
"x  c #8A8A28",
"c  c #928F2F",
"v  c #8E9127",
"b  c #9C9928",
"n  c #999726",
"m  c #8D8E38",
"M  c #8B9A30",
"N  c #96943D",
"B  c #A09B2A",
"V  c #99A32C",
"C  c #9CA73E",
"Z  c #AEA320",
"A  c #8A8848",
"S  c #889745",
"D  c #96964A",
"F  c #858858",
"G  c #958257",
"H  c #8B9559",
"J  c #949956",
"K  c #AE8F5D",
"L  c #B2925D",
"P  c #8DA44C",
"I  c #A1A250",
"U  c #9E8B6C",
"Y  c #958467",
"T  c #8B986B",
"R  c #8C8376",
"E  c #84817D",
"W  c #898879",
"Q  c #948B7D",
"!  c #998C76",
"~  c #80927B",
"^  c #9F917C",
"/  c #8E9467",
"(  c #A38D68",
")  c #AC946E",
"_  c #A5906C",
"`  c #B59662",
"'  c #B59869",
"]  c #A08E71",
"[  c #A6957B",
"{  c #AA9778",
"}  c #B69E74",
"|  c #B39E7D",
" . c #95A469",
".. c #8FA171",
"X. c #94A574",
"o. c #9AAA7D",
"O. c #BDA275",
"+. c #C2A472",
"@. c #CAAB79",
"#. c #6B8080",
"$. c #728888",
"%. c #77908F",
"&. c #7F8F91",
"*. c #4CA48A",
"=. c #54A68E",
"-. c #5CA992",
";. c #56A891",
":. c #63AC99",
">. c #6BAE9C",
",. c #60AB97",
"<. c #6BB19E",
"1. c #74B39E",
"2. c #71AFA0",
"3. c #7CB6A2",
"4. c #7AB5A7",
"5. c #858483",
"6. c #888684",
"7. c #8F8B83",
"8. c #8B8C8B",
"9. c #868887",
"0. c #948D83",
"q. c #8C998A",
"w. c #9B9486",
"e. c #9B968A",
"r. c #94948A",
"t. c #8B8D91",
"y. c #869A96",
"u. c #949493",
"i. c #9C9A94",
"p. c #939698",
"a. c #95999A",
"s. c #9B9B9B",
"d. c #989794",
"f. c #A49986",
"g. c #A59B8B",
"h. c #A89D8C",
"j. c #A69984",
"k. c #A19D95",
"l. c #A09F9D",
"z. c #92A896",
"x. c #93A196",
"c. c #AEA18D",
"v. c #B5A38A",
"b. c #BEAA89",
"n. c #B9A482",
"m. c #A5A29D",
"M. c #ABA498",
"N. c #BCAE99",
"B. c #B8AA94",
"V. c #BFB099",
"C. c #859FA2",
"Z. c #9B9DA1",
"A. c #8DADAC",
"S. c #94A9A3",
"D. c #85B9A6",
"F. c #86BCA9",
"G. c #8ABAA9",
"H. c #87B8A6",
"J. c #94B1AB",
"K. c #9CB3AD",
"L. c #8CB8B7",
"P. c #9CB5B4",
"I. c #92BDBA",
"U. c #9AB8B9",
"Y. c #97B5B4",
"T. c #A3A3A2",
"R. c #AAA8A4",
"E. c #A9A9AA",
"W. c #A9ACB2",
"Q. c #A3B7B4",
"!. c #A1BCB9",
"~. c #A8BAB7",
"^. c #BBBBBB",
"/. c #A0B5A9",
"(. c #C7B597",
"). c #C7B9A8",
"_. c #C4BFB5",
"`. c #99C5BB",
"'. c #9ACABD",
"]. c #94C3B6",
"[. c #D1C3B1",
"{. c #E1D1B7",
"}. c #93BFC2",
"|. c #9AC4C3",
" X c #97CBC4",
".X c #9BCBC6",
"XX c #9BC6C8",
"oX c #9BCAC9",
"OX c #96C4C2",
"+X c #DCDDDD",
"@X c #C6C6C6",
"#X c #E5D9C5",
"$X c #E2D8C8",
"%X c #DEDFE0",
"&X c #DFE0E1",
"*X c #F4F4F4",
"=X c #F8F7F7",
"-X c #FEFEFE",
";X c #F6F7F8",
/* pixels */
"*X*X*X*X*X*X*X*X*X*X*X*X*X=Xa.u.=X*X*X*X*X*X*X*X*X*X*X*X*X*X",
"*X*X*X*X*X*X*X*X*X*X*X*X-XZ.3 1 Z.-X*X*X*X*X*X*X*X*X*X*X*X*X",
"*X*X*X*X*X*X*X*X*X*X*X-Xt.3 {.#X4 8.-X*X*X*X*X*X*X*X*X*X*X*X",
"*X*X*X*X=X-X-X-X-X-X-Xu.U +.Q 0.+.G 8.-X-X-X-X-X-X=X*X*X*X*X",
"*X*X*X=X@X5.s.6.m.u.p.0 _ R.+ O Z.[ 6 p.a.T.8.l.E @X=X*X*X*X",
"*X*X*X-XE : b.` } ) f.).^ 0.e.e.e.c.).j.| } ` n.: E -X*X*X*X",
"*X*X*X-Xi.n.&XY k.Y M.x.j f y y y @ * ^ 9 M.0 +XB.e.-X*X*X*X",
"*X*X*X-X6.K 9   j.r.d S x m D J A c M i k g.X 6 K E -X*X*X*X",
"*X*X*X-Xi.} i.v.6.g x F S.|.XX.X`.J.F b y * v.t.) w.-X*X*X*X",
"*X*X*X-X0.6 g.i.u x q. X`.F.3.1.F.]..Xy.c t W ).8 Q -X*X*X*X",
"*X*X*X-X- ! ).% n ~  XG.-.;.:.,.=.=.G. XS.x i c._.- -X*X*X*X",
"*X*X-Xu.O ).S.t A oXH.*.>.U.K.Q.U.>.*.H.OX .V x.).9 a.-X*X*X",
"*X-Xs.U U V.$ v z.'.-.:.P.X.H H ..~.2.-.'.A.v T ^ ) ! p.-X*X",
"-XW.1 +.T.g.d c L.F.*.U.o.A , < G ..U.*.3.I.N a = m.@.3 W.-X",
"d.O #XQ o R.f N I.1.*.K.H , w e < H K.-.1.XXJ P 8.6 R {.1 d.",
"l.1 {.Q 6 w.f N I.2.;.J.J w e e > D /.>.>.`.F r r.. 7.$X: s.",
"-XZ.4 +.E.M.d B I.F.*.!.o.G , < 7  .!.*.3.OXA y e.i.} 2 s.-X",
"*X-X9.U ] v.$.b z.'.-.:.P...F p  .Q.4.=.`.A.n i g.f.7 q -X*X",
"*X*X-X8.6 ).$.P S oXH.*.>.!.Q.K.Y.2.*.H.oXT V h [.6 E -X*X*X",
"*X*X*X-XE h.N.& b q. XG.=.;.<.:.*.=.H.'.y.z u w.! 6.-X*X*X*X",
"*X*X*X-X0.Y c.0.d l y. X`.D.1.1.D.]..XC.z P &.0 ( u.-X*X*X*X",
"*X*X*X-Xk.) d.| ; f l H J.|.XXXX}.A.k Z S #.^ M.} m.-X*X*X*X",
"*X*X*X-XE L 8 X [ a.h C n D J I N b V i t.{   8 ` E -X*X*X*X",
"*X*X*X-Xk.b.%X8 m.9 Q $.d p S S a g %.M.[ u.# +Xn.k.-X*X*X*X",
"*X*X*X-XE 5 b.` O.( [ N.j.0.t.8.p.R N.j.Y ) ` (.5 q -X*X*X*X",
"*X*X*X=X^.= k.E i.7.9.Y { s.o o T.( 6 - R 0.= k.= ^.=X*X*X*X",
"*X*X*X*X=X-X-X-X-X-X-X8._ @.R Q O.) 6.-X-X-X-X-X-X=X*X*X*X*X",
"*X*X*X*X*X*X*X*X*X*X*X-X9.4 #X#X4 5.-X*X*X*X*X*X*X*X*X*X*X*X",
"*X*X*X*X*X*X*X*X*X*X*X*X-XZ.7 4 a.-X*X*X*X*X*X*X*X*X*X*X*X*X",
"*X*X*X*X*X*X*X*X*X*X*X*X=X*X8.6.;X=X*X*X*X*X*X*X*X*X*X*X*X*X"
};
