/* XPM */
static char *out[] = {
/* columns rows colors chars-per-pixel */
"64 64 20 1 ",
"  c gray40",
". c #6D6D6D",
"X c #757575",
"o c #7C7C7C",
"O c #838383",
"+ c #8C8C8C",
"@ c #949494",
"# c #9B9B9B",
"$ c #A4A4A4",
"% c #ABABAB",
"& c #B4B4B4",
"* c #BBBBBB",
"= c #C3C3C3",
"- c #CCCCCC",
"; c #D3D3D3",
": c #DCDCDC",
"> c #E4E4E4",
", c #ECECEC",
"< c #F4F4F4",
"1 c #FCFCFC",
/* pixels */
"111=<11$<11<<$;11&111111=>1;<<*111>11:11<11%,1<%11:$-*-;&*>-11;,",
"111<*11:&11111@:1<*111111@1111;:11111>:11<11&11-*==+%&$X**:*<11=",
"1111*111&<1111>@,,:-1111;*$1111;;<1111=,1>=,;*;-O$@;$,$,&$%@;11-",
"-:<1,;1<:=>-:;-@,<-$1111->%>1111>=->;>=;>;:-@@#&,,<1,;*,<><,%,<=",
":<,,,@*$@$#o#+@$%%$$:,<:::@-%--->=$$*+@%$+$%;-=<<1111&,%<>11;@$+",
"+*&%%:@:<<<:=:;<<<<,&o$$%%#O$#$#o$,,<$><<1-;;;#<11111<=&-,><1-1:",
"$1<<<1,$11<,&<<1<111<#<<111%,<<<--111,&1111<-,>=111111-*;-,:>><1",
"-;11111%>1<%-;1111111&>1111,%1111%1111%>1111*11;,111111;%;<1<;&1",
"1$11111-#11:=%111111<<#11111%<111&=:,1<$*=<1*,11*1<11111o1:-;:O<",
"1=:1111&&:111+11111111&:1111<*1111&;,11;,1:=&*11::111111>=111,,*",
">1$1111&1%111;%11111111$<1111;:111>:1111=<1<>;111*<11111<=<1111&",
"&1;-11,;1>-111@><111111>=11111$<111*<1:>1*<1111<1>-::;==:%=1111<",
"->1$<1-111*;:,@-<;%<<:;;$>111>&=:::%-<,>,$&;:;:;&=&;**%%#+*,1111",
"1=1,#>*;=-*@#+o$#X=<,<<,O*-;:=O$%%$o%$@O#o=-=;=$#O-::=&,<,%*>,,1",
",&>;-<:&$%&,&;>,<@%##$$O%%%O$;,<O,,<<<<*<<$%>>><<#>111*<<1=&;::,",
"@$$#$$O:,<<1->,1<;:,<<1<*<;=-111*;11111-<11+<1111<#111<=11<&::;O",
"=<<<<1$<1111>>;111=11111=1;1%1111$111111=11;*11111>&111=,11;,11>",
"*<1:11>&11111--111=,1111<&;1:;111;-11111::11$<11111&-11<%111=111",
"<&11111&<1111;;1111%<1111=;11$1111&<11111&<1<%111111&:11*>11,:11",
"<%:1111<&1>:11-1111;:1111%=11;-111<%111111&<1>%<111;;$:<1$111=<1",
"<,@>1<<<;#=&:;&<1111&1111%1111#<111>$111111=<1:$&;-><*11,&-:>:;,",
">:<%$@#$$$*%$%X;,,<,;>111=1111,=1111;;11>:-;;:*o%$@#$&%$##%&%+;:",
"-1111;:<<,*,<<<&$&*;;%11>:<=<,<%,:=*=@==*%$%@$=<<>%<<<<<*>,<<1*>",
"%11111-<11>>1111:,>O@@&>;*$&%$%X%%#&+o%-&>,<<1<111:;11111&111<,$",
"->11111=111;;111>=%*<,:&%-:#*,<,-<<<&,$<1>;,1111111;:1111<%11<:<",
"11>1111<&111;;1111<;<1<<<11<$::,:&1>=1>=11>*&&*11111=,1111@*1111",
"111-1111,&111,-<111<=<111111;->-*@-=$11=:1111<*=<1111%,11,;==111",
"111<-<11,<=11<<#;=;;%:1111111&,11&>1,;:-@<11111%>11111@>1-<1;$11",
":>,>%:,,;1-;>;;:,<,:%$1111,11<#111%11<:,,@111111#>1111<@>%,,>@&-",
"$%$#+%$$@#@$@@#$O#$*,#,1111;<1*&11>=11111=%11<><<#->;;:$::;**O$%",
",,<<,,,@;,,<>*<<1><11<$<1111,,*#:11-;11111#--:,,*#$##$&oO==;;#*=",
"<<<1111>$1<11;11111111,%<=@&=;,<$<11-:::;$@$%Oo@%>$><<1=%><11=<%",
"&1111111$<111;111111111,o=;*&+**+:;*#%&%+-,,<>#<<:,*<11-,&<11*<<",
";;111111,*111,111111,1,:&.=>&=,>-=X*,<<<#<1111&>11>::1<%>,;11%11",
"1->11<111=<1111111;1<;-=-*>11%<111,&1111,%11111%1111:,1><1,-1-11",
"11&<111111%1111111---%#-<1%11:;1111=>1111=;<111,=1111-,1111>>111",
"111*111111,*11111==+@@,111&-11=<1111+,11<1*>1111>-1111-<11,<:>11",
"111<&11>111>-1<*=*@;,$>111=::11=1111*%<1<11&:,<,-#-111<*,;>*-;11",
"11,;$*:=-;:>=%=*$=,111$1<<=1&>11=11:;<&--*=&&=-*%O;=-==&*>,:=$<1",
"::<,%<>-=-=*#+@;<<1111:&1>&1,&>-;&>=,<-%%@@*=-@-<>%$+@$#$@o%@-;-",
"#@+@@+o%#=:;*$,<1111111;**=;;;;<<;>;>,&,1,%111%$1111%,<11<=1<&$$",
";;<<<1*<>:11<$<111111111=#$$++##@#O+$o=<11%<11=--1111&1111,,1>>,",
"@<<111,;1=111<*1111111111->,&<,%<<,#<*%111;$;*,1@1111>=1111<;<:-",
"=:11111=,&<111:;1111*<1:&&-<%<1=,11>*1+*;1<=:,11-*1111*,1111;;=1",
"1*<11111*&<1111->111<%*-11%+*111*111*:,$111&11111$<1111$11111-&<",
",1&11111,+<11111*;>1<*%<11<-=111>-111%,>;11=<1111>#1111%*1111:*:",
"11>-11111,%<11111&,==$<1111-;-111=:111*,111<-11111&=11*,,*1111$<",
"111;>111<1<%111<==*&*<111111-:,111*<1<<&:,11-;1111<%<,:11,*111:;",
",1<<-111::<-=,=-:%@;>>;-=;-:>::;==;$-,>$>>>:;$:>,:>%;;--==$<,<1&",
":::;%---->-;@#%%X%@-;1,<>;&$O$@+##+$#@ *-**,>&>,>>*o&@*==#&#@&*:",
"$%%&o>;*%$$%:<<1=><*&%Oo$=:;&,<<<;&,,<<;o>:$%*X$==;#,,-=<;;<%>,@",
"$<,,:&#>$><<11111&11<1<$<111$<1111$11111*-1<1<>&111>*1<-11-<1*<,",
"%:11<1:-#;1111111&11111&<111<&1111;-1111<$<1111&,111=<1=11<;1<%<",
"$#1111,<1$<111111,=1111<&1111*>1111+11111&:1111<%111<;1%111*11>@",
"1$>1111;1<=1111111*11111&11111$111>+*11111#11111&>111:,<111,*11>",
"1<%1111,;1>=111111::1>,1>=1111>%11&1*:1111;-11111&1111:<111>#<11",
"11=;1111;>1=*,11111=11-,1=11111*;1=1<=>1111&><,>:;:,<>:-1<,,-%11",
"111%>111<=,:&&>,;:>$>,=$==-,>-*-#=&>>,%,,::>#$$%**=--=$o;&&=#&11",
",<<@->,,1%X$$@+$###+#+O&%&&O&*&++@+#OO#&&*%&$><>$:;:%>,>-+;>&*,<",
"#+oO%$@#@=%><<-%,<<<<<+1111=>11<%<-;-,<<**>:$<11&<<1<=<1,&<1<O%$",
"<<%,,=+>,<<&111#<11111&:1111&111&<1-><111*11*>11,*111:,1,&>11%<<",
"11*<11#%>11*,11;-11111,#1111&111,*11=,111;;11%111%<111<1;,*11*<1",
"11>;11=>--1<$111$111111$&<11,=111%>11&1111*11>=11:=111<><<=11<-1",
"111=11<%1>&-%*11>-11111<&==,=#111<#*+>1111:=11%<11&111<;,1$,11*1"
};
