/* XPM */
static char *out[] = {
/* columns rows colors chars-per-pixel */
"64 64 256 2 ",
"   c #1A1917",
".  c #11101B",
"X  c #2D180F",
"o  c #28191B",
"O  c #371B1B",
"+  c #162419",
"@  c #28271C",
"#  c #37281A",
"$  c #342D19",
"%  c #0F1527",
"&  c #191A27",
"*  c #291827",
"=  c #381926",
"-  c #2B1035",
";  c #371A34",
":  c #1C2628",
">  c #282826",
",  c #392726",
"<  c #2B3528",
"1  c #373626",
"2  c #2B2D3C",
"3  c #392734",
"4  c #3B3636",
"5  c #471C1B",
"6  c #47271B",
"7  c #58291C",
"8  c #49331C",
"9  c #59351C",
"0  c #6C2919",
"q  c #782E17",
"w  c #69351B",
"e  c #78381A",
"r  c #451B26",
"t  c #541C32",
"y  c #4B2322",
"u  c #462827",
"i  c #562726",
"p  c #5B2C2B",
"a  c #4C3325",
"s  c #483629",
"d  c #5B3323",
"f  c #583829",
"g  c #482935",
"h  c #592A35",
"j  c #4A3635",
"k  c #5A3837",
"l  c #662B28",
"z  c #7A2D2A",
"x  c #673926",
"c  c #62332B",
"v  c #6B362B",
"b  c #6B3B2B",
"n  c #773827",
"m  c #733D2B",
"M  c #672B34",
"N  c #683735",
"B  c #733434",
"V  c #7C3C33",
"C  c #783936",
"Z  c #78471D",
"A  c #49422A",
"S  c #59442B",
"D  c #584435",
"F  c #504D37",
"G  c #694529",
"H  c #7B422B",
"J  c #784728",
"K  c #79512E",
"L  c #694836",
"P  c #7B4433",
"I  c #784837",
"U  c #6B5438",
"Y  c #785538",
"T  c #7C543A",
"R  c #7E6139",
"E  c #3E0E42",
"W  c #4F1946",
"Q  c #5A3344",
"!  c #6B2A4A",
"~  c #673746",
"^  c #793D43",
"/  c #554B44",
"(  c #684745",
")  c #784745",
"_  c #775544",
"`  c #73534B",
"'  c #72614F",
"]  c #8F300D",
"[  c #89390D",
"{  c #883919",
"}  c #963A19",
"|  c #A53D17",
" . c #872C22",
".. c #833C24",
"X. c #883928",
"o. c #983A28",
"O. c #833C33",
"+. c #873A36",
"@. c #983C34",
"#. c #A33A2A",
"$. c #A63A33",
"%. c #88461A",
"&. c #8F4C18",
"*. c #974719",
"=. c #A6471B",
"-. c #B6481D",
";. c #A6531D",
":. c #834424",
">. c #8C4422",
",. c #844B25",
"<. c #8B4A24",
"1. c #84442C",
"2. c #8C442C",
"3. c #834C2C",
"4. c #8C4C2B",
"5. c #9C4323",
"6. c #93442C",
"7. c #964929",
"8. c #9B4B2B",
"9. c #87532A",
"0. c #8C532C",
"q. c #94542B",
"w. c #9A5628",
"e. c #945A2D",
"r. c #8C4334",
"t. c #834C35",
"y. c #8B4B34",
"u. c #864639",
"i. c #944532",
"p. c #934C34",
"a. c #9B4D34",
"s. c #974739",
"d. c #9C4C3B",
"f. c #845434",
"g. c #8C5334",
"h. c #8E5B34",
"j. c #8D543B",
"k. c #84583A",
"l. c #8B5B3B",
"z. c #935433",
"x. c #9A5434",
"c. c #945B34",
"v. c #9C5C34",
"b. c #94543B",
"n. c #9B543B",
"m. c #945B3C",
"M. c #9B5B3B",
"N. c #A34325",
"B. c #A4432C",
"V. c #A44B2D",
"C. c #A94928",
"Z. c #B54A28",
"A. c #A7572A",
"S. c #B7562A",
"D. c #A34C35",
"F. c #A84837",
"G. c #B24C32",
"H. c #B64B3A",
"J. c #A35233",
"K. c #AB5433",
"L. c #A35B34",
"P. c #AC5C34",
"I. c #A4543B",
"U. c #AC543B",
"Y. c #A35B3C",
"T. c #AC5B3C",
"R. c #B35435",
"E. c #B35B34",
"W. c #B3553C",
"Q. c #B45B3B",
"!. c #BA5839",
"~. c #9D612F",
"^. c #8B613B",
"/. c #96643A",
"(. c #9C643D",
"). c #AA642B",
"_. c #B5632D",
"`. c #AB6334",
"'. c #A76738",
"]. c #A3633C",
"[. c #AB633C",
"{. c #B66738",
"}. c #BB643B",
"|. c #B8723B",
" X c #C45427",
".X c #C24F3B",
"XX c #C45938",
"oX c #C66839",
"OX c #CE6A39",
"+X c #893C44",
"@X c #8F385D",
"#X c #894945",
"$X c #974A46",
"%X c #8B5944",
"&X c #985745",
"*X c #934E55",
"=X c #A64B45",
"-X c #B84C42",
";X c #A45343",
":X c #A75747",
">X c #AC5B44",
",X c #B75747",
"<X c #B45C43",
"1X c #BC5D43",
"2X c #A85B53",
"3X c #B85C55",
"4X c #886445",
"5X c #996646",
"6X c #9C6B43",
"7X c #9A724F",
"8X c #996853",
"9X c #A36342",
"0X c #A36A45",
"qX c #AA6C44",
"wX c #A86749",
"eX c #B36444",
"rX c #BC6344",
"tX c #B36B44",
"yX c #BB6C44",
"uX c #B4634B",
"iX c #B86B4D",
"pX c #A8754A",
"aX c #B97649",
"sX c #AA6953",
"dX c #B76A55",
"fX c #A97B56",
"gX c #BA7756",
"hX c #B47C53",
"jX c #986763",
"kX c #C55B45",
"lX c #CD5947",
"zX c #C76847",
"xX c #D66848",
"cX c #C57747",
"vX c #D5784A",
"bX c #C76C55",
"nX c #D66B52",
"mX c #C77656",
"MX c #D67855",
"NX c #E47751",
"BX c #C57962",
"VX c #B58257",
"CX c #BA8762",
"ZX c #D5864D",
"AX c #C98456",
"SX c #D18B53",
"DX c #D88659",
"FX c #E3845A",
"GX c #E7915A",
"HX c #D68564",
"JX c #CE9168",
"KX c #E48765",
"LX c #EA946B",
"PX c #DBA26B",
"IX c #EAAB74",
"UX c #FAB482",
/* pixels */
"%X%Xm.5Xt.H m n.&XD T D Y j s 3 , 3 g @XC O.r.H P uXP b.Q.rXR.J.U.[.mXw '.<.L.[.x 4.x.6.q.2.T.mXM.H y./.6XY.f.d tX(./.pXl.9.f.K ",
"l.4Xl.^.l.v.z.cX5XsXj.f.sXT T k.b M +.bXO.B X.n n H b ;X1XW.B.Q.rXeXHXw z.<.q.yXx yX:.:.<.:.T.iXqXq.v.M.g.v.iXf.aXm.(.4Xl.f.^.h.",
"sX5X%XpXY ].T.DXaXm.b.K b.T b.b.$X<XF.3X$XF.X.n ..n m B T.W.V.E.cX[.HXm ;Xq.4.yXf.[.e 4.7.4.L.M.aXY.x.&XM.v.Y.1.aXe.c.l./.pXpX0X",
"5X4X0XgXI z.v.mXdXh.g.J 3.j.u.r.:XI.i.bX;X-XF.$.X.n ,X%XrX!.U.rXrXY.DXj.P x.p.tXm.M.e <.L.L.eX].qXv.3.z.M.&XY.K 4XhXT ^.6X6XpX6X",
"^.^.8XJXS 9Xm.mXM.h.3.:./.f.&Xs.d.b.s.dX$X,XH.i.X.@.3X<X,XW.W.1XQ.a.mXwXb u.y.[.M.qXz.w.{.yXDXaXgXaXz.j.b.>XsX5XU ' VXR VXVX/.^.",
"5XfXCXPXb gXwXIXk.h.9.J Y.g.u.y.s.>X<XdXsXzX,XH.o.a.,XuXF.U.,X,X<Xi.T.dXI s.r.eX5X9X[.tXY.r.yXT 7XCX8XgXJXhX0X0XU CXVXU VX7X7X7X",
"7XVX' jX_ 8X&X3 k.c.e.e.[.g.u.O.O.O.sXsX%XdXkX-X@.H.d.dX;X,X,X,X1XI.Y.sX&X>X>XDX%XgXtXb.P x s * ( ` j ( ) _ Y L ' 7XVX< CXCXVX7X",
"/ / / / ( ` ) D f././.'.cXt.n.r.$Xu.2X2X( ~ ) ,XlXlX$XBXMXMXkXkXMXbXbXdX2X3X$X*Xk , u = y N 3 ; g 4 < 2 > 1 k 1 < < < : U F U F ",
"4 2 2 % 3 4 ) > @ u f G K f k f k p g g % & 3 g ; t h *X+X$X=X$X*X#X^ ! W W - ; g N B $X$X2X#X&XL I G Y G pX(.k.1 F 1 < < 1 1 4 ",
": ( Q ( Q g 3 H G $ # , @ 1 > $ y @ # O i 7 c k M M ; ~ W W ! ! ! @X! E W 2X2X^ $X$X=X2X:XBX%X&Xf.3.c.(.K AXq.J U 4X^.(.f.S S s ",
"j sX&X#XN &Xk x.n %.%.:.H P   G 7.V.} {  .} >.&X+.M B +XC t t t - W ! @X=XkX*X$X2X3X=X=X2XBX#XT 5X].tX|.J aXq.%.9 (.'.e.L.x.M.&X",
"k gX:Xy.4.y.b oXA.%.%.C.Q.K.O p.C.| ] ] ] | { bX-Xs.$.+.H..XH.@X! +X! +X+.@.$X*X2XuX3X=XuXmX8XgXmXtX^.IXVXqX0.9.G ZX'.q.w.4.q.z.",
"u.BX#XV 1.7.p.OXoX5.%.W.W.I.7 R.R.} ] | ] [ 2.bX=X@.@.=Xo.H.@.-X=X@.H.kX@.$.=Xh t h I #X$X3X@X%X#X%X( 4X_ tXe.v.J IXZX`.cXw.q.n.",
"j.HXgX>XT.zXT.oXS.C.R.B.D.l i.D.S.} } | ] } I.:XD.F.+.@.@.kX-X=X+. .G.$.@.$.z B +.B C p M 3 - W Q W Q / j 6XaXoXx L hXaXaXMXeXtX",
"g _ #X%X&X$Xb FX!.S.B.V.G.v U.X.B.q ] | =.C.gX,X$.+.X.$.$.-X$.$.z H.$.#.$.$.+.:XbXn.<X,Xd.$X- W ! Q Q ; - ( dXP j k u j 3 Q h N ",
"; u # = O u O b z o.o.XXxXO.W.6.5.] ] } *.C.:XnX$.@.@.$.$.$.$.$.+.NXH.H.#.-X@.bXmXx.i.p.d.$Xt @X+XC O.C h u 3 , o > s f b r - . ",
":.d d :.X...X. . .5 0 V V v zX6.C.Z.} } } C.>.bXF.$.$.$.#.#.$..Xi.bXzXxXH.H.$X;XuX>Xi.J.D.r.+.+.B +.i.;X&XN k L P I m.T L.2...w ",
"8.x.x { { o.} -.} q S.a.  8 P d :.xXS.Z.oXZ.6.KXF.=X=X@.$. .$.lXu.FXkXV.H.H.,X$X>XuXI.F.;X$X+.d.z C s.u.2XP &Xx.Y.M.gXG vXw.5.%.",
"A.|.n :.{ { | -.-.S.S.{ %.Z e.f f d d 6 b U.1.IX<XH.H..XlX#.#.lXC LXkX!.kX1X:X:X;XD.bXbXbXuX@.@.O.u.+.C 2XI wXg.z.M.aXI {.Z %.*.",
"A.cXn *.{ } S.-.=.-.-.} 7.%.q.J a # @ + # O o $X-X,X-XH.lXNXxXxXC LXrXU.!.kXbX$X=XC C $X^ N bX=Xs.$X%X&XbX&X5X].].0XSXk.GXA.S._.",
"v.yXe } ] ] -.-.-. X-.N.e [ w.A.9 9 w 8 # 6 # X 5 6 5 6 7 m P ;XV UXIXKXNXKXuX= h c p g j g $XM N g j ) jX( I VXpX7XVXU ].).q.4.",
"# 9 0.;.} | =.-. X-. X-.%.A.%.A.Z w %.*.[ =...%.Z %.[ e l p p c p sX+XM M +.M C K.Q.x.u @ $ , > ; & & ; 3 W * > < 1 $ $ 9 $ # # ",
"Z w.,.S.| =.|  X X XOX8.%.A.{ A.&.q %.[ %.*.>.A.;.;.;.;.A.8 G x b l 5 i 6 i i V.A.zXY.J J e.e.K 9.J f ) B M u.b.S S S 9 K G %.&.",
"&.).e S.Z.=.|  X X XxXn w.*.Z %.A.&.[ [ [ *.%.A.&.).|.|.{.4._.V.K.7.8.P.n C.X.C.E.oXg.f.K ).'.~.,.~.f v.z.Y.uXqXZ ~.Z 9.e.Z &.&.",
"&.).w.;.Z.;.C.OX X X Xn E.>.e e _.%.} *.&.A.%.E.&.A.).).cX,.).C.!.K.P.cXH vX5.G.Q.Q.z.`.9.q.&.~.~.q.8 ].<.x.`.cXZ Z 9.&.~.9.&.&.",
"&.;.~.A._.S.S.OXOXXXOXn K.A.%.{ {.;.;.S.N.V.e |.L.`.).).|.e._.K.S.K.8.cXH zXV.E.P.K.z.q.L.).~.e.v.aXH v.7.x.[.aX9.Z e.&.e.e.9.&.",
"w.L.c.`.zXoXoXvXNXOXR.6 Q.J.8.8.E.x.oX{.zXOX%.z.oX).|.|.aXv.{.A.E.V.J.DXn.MX<XQ.oXoXz.tX`.'.w.e.'.ZX3.cX`.oXZXAX'.w.&.&.Z ).&.e.",
"{.ZXg.tX[.{.{.].4.v n Y.T E.J.x.zXf.H b g.G x 5XZXGXZXZXGX[.}.NXvXxXzXmX<XzXzXcXDXFX4.SXZX|.~.~.e.AX8 f 9 qXJXK aX|.ZX|.G AX|.e.",
"S K s f a 9 8 8 d a g h * u x G T f @ s s   $ f # w n n m d H 3.j.b.&XC u d b 7 7 b a U T c.e.'.|.pX9 6 # # , @ u # a d $ L $ $ ",
"8 a @ a S G S Z v.m., s u G x a L D G G J 9 O 7 d 0 l 0 i d i 6 y # c c b P t.H u , @ $ @ $ 6 G G 8 d p.x.P @ a S A f d 8 @ K G ",
"9.,.8 g.0.J Z '.v.qXa e.f.e.v.K 6X].].'.'.'.t.R.o.$.C..X+.M u.I.I.x m m x n ..v d E.:.9.9.K b.a 1.v 2.K.!.zXv aXK x H q.Y.G `.,.",
"J J 0.U '.9.e.e.e.yXf 0.J J ].c.m.h.c.~.~.~.K K.F.Z.o.$.@.a.a.>XT.r.:.n X.{ w o.>._.<.:.e 4.Y.n.zXD.5.B.D.}.m 3.0.].x.z.eXd [.9.",
"4.:.wXG /.9.9.,.c.|.x J <.<.w.|.f.0.e.c.e.].b.x.F.G.o.B.F.D.i.i...n 2.e n ] #.Z.4.A.%.e e 1.:Xb.Y.V.} B.5.K.b J J L.w.8.cX8 cXM.",
"y.6.Y.I /./.e.9.L.[.e.9.w.<.).AX3.4.3.z.,.L.z.U.5.G.#.B.U.<Xi.2.i.D.a.e q q { N.2.T.>.{ e 2.:X>Xz.N.N.5.o.oXH ,.Z w.<.<.mX9 tXg.",
"z.p.[.J '.9.).9.,.tXK e.~.`.|.ZXk.c.3.[.L.qXM.>X8.H.W.bX1X:XuXF.Q.I...{ q q } B.1.yX>.{ { B.>XmXn o.5.} C.cX3.<.:.<.%.w.aX6 uXb.",
"j.>XZXG JXaXVX)._.aXpXpX].|.oXVXY qXv.qX].].t.mXzXzXMXKXuXmXLXNXKXmX6.} { N.} K.H tXJ.*.{ D.T.DX4.5.N.XXG.vXf.|.A.A.w.w.tX6 mXM.",
"N 0X5XD 1 1 $ < a k.^.S 8 d 8 s 1 L k.%X5X9X) gX<Xj.I *XL *X#X$XgXmXa.!.Z.S.G.zXu.M.[.J.K.W.rXKXb.MXnXzX!.DXm.hXJ K x.L.g.# eXn.",
"1 @ @ < A A S S A $ J G <.J (.1 D f s s > : % 3 > # u , u B p p h u B +X$X<XzXmX&XmXMXyXU.yXm.6XP <Xt.f k f d 6 6 d 8 o * s N f ",
"k.T T %XpX/.R ^.^.U ].[.A.A.|.G 0X4XI I T ( k 1 &XM.[.9Xu.V v I.j.m i r * ; g r a &X_ u , , L A , s $ f G f v w 7.>.e V t.iX%XT ",
"$Xb.j.k.f.^.e./.6X^.aXoX).`.{.Y qXM.4X&XH b.k.H v.T.Y.p.v r.7 I.}.S.*.{ +.k ( b a 1 > $ @ @ < A a J G S P m ..5.[ o.7.s.f 2XwX&X",
"wXdXdX4X0X(././.pXY AX|.).|.|.Y 0Xj.g.M.t.M.wXz.[.L.8.9 r.2.x ZXOXS.;.N.n &XyXL.].K 8 K U G 9.9.(.[.:.J <.x J.=.e { 7.D.b sXdXgX",
"dXgX8X4XpXfXVXVXCXY SXZXZXcXoXf.0Xf.3.g.y.M.wXx.zXJ.*.cX..K.x GX{.*.;.S.9 sX].(.9.,.G G aXaX&.9.4.x.8.w.q.n 6.X.} ..8.G.P &XsXdX",
"JXJXjXjXJXPXVX' VX_ PXcXVXSXSXG gXc.3.y.m.iXj.eXcXE.7.E.0 E.x IXZXoXOX{.9 iX9Xn 0.,.G (.tX'.9.3.J.L.K.V.R.w B...6.R.!.nX#XsXgXmX",
") %X' ` ' ' < A A s f.S 9 A A A VXmXeXiXiXmX%XiXDXE.S.xXJ.Q.H hXPXAXMXAXI gXcXcX{.v.G 7XaXAXAXcX{.{.E.E.vXq <XH.@.B.X.=Xk sX8X%X",
"( 3 4 : 4 A F _ ^.U k.$ S Y f > F 5XwXsXwX%X#Xj.P y.a.Y.F.DXv B B v c r i %XG t.gXGX%X4XfX6Xj.0XwXeXb.t.u.y * u M B B M ! Q ( k ",
"Q ~ Q g 7XpX^././.k.5XT tX].J G s D 1 @ 4 f s f , 6 , O 5 i r O 6 r O l i X 6 i , f s j D s > & a 6 # 6 i p l O r i t M +.h Q ( ",
") #X;Xk j.h.h.m.0.9.l.b p.>XI.P.z.t.j.%X^.D D Y Y K J w { X. .n  .+.i.Q.V.>.} n 7 f I b f k I o n q 0  .+.o.$.l @.F.@.$.kX$XN %X",
"u.b.n.b I z.9.h.Z :.t.u.p.i.s.U.P.Y.&XwXpXl.4XT 9.0.w.w.zX5.} N.} X.a.zXK.G.S.S.p.:X;X;Xu.V u.l C.#.F.B.8.o.G.l B.$.$.$.lX#XI j.",
"u.p.t.:XI c.4.,.J %.b I.U.i.a.D.x.p.y.&X/.h./.9X(.].qXJ cXF.C.Z.N.G.;XzXzX!.!.!.v zX;Xd.p.u.$Xn .X#.#.| 8.o.lX0 8.F.G.F.xX:Xb.n.",
"y.g.H m.j.1.z.2.n >.n >X,Xs.a.8.p.x.4.1.5X/.6X/./.(.(.g.I.8.V.o.o.zXwXmXDXNXzXnXC bXuXn.:Xs.eXb.xXZ.Z.#.#.C.,Xz #.o.o.o.,Xb.&Xg.",
"g.g.m.iXI r.r.2.{ 8.m D.@.I.D.D.a.T.a.q.g.l.l.c.3.c.3.].uX>XT.!.oXD.iXMXzX=X+XlXM bX=X2XdX;XdX#XNXxX$.G.C.$.-XX.H.o.#.@.F.u.AXl.",
"m.m.iXHXP >XD.8...a.x rXo.i.6.T.x.Q.I.yXqXqXqX(.(.tXb.mXnXMXMXzXKXsXb.#X+X+XB M r g p #X$X#X2Xg LXlXlXNXxXxXnX&XnXlXH.-X,Xb JXsX",
"fXsX%X&X&XHXkXH.I.!.2.uXn M 1.eX{.Q.eXiX8XpXsXqX/.k.;XsX*X$X^ M C i r h y = i t M u.O.c o r h & M t M +.B z s.C dX,X,X3X2XS _ %X",
"1 < s s ~ ^ M 2X>XrXC N y y 6 u c O.m g 2 j j j j u p i u o = * z +.i.U.<X+.-XH.@.+.r.+.&Xy O.B i r = r i p r r h M h y u k + 4 ",
"4XU 4XT - t t l i i o u i 6 7 9 9 9 O u h ,     o c +.@.F.U.nXy U.U.<XzXFXX.=Xo.z r.U.>X;Xs.s.d.O.V V 0 L.q.7.Q.O u.I L Y 4XF ` ",
"4X7XpXfXt d.NXG.C.C.5 w -.;.*.%.[ _.rX#Xp B N B M nXH.o.B.X.zXu.zX,XT.1XDXy.W.D. . .o.:Xy W.G.W.V.6.W.1.vX}._.Q.f cX9X9X0X6XT 4X",
"4X/.6X%XV zX!.G.G.XX7 0 [ ;.=.;.*.S.<.uXB B C B z XX#.o..XW.s.dX<X>XQ.<XHXp.rXD.i. .G.>Xs.rXW.U.i.F.Q.H cXoX{.oXg.].(.0Xc./.6X4X",
"7X6XhXI s.oXR.5.N. Xq ;.[ *.=.=.;.S.:.uXz V s.z s..X#.#.F.T.I.gXiX<X>XiXHXH J.i.o.X.XX>X>XbXU.6.6.a.rXy.cX}._.}.K /.h./.0X^.hXL ",
"VX6XgXL :XE.K.Z.Z.#.q S.oX*.;.;.*.A.z.:Xn O.i.i.n..XZ.#.B.W.d.gXmXtX>XmXLX1.zXI.6.6.zXwXn.rXQ.T.x.eXeXz.vXoX|.}.I VX6X^./.6XAXl.",
"7XpXhXG wXQ.o.#.S.Z.e oXoX;. XoXE.oXm.&Xv X.r.a.p.XXH.G.H.!.<XgXHXmXMXLX&Xd yXtXzXnXLXHXy.&XMX>XuXzX[.Y.IXSXZXGXK pXhXpXVXhXPXVX",
"F JXJXU gXQ.V.C.S.vX9 vXS._._._.E.cXt.Y.n r.I.s.Q.nXnXxXnXxXI.M v d V x #   # 6 u c u.N y l i N C I u.&XCX&Xm.m.S R R A A L U Y ",
"U 7X_ 8XAXzXxXxXOXGX8 GXOXOXOXoX}.DXI dX$Xu.C >XuXuX&X=Xu.z 7 i O.m m X w.>.e K.9 x , = O.X.a.l & f 1 , $ + , s @ + < A F G S F ",
"1 D F L x I d.r.O.u.s 0XyXiXtX>XbXdXL *XN h k h h h = p c X.D.G.W.rXcXn A.%.7.FXv &Xt.T.U.i.rX>Xb j.y.qXqXL S 8 S K S U f.^.5XU ",
"7Xj D f a a c c o . > k D L k g k ( - ; ; ; * & & 3 I &XW.W.C.G.Q.[.mXw L.<.L.zXb y.i.J...6.rXuXv H 3.M.qXh.f.R /.e.f.VX'.^.f.k."
};
