/* XPM */
static char *out[] = {
/* columns rows colors chars-per-pixel */
"64 64 216 2 ",
"   c #1C2518",
".  c #1E291A",
"X  c #222D1D",
"o  c #25311E",
"O  c #2A351F",
"+  c #263322",
"@  c #2A3522",
"#  c #2D3B24",
"$  c #2D3629",
"%  c #2E3D2A",
"&  c #313D26",
"*  c #323F29",
"=  c #303F31",
"-  c #2E412B",
";  c #324126",
":  c #33442C",
">  c #38462C",
",  c #35492E",
"<  c #3A4B2E",
"1  c #3D512E",
"2  c #344632",
"3  c #3A4632",
"4  c #364B32",
"5  c #3A4D33",
"6  c #374C3A",
"7  c #3C4D3A",
"8  c #3C5335",
"9  c #3F5937",
"0  c #37513A",
"q  c #3D543A",
"w  c #3E593B",
"e  c #404E34",
"r  c #424F3E",
"t  c #425335",
"y  c #415936",
"u  c #42553B",
"i  c #49573D",
"p  c #435B3C",
"a  c #495C3D",
"s  c #45613E",
"d  c #49623E",
"f  c #50653E",
"g  c #3E5642",
"h  c #3F5A41",
"j  c #424F44",
"k  c #435542",
"l  c #495543",
"z  c #455C42",
"x  c #4A5D44",
"c  c #47554C",
"v  c #465D4A",
"b  c #4A5D4B",
"n  c #515E46",
"m  c #515D54",
"M  c #535F58",
"N  c #456343",
"B  c #4B6344",
"V  c #476846",
"C  c #4B6A45",
"Z  c #476349",
"A  c #4C644A",
"S  c #4E6A4B",
"D  c #516445",
"F  c #516A46",
"G  c #52644B",
"H  c #536B4C",
"J  c #5A6E4D",
"K  c #4E724A",
"L  c #53734D",
"P  c #58754A",
"I  c #5A714E",
"U  c #567A4D",
"Y  c #4D6352",
"T  c #4E6B51",
"R  c #526353",
"E  c #536C52",
"W  c #5A6D52",
"Q  c #55655A",
"!  c #5A655C",
"~  c #576A58",
"^  c #5B6D5C",
"/  c #4E7253",
"(  c #547353",
")  c #5B7353",
"_  c #567A55",
"`  c #5C7A55",
"'  c #56735A",
"]  c #5C745B",
"[  c #5C7B5B",
"{  c #616F5D",
"}  c #617455",
"|  c #627B55",
" . c #62765A",
".. c #637B5C",
"X. c #6A7E5E",
"o. c #5B5F60",
"O. c #5D6B62",
"+. c #5C7462",
"@. c #5D7C63",
"#. c #5F7468",
"$. c #626D65",
"%. c #626D6B",
"&. c #627464",
"*. c #637D62",
"=. c #677867",
"-. c #6A756A",
";. c #637D6A",
":. c #6B7B6E",
">. c #6A7A72",
",. c #6B7C75",
"<. c #717D74",
"1. c #737D7B",
"2. c #5B8154",
"3. c #5C815C",
"4. c #63855A",
"5. c #64825C",
"6. c #69845E",
"7. c #6A8A5E",
"8. c #5D8464",
"9. c #658364",
"0. c #6A8464",
"q. c #658A62",
"w. c #6C8B64",
"e. c #65846A",
"r. c #6A856A",
"t. c #668A6C",
"y. c #6C8B6B",
"u. c #718B64",
"i. c #71836A",
"p. c #738D6D",
"a. c #6E9365",
"s. c #6E926A",
"d. c #739266",
"f. c #74936C",
"g. c #79936D",
"h. c #73996D",
"j. c #6B8473",
"k. c #6D8B73",
"l. c #6A8976",
"z. c #728274",
"x. c #738C73",
"c. c #75847C",
"v. c #738C7B",
"b. c #79897A",
"n. c #7A8C7C",
"m. c #6F9777",
"M. c #749373",
"N. c #7A9373",
"B. c #759A73",
"V. c #7B9B74",
"C. c #75947A",
"Z. c #7A947B",
"A. c #779B7C",
"S. c #7B9B7B",
"D. c #7CA174",
"F. c #7CA37B",
"G. c #819C7D",
"H. c #82A57B",
"J. c #84A97B",
"K. c #737B81",
"L. c #7A8682",
"P. c #7B8B84",
"I. c #7C8B88",
"U. c #7B9484",
"Y. c #7B9986",
"T. c #7BA587",
"R. c #818A85",
"E. c #828D8A",
"W. c #819A84",
"Q. c #859689",
"!. c #84938C",
"~. c #839C8C",
"^. c #858D91",
"/. c #859392",
"(. c #8B9696",
"). c #8C9C94",
"_. c #8D9C99",
"`. c #919E9C",
"'. c #83A484",
"]. c #83AB83",
"[. c #89A78A",
"{. c #85AB8B",
"}. c #8BB28B",
"|. c #95BD8A",
" X c #8AA695",
".X c #94A597",
"XX c #93A39C",
"oX c #95AB9E",
"OX c #8CB494",
"+X c #8CB49B",
"@X c #97BC98",
"#X c #979DA1",
"$X c #95A3A1",
"%X c #9AA6A5",
"&X c #95ACA4",
"*X c #9AACA4",
"=X c #99A5AA",
"-X c #9CACAB",
";X c #9BB5A9",
":X c #9EBAB1",
">X c #A1ADAB",
",X c #A3B4AF",
"<X c #A5BBAD",
"1X c #A5B4B2",
"2X c #A8B8B5",
"3X c #ACB4B9",
"4X c #ABBCBB",
"5X c #9BC599",
"6X c #92C3A5",
"7X c #A8C6BB",
"8X c #B2C4BF",
"9X c #ADBBC1",
"0X c #B2BDC2",
"qX c #B4C4C4",
"wX c #B7C8C8",
"eX c #CCD5D9",
/* pixels */
"`.E.!.v 8. X+X8.;.L./.4 % - - Z >.;.2 b l.!.9XXX*X1XL.1X`._.*.4 : +.0 l.:XoX$XY 8 : v.' 2 Y L.L.(.v h c.(.(._.!.v._.R : Y l.Q./.",
"*.9.S [ W.<X1Xj.e.t.q.N h / V S 9._ V V C m.S.C.U.M.k.Q.M.;.q.V h t.q.z.-X2X.XN w N 2.w V T s.s.Y./ w t.x.C.*.p s K S q.A.9.M.k.",
"r.H | 7.N.,XL.0.W G b p W A u z C C 8 B N L 3.3.2.S 3.[ [ 8.q.U K [ f.f.E.&X!.8 C V 8 N K w 8 s C s w [ E S w p H C ] H 9.) ..0.",
"C 7.H u.J.L.z.6.` E N F ) ( k 9 C w p s p 0 t , s w 8 C w V L U C V s.H.z.1X>.8 , 9 s y p U N w 9 4 8 E E 8 w V V 8 ` *.} ' N L ",
"C 7.d.5.V.*Xr.w.G 8 8 H ] [ z s u q : p 8 5 C 8 s w 8 8 : 8 P P V s 5.r.W.E.$.< 4 p , B L ) a p 5 8 9 : w 4 8 8 d p B 5.e.9.v 5 ",
"C h.w.h.F.c.=.w.G 8 5 4 z 5 p ) W r 5 8 8 F , : s 9 > 8 , L P p < S H *.].XXX # : , p w ( [ S q s 9 , 8 : s 9 w 8 : 8 H W 9.[ a ",
"y q.t.` F v X ( _ B G > t C | ] E ) q w w S 8 : s p V p 8 K L 9.Z # 8 q.V.B . o q 5 8 u ) p < p d A p w s , 8 8 9 9 p ` 8 ' w 8 ",
"8 p ( P 7.E . # 9 C ( ] E A ..d.*.E 3 8 5 8 5 w p 1 5 4 d K 8 9 A V p C S z . ; : 4 , u S q ) G H N p s 8 8 s > 8 w 4 ( u 8 y w ",
"p 1 ` *.G.Q.% o 8 7.) D ( a.B.w.F.e.l y 1 < 8 5 1 , < 8 y > ; p y < < d P ] 7 * 8 t 5 D D J ) .._ F y C : < 9 > 1 < , , a d 9 < ",
"I t | u.`.3X=.X # | X.p.H t 0.J.w.w.) P < < : > > # > > ; > > e y F ; t B *X).b x ..D u... .*.u.y t > a > < ; ; > : , # # > 1 1 ",
"I.! &.=X.X,X`.O.> 7 R R G 2 Q -.b.-.! 7 5 x 4 - 2 2 k 6 : 2 - k : - 5 l O.<.)./.1.K.$.M %.>.Q c c.:.$.&.l R g 2 : # 4 2 c 7 4 7 ",
"q.=.8.] Y.Z.;.9.S N k z v Z E oX&Xg _ ( S ( T S z Z S Z t.' Z _ ' ] v.'.T.' @X'.5X}.OX[.OXOXOXk.$Xc.<.m.e.A.k.N V Z A 3.t.8._ ( ",
"E y.t.( }.A.A ' ( E S A T E q.S &.6 S 3.` ( ( ( T _ ( ( M.....*.x.r.S.x.R ` r.p.S.M.r.S.S.M.@X4.k v x.E F.M.*.E ( C _ f.q.q.[ ( ",
"S w ( V [ ] B V N S H H p ( ` A 2 - B C L S S L _ Z x V D.^  .e.;.'.A.^ @.p S B.e.x.A.N.=.x.S.7.2 * C z @.M.*.l S v z f.[ N S V ",
"6 B p p B u N V C X.J n D D 4.w.M # 8 5 s C _ p p u z 7 H z B e.' y.y.) ` H z B z F u.*.@.A.y.7.- $ u 5 F S w.*.N z ] E ~ V p a ",
"z p 7 p p V p H ( V.r.i.} J } Z.R F 7.) x a z z x z p z x p v B B F A H B S x p V x =.' k A w.y.= 4 B H u z ( 9.L z F Y p S L 8.",
"p u z p 4 5 L p B r.V.N.g.6.J.b.%X/.X. .W l r F l l x x x H a N a p p H B A H A &.Z k R k H 6.g.6 b A ..H u A B L A q a z p 5 z ",
"` J x D 5 A u a J x [.V.u.J.|..X2XwX^ 0.S.A S H y.] ] [ H C N x N B B B a H  .G *. .B p B | 7.H.1.b J F X.G ) ) D x a A N z q q ",
"| W X.G l a H l u...r.p.H.H.5X(.wX>Xn.*.B t u t F y.*.*...u F a a 8 F x u p. .^ ..x D F 7.p.G..X!.R. .*.....*.k.r.) H t a F G W ",
"}.[.N.Z.( t d i.G.@X5X5X5X@X<X4X,X4X{ t i i t 5 t 5 0. .9.J p B B 5 t 8 ; N.0.y.N.) a 5 p.b.=X,X8X1X(.i.{.W F 5 5 t G p p 5 6.G.",
"_.c.I z ; > # & y.XX(.#X3X,X,XeX$XU.# * < & ; ; % , # $.L.z.A -.} G ; 5 # > 7 # >.%.; * e -XeX$X8XwX*X).).<.} ; & 3 n > ; > l ).",
"-X-XI.T 0 q q k O.-X9X3X0X4X4X4X Xv.U.S @.0 q v N 4 q U.<X6Xv.~.>.^ 0 b h k 7 z &.E 8 v v l.=X`. XqX,X~.).R.!.;.Y v ' z @.k.' P.",
"*.@.[ S w q q 0 q G.W.n.oXQ.Z.W.( q ( _ q 0 4 q 8 4 w w ' :X2 w _ 8 p 8 q Z ' w Z 4 4 5 4 0 ) B.4.h.7.a.7.d.M.y.r.@.L w h 8.8 w ",
" .' E x S 4 4 8 4 u.4.d.P | 4.9.` q q ( 8 s w s N 2 w H z z.V ( A B 0 8 q A A 4 - 8 q 4 q > J h.6.U 3.` P | ` 6.) [ S 9.*.j.g 2 ",
"z  .H G 4 - : 8 9 _ 5.4.w._ 5.s.H q p 8 s , 9 8 w k ] [ A 7 x l 8 4 , 8 ( z A 8 5 , : G ( I V 6.a.4.S 5 s 8 C ( 4.P 6.p.XX).| : ",
"q H [ l 8 8 , , 8 4 H w.w.q.) w.[ 2 : : s 9 w 4 x ( A  .j.Y * u , 8 q p E 8 5 % 4 B ( G I ` 4.) ) F 5 - , : > ( H ) d.@X4XXX` u ",
"0 8 8 q , , 8 9 # p E S u ] E H p s 8 4 s 4 : % > 5 < H G 2 + k 0 , 5 x [ 3 : 4 : F G L D ` 7.D [ 4 4 : : 4 : q 9 5. .B.*X/.J z ",
": 8 , 5 - : , 9 , : : % 2 u S z 9 8 8 w : : : : - 4 8 a q % o : 8 5 v F H 8 - 4 5 F ` 5.5.L ) ..( u : 2 > 4 p : , p ( } 1XR.Y B ",
"- : , : : : 8 8 4 q 8 , p A H x z 4 , , % 8 4 5 p p u ..v.7 : > a z ] x k , : - 4 5.` L 3.` | I } G S 8 8 , 4 0 % 5 q ` ..R 3 z ",
": < # % % # # , 3 ) ) w.I H I ) H u : , 9 u x 5 ) A H f.`.4Xt 8 , % W J p , : : u x J F 4.a.s.F 6.5._ : : , # - : , y s u b + 4 ",
", : # : - 1 @ # 5 X.J.w.a.h.w.w.w.J O # ; + D 1 & 4 } Z.2XqXoXp # + 8 d - # # O # < < @ D u.*.N.p.J d ; , ; : # # & a y 5 ' # > ",
"% X ; # 5 A * # A n.~.3X4XXXXXI./.^ > : + # O + & @ l +X+X7X:XA # 2 -.b O # # - % 2 l 3 ! *X2XR.k.4 : # % : # > 2 q k h T.6X;.: ",
"N 0 4 - 2 z q - 0 N XX-X).%X/. XXXW.4 - 2 2 h T.m.V 2 4 6 Z ~ k - Y I.,.4 2 4 2 v @.g 6 O.+.).8.6 6 4 6 0 u @.&X XV 4 4 0 - h 0 ",
"4 0 0 0 w 0 4 w 6 4 ` D.J.F.h.F.f.] h w 0 w w / = Y ( ( A T S Z z t.T.S.C.*.' / 3.3.q.3.t.' r.e.T T Z A T E ( *.6 6 s w 0 0 4 w ",
"8 4 8 0 N 9 p w w 4 4 B 9.5.9.M.W G 4 : 4 w p B X - E T / _ ( H S @.k.=.] ] S Y S _ 3.[ F.[ Z L S r.E ' ( 3.4.S   + - 4 4 , 4 0 ",
", 9 q 8 4 8 2 : 4 - : 5 z 5 G W ] B : N z p z j.. = u u u S A ( B z ..r.p.^ A N N a B L [ N Z Z b ] S Z E F ` v . + # # 0 8 s 9 ",
"w , 8 8 q 2 q 8 , 4 4 k a 4 E E A G q ) E G 0.z.j ( 7 B z B z ..E 6 H r.r.b b B 5 k ' w.A H u B q z z x A ) 5.z X : p 8 9 , 9 9 ",
", 8 s 9 5 u x 4 8 4 8 N _ 9 u [ G W E ..) ` N.$X#.b W u z z q r.*.u B ] e.Z 7 H n e H u B u q G z l x B A L 5.b % x _ , 9 8 : 4 ",
"# 8 9 C x A B B > : 8 8 8 C N W q 8 u : H y.p.!.^ Z r.e.u x a H E z B v B z p W ' E l u z F i r N E B u z ` ` ) 6 ` L s 4 : , 4 ",
"8 : 8 [ G E ] H A 4 9 8 8 q z E z l 5 : 5 W 0.P.M A 3 B C z u a *.k G A p G v z @.q.] x A A ~ u H z z p B a.|.V . a u Z N [ z 9 ",
": a > d 5.G ....W 5 y : 8 ; 8 8 G ..G 8 > ) Q.9Xl b A t D B x 5 0. .u x 7 l F e t D a t > D 0.] x a x u t }.|.2.X # 5 r ) y.J < ",
"> D t # * > E W =.u & a e 4 # , & # # # # &.qX&XU.o G i < i i 5 } 5 i D > x W D > 5 e 5 5 7 ..W e t t 4 < 7.d.;XR O.d > & < < > ",
"=X3X=X*Xv U./.^.R.l.Q  Xk q E 8.~ v 2 4 S 1X).;X X~ 4 k i l u A u 2 D m Y b ~ b l A b j 4 4 +.#.*.z 4 7 8 l ;.&X&X2X$X:.k G *.v.",
"oX0XqX-X9.] (.n.V 0 0 8 N K w Y.@.w 0 8 6 ;.e.k.h 0 : 0 8 0 6 0 0 N p 5 q h B w e.k.j.N 0 z ' {.l.5 q N 4 0 8 @.!.R.P.n.+.j._.qX",
"U. Xx.Z.( L N U N N s N K U w.~.# C B B N N *.q.` V V N N Z ] V L N V w N V K B r.y.[ V K _ 5.q + z ( V ( e.] ` H.y._ M.3.q.S.Z.",
"w.f.F.w.) k w C 8 8 4 V _ a.C.K.g p F F p q q ~ 5 w w w N p ( ` B N w p p N V p N q 9 q K C f.E o # w L d.*.] l ] p s L | ) B.h.",
"..w.0.) W G 8 5 8 p B ` D g.c.R.A e J D i u 9 8 8 p 8 9 u 5 C ` ( U d a V B 8 y 4 8 8 w u d F 6 o - 9 7.[ 9...[ p q p w ( Z 9.r.",
") 6.| D I l q : 5 7.| 6.| V.`.R.7.I ) F x H u u 8 8 8 p s 4 9 L ` H W a p 8 8 p N 8 5 8 8 2.C 8 . - 4 V E q.r.2.q s 4 8 8 8 p w.",
"J 6.5.L ( H q , 4 H 5.V.D.].wXE.a.a.5.5.q.9.[ R q 4 8 u u 5 p L 0.H W ( D a A , L N 8 8 F 7.' 4 + 8 8 8 8 H L p 9 p s 9 8 a V X.",
"y.M.0.( ] u 8 p q ` V.9.a.}.4Xc.h.M.( S ( S N a s 8 5 p H > 4 U ..0.y.y. .( ) p 8 , 5 5 ..) W.>.# ( B a u F L q p 4 p C 9 V N 5.",
"M.y.[ 5 p w , u , > x y.N.].%Xb.q B y 5 8 s 8 > s B , 8 y ( s d y.....r.*.w.z y s 8 < , L M.>.v.> | H x B n ) H J u y H x w.4 G ",
"C C B t > ; t ..B ; ; w.F.B.#X*X# > < > 4 t < > & i L d < s y > a.].].*.` 0.| d < > # p a 6.` t.$ d.p.5...I G.w.w.r.B < B ` d d ",
"t ; # o o # # D J > X 3 } X.oX8XQ # O 5 a & # : # ; > < 1 ; < : 1 B J } D l } t O , & e % > 8 T.j.{ M. .p.) ..5.} *.) t # @ i P ",
"C.l g g !.!.U.c.1.>.^ +.~ ' ~.R.@.6 0 +.b 0 v q h : v R Z q ;.oX[ v v O.Y Y M k b Z g u 6 k / t.P.>.O.Q ! Y Q m ! o.1.#.q #.(.<.",
"R ' _ [ e.'.~. Xk.@.T.r./ [ E T.t.k.y.y.Z Z ( T A T T v A ( k Y.- T [ T Z Z V T T A S Z T T Z k.T.}. Xx.C.3.y.@XOX'.s.' T [ W @.",
"+ C K ( A ] A.Y.;.] C ( 7.S [ p.*. .B.*.R ' S [ T _ / S S 9.( k % k 8.[ [ ( T A ( _ A ' E T S [ *.G S.C.] ( S S [ ` Z 3._ f.` g ",
"+ > x p A N v F [ V G E [ z a.x.k.V.0.+.E u x p p A S A F 5.F b 6 k x b ( B Z B x B v p G B z z ..] r.0.=.u A z H z F w.) V.5.6 ",
"X # 5 S u p a p ( p V U C q ` y.] ..( F S v Z x p z F 5.A [ A #.%.&.k S G B x u z z t ( 5 z B W b [ S.B.9.0.t V A C ....E W ..2 ",
"X 6 q A E p S H I A B C 5 z V [ E S A 5 G a V ..9.u p F *.' [ $X! ] k B E u v 5 x D ) G B B S ] 8 L w.r.r.] r H a C 0.....4.4.k ",
"$ E H E z H 4.u H L u a u q a A F p W J D l D ..W D x B H 4.9.`.R H u u W q u u 5.H 0.y.x [ [ W z ( 5.x.0.*.] 3 z S *.;.r.' ` b ",
"# 5 ] 9.l p q p H B t x p z x B p t ..{  . .W } ^ G l u B P ) ~ X > t x ;.G E E 0. .A A p z l A C A | M.r.k.r.7 D n l  .] ` ( 7 ",
"+ B 9.0.H t u 3 p F p d p F p 5 i i x.N.G.g.g.u. .0.G u P 6.L q X 2 a t W G B *.*.y.G u p x A F B < r.Z.C.Z. . . .} *.&.p ) w.u ",
"o * i D ) I e > > > i i e e > e i O D p.5X@X[.[.r.r.*.X.J F ` T X * a e a D > *.p.f t & i a e } | t a 6.}  . .}.W.i.r.r.D a } ,.",
"c.5 & * n ^ 3 @ > > > < # O O 7 > ! & a z.3XwX,X.X3Xc.(.Q.;.&.7X] 2 $ * n n z.{ u & 3 R l ; -.c.c.: 2 -.,.c.).R././.!.1.* n :XXX"
};
