/* XPM */
static char *out[] = {
/* columns rows colors chars-per-pixel */
"60 60 152 2 ",
"   c #4E2E16",
".  c #512E16",
"X  c #4E331B",
"o  c #553617",
"O  c #5D3515",
"+  c #52351C",
"@  c #5B361B",
"#  c #54391F",
"$  c #5C3B1D",
"%  c #643613",
"&  c #653816",
"*  c #6B3B15",
"=  c #643D1C",
"-  c #6A3E1A",
";  c #723F17",
":  c #713F18",
">  c #4B3521",
",  c #4E3A23",
"<  c #553720",
"1  c #553C23",
"2  c #5B3D22",
"3  c #533F29",
"4  c #613E22",
"5  c #6D4117",
"6  c #62411F",
"7  c #6C431D",
"8  c #744317",
"9  c #764A16",
"0  c #72431C",
"q  c #7A461B",
"w  c #75491C",
"e  c #7B4C1D",
"r  c #7E511E",
"t  c #564026",
"y  c #5D4225",
"u  c #564129",
"i  c #5C4429",
"p  c #5F482B",
"a  c #5C4730",
"s  c #634425",
"d  c #6A4624",
"f  c #654927",
"g  c #6C4A26",
"h  c #634629",
"j  c #694728",
"k  c #654A2B",
"l  c #6B4C2B",
"z  c #724621",
"x  c #734B24",
"c  c #7B4D23",
"v  c #724E2A",
"b  c #7A4E28",
"n  c #6D502E",
"m  c #765126",
"M  c #7C5225",
"N  c #74522C",
"B  c #7B552C",
"V  c #7D592D",
"C  c #654D32",
"Z  c #6B4E31",
"A  c #704F30",
"S  c #6D5232",
"D  c #6F5639",
"F  c #735432",
"G  c #7A5631",
"H  c #755835",
"J  c #7C5A34",
"K  c #735738",
"L  c #765A3A",
"P  c #7C5D3B",
"I  c #7D613E",
"U  c #7C5F40",
"Y  c #824D1E",
"T  c #83521E",
"R  c #8A541E",
"E  c #824E22",
"W  c #835324",
"Q  c #8A5525",
"!  c #845825",
"~  c #8C5A25",
"^  c #83552B",
"/  c #8A562A",
"(  c #845A2C",
")  c #8B5C2C",
"_  c #915C2D",
"`  c #985F2C",
"'  c #835730",
"]  c #835C33",
"[  c #8A5E31",
"{  c #825E39",
"}  c #885F39",
"|  c #8C612D",
" . c #93632E",
".. c #9C672F",
"X. c #9A692E",
"o. c #856034",
"O. c #8C6233",
"+. c #84623C",
"@. c #8B653B",
"#. c #8E693D",
"$. c #936533",
"%. c #9B6532",
"&. c #956935",
"*. c #9B6B34",
"=. c #916639",
"-. c #946B3C",
";. c #9B6C3A",
":. c #9C7035",
">. c #9C713D",
",. c #A16B2F",
"<. c #A26D34",
"1. c #A16F39",
"2. c #A57136",
"3. c #A97436",
"4. c #A3723B",
"5. c #AA743B",
"6. c #A5783C",
"7. c #AD7A3C",
"8. c #B67D3B",
"9. c #836442",
"0. c #8A6644",
"q. c #876944",
"w. c #8B6A43",
"e. c #8E6E48",
"r. c #936D42",
"t. c #9B6F41",
"y. c #967145",
"u. c #9B7244",
"i. c #94734A",
"p. c #9B754A",
"a. c #9E784F",
"s. c #9E7B55",
"d. c #A27544",
"f. c #A87641",
"g. c #A57945",
"h. c #AC7B43",
"j. c #A17648",
"k. c #A27A4B",
"l. c #AA7E4B",
"z. c #B07F4A",
"x. c #A37D53",
"c. c #B8813F",
"v. c #AB814F",
"b. c #BA8442",
"n. c #B4824C",
"m. c #A58255",
"M. c #AC8454",
"N. c #AD845B",
"B. c #AE885E",
"V. c #B08153",
"C. c #B58A53",
"Z. c #C28D57",
/* pixels */
"/ W c ) c z c x c x c c w 7 q e E q q e Y W Q _ Q R / ,.<./ ' / Q e 0 7 e ~ ,.*.~ 5.Z.Z.n.d.f.;.^ c e w c W c q Y Y Y R ",
"/ W c d d w z w w W Q ~ R R T R ~ ~ ~ ~ W Q .._ Q _ _ _ [ / b b c 5 & 0 e *.3.X.3.8.c.c.b.b.z.f.[ l 7 /  .~ e 7 Y Q Y E ",
"[ / ) W M M x w c c W T E W c W Y T Q ~ W W / / / / Q Q Q ~ W e T Y r w w e M M  .<.3.4.7.h.f.-.B j d c c W M W W E / / ",
" .*.1.$.| | / )  .$.~ |  .) ) ! W E Y Y w w e W E c E Q Q ~ _ E e e e r e T ~ ) | ( V | O.@.O.O.' x c W _ Q ) &.O.) ) ) ",
") *.4.2.<.6.<.4.6.%.) ( | O.[ ( ! W T T e Y e e r r r T T R ~ r w 9 9 9 q T W / ) &.[ 4.;.j.t.t.;.*. .X.,.,.,.h.-.~ ! W ",
") $. .&.*.;.;.;.u.&.) M ! ( ] ! ! ! Y T r T e r w 9 r r T r w w w 9 9 9 r T Q ~  .;.O.-.i.i.i.u.>.;.X.;.2.2.4.g.&. .~ ~ ",
") O. . .>.:.;.>.>.O.) V ^ / o.( ] B W W T T e Y r e r M ! M r e r e 9 w w r T W ! [ [ &.@.-.t.t.u.;.$.;.4.4.h.l.O.|  . .",
"[ O.&.&.&.&.&.;.u.O.( ( ! ( [ ] [ ( ! M M W W M e M w r r T ! M ! M M M r w e E ! ! ( $.=.-.-.i.y.-.&.&.O.$.-.4.( / ) O.",
"O.@.;.-.O.| O.-.;.o.| B M ( J F +.+.B G ^ [ _ [  .O.W | ~ | O. .$./ ) ) $.) ~ ] B M V | ;.=.H ] -.O.o.( ( ( V o.V ] ( @.",
"o.@.#.-.&.! o.| >.c.6.:.$.&.[ N P +.{ } =.&.1.f.4.&._ <.2.4.;.2.2.<.<.4.3.3.<.&.O.) V M ..~ k M o.| ) ( ( V m B ( V m o.",
"] B ! O.o.M B | | | | | ( | @.O._ =.O.=.$.%.&.&.&.[ ~ <.3.5.4.3.7.3.2.;.;.1.<.*.X.X.| 0 W E ] _ t.=.&.O.o.O.I B ^ ] ] ] ",
"] } O.$.=.O.o.[ m T R T W ! y.$.X.-.@.=.=.&.*.*.$._ ..2.2.3.4.7.7.7.5.4.1.1.*.<.X. ./ 8 c B &.t.V.d.u.-.o.@.o.H J [ @.] ",
"&.-.<.<.1.*.%. .&.&.*.&.&.>.g.;.1.%.@.O.$.O.| | /  . .*.*.;.;.2.6.4.;.$./ ! / ) M M W M ! N $.h.z.j.r.@.#.e.@.} ( [ &.| ",
"$.$...<.<.<.*.*.&.:.2.2.4.>.4.>.&.&.( V V V ! O.$.$.$.O.O.O.@.;.&. ./ [ O.=.#.-.;.r.d.t.| x ~ 2.>.-.r.r.y.-.y.r.-.B [ ~ ",
"~ )  .*.*.t.t.*.&.&.X.X.;.u.6.>. .O.l d m N M $.O.O.| O.O.O.[ O.] M M -.u.u.u.M.V.l.j.C._ n *.<.4.u.u.r.y.p.p.u.j.r.[ W ",
"/ ( O.$.;.r.p.-.&.&.*.&.-.>.>.r.J ] F F H m M | ( | O.O.V B ( / ^ V ] y.u.p.m.m.m.M.k.l./ g ) O.O.&.-.r.x.N.B.s.a.j.w.v ",
"m o.O.O.=.r.r.O.V I I | +.@.@.] V G B K L F l B H J O.o.N m x z A N ] O.@.9.L I +.w.e.p./ j b G G @.-.u.j.p.x.x.p.a.p.S ",
"g m ( | @.@.@.J N H V H J o.@.o.J B H m m x M M g B V B F s g g b c b } +.P I I w.e.i.e.J 4 s v N H ] -.j.m.M.V.v.p.i.n ",
"g f B B [ @.@.P K K J H B I +.+.F n B H ^ B v v N J o.@.+.v x B J b ^ #.w.w.I I q.i.e.i.+.h i j x A P -.r.k.v.l.v.>.u.n ",
"y g B B ] O.@.@.H D F n B B J J N N n m G G A l v ] #.O.=.} l ' ] ] o.#.e.w.9.q.p.m.i.i.w.k s N G A w.j.g.p.p.r.y.#.-.F ",
"p f n N J o.] J H D F N B N n N g g v v N N N l m | o.| | H x m V o.( O.@.r.w.9.e.i.w.w.#.v j O.=.B } @.#.V F H I J o.n ",
"n N N n B J B B S n n n v A S k l g g N v v F l l B H H B n m n N B V V ' r.w.I +.w.w.y.+.v s G } b b G M 6 @ $ s g d h ",
"p V N n N N v l k S N B K K G H f N N B N v N l k n N F F k k n S N N B ( ] J o.I #.-.#.+.v j j v d l B m $ = & s l g s ",
"f m n S F F k i i k Z l l Z A F f l l l l v g j i n N H H N N S n n f g x N N B B o.o.o.J s i + @ @ y 7 7 $ $ d j N v g ",
"n l f p V m m n h 4 a h 4 h 2 h 3 C h 4 h j h i h k k Z k S S S C k k s s s g k l g k v g y i # X X o # 6 2 2 f m F N n ",
"V m n p g m m m l C C 3 h 3 h h j 4 h 4 h Z l k j p h k i h k k Z k Z j s 2 y t i i y h s f s f # # $ s m m x m V V m m ",
"r m F p p f p Z A A l l Z i Z Z Z C Z Z k Z Z l S F l l k j j k l g 4 j k d d 7 s d s s g x g s t t d N B B m m V r M m ",
"7 g n p t y p p h C h 3 h h Z A A A K G K A F N n F G G v A v j Z l k l k j s s i s y y t s s i 6 t d m N m N g g f s 6 ",
"f p p p f f C f i u h Z l k k k A A Z A l k k p i l l v l l j l k g j l h @ @ 6 s $ 2 < # t h j i 2 h h p f l k j n l f ",
"k k k k k n n n Z a k k Z Z F F A G G G G l k j A N F F A v v v v l v v v j s s g j s < $ s l n j 2 Z v N N n n l j p k ",
"k n n C F S S S C C h k Z h l l n G G B G n l l l F N m v v v l x s s s 2 1 1 s s 4 s 2 k F j h 2 2 N J G G G H J G S Z ",
"D D F f k S D S K C 3 3 i i i f k n S C S k k k h j l k h s s j j k s 4 s s i 2 # s k l h G H F h y F U 9.9.P +.P H H F ",
"+.F f p D I I L L k u , 3 2 t t p k Z C a i i 1 + u S k h $ 2 h j h s s g f h k i h s f j n N l h # l 9.9.P P U +.9.+.L ",
"I N n k I +.I K p i , > , t t 1 h p p a a t 2 1 X j D Z F u i t i t y h y 1 i F F k i h n n l g s # h H K S S F P 0.0.H ",
"J F n l P B N l t t 1 1 1 i 1 1 i u 3 1 1 t 1 1 # j S F S h 1 3 p p k h i # i j j f i h h $ i s 2 t y l l k l P P U P L ",
"F B f s N m g g k f j h s t i t 3 3 3 1 1 1 1 1 t i k k j u 3 3 a C k i h 2 y h t # # 1   + # # X # # # i j n F D Z Z F ",
"h k p f n N n n m g m g g j l l h C k k l l k s t h k i i i k C Z D C f y i i i 1 + # 1   X 1 1 X # y y y t f n S h h i ",
"p i t i n S F l l N g x d k l B v F N N B N v l j Z S j j l S L L F N m s i h 2 2 1 1 1 t t y 2 # 2 h g l k h Z S k l i ",
"l j h i k C l l l N l l k j j N N N N N N l l l l A l d k F F G K N n g f f i 2 2 i 1 g g i p o t i s k l l Z k l k C k ",
"n n n k k k k j 4 $ $ $ $ $ 2 s j s g f s $ 2 h s s j k l l l l j j f f f f 4 4 2 2 2 s i 2 t # k i h g g l m N j l S l ",
"S n S n Z l h # o   . . . . + < + X X X X o @ < @ 4 4 = s s y $ 2 2 4 t 2 = @ $ s s @ 4 2 # 4 2 i i h g s g k n n k S k ",
"D S S S F F l 2   +   + @ o + + # # i s s s z 4 d g g 6 s y 2 s g g s f s 4 @ % & & O @ @ 2 4 k y i f h j l n n n n S S ",
"n F K K K K F Z 2 4 2 s s 4 2 4 s h k l v l d g h j f s f s f 7 2 $ + X < 2 2 4 s d * @ h l A A f t p p p g n g n k n S ",
"k k l S S G G Z l j j l s s d v v k d v d g g k h h i # $ t t y g l v v B v l F ] ] ^ b G v N F k i h i i y p p f p k k ",
"p p p k l l v v v A G v N G N ] } } ] G ] ] ( | O.' v s h f g B ! ) | | | O.O.] o.@.#.| O.V z n s o 1 3 u i t i t t t t ",
"t X , t i j l v v v v G b B b G ' ( B B c b c z b b N ) M B O.( V ( ( ( O.&. .B V V ( ( O.o.7 f i 1 + , , , 1 i p t , , ",
"C C u t > i v v b v v z b b j B ' G N b b b b v v d d x s B V ( ) ) | ( ( ( ~ N N V V M B N l h # + X $ 1 1 3 h j l i h ",
"Z D S p 3 , h v N v v A ' b j J J G G b G ' ] ] b v B v s s m B B m M B B ( ( ^ N g d f 2 f i j i s i y i 2 i 2 i h 2 $ ",
"p C C C p t p Z F J H J H S j v k l A v v v v l 7 x ] | ( V | ( m x b N g x N v x v d @ s j j A j j k v B N l k h y y t ",
"u i y y p p k F H F F F l D A A { 9.{ G x j v x d x m V m m ] N 7 x M c 6 7 x x z v c x z x v K A C k l N v A l l j h h ",
"S n p p k k C n S F S G F Z J 9.0.9.} ] B b b b x z 7 g g x ] B M M c ^ x x v c 0 x x M b ^ B G K A v N N G v v g l n k ",
"F H N F N N F N F B N J H { } 0.0.} } ( ] d d l g d 6 $ m O.} ^ ( ] M ) ) ( / Q ~ W ! W ^ E c d F G ] ( / G v G B B m B ",
"n g n g n n n g n f n N H J ' ] ] } | [ } g d j g d = o v r.r.$.O.O.(  .%.&. .X.X.X.X. . .~ ! N J B V ] o.J H B B H m m ",
"y y t y y y y y i j g l v l Z v N J [ ] G m v b N z 7 o j { y.r.+.J | &.&.-.&.:.X.X.X.&.*.X.| B I m n N B N n n l g g f ",
"6 t $ $ $ 6 6 1 $ h l g k k j j N F J B N b B @.} c 7 = d J r.t.-.J ( o.| @.@.| | | | | | | ! F m l j j k l l l d s 4 4 ",
"6 6 = $ O o o $ & - d g = - : 4 x b ^ b ^ ^ ( } } B M N M ] O.@.@.[ M M M e M M M w x x ^ ! M N N l d g l B v x 4 4 s 2 ",
"r m 6 6 d = = - * * d x d % * * 0 q E E Q Q Y c E b E E c ] / =.=.[ c z 8 q q 8 8 x c - z z b v x g 7 = z x x d 7 v = 4 ",
"6 6 g x d - - 0 : - 0 z c z ; ; c E / / Q E Y E : b c c ^ / / _ ~ / ^ c E q q q * M ) 0 x & z z 7 * * % - e 0 - * * & % ",
"& - 7 g z 7 0 7 * : q 8 z : : : ; Y / / E Y ; E E E / / / _ / / / / Q E q E E 8 5 - x z ^ z 7 7 * ; * ; q Y q 8 & & z 7 ",
"/ V c ) x * x x z z 7 z c z - : E Q Q / Q Y Y E E E / %.$./ _ / / E ^ c 0 ; 7 d 0 0 z x d ( ^ 7 8 * * * 8 c Y q 0 0 ^ ` "
};
