/* XPM */
static char *armor_building_plates1738154879[] = {
/* columns rows colors chars-per-pixel */
"64 64 66 1 ",
"  c #1B3856",
". c #1D3A58",
"X c #1F3C5A",
"o c #203D5B",
"O c #213E5C",
"+ c #223F5D",
"@ c #23405E",
"# c #24415F",
"$ c #254260",
"% c #264361",
"& c #274462",
"* c #284563",
"= c #294664",
"- c #2A4765",
"; c #2B4866",
": c #2C4967",
"> c #2D4A68",
", c #2E4B69",
"< c #2F4C6A",
"1 c #304D6B",
"2 c #314E6C",
"3 c #324F6D",
"4 c #33506E",
"5 c #34516F",
"6 c #355270",
"7 c #365371",
"8 c #375472",
"9 c #385573",
"0 c #395674",
"q c #3A5775",
"w c #3B5876",
"e c #3C5977",
"r c #3D5A78",
"t c #3E5B79",
"y c #3F5C7A",
"u c #405D7B",
"i c #415E7C",
"p c #425F7D",
"a c #43607E",
"s c #44617F",
"d c #456280",
"f c #466381",
"g c #476482",
"h c #486583",
"j c #496684",
"k c #4A6785",
"l c #4B6886",
"z c #4C6987",
"x c #4D6A88",
"c c #4E6B89",
"v c #4F6C8A",
"b c #506D8B",
"n c #516E8C",
"m c #526F8D",
"M c #53708E",
"N c #54718F",
"B c #557290",
"V c #567391",
"C c #577492",
"Z c #587593",
"A c #597694",
"S c #5A7795",
"D c #5B7896",
"F c #5C7997",
"G c #5E7B99",
"H c #5F7C9A",
/* pixels */
"2kCAGAcf5cAZGFcf5cCZGFcf5zZZGFcf5cAZGFcf5cCZGFcf5zZZGFcf2zAAHFvh",
";82=1qrf<92&2eya,q2=2eya<q2*2eya<92&2eya,q2=2eya<q2*2eya:94=2eyf",
" 5skMvr4X6ikNbr5X6ikNbr4X6akNbr4X6ikNbr5X6ikNbr4X6akNbr4X6skMvy6",
":rffbvae2yffmbar2ysgmbsr2ysfmbsr2yffmbar2ysgmbsr2ysfmbsr,rffbvau",
"qfi9riryyfyquieyufrqiieyufrwuiryyfyquieyufrqiieyufrwuiryrfrqryra",
"4hblla5,qgccci21qgccci21qgcvci21qgccci21qgccci21qgcvci21qhcccy45",
"rvcuw826fclay529fclay619fvliy519fclay529fclay619fvliy519fckir22e",
"fZAkieqecBNcfq6ucBBzfq6uzBBcfq6ucBNcfq6ucBBzfq6uzBBcfq6ucBBlaq6f",
";hCZANkg2fmBFBka2gmBGBhs2gmBFBhs2gmBFBks2gmBFBks2gmBFBhs<kCCDZka",
":62=2qra16<=2qes16,=2qes16<=2qes<6<=2qws16<=2qws16<=2qes:q6=1qra",
"X5ihBNy2o6ikBvr5o5ikBcr5o5ikBbr5o6ikNvr5o6ikNvr5o5ikBbr5X6flNbu6",
",rifbmaq1ragmcie2rafmcie2rafmcir1ragmcir1ragmcir2rafmcir<ysgbcay",
"9faqeyrurfrqruerrfyqyurrrfrqyuerrfyqrierrfyqrierrfrqyuerrsrqyurs",
"2zBbli64qkbcvs52qkvccs51wkvccs51qkvvcs51qkvvcs51wkvccs51ekbvca68",
"ymmir858sbciy629abcir929amcir928smzir828smzir828amcir928fclar66y",
"fBNgir99kBBhiq6ekBBhuq6ehBBhiq6ehBBhiq6rhBBhiq6rhBBhiq6ekNMka96f",
";gCZANkf2gmBGBhs2gmBFBka2gmBGBhs2gmBFBhs2gmBFBhs2gmBFBks<kCCDZka",
",62=2qra16,=2qes16<=2qes16,=2qes16<=2qes16<=2qes16<=2qws:q6=1qra",
"X6ugBmu2o5ikBcr5o6ikBvr5o5ikBcr5o5ikBbr5o5ikBbr5o6ikNvr5X6flNbu6",
":rafmmaq2rafmcie1ragmcie2rafmcie2rafmcir2rafmcir1ragmcir<ysgbcay",
"9fiqeyrurfyqyurrrfrqruerrfyqyurrrfrqyuerrfrqyuerrfyqrierrsrqyurs",
"2lCmli64qkvccs51qkbcvs52qkvccs51wkvccs51wkvccs51qkvvcs51ekbvca68",
"umbie858abcir929sbciy629abcir929amcir928amcir928smzir828fclar66y",
"fBNhir8qkBBhuq6ekBBhiq6ekBBhuq6ehBBhiq6ehBBhiq6ehBBhiq6rkNMka96f",
";hCZANkg2gmBFBks2gmBFBks2gmBFBks2gmBFBka2gmBGBhs2gmBFBhs<kCCDZka",
":62=2qra16<=2qws<6<=2qws16<=2qws16<=2qes16,=2qes16<=2qes:q6=1qra",
"X5uhBNy2o6ikNvr5o6ikNvr5o6ikNvr5o6ikBvr5o5ikBcr5o5ikBbr5X6flNbu6",
",yifbmaq1ragmcir1ragmcir1ragmcir1ragmcie2rafmcie2rafmcir<ysgbcay",
"8faqeyrurfyqrierrfyqrierrfyqrierrfrqruerrfyqyurrrfrqyuerrsrqyurs",
"2lBmli65qkvvcs51qkvvcs51qkvvcs51qkbcvs52qkvccs51wkvccs51ekbvca68",
"umbie956smzir828smzir828smzir828sbciy629abcir929amcir928fclar66y",
"fBNgir9qhBBhiq6rhBBhiq6rhBBhiq6rkBBhiq6ekBBhuq6ehBBhiq6ekNMka96f",
";hCZANkg2gmBFBhs2gmBFBhs2gmBFBhs2fmBFBka2gmBGBhs2gmBFBks<kCCDZka",
":62=2qra16<=2qes16<=2qes16<=2qes16<=2qes16,=2qes16<=2qws:q6=1qra",
"X5ihBNy2o5ikBbr5o5ikBbr5o5ikBbr5o6ikBvr5o5ikBcr5o6ikNvr5X6flNbu6",
",rifbmaq2rafmcir2rafmcir2rafmcir1ragmcie2rafmcie1ragmcir<ysgbcay",
"9faqeyrurfrqyuerrfrqyuerrfrqyuerrfrqruerrfyqyurrrfyqrierrsrqyurs",
"2zBbli64wkvccs51wkvccs51wkvccs51qkbcvs52qkvccs51qkvvcs51ekbvca68",
"ymmir866amcir928amcir928amcir928sbciy629abcir929smzir828fclar66y",
"fBNgir9qhBBhiq6ehBBhiq6ehBBhiq6ekBBhiq6ekBBhuq6ehBBhiq6rkNMka96f",
";gCZANkf2gmBGBhs2gmBFBka2gmBGBhs2gmBFBks2gmBFBks2gmBFBhs<kCCDZka",
",62=2qra16,=2qes16<=2qes16,=2qes<6<=2qws16<=2qws16<=2qes:q6=1qra",
"X6ugBmu2o5ikBcr5o6ikBvr5o5ikBcr5o6ikNvr5o6ikNvr5o5ikBbr5X6flNbu6",
":rafmmaq2rafmcie1ragmcie2rafmcie1ragmcir1ragmcir2rafmcir<ysgbcay",
"9fiqeyrurfyqyurrrfrqruerrfyqyurrrfyqrierrfyqrierrfrqyuerrsrqyurs",
"2lCmli64qkvccs51qkbcvs52qkvccs51qkvvcs51qkvvcs51wkvccs51ekbvca68",
"umbie858abcir929sbciy629abcir929smzir828smzir828amcir928fclar66y",
"fBNhir8qkBBhuq6wkBBhiq6ekBBhuq6ehBBhiq6rhBBhiq6rhBBhiq6ekNMka96f",
";hCZANkg2gmBFBka2gmBGBhs2gmBFBks2gmBFBhs2gmBFBhs2gmBFBks<kCCDZka",
":62=2qra16<=2qes16,=2qes16<=2qws16<=2qes16<=2qes16<=2qws:q6=1qra",
"X5uhBNy2o6ikBvr5o5ikBcr5o6ikNvr5o5ikBbr5o5ikBbr5o6ikNvr5X6flNbu6",
",yifbmaq1ragmcie2rafmcie1ragmcir2rafmcir2rafmcir1ragmcir<ysgbcay",
"8faqeyrurfrqruerrfyqyurrrfyqrierrfrqyuerrfrqyuerrfyqrierrsrqyurs",
"2lBmli65qkbcvs52qkvccs51qkvvcs51wkvccs51wkvccs51qkvvcs51ekbvca68",
"umbie956sbciy629abcir929smzir828amcir928amcir928smzir828fclar66y",
"fBNgir9qkBBhiq6ekBBhuq6ehBBhiq6rhBBhiq6ehBBhiq6ehBBhiq6rkNMka96f",
";kABAZky5cBBABhi6cBBAChi5cCBABki6cBBABhi6cBBAChi5cCBABki6cNMAZki",
"#2,@,qew;2:O,qrr=4:O:qrr=4;O,qwr;2:O,qrr=4:O:qrr=4;O,qwr=2:O;8ri",
"OekcDDg8%qfbGDhw%qfbGDhe&qfbGDhw%qfbGDhw%qfbGDhe&qfbGDhwOqkmDCku",
"%qiukhe5=qrszkr6*qyszke6*qyalkr6=qrszkr6*qyszke6*qyalkr6%qiskfeq",
"qkkyuiihulkiauygilkiaiyhulkiauygulkiauygilkiaiyhulkiauygykguiiih",
":avzhr694fvckr462fcckr264fvckr284fvckr462fcckr264fvckr286flzly66",
"sbcsuq6elmzsyq6ilmlfu96ilbzsu96ilmzsyq6ilmlfu96ilbzsu96ukmciy98i",
"aki95;#%khu65=%;hky65;%=kku65;%=khu65=%;hky65;%=kku65;%;ski82&%2"
};
