/* XPM */
static char *result[] = {
/* columns rows colors chars-per-pixel */
"64 64 122 2 ",
"   c #3B4A40",
".  c #3F615A",
"X  c #444F45",
"o  c #42554E",
"O  c #4A554B",
"+  c #46594F",
"@  c #455C53",
"#  c #4A5C53",
"$  c #415F58",
"%  c #4D6156",
"&  c #46635A",
"*  c #4C645B",
"=  c #4F695F",
"-  c #52645C",
";  c #55685E",
":  c #456761",
">  c #4F6760",
",  c #456A62",
"<  c #4C6B63",
"1  c #476E68",
"2  c #506761",
"3  c #536C63",
"4  c #5B6E64",
"5  c #576F69",
"6  c #467069",
"7  c #4D736B",
"8  c #537167",
"9  c #597166",
"0  c #54736B",
"q  c #5B746B",
"w  c #5C796F",
"e  c #4E7D76",
"r  c #537670",
"t  c #557B74",
"y  c #5B7C74",
"u  c #557F78",
"i  c #62766D",
"p  c #63796E",
"a  c #627771",
"s  c #637B73",
"d  c #697D75",
"f  c #667F78",
"g  c #5F8077",
"h  c #52817A",
"j  c #5C837B",
"k  c #658177",
"l  c #6B8177",
"z  c #63847C",
"x  c #6B837B",
"c  c #62887F",
"v  c #6D897F",
"b  c #73857C",
"n  c #5E8780",
"m  c #568A83",
"M  c #5D8B84",
"N  c #5E8F88",
"B  c #5D948D",
"V  c #638A83",
"C  c #6B8D85",
"Z  c #638F89",
"A  c #6E9286",
"S  c #64928A",
"D  c #6B938B",
"F  c #6E988F",
"G  c #76948E",
"H  c #629790",
"J  c #6A9791",
"K  c #649C94",
"L  c #6B9C95",
"P  c #649F98",
"I  c #6B9F9A",
"U  c #759D95",
"Y  c #719F99",
"T  c #65A096",
"R  c #6BA097",
"E  c #66A29B",
"W  c #6BA59D",
"Q  c #65A89F",
"!  c #6DA89F",
"~  c #73A59C",
"^  c #7BA49C",
"/  c #71A99F",
"(  c #7CA99E",
")  c #67A6A0",
"_  c #6BA7A0",
"`  c #66A9A2",
"'  c #6DAAA3",
"]  c #6EAFA8",
"[  c #71A7A0",
"{  c #72ADA5",
"}  c #79ADA5",
"|  c #73AFA8",
" . c #7AAFA8",
".. c #6EB1AA",
"X. c #75B0A7",
"o. c #7AB1A7",
"O. c #75B2AA",
"+. c #7BB4AC",
"@. c #7DB8AF",
"#. c #77B6B0",
"$. c #7CB7B0",
"%. c #76B8B1",
"&. c #7DB9B2",
"*. c #82ACA4",
"=. c #83AEAA",
"-. c #82B1A7",
";. c #81B6AD",
":. c #83B8AF",
">. c #82B7B0",
",. c #8CB7B2",
"<. c #83BAB2",
"1. c #8ABCB4",
"2. c #84BEB8",
"3. c #88BEB8",
"4. c #90BDB4",
"5. c #94BFB8",
"6. c #8DC0B7",
"7. c #8CC1BA",
"8. c #93C4BB",
"9. c #98C3B8",
"0. c #9ACAC6",
"q. c #A2D0C8",
/* pixels */
"r X._ _ W X.{ K W _ _ W W W W T W W P [ W [ { / } _ { _ ~ W R , 0 +._ { } o.W _ _ } +.{ O.| ) [ | ] ..` _ ' O.O.O.+.>.#.} ' 3.D ",
"e o.X.} o.! ! E W W { { { / R ! } [ [ o.' { o.X.{ { { W W [ / < q +.{ o.{ ] _ W _ { ;.}  .o. .+.|  .+.| ' ] ] ..|  .' ] ' | $.D ",
"t :.;.+.+./ W W o./ o.+.o.{ W { +.:.@.} _ { X.[ W W _ ! E } / = t &.:.:.O.T _ ` { ;.$.+.] ..| ] ] @.@.@.O.| ) ] ] $.| { O.O.| V ",
"t <.@.o.+./ W ! / ! } { W ~ W W _ [ _ [ { ! _ ! R { _ _ -./ E = w 6.<.<.@.! | X.;.<.@.| ' ' ] ` ] ] { O.]  .O.] ` | ] |  .O. .V ",
"t <.X.X.} +.] E T E W E H T ! ! E o.o.{ _ W _ ! W / W ! X.~ P % w 8.1.1.<.O.O.+.] O.+.X.] ) _ ] +.| ' ] O.O.X.] ' | ) ] ..' | n ",
"g <.1.:.:.;.O._ E E W H B E ! { } o.o._ R E W / / / W ~ R T S ; 8 $.<.5.1.X.{ O.$.{ _ o.o.' ) ..$.#.' ] O.+.#.` ` ) ' ] ) | #.Z ",
"j +.} } -.-.W T T H W R R R K H R R ~ R R [ ~ ~ ~ ( ~ R L L Z - 0 X.O.<.1.<.<.X.O. .|  . .{ ] ' | O.+.| $.O.| ..` ) ) ) P _ 2.D ",
"# 9 3 2 * * * * * * > * ; * * + @ @ @ % * - % ; - + # + + % # X y o.$.' @.;.<.X.} { ] +.+.X.' _ | $.$.] X.O.' ' ' ' ` P ) { $.Z ",
"q ,.' P E W W E W ! ~ E L E W R B H H m m S m N Z m N S S G U 8 7 2.<.@.@.<.1.1.} | @.o.O.O.] | O.$.+.<.&.O.] ] ..] ` ' ) | #.J ",
"a <. .+.+.{ X.{ | { ] +.} W { W _ _ E W _  .' } [ _ R [ ] [ } p q 7.<.] +.@.@.@.@.o.' ' O.X.{ ] @.&.<.@.$.%.O.......] ] ] ] O.J ",
"w >.@.+.o.O...] ] { _ X.{ ) { [ o.o.{ W _ X.X.{ X.[ R W R } } 4 a 7.X.] O.O.....O.O.] | ! }  .$.<.$.$.&.$...O.] ] | #.O.O.#...J ",
"a <.>.@.X._ ` _ ' ..O.] | _ E X.o./ W W _ _ ' _ { _ P W ~ [ / 8 k 2.X.+.&.O...O.O.] ] O.] ] W | | +.$.%.@.O.....] O.>.#.O.<...H ",
"w <. ._ ] { ' Q _ ] X.! ] [ E _ _ ! E W _ { ` ! ! _ _ W E } R 1 b :.O...O.....O...O.O.@. .| X.| ' ' ' _ { #.] O.] ..&.%.| #.2.Y ",
"q >.{ K W [ { ! / ' ! _ _ _ P W _ W _ ! ! { W E W _ / / ~ _ _ 9 l @.%.O...` O.+.O.O.| O.| | o.] ` ' _ ] ....O...O.O.#.O.] ] 2.L ",
"p ;.W [ o.X.o.+.+.o.W _ W T W ! o.I X.[ Q [ W { ] } o.} W W _ 8 d o.o.$.....O.%.&.{ ' X.] |  .O.' ] ' X.X.$.O.O.%.] #.#.| | 3.Y ",
"a 5.+.<.;.X.+.+.o.o.X._ ` T P _ W P W / ! E ! o.{ } } { W { P 5 p o.] ' ....%.2.2.]  .+.O.O.| { _ [ ' _ { ] ] ] O.O.+.+.+.| 3.*.",
"a 7.<.>. .X.O.| _ W ] _ X._ ] W E P P P E E W } { { [ W [ } E 8 s @.] O.%.O.&.$.+.X.@.+.X.O.] _ [ ! { ! ] _ _ ] O.{ W  .#. .<.~ ",
"a 3.<.>.| O.O.X.o.| _ _ | X.o.` Q ` W K W ` ) ' } +.o.[ | ' W t 8 ! ! ' ` ..+.} ! { +.O.' O.] { { { W W ] ..X.X.O.X.#.&.$.<.3.I ",
"q O.| 1.>.$.#.|  .' X.] ] { X.' Q ` W P ) ' O.O.] { O.+.O.! ~ w 0 { ' X.....@.X.[ +.+.+.X.O.@.o.{ W W R ` ' ] o.X.{ O.&.$.$.3.} ",
"w <.$.+.$.<.+.| ] '  .O.' ] } _ W ] ) { ] ' O.$.O.{ $.O._ _ } y q +.#.&.&.O.[ { } } +.O.O.O.+.o.o./ E W W '  .X.+.X.+.+. .] 0.=.",
"a o.{ +.<.2.;.+.o.+.@.o.] ' _ _ _ { _ ] ' ) ' $.+.{ X.| _ _ { y p &.<.<.&.+.X.+.O.O.O.{ _ ] _ { [ E W X.{ X.X.] { { +.3.$.>.0. .",
"w ] _ O.| o.+._ _ } @._ ' _ ] { } { [ | | ' O.$.+.;.$.| _ ] } w q X.2.1.+.{ W _ ..' | X._ ] _ _ W W / X.[ +.X.] | | #.$.$.%.8.*.",
"f $.O.X.X.X.+.{ { @.+.X...X.X.{ X.{ | +.O.] +.$.&.@.+.+.O...[ q q O.+.<.+.o._ ] _  .+.+.+.' X.+._ ' O.+.@.:.+.O.O.O.$.#.&.2.3.[ ",
"f <._ ] O. .W ! _ [ O.X.] O.{ W _ _ ' >.<.$.>.>.@.&.%.' ' ' / w # V k k v z j j k z f k f y y y 7 y g r g z k q y y 0 y V q 3 2 ",
"s <.} ] X.{ W W ! ! X.] ` X.{ E W } X.&.<.<.$.@. .$.&.O.{ ..{ 9 - G j j t t y V j j y r t 0 r r , > 1 & . & . & * . $ * % - ; % ",
"5 $.O.{ / { { ! W _ O.' ` _ ! W _ ] +.+.+.o.@. .] ] %.O.] | _ 1 d 0.$.| { ] $.&.O.$.&.#.| W |  ._ _ E E T o./ _ { _ / W { +.=.C ",
"p 2.X.} { ! W W T ! ` ! ! W { _ E { @.@.+.o.' _ ] | ..| X.| ! > p 1.o.{ ' ] O.#.+.{ W _ E P _ W _ _ E W _ { o.} } } } ~ W [ ( A ",
"s 1.>.X.} { { ! E E ` _ ' { { ` _ X.' [ +.o.@.X.! ' ] { ' X.{ 1 p ;.@.o.] _ ' $.$.X.W _ ) _ _ _ '  .] W ] _ { X.} ~ [ { _ ~ [ A ",
"p <.o.{ _ [ E K R ! ` ' ] [ X._ ' X.! W ! X.O.+.o.{ _ O.O.O.{ 8 a &.| | | | | $.$.<.+.' W _ ] W ) ] _ { O.` _ _ W ~ { X.o.o.W V ",
"d $.} { P W T K W W [ o.] ' _ W { X.] E E ! X.{ o.O._ _ X...o.1 w | O.+.#.] X.<.+.<.+.O.{ O.] _ _ { _ ] X._ _ ! { { } o.X.X.L h ",
"b <._ [ W W W P P R { +.} ` _ W _ X.X./ E E W _ ' O.| _ { +._ * a $.| $.<.&.&.<.@.&.&.X._ O.{ _ _ X.O.&.O.} { } } { { _ ] | R C ",
"b 1.} { { / ! W K B ! { } _ { X.;.;.{ ! ' { X.! ' O.$.| _ O._ * a 2.#.+.1.3.&.<.&.&.&.] ` ' { _ ' { ' { O.o.X.o.X.} _ _ _  .P V ",
"l 6.+.+.X./ ! W E ! ! X.X.! } o.+.o.[ { {  .| ' ] +.#.o.X.| ] * a >.$.$.&.<.3.<.$.] O.' ] ! W ` W ' _ ! { @.} { { / _ O.] [ _ j ",
"l 8.+.X.{ o.W ! ! X.W E ' ! / { { [ _ _ ' | O.| _ $.O.$.X.{ O.* a $.| ] O.<.&.$.$.#...) { { +._ ` X._ W ' [ } o.} E X.O.' ] [ S ",
"b 9.o.O./ +.X.! T E T H o.+.o.o.{ / ' ) ] +.+.|  .@.O.+.X.X.X.5 f O.] '  .#.O.&.&.&.O.' ] { | ` _ X.` ! O.] { X.o.O.O.` ` ' [ D ",
"s <.:.-.o.-.X.! E T E o.+.;.+./ / ~ ' | | X.>.>.#.+.o.| +.O.' : x &.] ] '  .$.O.+.&.O.| ' |  ._ ` O._ ] #.+.O.| +.+.O.' ` ) ) S ",
"k 7.+.O.+.;.{ E E ! X.W W ;.+./ W ! W W @.<.>.+.>.>. .' O.O.W * z @.] O.| [ |  .[ X.@.X...' _ W ' X.{ _ ..+.+.] O.O.` ] ' ' ` m ",
"b 7.+.@.+.+.! E R W ! R } -.' { _ X.! P [ o.$.$.>.>.+.O.O.O...q k @.] O.| |  .o.W o.@._ ` _ ' { X.O.' ] O.%.+.+.O.O.] ' ] ` ` h ",
"d 9.} *.( *.~ ~ ^ ^ *.( *.*.R D S j D J F F D C V V V y z y y O x 2.O.O.{ W { [ [ <.+._ ..X.X.| O.O.O.O.+.<.&.<.&.#.O.....] ] Z ",
"o 8 * - 3 2 4 9 p p q q p p i p 9 4 p k p p p 4 p 3 2 < 3 2 q X x <.] X._ P ' W ! @.@.O...X.X.` X.&.%.O.&.$.$.$.$.+.O.....O.#.D ",
"w } [ } } [ [ -.>.;.@.+.,.:.;.o.} X.:.{ ! :.:.1.1.+.X.&.<.<.<.u g &.O.! ! E W W ' O.{ ] ` X.' {  .;.3.<.&.<.$.&.$...] ' ] X.2.V ",
"s 4.-.@. . . .#.{ { @.+.+.o.o./ { _ _ _ W X.! X.~ { o.+.;.+.O.7 y &.{ ` / X.o.{ ' _ ] X.' ! ! :.$.$.>.&.&.+.O.O.&.%...O.O.O.<.V ",
"y 1.1.O.O.| | | [ ' +.o.+.;.-.[ [ }  .W P ` E W ! W o.} ! X.X.1 z 7.X.+.X.+.,.o.X._ W X.{ { { :.<.$.+.@.X.| | ] O...O.{ ] O.O.t ",
"k <.;.} ] ) ` ] ..{ ] O.X.o.:.+.X.X.' W K W W T W E { } _ _ ] 6 f 6.+.o.o.+.o./ _ _ Q +.o.o.+.&.2.:.;.>.X.' _ ] ..O.| { { O.| t ",
"j O.} { ] _ ` ' { X.' ] X._ { X.+.o.X.X._ _ X.o.+.[ [ >.;. .` 1 s 7.<.X.} { o.{ ` X.X.+.+.+.o.O.+.X.X.o.$.+. .' _ O.| O.o.X.| r ",
"n { K W { ' W [ ! ! ! _ o.@.O.;.6.+.X.{ W X.o.<.=.} { X.;.>.' 7 x 8.;.X.} X.o.' ! ' X.+.:.o.{ } X.+.O. .o.+.+.| ' ] O.| | O.O.m ",
"u ! / { { { X.o.+.W ' W o.<.+.@.@.;.,._ E O.o.<.>.,.:.>.,.;.$.y v 9.+.o.+.o.-.! _ W _ _ o.o.+.} +.{ W W _ ' | O.' ] O.+. .O.2.V ",
"u { ;.;.o.+.+.+.o.{ { _ | | _ _ ] } O.W ] .._ { { } ;.>.:.+.>.t v 2.X.} { X.o.{ { W _ ] X.o.+.o.;.X.{ W _ ] ' O.+.{ | $.' | <.V ",
"j X.@.+.O.O.X._ W { +.} X.X.{  .| O.O.` ) ' ] ` ) {  .| ' ' <.V C %.! W X.X.X./ ! Q ! O.X.{ X.X.} X.+.+.| _ ' O.$.O.{ O.' ..$.j ",
"V <.@.+.O.' _ Q W o.$.+.{ X.| O.{ X.$.+.O...' ..| | ' | ] ] O.y z @.! ] X.{ X.o.{ { ' ' ] W ( o.o.o.X.X.O.] ] $.O.$.+.+.....%.s ",
"c 6.>.<.+.W ! ] +.<.;.X.] ] | | ' _ o.@.| | ] ] .. .O.| +.O. .t v &.....O.o.Q { R ! ! Q X.! } / | W O.O.+.| { @.#.@. .#.#.] %.y ",
"C 9.5.<.@.} X.O.+.<.@.{ _ ) ] ] O...{ ..O.O.O.| ] ' ] ] X.| | u c @.X.X.+./ K ! X.X.o.+.-.+.+.X.' ] { $.<.$.$.@.@.+.$.| ' ] ] u ",
"c 6.1.1.;.O.] o.O.{ ! ' | _ _ _ { { ! O.X.O.{ ~ +.| ) ] ] ] ' 7 k %.O.+.{ ! ! X.O.O.6.+.+.;.+.' ' O.$.$.<.3.&.2.$.$.&.#.] | &.t ",
"j &.<.$.@.O.] O.X.! P ! ' ] W { ' ! _ _ [ _ W E } | ) ] ) {  .y A 7.:.+.+.X.@.@.@.X.6.:.:.+.X.O.&.2.8.1.3.3.3.3.&.#.#.2.#.#.&.0 ",
"c 9.@.] +.+.{ _ W W { o.} o.o.+.X.W ! ! { { _ W ' _ _ } { ' _ 7 G q.7.1.8.6.6.9.9.6.:.:.1.:.O. .O.@.6.<.+.;.@.[ { { | P { [ K , ",
"c 1.X.X.X.@.+.{ o.+.,.+.+.+.+.o.o./ W R W +. .[ } |  .| { } [ 0 % p q 9 9 0 0 9 9 9 q p w d l f s y k w q t q 5 3 * 2 # # @ #   ",
"k :.+.;.X.o.+.+.+.O.:.X.O.X.| W W W E E o.o.o.{ ] O.[ W W [ ~ 8 # V V V D Z S J U U U U ^ U ~ Y U ~ ^ } ~ ~ ^ U *.L H I J ~ } y ",
"c 1.;.+.{ X.! [ { { :.O.X.] W _ W ! ! } <.+.{ ' _ _ ] _ W W K < w 4.-.>.@.>.&.o.| O.#.#.O.] ] O.] _ { $.>. .O.&.+.+.#.O.+.&.$.M ",
"c <.+.o.{ / W _ _ { O.o.[ ! { [ { ! ' { X.} { _ W ` ] _ { W H , 3 1.o.@.;.:.+.+.+.O.X.@.;.+.} ' ] { } [ {  .| #.X.X.+.{ _ +.O.h ",
"c @.X.R / { [ } X.{ X.{ _ ] O.{ ] _ { { X.E E W ' W W ~ W _ W : 9 <.<.;.+.o.X.O.] | O.+.o.+.@.} { } } [ W _ | } | O.+.} E ' #.h ",
"y +.' _ _ _ ! +.X.{ { ! } [ } O.O.' _ _ _ W W _ / { W ( W ' ' 3 9 @.<.;.-.} { { | o.1.[ { { o.+.X.} ] | { ' @. .] '  .$.O._ ` h ",
"y 2.+.{ { X.o.o.[ } _ { _ _ _ X.o.o.X.] _ _ } ] W { W { ' | $.y 1 | X.@.} ] _ o.' }  .[ _ { | o.1.+.{ { ) ' +.+.{ ' | $.+.O.' e ",
"u %.O._ W  .[ +.{ _ _ ] ] ] [ { } X.} X.] _ } _ W ! W _ { O. .q < [ X.{ { _ _ [ P W X.X.<.1.+.@.1.;.;.[ P ' | #.O.{ +.X.' | O.D ",
"u O. .P E _ _ o.X._ ! ] _ ' ! ' _ o.E ! ' { _ W _ ! W ! W W _ 8 8 1.{ { +.X.} _ _ { :.5.+.o.O.o.| @.,._ W ] | >.@.+.$.O.] $.$.D "
};
