/* XPM */
static char *_829e85a7b2149728c63742de254e2f3F3fCVkQnWG0Vn1qP[] = {
/* columns rows colors chars-per-pixel */
"64 64 175 2 ",
"   c #4F3326",
".  c #543A2B",
"X  c #5C3A2F",
"o  c #543F32",
"O  c #5D3F32",
"+  c #643827",
"@  c #633D2C",
"#  c #6A3E2E",
"$  c #623E33",
"%  c #6A3F31",
"&  c #5E4434",
"*  c #62402E",
"=  c #6D402D",
"-  c #72432D",
";  c #654334",
":  c #6C4435",
">  c #65463A",
",  c #6B463B",
"<  c #64493A",
"1  c #6C4A3B",
"2  c #724534",
"3  c #784734",
"4  c #764A37",
"5  c #794A36",
"6  c #714539",
"7  c #744A3B",
"8  c #7B4D3C",
"9  c #7E523D",
"0  c #6D4D41",
"q  c #754D42",
"w  c #7A4E42",
"e  c #7D4F48",
"r  c #675144",
"t  c #745144",
"y  c #7B5344",
"u  c #785947",
"i  c #77544A",
"p  c #7C554A",
"a  c #765C4B",
"s  c #7C5B4C",
"d  c #7B5E51",
"f  c #7F604D",
"g  c #7F6253",
"h  c #844E36",
"j  c #814E3C",
"k  c #865037",
"l  c #82523E",
"z  c #8B523B",
"x  c #91563D",
"c  c #835343",
"v  c #895543",
"b  c #845945",
"n  c #8B5A44",
"m  c #84564A",
"M  c #8D564B",
"N  c #845B4C",
"B  c #8A5B4A",
"V  c #915745",
"C  c #945A45",
"Z  c #9C5C45",
"A  c #945D4C",
"S  c #9E5E49",
"D  c #835E52",
"F  c #8E5E55",
"G  c #935D55",
"H  c #985F53",
"J  c #A45D45",
"K  c #A85E41",
"L  c #A35E49",
"P  c #8E614B",
"I  c #9D6145",
"U  c #95634D",
"Y  c #9E614B",
"T  c #9D694E",
"R  c #836354",
"E  c #8B6656",
"W  c #856559",
"Q  c #866A5B",
"!  c #896B5B",
"~  c #946352",
"^  c #9B6453",
"/  c #966853",
"(  c #9C6A51",
")  c #976E5C",
"_  c #9B6E5C",
"`  c #A36046",
"'  c #AB6247",
"]  c #A5624C",
"[  c #AB654D",
"{  c #AD694E",
"}  c #B26446",
"|  c #B1664C",
" . c #B26A4E",
".. c #B86B4E",
"X. c #A56551",
"o. c #AB6651",
"O. c #A46A54",
"+. c #AD6A53",
"@. c #A76558",
"#. c #A56B5A",
"$. c #AD6C5A",
"%. c #B06751",
"&. c #B36C53",
"*. c #B96E53",
"=. c #B36E5A",
"-. c #B46E59",
";. c #B76E59",
":. c #B26F5C",
">. c #B56F5D",
",. c #AF715B",
"<. c #B17053",
"1. c #B37157",
"2. c #B77154",
"3. c #B57156",
"4. c #B97155",
"5. c #B97057",
"6. c #B1715A",
"7. c #B57259",
"8. c #B6705A",
"9. c #B3725C",
"0. c #B7735C",
"q. c #B5725E",
"w. c #B3755D",
"e. c #B87258",
"r. c #B9735B",
"t. c #BA725F",
"y. c #BA745C",
"u. c #B7795E",
"i. c #BC795E",
"p. c #9B7C72",
"a. c #AC6F61",
"s. c #B36E60",
"d. c #A37061",
"f. c #AC7363",
"g. c #AD7768",
"h. c #AE7D6A",
"j. c #B37160",
"k. c #B37460",
"l. c #B57462",
"z. c #B97563",
"x. c #BD7662",
"c. c #B67863",
"v. c #B77963",
"b. c #B97862",
"n. c #BF7962",
"m. c #BC7A63",
"M. c #BD7864",
"N. c #B57568",
"B. c #B57A69",
"V. c #BD7A69",
"C. c #BC7C68",
"Z. c #BD7D6A",
"A. c #BE7C6C",
"S. c #BE7F71",
"D. c #C0775F",
"F. c #C17C64",
"G. c #C17E6A",
"H. c #C27F6E",
"J. c #BF8066",
"K. c #BE816C",
"L. c #BE806D",
"P. c #B78373",
"I. c #BD8274",
"U. c #BE8C7D",
"Y. c #C28066",
"T. c #C3826C",
"R. c #C28272",
"E. c #C48472",
"W. c #C58974",
"Q. c #C98A74",
"!. c #C4877B",
"~. c #C58A7B",
"^. c #C98D7D",
"/. c #CB947D",
"(. c #CF9687",
/* pixels */
"8 &.[ o.[ &.o.S [ o.{ ' ] ] ] ] [ X.] o.X.o.+.+.9.o.%.[ o.[ ] : 7 q.{ $.&.:.o.' { 9.k.&.-.-.[ o.&...&.' ' | -.1.8.8.b.u.&.&.K./ ",
"8 8.=.=.=.o.[ ] [ [ +.+.&.$.] o.+.$.$.-.[ %.=.&.$.o.%.[ ] +.@.: w q.%.=.&.%.[ ' { $.v.6.=.8.w.u.2.8.r.&.{ %.%.&.2.6.&.<. . .b.U ",
"y x.z.q.q.o.[ [ :.+.-.>.=.&.[ o.8.b.z.&.[ &.&.o.] o.[ [ ] &.o.: w x.z.n.8.` [ ' =.z.b.r.&.&.&.%.&.y.t.z.q.&.| ..&.v.&.&.1.-.1.n ",
"y n.t.-.>.+.[ [ o.o.&.&.o.o.o.] o.o.o.o.+.o.[ [ ] +.o.[ j.@.] : e H.V.M.t.[ &.8.z.Z.z.&.+.'  .| ..&.&.-.&.8.1. .| &.&.&.8.8.w.P ",
"y M.-.=.=.q.%.] L ] ] ] Z L o.o.] :.q.+.{ [ [ [ ] o.' o.&.O.Y : y R.R.A.V.5.*.-.&.8.8.-.%.' [  .5.2. ...*.1.5. .{ &. ...&.o.2.n ",
"y F.Z.z.z.z.*.o.L ' ] Z Z ] [ o.+.q.9.o.] L o.o.@.+.o.o.] ] C , 7 z.M.R.Z.8.&.r.y.$.o.-.t. .' &.y.q. .&.r.y.y.' } ' {  .' 1.r.U ",
"b k.w.=.l.N.[ J J Z ] ] ] ] S S ] ] @.X.Y O.@.#.@.$.@.X.^ ^ V 1 8 -.r.Z.K.M.z.-.q.6.&.&.6.$.&. .5.y.8.&.y.8.%...| [ ' ' J { Z.( ",
"& q 7 , , , ; ; ; , 1 , , : ; X * @ ; ; ; , ; 1 ; @ ; O & < & o w 8.y.&.q.z.M.-.6.&.%.-.q.1.{ [ &.i.y.&.-.&.|  . .' ' J ' %.y.U ",
"a K.o.] ] ] [ ] [ +.o.] ] ] o.] C Z Z x z C z C C z n C C ^ _ q 4 Z.Z.y.z.Z.A.Z.6.&.q.8.-.5.&.&.r.i.y.x.y.5....... .| { { 1.y.T ",
"s Z.8.y.r.&.&.&.&.&.+.8.$.[ o.] o.{ ] ] o.6.o.&.+.o.] +.o.$.$.e w E.Z. .8.t.y.i.t.r.+.{ 5.y.8. .t.i.n.b.y.y.5...*.2. . .%. .&.( ",
"u z.b.q.1.2...&.&.%.o.-.%.' %.o.=.q.+.X.o.=.&.%.&.o.] o.] $.$.q p R.-. .*.*.....*.5. .&.-.n.M.i.b.z.y.i.y.&.&.| &.2.r.5.*.5.2.T ",
"s Z.b.z.&.o.' | | &.2.&.&.[ ] -.-.o.o.[ [ o.[ [ %.o.L ] O.+.#.7 N Z.-.t.n.-...5.*...&.i.i.M.K.Z.n.n.i.i.i.*.&.....-.n.5.*.x...I ",
"u M.8.o.o.&. .' { o.&.[  .o.] [ [ [ ] ] [ &.' ' [ [ [ X.X.=.X.: E T.5.&.&.| ..r...*.y.A.T.i.J.n.Y.n.8.&.y.y. .5.| ..n.y.&.y.F.O.",
"y b.%.S ] o.%.[ +.+.[ [ o.[ L [ o.[ [ o.[ %.' ] ] o.o.o.o.o.o.7 E W.y.5.2.} *.r.&.8.6.F.G.n.n.G.n.y.y.5...2.2...*.*.r.r.&.&.F.] ",
"s v.[ +.q.=.=.>.q.q.[ [ L ] [ o.=.] =.+.[ o.[ +.&.=.=.&.[ [ [ 7 R Q.Y.y.2...1.i.n.r.1.i.n.F.Z.n.Z.F.F.y.&.r.y.2.2...2.y.&.&.G.O.",
"s E.q.Z.N.-.t.>.q.>.&.[ [ J J ' ' L [ o.o.] o.q.&.=.&.$.[ %.] 7 N Q.i.| *.| 5.Z.Z.i.F.Q.T.n.M.G.G.T.T.n.r.y.T.n.r.5.Z.i.y.&.T.f.",
"u E.M.n.8.-.8.&.[ [ %.' &.[ o.' K J ` ] ] ' [ &.=.=.$.] o.&.] 7 N ~.F.*.*.*.F.T.n.i.i.G.H.T.T.E.E.T.T.T.F.n.T.F.y.i.n.Z.i.-.M.#.",
"s G.n.Z.1.-.1.-.q.-.o.[ &.-.q.' ' [ ' Z [ [ ' o.=.l.=.o.&.{ o.9 y ~.G. .} ..*.r.r.F.5.y.M.q.G.E.T.Y.T.T.Y.n.T.T.i.5.y.i.y.x.T.O.",
"y -.1.A.n.b.1.1.q.o.-. .&.&.&.| ' ' [ J '  .8.q. .%.-.8.6.[ @.w y ^.y.&.&.&.r.x.F.G.y.y.y.y.F.T.G.G.J.n.G.i.T.~.Z. .y.M.y.n.T.,.",
"a Z.y.r.y.n.q.&.&.{ -.-.' %.&.[ [ &.{ &. . .*.r.8.&.y.8.o.o.$.y y ~.i.n.i.Z.R.M.E.T.G.i.i.n.E.G.Z.b.T.T.T.i.n.E.T.y.b.Z.M.i.T.B.",
"s k.&.t.n.Z.z.t.8.q.t.-.&.| { { [ &.o.%.{ ' %.y.y.%.-.&.[ { =.y D ^.T.n.i.F.K.y.r.i.n.r.1.1.y.F.G.T.T.E.W.T.G.n.J.Z.n.T.Z.G.Q.h.",
"u o.' &.&.8.8.[ o.8.z.%.|  . .&.&.o.o.&.&.&.1.i.y.z.y.&.[  .,.w s W.G.G.y.o.' o.&...y.y. .&.5.T.T.^.T.T.E.W.W.T.i.y.Y.T.n.i.Q.h.",
"f n.&.5.-.8.q.o.o.q.r.%.&.8.8.+.&.%.&.y.1. .t.i.n.b.y.-.-...@.8 s W.z.M.t.q.{ %.o.-.q.l.V.r.i.Q.Q.Q.Y.y.G.T.z.M.G.n.T.F.i.F.T.#.",
"R n. .{ 1.&.[ o.o.+.8.-.%.&.&.[ [ o.o.z.M.i.b.b.y.y.y.o.o. .+.8 r p.b m F N b m m N m m D m B B m B n l B n c 8 m m 8 c B y 7 1 ",
"d n.%. .-.&.] [ [ o.&.%.[ %.o.] [ &.8.b.Z.n.i.y.q.i.i.*.%...&.7 r ) n c l l c B b b c 8 8 3 8 8 = 2 2 = @ # + @ : @ @ : : , 0 < ",
"t i.-.&.o.%.&.o.[ { &. .' [ [ [ [ %.q.y.q.8.y.-.&.&.y.r. .%.o.2 g /.i.&.%.&.r.i.8.i.i.1.&.] 1.&.[ { ] ] L =.$.o.$.o.o.X.$.j.f.G ",
"s F.&.$.+.+.o.[ ] [ | [ [ [ o.' ' %.t.y.q.q.o.[ %.&...&.1.&.] : s G.q.$.&. .&.r.r.$.{ { { ` o.[ o.[ ] ] [ &.q.=.:.$.=.o.[ +.$.G ",
"D G.z.=.&.&.%.o.] ] [ ' { +.$.' ' &.%.+.q.l.y.8.o.&.%.&.o.-.+.2 s z.q.8.%.[  .y.y.-.[ [ ' o.o.'  .&.%.[ { [ o.$.,.O.$.+.o.X.@.H ",
"p M.q.&.[ +.] L L [ '  . .o.&.' o.%.[ [ o.&.r.8.q.+.{ -.&.-.+.6 s b.1.5.-.&.1.i.y.x.y.o.[ o.%.' [ |  .%.-.| ' [ o.X.+.&.8.9.X.M ",
"g n.=.+.S [ ] L X.[ o.8.%.o.o.] o.-.%.] ' o.&.&.-.8.[ [ &.-.1.6 u &.2.y.y.%.-.n.i.n.y.-.&.-.&.[ [ %.{ %.-.o.[ [ $.+.=.8.-.-.Y j ",
"! M.[ +.[ ] [ ] ] ] $.k.&.' ' [ o.&.&.o.] ] [ { o.1.&.[ &.r.o.: s y.&.z.M.n.b.b.y.i.i.-.[ %.&.{ o.&.8.y.-.=.=.=.&.+.o.{  .&.X.A ",
"Q A.&.+.+.o.' [ L Z [ +.&.+.&.-.k.z.&.%.o.$.&.' ' -.y.&.o.8.[ % i J.q.8.Z.G.n.Z.i.i.i...[ o.o.[ o.&.o.%.&.q.&.=.8.=.o.{ { 6.] n ",
"R T.t.l.=.+.[ [ ] o.[ &.&.o.=.-.q.=.o.o.&.-.%.{ %.y.q.8.&.&. .: s Z.b.y.n.n.Y.M.r.&.*. .%.[ ' ' ' %.o.[ &.t.=.&.&.o.[ 1.o.o.o.l ",
"R W.t.-.&.:.[ [ o.&.' J | [ o.$.=.+.o.[  .&.1.&.{ y.8.z.6.1.-.: s y.2.&.8.V.n.y.i.5...' &.&.q.[ ' &.[ ' { o.=.9.=.] &.1.| %.@.U ",
"Q ~.-.=.&.q.&.[ L L L L >.>.>.=.&.+.%.[ %.t.y.-.2.z.8.8.2.-.-.7 R 5.&.| &.y.8.i.n.i.1.{ <.&.=.' [ &.[ [ &.2.%.8.-.8.5.' '  .+.U ",
"s G.z.N.q.l.&.o.L L ] =.q.z.z.o.o.[ [ &.&.-.n.v.i.q.8.&.8.%.[ % N D... .[ -.y.8.q.i.8. .{ %.-.[ { &.{ &.r.y.&.&.y.q.8.| } ' ' C ",
"R T.t.-.8.N.&.L ' [ o.o.o.k.q.o.[ [ [ ] v.Z.Z.q.i.Z.6.o.1.q.' : D y...-.-.o.&.=.o.-.t.1. .| { ] { -.&.' &.y.y.&.8.1.| ..{ [ ' x ",
"! T.r.z.r.t.o.] ] [ o.X.:.z.%.%.o.%.o.S @.q.y.z.b.z.q.*.*.&.2.y N r.&.-.&.&.=.j.o.q.t.o. .' { +.&.&.%.&.-.i.y.t.8.1. . ...| ' k ",
"R U.f.a.f.f.@.@.#.#.f.f.g.f.X.A C v A ^ ^ ^ A A A M M c B y c O R F.*.8.&.[ &.$.@.n.t.%.&.-.&.&.-.5.1. .r.i.x.M.i.r.&..... . .U ",
"X 7 : , , 1 7 t p s e y p p p p y q p D p p p q i 7 : 6 7 7 y . R F. .&.[ S o.] [ z.t.&...1.&.o.1.n.y.&.y.z.n.i.y.r.5...&.2.y.U ",
"w f.#.$.9.$.@.l.B.v.z.z.Z.n.N.9.=.8.z.&.o.z.z.A.A.q.-.z.z.M.n.9 m y.&.[ [ ] [ ' | &.&.%.| &.%.&.-.z.K.Z.n.b.y.n.y...&.| &.-.Z.B ",
"m P.N.z.=.-.8.q.&.&.y.t.q.>.:.o.&.[ [ o.[ -.[ -.o.&.8.t.z.q.8.4 s n.&.o.o.&.q.%. .{ %.&.| [ o.b.b.y.z.n.n.y.1.5.n.y.....-.8.Z.B ",
"y K.Z.8.-...&.&.o.o.-.q.l.l.N.@.+.$.=.o.] [ ] [ [ [ :.&.[ &.1.2 D T.=.q.-.q.Z.=.&.[ ' -.+.&.+.z.M.y.y.t.-.&.&.&.*.2.2.%.o.r.5.l ",
"m Z.n.&.+.' |  .&.&.&.-.-.9.z.t.&.&.%.[ Y [ ' L [ ] +.:.{ {  .- s T.r.>.>.-.q.+.[ ' ' q.-.>.q.y.F.z.z.z.-.%.[  ...-.2.&.&.1.8.8 ",
"m 8.$.&.%.[ '  .&.1.{  .&.o.%.-.q.-.&.&.[ [ &.9.k.o.o.Z.B.q.' - p E.z.-.=.&.>.+.[ %.&.y.t.r.-.r.y.-.-.9.t.q.6.&.o.&.&.1.8.1.2.5 ",
"v &.Z [ %.%.[ o.o.[ [ o.-.k.-.z.I.k.6.o.' &.-.Z.l.9.o.2.k.v.o.3 D ~.z.=.9.=.:.o.[ o.&.q.n.=.&.&.=.q.-.&.-.8.q.&.{ &.*.&.2.1.r.v ",
"j o.o.&.&.=.=.=.9.[ | [ >.n.r.k.q.n.A.o.] &.q.Z.Z.Z.z.b.Z.v.y.b W ~.t.q.q.q.s.o.[ [ [ o.-.q.j.:.l.&.' [ { { &.8.{  .-.-.1.1.Y.n ",
"j &.z.z.-.q.q.q.q.&.%.o.%.&.' { &.-.=.[ {  .{ &.$.=.n.Z.n.k.b.9 R G.-.&.&.-.:.%.o.[ [ %.-.6.9.-.l.-.&.o.o. .{ 5.r.&.2.y.o.%.n.P ",
"m 8.z.q.-.r.-.o.X.+.k.=.-.-.$.6.-.&.5.| ' { ..' [ $.8.q.%. .Z.B E y.| [ >.&.&.o.o.[ { -.=.+.=.&.=.-.>.q.&.[ [ 8.y.-.%.-. .&.y.b ",
"B n.t.t.1. .[ ' [ -.b.q.&.-.8.8.+.&.y.y.1.&. ...&.w.{ &.&. .2.l b y.| %.-.o.&.=.o.%.| |  .] :.=.9.q.-.-.-.&.&.y.y.t.y.y.&. .y.N ",
"M G.M.M.q.' { %.q.V.z.1.&...&.&.o.o.-.y.2.&.......i.2.&.8.8.2.9 B F.*.&.1.9.[ o.] o.| [ &.o.=.+.&.[ &.5.y.&.&.z.y.z.8.r.r...2.b ",
"F !.R.V.z.%.5.8.r.b.q.&.{ '  .| &.&.&...&.8.8.&.|  . .&.1.&.8.l B y.&.&.-.+.S o.&.&.-.q.l.l.q.&. .%.%.y.n.n.i.b.y.r.y.-. .&.| l ",
"B R.T.T.z.&.&.-.-.&.o.%.&.| ' { o.&.[ &.-.&.&.o.k.=.'  .| %.%.5 b i.&.q.+.o.o.&.r.-.M.z.q.z.l.[  .r.i.b.Z.T.n.Z.i.i.i.y. .1.i.9 ",
"c n.n.y.z.&. .&.-.o.S [ o.%.o.+.o.[ o.+.+.[ [ ] 6.%.[ &.[ &.1.l ~ T.n.z.z.=.t.i.t.&.M.z.n.q.&.*.i.M.W.T.Y.G.Y.T.n.5.5.F.2.y.i.8 ",
"B !.y. .y.r.%.[ [ o.&.q.&.q.>.q.6.[ o.o.+.$.+.] o.[ [ &.%.| o.7 ) (.E.G.E.G.n.~.!.M.G.M.A.z.-.-.y.t.H.b.y.b.k.$.$.$.o.] +.+.S : ",
"B R.-.&.-.y.q.+.8.8.V.l.-.t.q.8.>.o.] ] [ q.$.+.&.8.9.o.+.-.o.7 < d t q t t 8 q i i p p p D D N b y D y w w 8 7 0 $ , $ > $ $   ",
"b n.k.k.&.-.q.q.y.-.z.1.8.1.%.] X.o.] ] =.8.-.o. .&.{ ] ] +.@.7 $ M n V ~ A A ^ ^ #.#.O.d.@.#.O.O.#.a.f.@.@.#.#.g.X.S ] Y #.j.l ",
"B Z.z.k.$.-.[ o.+.%.z.r.-.%.[ [ [ [ [ &.n.q.+.o.{ ' { [ ] [ Y : y P.k.Z.n.n.i.8.2.5.5.5.5. .%.2...{ &.v.b.-.1.i.r.r.r.1.y.i.i.n ",
"B V.q.:.=.+.[ [ [ %.8.8.+.o.&.o.&.[ %.%.&.2.&.o.' '  .o.$.[ Z : 7 B.8.b.k.z.q.8.q.8.1.z.N.l.6.%.&.+.&.$.$.q.=.q.-.-.q.&.' 1.1.k ",
"b y.%.] o.&.+.$.&.&.&.+.[ %.&.%.%.' %.o.-.] ] [ &.' [ o.X.[ ' = q Z.V.z.q.>.=.&.%.%.8.q.j.q.y.=.&.6.&.o.[ [ 1.2.6.&.q.&.' %.5.k ",
"m 8.o.o.[ [ o.w.=.&.+.o.$.o.$.8.&. .o.o.o.] [ o.o.+.X.$.] %. .8 q z.M.n.k.:.&.&.&.j.Z.+.&.&.-.r.8.&.%.&.%.o.q.w.%. .&.b.6.[ { h ",
"c n.8.o.%.=.q.q.+.&.[ %.o.o.{ =.=.q.-.%.[ [ &.o.o.$.@.$.{ &.y.y 6 &.-.k.=.%.[ j.&.,.9.%.o.&.%.q.A.q.&.%.' %.y.y.%.&.-.q.q.*.| h ",
"l y.r.[ [ &.@.w.+.o.[ &. . .o.+.&.-.&.%.%.o.&.[ [ o.[ [ %.&.6.8 % +.=.o.o.o.o.+.Z o.-.8.n.Z.t.z.Z.k.z.+.` { &.y.8.+.8.1.| -.r.U ",
"8 *.&.L ] { [ 6.&.o.' %.[ { o.[ { :.] [ o.&.[ [ o.[ [ [ ] [ o.7 7 S.&.&.q.6.&.{ { &.z.I.q.8.-.q.1.k.B.o.]  .1.b.z.-.y.r.&.z.n.U "
};
