/* XPM */
static char *trak_tile_y1738154879[] = {
/* columns rows colors chars-per-pixel */
"64 64 99 2 ",
"   c #251C15",
".  c #2B1C12",
"X  c #301E12",
"o  c #34240C",
"O  c #3A2A0F",
"+  c #2B2115",
"@  c #2E231C",
"#  c #342514",
"$  c #392614",
"%  c #352915",
"&  c #3C2B15",
"*  c #33241A",
"=  c #38261A",
"-  c #342919",
";  c #3C2C1B",
":  c #3F3015",
">  c #3E311B",
",  c #2F2420",
"<  c #3C2C20",
"1  c #3E3123",
"2  c #432E16",
"3  c #422E1A",
"4  c #453216",
"5  c #4A3316",
"6  c #44321C",
"7  c #4B351C",
"8  c #4D391D",
"9  c #503917",
"0  c #50361C",
"q  c #543C1E",
"w  c #5A3E1E",
"e  c #412E22",
"r  c #443322",
"t  c #4B3622",
"y  c #473823",
"u  c #4D3A22",
"i  c #4C3C2C",
"p  c #543D23",
"a  c #593E23",
"s  c #533E2A",
"d  c #5A3F29",
"f  c #623E26",
"g  c #57401E",
"h  c #5B411E",
"j  c #564124",
"k  c #5C4325",
"l  c #5D4926",
"z  c #564229",
"x  c #5C452A",
"c  c #5E492B",
"v  c #5B4631",
"b  c #5E4931",
"n  c #624525",
"m  c #6A4727",
"M  c #634926",
"N  c #694C26",
"B  c #61462A",
"V  c #69472A",
"C  c #644B2C",
"Z  c #6A4D2C",
"A  c #714F2C",
"S  c #6D5125",
"D  c #66512D",
"F  c #6C512D",
"G  c #715223",
"H  c #72532D",
"J  c #775C2F",
"K  c #79592C",
"L  c #614731",
"P  c #644C31",
"I  c #6A4E31",
"U  c #704E33",
"Y  c #665032",
"T  c #6C5233",
"R  c #6D5834",
"E  c #675139",
"W  c #6E543A",
"Q  c #6F5838",
"!  c #725433",
"~  c #795734",
"^  c #745A35",
"/  c #7A5A34",
"(  c #725539",
")  c #745A3A",
"_  c #7B5D3A",
"`  c #786034",
"'  c #7E613B",
"]  c #7E5F41",
"[  c #7D6143",
"{  c #805C34",
"}  c #815F3B",
"|  c #866237",
" . c #886337",
".. c #84623B",
"X. c #876540",
"o. c #826847",
"O. c #8E6C46",
"+. c #916A41",
"@. c #967049",
/* pixels */
"s L 8 p j 7 r 6 2 6 r 6 & & y # : 6 u l j j 8 8 p p k p B k V x d z p 7 u u a p 7 7 7 t j k 7 + # r y > ; r e ; < = t s u e r ; ",
"a R I I C C b C C P I I x B I p t x C C T ! T M C ^ ! I ] ^ ) q k T B C I _ _ ! U ! _ X.) .._ 7 8 P x C B Z C I Z F Z Z T Z B 7 ",
"w H F Z M M k M Z Z Z Z n n B 5 7 k M h m H H ! ~ H N ~ _ H ! p B ! ! ^ n Z ~ U A H } _ ^ { / 7 q ! V n V Z Z Z M Z m Z A V C 7 ",
"B Z Z V Z C n V Z V C C n x L t p M ! Z H H H H / ~ H ! ~ ^ _ p w T E ^ _ I I U P ! ) j k H ^ 7 d T n k I Z I B C C T _ I C W u ",
"B T Z C M I B Z I I P C k l L u p C I T V ~ K A _ Z M ! T Z T 7 x l D ^ _ ! T Z P B x x x M Q u a v 0 I E C C C Z C F ~ Z V R q ",
"k ^ ! V M C C D Z Z T F Z V C 8 j j C P n ! _ _ F D n I V n R t C ' ~ ~ / ~ A ! o.~ M x l n Z x a B a T T Z Z V Z F F Z A A F g ",
"5 M Z k k C x M n n C F H T C 8 a x C I M Z I Z B B C T Z M Q u j I H ~ ~ _ ^ Z F ..! c E / ) p n T Z V H Z A M A ! ~ Z Z P x 7 ",
"7 n B B M C B n B k k k C C b 7 d B B k M ! ^ V Z B I I Z F T 8 p B E ! R ( W x ! ~ I P C H ) a n ( Z Z H ^ ! ! Z Z F Z V C z & ",
"d k Z Z C C M M U M B k M B C p p B M ! ^ ! I I x B M F I Z ( s j I Z B T R I I P T ) Z ~ ~ ) 8 k T Z C M Z ^ Z C Z A C M M B ; ",
"p Z ! Z I F N F C M I M M I I 6 u P B I B a I j M C n N ! Z ! 7 p ( Z Z T T x C x C C Z _ ^ ) a a Z k B P ! ! V P Z A T Z V L 3 ",
"q M Z M Z F N Z V T n k Z T L 7 8 C a a k a Z P T Z M F V M E u t I B M ) T B k x x P M ! ! C a f Z k f V ! ~ M Z m N F F N C 3 ",
"6 C D x L F M T Z k k k k k c & 7 x j p B P C M M x x C P L I r u I V I ! Z I P C C E M I ! C 7 k C w p a C B B C n F T C M C 6 ",
"7 D T B C Z C T P j z x p 8 v ; p x B a f I T C Z P I Z x a x e u P n ^ Z ! ! ( ! Z V T ! Z I 7 x R k d x B x x d k C Y P V P r ",
"p V m M M Z Z m M B k l n n x 4 8 I P V V B H Z Z ( ) Z M B C 5 5 C w Z ^ ~ F ^ ! M ) I k P s 4 a C n k k l k k p w m V Z H V 6 ",
"x F H T P C T I Z n I ! F ! ! 0 7 Y T T T M l j C L C C E ( Y t u P Y I ) T T T ! ( L P x x b : q k M x z l l x x M Z C F N C 6 ",
"r 5 7 u 6 4 u 3 ; r 7 ; 6 7 y i ; ; 6 & & t r - & ; ; $ = & 4 ; ; ; 6 6 7 u r 3 6 3 & 3 & 2 7 ; * - # * * ; * . * 3 6 ; 6 4 > + ",
"& x x d p j x k k k k k n C x 7 6 p u 7 p x p s x d q x x p k u q x k 0 x C k 0 8 8 p v C a j r i p 7 7 t y u t 7 8 7 j k 7 6 = ",
"6 P C C C B x n Z C P Y F T L p a c x C Z C x C C x l C ( C C 6 a P D P x C D T V T Z ! ) Z T 6 k ^ Z j P C C C x x C C Z C c 6 ",
"4 B k C C x j k k k j k B M C u p C k Z Z n k k C C D C I T ^ 6 a c B C a C T ^ / H m V U n F r q F n w j n n n q a C C M n P u ",
"u E Z Z M C M M n k k n C C c u p I B M U I Z Z k T ) C P Z R 3 d c n k M I ~ ! ) F Z q h n C r 7 k q a p k x x k x k k n k k 4 ",
"u T Z F C M l M M k l x k k j 7 p x k n Z ! I I Z C I Z L C P 6 p P C k P Z Z Z T F ^ C T F Y r 6 c j x x j j x j x k p a B x q ",
"7 E M V k k j k M C l x k j z t a C C x x M n T Z C C k d k C 3 p T n n M T Z ~ H S Z ~ { K ^ 7 u P m I k k M a k P P q x B j u ",
"6 L n M C k k B C Y C x k q z 8 p P C k k M M Z Z ! D C x k j . q T k k B I Z ! Z F m Z H K _ 5 7 Z M F k Z F w q u p q M I B p ",
"4 l n T T I k k M C C x C k l 7 5 C j k n F ! ~ ~ Z N M I k j - p T Z C C B Z Z P C B Z F F E 6 8 ) N C k k j p q 8 p C F B n p ",
"= ) M N F F M M k k C l k p x 2 t C k k x C F B T ! ! M n M W % 7 c C C k M T ! P V Z C C B C & 2 F H n M h k C N m n k B j n p ",
"< E n B I C C B B L B j u t s ; u c k x B C Z B h Z Z ~ ~ F ) 4 7 j j n C C Z Z k C a Z B V D ; e R ! P l z p x j c x p q x x 8 ",
"o l F ! Z h Z C k k j k q j x 6 3 j g x x a k x n M M ! H w x & 8 x j k k q M ! Y M k M x M R t q ~ K I S M k g x a x x k k I k ",
"# k M M n n D Z M M k k j k c u 4 j a j x j k B p d x C C p z ; u x k d p p d x Z k Z l B V Z & q ~ H H H H ! Z l p C n n M F h ",
"= L B B B B M M C C C x d p x p 7 c g p x n x j d x C M M k b & u C k d a x j p k k M C B ! D 6 u F F ! ! F ^ Z k x k C a P x k ",
"; Y M j p a C I C n C x k p z 7 & x q q a j x a q k k n M M T O 5 C M M g k M k p x B C x M Z r 7 Z T ) F m Z M Z ! n B I I p j ",
"6 c l B v x z k T C x l l j x 8 ; b z z z z x x a C x x C k z o 6 j x C l x x p y j x z v j k ; 7 k V ( I H ! ~ ^ _ ) V I ! C a ",
"- 4 & ; e X # = ; & 2 7 ; # ; & # 6 O $ ; & % & # % - # # # % - @ # # 6 ; ; ; # # # $ & & 3 & - + O $ r 2 6 7 7 6 & u x 2 7 j p ",
"j x k n q k p 7 p L P l 8 8 j ; p C j p a q 8 C k u q j x 8 6 ; 6 y # 4 7 p u 4 3 t 2 6 j p 8 % 3 u p q u p 8 k k j u 7 8 7 k k ",
"k C I T Z P B P ! W C M j q z t p E C j a x C C C x k C I j l & > z s x x L L x u a 8 j E k L > 7 b C C l C C T D C C C T k D k ",
"p n a B T T n P H Z Z H Z x c ; 7 k k k x x C C Z k j h x C l 3 & 8 8 u q k C x L l j p 8 g p % 4 k k k l C k C H H F ^ N k P u ",
"B C a k T I j B Z Z F H U n C & p P k k B C T R F d n h x x l 3 t z u q 7 p j x p k q z q q I ; 4 k k C C k k k n m T / N N T 7 ",
"x L x n B B a k l x k Z I M I 7 p l k C n n F F M x k k x p l = 4 p j j p a q x k k Y c p k C ; 6 z k D C k p j k p l M M H ( p ",
"a c C C C M n k k p k C I n C 7 a q l / Z m F M k k k q p q z - 6 a p j k j q x k C q x q p C ; > j g k l j q 7 7 u x l F H n q ",
"7 x B C B B k x I E C C B B x 2 p B F ~ H _ _ M C C Y k p d u & u z p j j p a p x k k p z k B ; 7 x C C x C x p x l C C F Z C p ",
"7 x x B B B d C m ! D h a C l ; 7 C H J ....~ n g j l M k 7 p & 2 u j c g p z p q k j j x n C 6 u C F Z M T C x M j B C V V T 8 ",
"u x Z x x C j n M x x l x j C r u C n V ^ T l j d d C C x a j = % 8 p C k g k z j 8 g k Z F R 3 q M B P M M n B F p C P M Z C 7 ",
"u x B B B x x B Z n j k B M Z 3 s I n M P C c I Z R M M C g g = 3 0 u n M Z M k j j k C C k l ; u C a d C ^ B B Z k c k T M P a ",
"p x k a a n Z I Z P C M B B Z 3 p I Z Z ! T V B Z I Z H P n k 3 t z t 8 q k M C S D l k x q 8 . ; j x x j D l k F T T V ~ Z F x ",
"p x C B k x a n x x j k B P I 3 6 P U A Z Z M V M ! M M I ~ k 2 5 C c k l C S H J H h 8 j j z = 2 C R l h h l k M M V F F M C u ",
"u z L c x x j x k x j k x T Y 7 u c C ^ ) C C T P j C Y x C l ; 8 l C k F [ J { / ! C k p l c = 2 ^ F F Z n g B l x C C M M E u ",
"q x n m M B T Z V P B n n n C 4 j n M H ! M n V C x n C I k C 6 0 F C M F Z / | A M q q 8 g l & q / N ! k a a B C ~ ..| ~ n k 8 ",
"p C M Z I C T Z T c j k L B c t k R ~ F M n Z T M M h k B Z ` & l R n F ` A K N k k z Y v q 8 + 6 D F [ c z z u k _ @. .O.F w 7 ",
"+ % = = ; ; ; ; : = % : ; o & * - r $ = # - - # - - % #   # #   @ % ; & 6 r o < & : & & # o % , * : 4 7 4 & > : # 7 0 8 j u > ; ",
"6 p u j t t p p x d 9 k C w k 3 & p x k k k 6 $ 8 q q p 7 2 7 - 3 a 7 7 q q j j k l q 7 t 4 u ; ; x 6 5 p t 4 5 & 7 4 7 r 2 j ; ",
"a P l C B x C B T C C ) ( I ) u q k M ^ ^ F C q j C P l c k j - t b c C C C l k C T C B b j l 6 6 c l b C x b ) Y z c T v d l 6 ",
"x C j k n Z I m B B C Z V M T u C T M H / M h k x k k p B k x = 6 x k k k l k k k B k w x q k & 4 M k l k w C S l d l l q p j r ",
"0 a n C B I ! M k I H Z Z Z D z d M g Z _ M M E l k j l P B j # 2 x p w k C M B k C M k j g c 7 7 C k x k M R S h C T Z B B C 6 ",
"d x C B q x Z B C C D Z U A C 6 a a x C F k C x k k k M j M P $ 6 x x B Z T F C k C C C x k l 3 3 l l x M V ) H C k k C Z C I 3 ",
"7 x j j x B x C B n H ^ U ! F & j k C k k k C C k l C P B I P % 8 l k C Z I M C l j C C B C c ; 3 x z x H H T H F n k M P C b ; ",
"x P k p x x a C x a Z ! Z M C # j I B q g l M F T Z C C k n x ; 8 C k M M n k k k q M C C C T 3 3 d p k | { T F / ' F k B L l t ",
"7 p j k d d a C B x B Z C C c ; p C j k j C C M l n k k C n x & 7 C l C M k j k k k Z H I F T u 3 x k k  .| V m G F ! k d l k 4 ",
"u z x x d p d x B k P Z M Z ~ r q C l k l x C k k l n h c n S 3 u P n ! C k C B l p C / F F Y y ; B n B ! / A A H F R q w C j 7 ",
"7 u p x g q p x C C C B B B ! r a E j Z Z ( Z M 7 8 C B z B Z < 8 I D H Z C C M M Z N ..~ h F 8 ; k M C C ^ ~ M F C C q k x z > ",
"& p d a p j d a d x x I E Z T r 5 F n ~ V Z A _ ' C a L C B Z ; 8 C C M l C M C H C k M M k C 6 4 c M k k F ) C V C k p z p s ; ",
"6 s t u p d a p Z n k H F M J 7 7 C k C R Z H ' | | f V Z n H ; p P C C M C C C M C l g z x P t ; x n x v M C x k k k x k p x 3 ",
"z a u a x p p d C k x ! C V ^ 3 6 L x x U C P C F F L j b C F < q P n B C B C M F ! C k x u C 8 1 x a B C B V D k k k C k k I 7 ",
"j k q p k j w k f d d C j k T e 7 c k M C n M M k q d j c C ^ 1 0 Z k w k C F Z H ! C 9 p k M 7 & k n C x Z H F Z k k M n k P 2 ",
"j C j p x b c x x c l T C l N > p c a l C C C Y x C I T c B H = p C C j x l Y F D F ( l B T C u 4 n Z E I T T Y P x P P P B c 6 ",
"3 u ; = ; r ; 3 ; > & 2 > 3 6 @ + ; = ; 3 e r 3 e 3 6 7 6 3 0 1 % r u t 6 r 6 7 t r 7 7 t p t < > x q r t 7 7 z 8 ; 6 6 q u t y "
};
