/* XPM */
static char *waterwall1738154879[] = {
/* columns rows colors chars-per-pixel */
"64 64 61 1 ",
"  c #0D0906",
". c #110D0A",
"X c #16120F",
"o c #171310",
"O c #191512",
"+ c #1D1916",
"@ c #1F1B18",
"# c #221E1B",
"$ c #25211E",
"% c #272320",
"& c #2A2623",
"* c #2E2926",
"= c #2F2B28",
"- c #322D2A",
"; c #36312E",
": c #373330",
"> c #3A3532",
", c #3E3936",
"< c #3F3B38",
"1 c #423D3A",
"2 c #45413E",
"3 c #474340",
"4 c #4A4542",
"5 c #4D4946",
"6 c #4F4B48",
"7 c #524D4A",
"8 c #55514E",
"9 c #575350",
"0 c #5A5552",
"q c #5D5956",
"w c #5F5B58",
"e c #625D5A",
"r c #66615E",
"t c #676360",
"y c #6A6562",
"u c #6D6966",
"i c #6F6B68",
"p c #726D6A",
"a c #75716E",
"s c #777370",
"d c #7A7673",
"f c #7D7976",
"g c #7F7B78",
"h c #827E7B",
"j c #85817E",
"k c #878380",
"l c #898582",
"z c #8D8986",
"x c #8F8B88",
"c c #918D8A",
"v c #95918E",
"b c #979390",
"n c #999592",
"m c #9D9996",
"M c #9F9B98",
"N c #A19D9A",
"B c #A5A19E",
"V c #A7A3A0",
"C c #A9A5A2",
"Z c #ACA8A5",
"A c #B1ADAA",
/* pixels */
"yipjtydadtwtti9lhhehhhhh0eh0qh0eh7qh0qhqhh2h5h4hhhhhhh8h0hhhhh7h",
"180p87qq3><5702i814001,;417,hlh2125h77005;-114&hh41,7---11411hh1",
"0rtjpadd538tup7fhhhhh7,14hh40nh8q0qhhhhh82>hhh18hhhhhh1>4hh47Zmh",
"faejzbvlitihjg9dxhhbzhh0hhz0hVchhhqhhnchh8hhhh7hhhhhhhhhhhh04hhh",
"fi8dzbzjhdfkhf5yczxvhhhhhhh4hBnhh04hhnxhhhhhhh57hhnhhhhhhhhh5bNh",
"sdtlvblzzghzlh7pzvbxhhhhhhh0hBnhhhhhxvxxhhhnhh87hBBhhnhhhhh57CBh",
"dftlbcjlkdgklh9plvvzjjhhhlze0cxhhhhhxxhvhhhnhm7hhNnmhhhhhhhh7mnh",
"ljwfvvjjkdglzk9plzvclhhhhlhehnnhhhqhvnxxhhhhhh2hMhhhnhhhhhh8hmmh",
"hzwxllkkkhdlkc5slvzchlhhlhl0hBbfhh5hvhvhhhhhhnh8hnnhhhhhhhhh5nmh",
"hh9kcclfdfskgk2tlvzchjhhhkveqBvhhh7hhvchhhhhhhh,hhnvhhhhhhhh8bNh",
"hhylmccfkzlxlx0icbzlhllzkbl8eNvchhhhcmhhchhhhh8hNMvhhhhhbhh7qhNb",
"8980068147896w<78hq0780e0r0,hje784850051475077>>qhq00q08h5h2hhh8",
"6999326>3444385e>1524>,>,,,2e0>;855544&;15>2152h1144111&1-114q11",
"ewwt0sgyiye0548eq0h0h0hhhhhhq45hh0h05hhhhh5h551h7qqh0hhhhhhh041h",
"2223-rie841,%X#=-;1;&&7e*555;&&>,->,,1hh>1,>&+O-11111-17+5h21OO;",
"ryrw%qtyiery9<7qheheq18e$405>,ee0hh44;h00hh707280ehe825h+704111h",
"rwqi,qre00h0h280h088h>0q&00788ereeeu72y0yyrere07qqh5h>87$805840h",
"yyrs1qrrh07hh80q5hheh;7h&0e0q0eyyyya82peyyyereeeh8hqh4h7&000h200",
"tyyd<0weh7h0850q0qh0h,7q&0rqe0eyryyd81y0yyeeeeeeh00hh,55$400h80h",
"tipd,60e8h77qhh0h80hh;70&qyerqryrupd7>r0eyhyrreee7h0h,4h&hh55008",
"ypaf>60e7h7hqhhqehehh;7q-eheee0hrppf7>r0eypperrhh8h0h-48-e0hqqhh",
"rips:50wh5h7hq7hhrehh-7e;e00e0eerppa5>e0eyyuhrreheh0h;>h-e00qqe8",
"ruup-49r7hh87qqq0e0eh-7q-qq0eeehyuya4>e7yyyyrer00qhhh-40-q00eqeh",
"yiua;6qth8hh0h0hrhh0h;80-ee00hqhuuua5>e0ppuyehyyh8h7h$47;e07hee7",
"111;110*1111-&$&*>;>-&40&&*;-*>>1;,>-201;>;>--&&-;--**58+*>--;>*",
"&1>*1111@&*&$+&-;>*;>,ey;&$$$$*;>;,1>7q1&->;&&&&>;*&;,ee;$+#++$;",
"yhi0yhyyyhhrh8ee0hhhheyrhe0e0rqhpyur0rpeyaphyeeeehhhh0h0h00e05hh",
"ey5-111571110e010r81>&1444585e41ye7,->4454410ee47e07-&>217571h5+",
"e8211177811-8q8&50872,8e884,-0,-e071,40q742-70q>>085;;50577>$87#",
"e5eueyhehyq1877$278yrhy00hh7;e1-80qryrryyhy,578;&78rhhh7hhe7;05&",
"880yyye088e*758-er80qrhe0ehe,e>;q0qrpyererh>550>2y880e8h807h,72&",
"ee80urehyhh1758*8eqeeeeqh0ee,q;2re80reqprrh1870;>yqqhq0e0hhh;74-",
"0itqttwiaii&w69%6ttw9titwafw19:-eyyeqyyrhhh&850&1qh00ehqhqh0*71*",
"tywwtyiitag:959=9ttw0tityuu9>e><ryrqeypy78h+41014eh00eryh0hq1q1*",
"ywwwwiatafs;969%tttwwtiiyslt=9%3ureqrypyhhh-55e-4rq88reh0hhh&511",
"t0wwqtpwaiq@599%twwwwtttiysw:y:6ue0qreryheh$48e&20h0hr00rhrq&811",
"w9wywtitiat:555&ww9wwttittu6#6%3hq5hrerphh81445$2r00h00h9hu0#11&",
"467979w0665;75<@66690wwwwwi939;-1440880r772-444$2872005h9yr0161&",
".XX.o++@%@%%qw6>+@##@#@@=@o%9e1 OO++$&-&$#$$5q7,@O+X@@#$*#X#501+",
"69319w0t0qtwitwwwtitww9539w7e8y075548ere74h07h7hh7rhr08517e0r0re",
"-364395xi925632359cxs9320gld4643>,55,52hh014544,18vvh711ehhh1151",
"-<579t9chitissisw9lvltww6sbbuyw7;>47,h5hhhhhhhhhu7hxhree5hmmhee9",
"aasfdi5ljkklxxccs6fMmsis8gmMdgdshhhhhh1hhhhhhmhnh7avNpuh7hbNhhhh",
"hdflld6lgxvxxxxlg9fMMsshwhcbdlxchhhhhh4hhhhhnhnnh8hNNauhehvbhhzh",
"lsslxf9lfxnvlxljfwjMMssf0gmNkxcxhhhhnh7hhmnhmhhhh9hNNhph0hNBhccc",
"Mlkcxf6hfxnvxlljfwlnnhhhehmBlxxchhhhnh1hhhmhnmnhhehbNhhhehnBhhzc",
"jfgllh9hflcvxjklhwjnMjhjthbMjxcbhhhhhnhhhhnnhhnhzehcNhhhrhvNhhzv",
"jjjxch9hhlccxjjlxwgvMhhkwgbVlxxxhhhhmh4hhnhNhhhhhehNBhhhehnCzzzc",
"hfgxls9jsccxlfhjlwjnnfjjygbMxxmxjjfjkk0adzxzlgkdxehbbhhhuxxNllbx",
"kcxvbh5sjnnvxlllj9fNCclj9fmCbxclkckxnk5tdxMmlkzcz9hNCchh7hvCvccx",
"tswtiy5ftiiwww9w09jji0000fljayysrarrsi5iutttwq0097hhaeee0hhlpuis",
"6w699wthw67532<56yzu2365tsa9786w896q9qqgi94453>,7yzy1144ehue6870",
"sslMdhlhliisfstxzlckhzfiagkakmjgsajNfdjkluissiizxllhhzhiskhhhNhd",
"<<6s69w33@=<66>wu4<0w0==>38<wli0<,6s65065%=>5639a51ee8&*,1136hh0",
"tiwjjkxxt5wwsf9ivfszhu29yif9tCbstuwjjjzxf59wdkqqvhaxhi18yuae7NNd",
"sh9svxgxftfihlwwlxlxjlyiafvwwVbiag9sczgzgwsfklqwhxhxhluasfxy1vNu",
"as9fcbvkljsfjh9wzccczlhfdjjweMmpaswfxMvxlgsgkkq9kcnczkhfhhke7Nmf",
"sgqflxxjhhfkxkwtlzczljhdlvxeyBCjsfesjczjkgflzzeekzcclhhfkxce7NNh",
"hltkvbbxjlhxxl9tcvnvzzlhhljwenMggjijxmcvkhhllzwwzbnczllkhlle7Nmh",
"gjwgxccjjjfhkj9tjzczjhfdhxvyuMNjfgrskvxjlhfghlwwklclkhfdhlcu0Nmk",
"lltjvvxhkkfjxcttzvvzjjjhhllyymmhkjtgxmzgkhfklcyelcbclkkhhkle7nnk",
"fg9fxclffhsjlj96zcclhhhhllhttvmjdgedkvkgdfdghl06lzclkhhfczlt7NNc",
"fktkcxljjxlllxttcvvzjhjlzllisMNjfjuhxczjhllzlzytcbblkkkkkkky0Nnk",
"5w<7622>>21115:59ww7246777046pt46027651<-111,6,40096337767e31dy3"
};
