/* XPM */
static char *result[] = {
/* columns rows colors chars-per-pixel */
"64 64 134 2 ",
"   c #76E076E076E0",
".  c #795C795C795C",
"X  c #7A8E7A8E7A8E",
"o  c #7BEC7BEC7BEC",
"O  c #7D057D057D05",
"+  c #7E637E637E63",
"@  c #7F737F737F73",
"#  c #803380338033",
"$  c #815581558155",
"%  c #826A826A826A",
"&  c #839983998399",
"*  c #849284928492",
"=  c #85E885E885E8",
"-  c #86A586A586A5",
";  c #873B873B873B",
":  c #888F888F888F",
">  c #898989898989",
",  c #8A9C8A9C8A9C",
"<  c #8B658B658B65",
"1  c #8CA88CA88CA8",
"2  c #8DB08DB08DB0",
"3  c #8EBF8EBF8EBF",
"4  c #8FA18FA18FA1",
"5  c #906990699069",
"6  c #919591959195",
"7  c #92A992A992A9",
"8  c #93A693A693A6",
"9  c #948694869486",
"0  c #95AA95AA95AA",
"q  c #968396839683",
"w  c #978697869786",
"e  c #989098909890",
"r  c #999A999A999A",
"t  c #9A879A879A87",
"y  c #9B9F9B9F9B9F",
"u  c #9CAD9CAD9CAD",
"i  c #9DB39DB39DB3",
"p  c #9E9F9E9F9E9F",
"a  c #9FA69FA69FA6",
"s  c #A0BEA0BEA0BE",
"d  c #A199A199A199",
"f  c #A296A296A296",
"g  c #A3B1A3B1A3B1",
"h  c #A4C4A4C4A4C4",
"j  c #A5AAA5AAA5AA",
"k  c #A6ACA6ACA6AC",
"l  c #A797A797A797",
"z  c #A885A885A885",
"x  c #A9A2A9A2A9A2",
"c  c #AAA8AAA8AAA8",
"v  c #AB9BAB9BAB9B",
"b  c #ACA3ACA3ACA3",
"n  c #ADB2ADB2ADB2",
"m  c #AEB1AEB1AEB1",
"M  c #AFBFAFBFAFBF",
"N  c #B0ADB0ADB0AD",
"B  c #B1B5B1B5B1B5",
"V  c #B2BFB2BFB2BF",
"C  c gray70",
"Z  c #B4A1B4A1B4A1",
"A  c #B5B4B5B4B5B4",
"S  c #B6B3B6B3B6B3",
"D  c #B7C3B7C3B7C3",
"F  c #B8B4B8B4B8B4",
"G  c #B9BFB9BFB9BF",
"H  c #BAB8BAB8BAB8",
"J  c #BBD7BBD7BBD7",
"K  c #BCAEBCAEBCAE",
"L  c #BDBCBDBCBDBC",
"P  c #BEC7BEC7BEC7",
"I  c #BFC9BFC9BFC9",
"U  c #C0E5C0E5C0E5",
"Y  c #C1A2C1A2C1A2",
"T  c #C2C9C2C9C2C9",
"R  c #C3D0C3D0C3D0",
"E  c #C4C5C4C5C4C5",
"W  c #C5CFC5CFC5CF",
"Q  c #C6BEC6BEC6BE",
"!  c #C7D8C7D8C7D8",
"~  c #C8A8C8A8C8A8",
"^  c #C9CEC9CEC9CE",
"/  c #CAB0CAB0CAB0",
"(  c #CBDBCBDBCBDB",
")  c #CCCFCCCFCCCF",
"_  c #CDBACDBACDBA",
"`  c #CEADCEADCEAD",
"'  c #CFBACFBACFBA",
"]  c #D0B1D0B1D0B1",
"[  c #D1DBD1DBD1DB",
"{  c #D2C2D2C2D2C2",
"}  c #D3DAD3DAD3DA",
"|  c #D4DCD4DCD4DC",
" . c #D5D8D5D8D5D8",
".. c #D6AED6AED6AE",
"X. c #D7DDD7DDD7DD",
"o. c #D8CAD8CAD8CA",
"O. c #D9BAD9BAD9BA",
"+. c #DABADABADABA",
"@. c #DBD1DBD1DBD1",
"#. c #DCEADCEADCEA",
"$. c #DDF2DDF2DDF2",
"%. c #DEAEDEAEDEAE",
"&. c #DFD2DFD2DFD2",
"*. c #E0E9E0E9E0E9",
"=. c #E1DCE1DCE1DC",
"-. c #E2C7E2C7E2C7",
";. c #E3E4E3E4E3E4",
":. c #E501E501E501",
">. c #E5E3E5E3E5E3",
",. c #E6EDE6EDE6ED",
"<. c #E813E813E813",
"1. c #E8D4E8D4E8D4",
"2. c #E9DDE9DDE9DD",
"3. c #EAFBEAFBEAFB",
"4. c #EBE4EBE4EBE4",
"5. c #ECE5ECE5ECE5",
"6. c #EDEEEDEEEDEE",
"7. c #EEE3EEE3EEE3",
"8. c #EFF6EFF6EFF6",
"9. c #F0FCF0FCF0FC",
"0. c #F1C8F1C8F1C8",
"q. c #F2F1F2F1F2F1",
"w. c #F3EFF3EFF3EF",
"e. c #F4EEF4EEF4EE",
"r. c #F617F617F617",
"t. c #F704F704F704",
"y. c #F800F800F800",
"u. c #F8FEF8FEF8FE",
"i. c #FA0FFA0FFA0F",
"p. c #FAEFFAEFFAEF",
"a. c #FBEAFBEAFBEA",
"s. c #FCFBFCFBFCFB",
"d. c #FDD7FDD7FDD7",
"f. c white",
/* pixels */
"p -.=.-.2.5.S %.5.4.4.6._ K :.=.=.=.@.e o.$.#.#.&.k H %.#.#.%.] k -.=.=.=.=.u ' -.=.=.;.U D 6.4.4.3.%.i #.=.=.$.&.d Z &.#.$.=.=.",
"i ;.>.<.<.1.A @.<.,.<.2./ H <.:.-.%.X.r X.#.%.%.*.x J #.+.#.$._ g %.$.&.:.,.d  .,.>.>.<.W C >.:.;.&.o.a @.$.#.#.&.f N +.o.O.@.#.",
"L ! i ' ....' ..S H X...] ! W a ! E U G Y r Z Q Q I I v 6 Y U P H T 0 U ( _ W _ M B _ ( Q T R k ^ Q E U ~ y M Y U G S j 5 I I U ",
"0.7.b ,.9.9.0.w.! ) w.0.0.9.,.B 7.9.9.9.8.B { 4.3.4.5._ c 5.3.4.6.7.v >.9.9.0.q.Q ( q.9.0.q.1.L 9.0.0.0.q.S o.9.4.4.5._ c 5.4.8.",
"T T A Y E v S ] W Q ' Q f T Y S T R a N H b B D h 5 D N c S Z > Z T C I E c n E H J R J g ` ) R ` ' x S E D J L k 7 D N c D G , ",
"t.t.y.y.i.( [ i.y.u.u.3.G t.y.y.u.u.L *.u.y.u.u. .M r.w.w.e.8.f 3.y.y.u.i.( [ i.y.y.u.2.D y.y.u.u.i.P *.u.y.y.i.+.G r.e.t.u.w.r ",
"G J P k C N V P P B j J b L L K u H x B F G a f x i M M z 1 n t N H P h Z V V P P B j J v L L K g L m D P I l l B f N B M e S i ",
"p.i.a.W <.a.a.p.a.%.E s.a.a.p.t.B q.a.a.i.s.I _ d.a.p.p.3.m i.a.a.i.a.Q 1.a.a.p.a.%.E s.a.a.p.y.P w.a.a.p.s.^ [ s.a.p.p.5.B u.a.",
"a F G j Z L z C P V z P C c L H u Z S u Z F d k G h d V B i D C g K L c S L x A L V z P Z v L J j H K l H L x x G z c F V i D D ",
"M i.u.i.p.a.I ;.a.i.a.a.$.E s.i.i.i.e.j 8.u.i.i.a.E _ i.u.i.i.3.F i.i.p.p.a.W 1.p.i.a.a.;.( s.i.p.p.y.K q.i.i.i.p.) { a.u.i.u.u.",
"8 x H H v G a v Q ) U T L d B K F x G 6 g B V l S h i C K Z B H g L ( / L / N S Q ( P P J z K ~ W H W f x K K n D k p C K Z m J ",
":.x 0.9.n 1.r.K &.u.( ] i.O.H r.>.x 0.q.b >.0.Z +.y.~ _ t...H t.6.I e.w.I 7.u.! =.u./ ` y.$.T t.3.P w.q.B 3.e.H #.y.~ _ t...H e.",
"m 0 T Y w K J d F ^ n F ` F l Q H 0 U Z 4 A L q b D h v W B h ` U c ` ` n ) ! m R } A D ( H n ' ~ c ) R s W Q s A K h b W B a E ",
"g 4.2.2.2.<.b =.4.5.5.8.` ` 6.2.2.2.*.c -.;.;.;.>.n [ 3.2.2.5.o.L 5.4.5.6.5.N :.7.7.6.7.) ) 6.4.4.4.;.M 3.4.2.2.3.N [ 3.2.2.2.2.",
"5 ^ Q R ! Q q U ^ ~ ' ..L L X._ ^ ^ Y e ! ! R ! ^ u F ' ~ )  .Q B O...} X. .j ' X.] ' ' A A ' / ^ ` Q p ) ) ! _ ' d J ' ~ Q ! ! ",
"| X.T a X...|  .X.j } =.*.*.;.K Z +...| .._ 7 } ..| O.&.n W =.*.&.-.} F ;.=.%.=.=.v } %.#.#.&.J A *.$.#.$. .d @.$.#.$.&.v P X...",
"..X.T i X.|  ... .u [ #.@.$.&.H m o.|  ..._ 7 }  .X.&.;.B ^ -.&.=.=.{ S -.&.%.o...g { $.@.$.&.H m X. .O.+.] e } | |  .X.l E O. .",
"~ ~ Q R ^ y A ^ ~ W _ G h ' ` / W Q 9 U ~ ! T ^ z M ..X.{ | ] n ..X. .{ o.v R ` ^ Q ` D i ' ` / W Q w / [ _ E / l z / ~ W ( U ; ",
";.;.;.;.>.f ~ :.:.1.3._ M 4.1.2.2.<.l *.2.,.,.4.Y R 3.1.2.3.-.G 3.3.2.1.>.b ) :.;.;.:.Q j >.;.:.>.>.f +.;.;.;.,.D F >.;.;.;.X.6 ",
"J J V & H B D J P w N I G R E C i E F Y R P 7 K K H R E k m ` W _ ) I w K Z F J L 6 z G C K L c 9 R A H J H < C A A K L p p J N ",
"q.q.=.q 4.8.8.7.9.b ] 9.9.0.w.O.S e.w.q.q.8.l ;.8.q.q.e.E E e.w.q.q.1.v 5.8.8.7.0.b [ 0.9.7.9.] b 9.8.8.7.5.d =.8.9.7.0.T E r.e.",
"J F l 9 l 9 : z l y c N 1 A K A b L p j K G h M c 8 J J N N K u V J G l V a 6 C V h b B > n C b h Z 0 y C B f M x 1 V C v N K 6 ",
"u.u.t.r.u.` V u.t.r.t.w.f 5.y.t.t.i.L ( a.i.i.p.,.v u.i.u.u.p.F :.p.u.i.a.} S i.y.t.t.w.d 5.y.t.t.p.L / p.u.i.p.<.b t.i.u.u.p.g ",
"F i i h 5 $ 5 r * a p % - a & i k 2 = s p t N j 2 w V w S D r t B i s m i 4 u g 6 n x ; ; a * y g > * t w 0 m h 2 w c 9 S D i 0 ",
"s.G | a.Y J d.@.k y.5.y w.r.t ;.a.m { s./ P s.$.v a.7.j r.u.x 4.d.F } s.( Y f.*.V s.9.k t.y.a ;.p.b [ s./ L a.@.n d.8.k t.i.A 3.",
"G w q j 4 . r r % h s . > p X w d & $ d 9 0 B h o 9 s * l M < 2 k 1 a B u * l h 5 M c - t m - u g & @ d 7 2 k p > f N 9 S F r w ",
"y.r.w.w.t.b R r.e.w.e.@.p 0.q.q.0.w.l &.e.e.w.t.~ F r.e.w.e.7.f 5.w.w.w.t.D ) r.e.w.e.=.l w.e.w.q.q.k &.e.w.w.y.) K u.u.y.y.0.u ",
"F S m c D ; 3 z j e k t O x x f c V ; l C N z D i 5 C S x V V : V S M n D 9 s D S n G b < S S v M B * s v l d S s d E R V F D ; ",
"3.5.P v 6.1.<.,.$.< &.,.<.,.2.g J 3.1.1.1...d 3.3.3.2.3.d X.4.4.3.4.! G 5.3.3.3.:.f :.3.4.3.5.N W 4.3.2.2...s 3.4.9.9.0.j O.4.4.",
"H T d 5 D C v V n   m C m n A - t I L S P C 2 T R I T Q 5 Z T P P ! v h / ~ I E Y 7 Y Q Y Y Q e l U L D Y C 2 U U G P T 4 G Q W ",
"u *.$.@.o. .- / o.o.X.+.k f @.o.O.+.[ 9 o.#.$.%.*.g E *.%.%.&.~ n ,.*.=.-.*.a } &.%.&.=.S S =.$.$.#.' 5 @.$.$.$.&.f R *.&.&.&.&.",
"7 ' ) ~ ( ! $ L ^ ! ( ` s y ) ^ ^ _ ! 3 ( ] ` { | u G } ' ] } P f } [ ' { [ e ! { ' [ | n n | ] ' { / 5 ( ` ) [ | u G { ` ] { { ",
"_ [ I : / ! T E Q 2 D _ ^ ~ ~ n y ` ) ^ ) ( e ) { ' ] | j M | [ ' { Q i { { ' [ } i I } ' ] | S s | [ _ ] _ 9 / { ` ] { g M | { ",
"+.@.^ 5 $.$.%.%.&.t Q &.%.&.=.I l =.%.&.*.$.s X.$.%.&.=.n F =.%.&.&.[ g %.$.%.%.&.h _ -.*.*.=.T v =.%.&.&.#.g *.,.,.-.-.n F &.+.",
"P P K D T 7 z T U F P M 9 ! W T I W 9 F E R J T j f ! Q U Y I 3 R W Y J E y m T T P W D r ~ Q R U Q w J Q W U ) N v / Q U Y H $ ",
"<.1.2.3.6.m ( 5.3.6.q.X.z 6.8.9.0.0.M -.0.9.0.w.^ L 7.3.3.4.=.s 6.0.9.9.w.D ' 7.8.9.q.+.v 5.4.3.4.4.n -.0.9.9.w.^ U 6.3.3.4.=.6 ",
"e 1 S m , v M * m K t z m a l W Z s D H t Y T p A A 9 j G u t n v y R H w N N 7 D I t n C d d L n r C H r P Y y B C 7 j F r e s ",
"[ B i.2.h q.w.d 2.i.D @.d.] ) a.$.H p.7.N e.r.A 7.a.V o.a.! ! d.o.M r.,.l q.w.m 5.i.C O.d./ ^ a.%.H p.7.M e.e.B 6.a.Z o.u.I W p.",
"9 q b x 9 h 9 s Z H b D g v C P S n B g c L J k Z r d M G c v s y a M v y k < a Z G j V f g v H B x c t j D D h Z q d n n e a w ",
";.a.u.p.p.3.Z a.i.p.a.a.K 1.a.p.a.s.%.E d.p.a.a.t.N w.p.p.a.d.I ( a.y.i.i.;.a u.y.u.i.a.K 1.a.p.a.d. .G d.i.a.a.t.l 9.p.p.p.a.Q ",
"h n z t D B u D F h N H j A L C c P V z K S u Z S y Z F h x G y 9 g u > f y & h b q z F a N F m j G x p F S u Z S 0 b N i s n 0 ",
"y.t.,.z y.u.p.u.i.P =.i.a.p.a.$.R a.i.a.u.e.j 7.u.p.u.p.P ( p.y.t.r.=.i e.r.u.t.p.M $.i.i.u.i.@.P p.u.p.u.e.j 7.u.p.y.i.L ^ u.t.",
"g V c , B B f V J p N K B C P m s K F c H G 6 S J x c v 3 q x a e l i + k z a N C 4 c K M N K b p K F j B N : n V g n A e a D Z ",
"h 0.7.9.7.4.a ,.q.w.w.e.! _ e.q.w.q.>.x 0.q.e.w.e.B  .8.8.8.9.^ l 9.7.9.7.3.a :.7.9.q.r.U R r.w.e.w.>.k 6.7.9.8.9.x  .9.9.0.9.8.",
"1 L J V G G > A P L J ~ M Z ^ R F T H 0 T R S S K 5 v K F B L g < A Z N G G : A K S Z L y i L H V J V , H K C S L 4 v K F V J J ",
";.;.;.i [ :.;.;.<.! H 5.3.3.3.-.l >.2.2.2.4.n U >.;.;.:.) q :.;.;.-.;.i [ :.;.;.>.J N ,.;.;.;.#.d &.;.;.;.,.l I >.;.;.:.' f :.;.",
"~ ~ ~ 5 H Q W ~ ^ n g _ ' X.| / t ~ E Q ! ^ y b ~ R ~ ^ A , ~ T ! ~ ~ 5 H W E ~ / z p ^ R ~ ~ T 4 E R Q ~ / w v ~ R ~ ^ D 8 ~ T ",
"......| X.N V o. .|  .] z *.*.%.#.#.h Y X...| ..K i o... .| } < / ....| o.h z o... . ./ 9 | .. .| o.i K X...| ..K i o... .| } > ",
" .| ......N V O.@.%.$.| f | X.+.O...h R  . .....J i ..| .. .{ < / | ....X.h x X. ... .^ 9 } | .. ...i K  . .....J i ..| .. .[ > ",
"K 5 Q W 1 P ! p J [ b N ^ Z h } ! 0 R W 4 Y ^ 9 C ! i f ( B q E J , Q W 1 L Q 9 A ( g h Q B q / K , T R 1 U ^ 6 V ! u d ( B q E ",
" .s -.*.r +.>.n ) ,.F Y 6.' C 4.#.k 1.,.d +.>.f ( 1.N Z <.! j ,. .w =.*.r +.>.f ( <.A F 1.! j ,. .w -.*.r +.>.d ( 1.n C <.! k ,.",
"# b J J B K p y G J A G J w H R Y F E i k J J V G x , S J D C G ; v J J B K q 8 H K A S V & V K G B K , i J J C G x , S K D C J ",
"0 >.8.9.8.0.Y ( r.w.w.w.>.Z q.q.w.q.e.S X.9.8.8.9.] M r.w.w.w.8.f 1.9.0.q.r.G T 0.8.8.8.&.i 6.7.8.8.9.f ] 9.8.8.9.] n 0.8.8.8.8.",
"s N n > N C c B L p b K F b J N p K J b n B , c V b c L k g K H z S N 1 F K n x C 4 f C m d V h 2 V V f b B > v V b h Z r e Z C ",
"i.u.7.j e.u.p.u.p.L @.i.u.i.i.=.P i.u.p.u.y.l ,.t.y.y.u._ ! p.u.p.u.7.j e.u.p.i.p.C O.p.i.p.i.$.m y.t.u.t.e.j 1.t.y.y.u.Q T u.t.",
"9 F Z u S D p V F h m G l h G N h F C w A N 5 p g : 9 h w t M k y F Z u S D u B F s n G k d G m t n x 1 v b 0 x m 8 p m a p m m ",
"v a.i.s.i.i.G 5.p.a.p.s.[ ^ s.p.a.p.8.k t.u.p.y.p.b ] p.u.u.u.*.Z a.p.s.i.i.Z 3.p.a.p.s.) I s.p.s.p.8.k t.i.s.p.s.F  .s.a.a.i.i.",
"q F D g S F u V H n N J l l J C s M c < n M t f n 3 p N k k G m y H G j F H y B G l v H h a G C h F C 9 S F h B G u j Z v g F F ",
"u.y.w.M 8.y.u.y.i.) ..u.u.y.y.:.v w.w.r.w.e.c @.e.r.w.e.] J i.y.u.t.w.M 8.y.u.y.i.L / i.u.u.y.<.V t.y.u.t.u.V &.u.i.t.t.[ S i.y.",
"V A Z q P W Y ` ' C B E D I R B 1 S M l V V > h V l A J v i I V Z P K e P U A T E f j P b V F V y R L D R R y n S z Z D d 7 D n ",
" .4.3.8.0.:.Z 0.0.0.9.0.D &.0.5.3.5.Q g 3.<.<.<.:.u =.7.9.9.w.G W w.8.9.0.;.B 9.9.9.9.0.x { 6.6.9.q.| F q.9.0.7.<.i *.3.3.3.5.L ",
"Z Y T ^ ^ E z | ' .. .] c I R ~ E K f 5 P H Y I A : D F I U K t g L E ( ! K s ^ U W E P 9 V Y ^ ( Q C h W K U P S , G D I Y I g ",
"&.V P ,./ L 2.@.A 1.:.S -.>.c | =.v S =.J l *.) e O. .0 ..%.h _ &.B E 2.~ H <.o.j %.o.w X.%.z  .2.F E 2.E B &.) t #.X.1 | %.j ( ",
":.Z Y 5.] U 7.%.S 4.<.D 1.4.z [ -.v S *.H z =.) u -.#.w ..$.h [ :.Z U :.E S :.} j =.#.e @.-.c [ :.C U >.Y N :.] t #...> } $.h ' "
};
