/* XPM */
static char *result[] = {
/* columns rows colors chars-per-pixel */
"64 64 201 2 ",
"   c #4A3226",
".  c #4D3D2F",
"X  c #533A2A",
"o  c #5A3D2F",
"O  c #523E30",
"+  c #6C3F31",
"@  c #5B422E",
"#  c #5D4431",
"$  c #5B4936",
"%  c #6E402C",
"&  c #73432D",
"*  c #624631",
"=  c #6D4434",
"-  c #654936",
";  c #66463A",
":  c #664C3A",
">  c #6B4D3A",
",  c #744631",
"<  c #734936",
"1  c #764837",
"2  c #734A3B",
"3  c #7B4D3C",
"4  c #6A5334",
"5  c #64503E",
"6  c #6B543C",
"7  c #6E593D",
"8  c #71543D",
"9  c #7D513F",
"0  c #735A3B",
"q  c #7C613F",
"w  c #764D43",
"e  c #7B4E41",
"r  c #7D4F49",
"t  c #6E5340",
"y  c #695A45",
"u  c #755144",
"i  c #7C5343",
"p  c #745B44",
"a  c #765E46",
"s  c #745549",
"d  c #7D574A",
"f  c #7B5B4B",
"g  c #6C6149",
"h  c #756046",
"j  c #7C6445",
"k  c #74634C",
"l  c #7C654C",
"z  c #766550",
"x  c #7B6752",
"c  c #766A55",
"v  c #7B6B55",
"b  c #7D6E5A",
"n  c #7D7055",
"m  c #7E735C",
"M  c #844E36",
"N  c #814E3E",
"B  c #865037",
"V  c #82523D",
"C  c #845344",
"Z  c #895545",
"A  c #865946",
"S  c #8B5A43",
"D  c #85564A",
"F  c #8C574F",
"G  c #855A4A",
"H  c #8A5A4B",
"J  c #965B46",
"K  c #9D5C45",
"L  c #925B4A",
"P  c #9C5E4A",
"I  c #835E50",
"U  c #8D5D53",
"Y  c #995F51",
"T  c #A45D47",
"R  c #A35E4A",
"E  c #866042",
"W  c #8B6744",
"Q  c #866847",
"!  c #816648",
"~  c #8E6048",
"^  c #846B4C",
"/  c #8A6E4D",
"(  c #95634C",
")  c #9D624A",
"_  c #996749",
"`  c #87714F",
"'  c #8E714D",
"]  c #94734C",
"[  c #967A4F",
"{  c #866457",
"}  c #896757",
"|  c #836C52",
" . c #896F53",
".. c #826D59",
"X. c #9C6354",
"o. c #946B52",
"O. c #996850",
"+. c #906658",
"@. c #837152",
"#. c #8A7252",
"$. c #82725C",
"%. c #8A765A",
"&. c #937354",
"*. c #957B53",
"=. c #9B7D53",
"-. c #93745C",
";. c #99745B",
":. c #947D5A",
">. c #A66046",
",. c #AA6246",
"<. c #A5624C",
"1. c #AB654D",
"2. c #AE694E",
"3. c #B06145",
"4. c #B1664C",
"5. c #B26A4E",
"6. c #A46452",
"7. c #AB6651",
"8. c #A46A54",
"9. c #AD6A53",
"0. c #A66759",
"q. c #A56B5A",
"w. c #AD6D5A",
"e. c #B06751",
"r. c #B36C54",
"t. c #B96E53",
"y. c #B36E5A",
"u. c #B86F5A",
"i. c #AF7059",
"p. c #B57156",
"a. c #B97256",
"s. c #B5725B",
"d. c #B9745C",
"f. c #B7795E",
"g. c #BB795E",
"h. c #827361",
"j. c #847A65",
"k. c #957D65",
"l. c #A36F60",
"z. c #AD7364",
"x. c #B57462",
"c. c #BA7662",
"v. c #B67864",
"b. c #BB7963",
"n. c #B67668",
"m. c #B77A69",
"M. c #BC7C6A",
"N. c #BE7F71",
"B. c #C17E6B",
"V. c #9D8054",
"C. c #9D8159",
"Z. c #A38357",
"A. c #AC8656",
"S. c #AB8A57",
"D. c #A6865A",
"F. c #AB875A",
"G. c #A6895D",
"H. c #AC8A5D",
"J. c #B08655",
"K. c #B18C5D",
"L. c #AD905F",
"P. c #958367",
"I. c #9C8464",
"U. c #9D8A6B",
"Y. c #A68A62",
"T. c #AD8D63",
"R. c #A48C6B",
"E. c #AD8F69",
"W. c #B18E64",
"Q. c #BD806D",
"!. c #B08F68",
"~. c #AE9066",
"^. c #AE916B",
"/. c #B19165",
"(. c #B1936C",
"). c #B5986E",
"_. c #A28D71",
"`. c #B78373",
"'. c #BD8274",
"]. c #A59276",
"[. c #AE9372",
"{. c #A89579",
"}. c #B29572",
"|. c #B49974",
" X c #B99C75",
".X c #B39779",
"XX c #B59C7A",
"oX c #B99E7C",
"OX c #B7A07D",
"+X c #B9A07D",
"@X c #C2816E",
"#X c #C28271",
"$X c #C38974",
"%X c #AC9F87",
"&X c #B99E80",
"*X c #B7A080",
"=X c #BAA283",
"-X c #BDA689",
";X c #BDA98B",
":X c #C2AA8B",
">X c #C6B495",
/* pixels */
"3 t.1.7.7.r.9.K 1.7.e.1.R <.1.R 1.6.<.9.6.7.r.9.y.9.5.1.6.6.R = 2 d.2.w.r.s.8.1.7.s.x.w.r.r.2.8.5.5.r.4.1.5.r.a.a.s.b.f.i.p.Q.o.",
"3 y.y.r.y.7.6.1.6.1.0.r.e.y.<.6.9.w.w.r.2.9.y.r.w.9.7.1.<.w.0.< e d.e.y.r.r.9.,.1.9.x.s.r.d.s.f.a.p.d.5.5.r.5.a.p.i.2.p.5.5.f.( ",
"e u.c.x.y.9.R 6.y.9.y.y.y.r.1.e.s.v.c.y.1.r.r.7.R 6.1.7.<.9.0.= e b.b.c.s.>.,.1.y.c.f.d.r.5.r.5.r.d.f.b.s.5.5.5.5.f.2.2.r.p.a.S ",
"V B.d.y.x.e.4.7.7.7.r.r.6.7.6.6.1.9.7.7.9.7.7.6.<.9.7.1.x.9.6.= r B.d.c.s.2.r.s.d.M.f.r.r.1.5.5.5.r.r.t.5.a.p.5.4.p.r.p.s.s.f.~ ",
"i c.y.y.y.y.e.,.T 1.6.<.T K 7.6.<.y.x.9.9.1.1.4.7.7.R e.y.0.P = i B.c.b.f.r.t.u.5.d.a.r.r.,.5.5.a.p.5.5.t.a.a.5.4.5.5.5.5.2.p.S ",
"i B.M.c.c.c.t.7.T T <.K K T 7.e.9.s.s.6.<.T 7.0.w.9.9.7.R <.J < 3 f.r.b.M.r.r.t.f.w.9.y.s.5.,.r.d.d.5.5.d.s.d.,.3.2.2.5.,.a.a.( ",
"C d.x.y.x.z.<.R R K <.R R R R R R <.8.<.P 6.6.Y X.0.6.X.Y L C ; w r.t.y.M.f.s.r.s.i.r.r.s.w.5.5.a.d.a.p.d.d.5.5.5.,.,.2.T 5.b.O.",
"$ p 8 > t t > w > > : : > > - ; @ @ - @ # : * - # * o o @ O . . e y.d.r.d.9.r.9.s.r.r.d.s.r.5.1.5.g.d.r.r.r.4.5.5.2.,.>.,.2.f.( ",
"m ;X^.Y.G.G.R.}.T.^.^.Y.G.V.Y.Y.=.V.V.[ ] :.[ *.C.*.:.&.:.U.U.l 3 d.r.r.9.<.x.s.s.w.f.d.r.a.r.a.r.f.d.b.f.a.5.5.5.5.4.2.2.p.d.O.",
"P.;X}.~.H./.).}.^.[.).~.~.C.~.~.H.H.S.S.H.(.}.E.~.T.~.T.~.[.^.^ i d.1.e.r.1.y.s.y.y.s.s.r.t.r.5.r.r.t.s.r.r.5.5.a.a.t.t.a.2.5._ ",
"m ).}.^./.H.T.(.|.~.D.G.S.G.G.S.T.T.H.D.H.T.T.}.[.R.[.T.D.G.^.l d @X5.4.e.9.4.r.r.1.e.d.y.1.5.5.r.y.w.2.r.a.a.r.g.g.f.g.d.r.5._ ",
"m |.(./.~.~.~.|.}.}.^.G.S.T.T.S.H.W.W.W./.H.H.T.T.R.R.^.~.~.^.^ G M.y.s.y.r.y.u.y.9.y.d.y.t.r.s.r.9.r.2.d.s.r.r.g.g.g.d.d.r.5.) ",
"n ).~.~.).~.(.|.|.XX|.!.T.!.T.H.F.T.H.T.!.T.Y.F.T.E.E.(.^.(.T.Q } @Xa.r.t.r.r.6.<.1.6.p.y.r.r.r.1.R 2.1.y.b.B.g.v.c.d.g.t.1.4.) ",
"c ~.~.OX}.^.).XX|.|.|.(.T.~.^.H.T.E./.(.!.E.T.E.~.R.^.E.~.~.G.l } @Xa.a.a.5.y.9.<.7.1.r.r.4.4.9.9.<.9.s.g.v.b.g.f.a.a.g.g.t.r.T ",
"n OX~.(.*XOXXXXX|.|.|.W.H.T.~.H.H.W.!.(.(.(.E.!.^.(.T.H.T.~.G./ { @Xs.t.r.9.7.r.r.R 1.e.r.1.4.1.1.1.1.r.c.s.y.s.r.r.5.t.a.5.r.) ",
"n OXOX).OXXXXXoX|.(.).W.F.T.S.H.T.T.T.T.T.|.E.(.^.R.H.~.T.~.~.' { b.r.4.r.w.r.7.1.<.<.1.3.,.1.9.9.,.4.r.c.s.s.y.2.4.2.p.5.s.r.8.",
"n OX(.(.).XXOX|.(./.W.H.W.T.^.H.A.W.H.H.T.(.^.^.E.G.T.(.K.T.T.' G c.r.r.y.9.w.r.7.R <.<.4.5.7.y.7.T t.4.6.r.y.y.f.y.9.5.9.r.r.8.",
"n ~./.T.(.OX}.|.|.).(.H.~.(.^.H.H.W.H.H.K.T.^.|.}.T.^.T.K.~.^.' i c.t.4.4.1.7.1.K R 1.1.2.1.r.r.r.1.y.1.1.1.r.y.u.y.s.2.2.p.5._ ",
"m ).K.H./.^.(.).|.XX(.T.~.~.(.H.H.W.H.T.(.).T.E.(.}.).A.J.H.L.` i c.e.r.r.7.<.1.R <.<.1.s.s.7.4.<.1.r.r.7.T ,.9.7.r.a.9.,.5.t.<.",
"m XX/.~.~.^.(.^./.(.}.!.H.K.T.H.T.(.W.H.(.}.(.~.}.(.W.W.H.S.H.` u s.7.b.s.7.7.R ,.P R <.s.y.4.1.1.7.y.u.r.1.<.<.5.1.r.a.r.9.s.i.",
"..(.W.(.^.T.~.^.Y.}.}.E.W.K.H.T.T./.T.H.W.}.).^.(.(.K.H.H.K.F./ I #Xb.B.d.y.9.1.7.<.K R 7.r.y.r.r.s.n.y.e.e.y.y.2.,.5.d.s.9.r.8.",
"$.).(.(.~.~.(.[.T.|.}.F.H.T.T.!.(.(.~.~.(.|.}.XX|./.K.W./.K.K.Q f $XB.B.x.y.0.e.1.R 9.e.4.t.e.6.x.y.y.e.7.0.r.r.r.r.a.d.s.d.s.8.",
"j.|.W.W.T.D.~.Y.Y.XX|.W./.(.!.T./.).(.~.|.|.XX|.).|.).W././.(. .d B.d.b.d.y.y.y.e.6.e.e.T 1.r.9.y.r.w.7.e.7.t.a.a.2.u.d.g.f.p.8.",
"m  XW.T.T.Z.H.G.T.(.[.W.K.!.W.W.(.XXXX|.|.XX}.|.|.W.W.K.W./.|.#.; +.D C U D C D C C e e 3 e D A e C C N C Z Z 3 i V 2 C Z 2 < > ",
"c |.T.F.Y.T.T.F.W.T.W.W.K.T.T.(.(.|.oXOX|.XX^.|.|././.W.(.(.XX| y P.#./ ^ Q ^ %.` ` ` j l q j j 0 0 0 0 4 7 4 6 7 4 4 6 7 y g y ",
"b oXE.E.E.[..XE.W.F.T.(.T.Y.Y..XXX}.[.|.|.(.T.(.).)./.W.~.(.).j m >X|.~.~.L.).XX(.|.|.(.~.L.^.~.H.H.S.D.Z.^.T.T.~.T.T.R.~.[.[.%.",
"m &X}.}.}.|..X!.T.H.A.(.E.[.E.|.+XXX}.|.T.T.H./.W./.).T.T.(.).0 c +X}.T./.L./.(.}.~.Y.H.H.Z.G.S.T.H.S.D.H.~.[.E.~.~.^.T.G.T.].-.",
"h.oX|.(.!.E.}.Y.F.T.T.}.}.}.}.}.|.[.[..X|.(.T.~.W.E.!.(.(.(.(.0 c |.}.(./.H.T.}.}.^.G.H.S.~.L.H.H.~.W.H.T.H.T.E.[.R.R.~.T.Y.E.;.",
"b ;X.XE.E.E.}.E.K.T.(.}.|.(.^.(.(.}.(.E.(.}.}.~.H.(./.(.~.^.).p v |.(.(./.~.^.|.|.|.|.T.S.T.T.S.H.T.K.T.!.H.H.T.T.R.T.^.^.[.Y.o.",
"j.;X}.}..X}.[.F.F.T.T.E..XE.^.E.^.^.T.E.(.T.(.(.H.H.(.(.(.(. Xl z /.~.}.).T.(.XX|.|.|.!.T.(.^.H.H.T.H./.(.T.T.F.R.~.^.^.E.(.D.E ",
"j.=X}.E.E.!.}.E.T.D.H.T.!.}..X}..XE.H.G.H.H.~.(.(.T./.}.~./.+Xl v ).~.|.OX}.|.|.|.|.|.(.T.T.~.H.T.W.(.|.!.E.^.!.!.T.T.T./.T.Y.#.",
"j.oXE.T.[.E.E.T.T.T.H.!.}.^.E.E.[.^.^.^.~.H.H.(.}.(.~.(.T.W.|.h k OX).(.OXOXOXOX|.|.|.W.F.T.T.H.T.T.T./.E.|.E.^.[.(.H.T.H.(.G.' ",
"v !.F.H.^.T.(.E.T.F.T.!.T.T.[.!.^.}.(.).~.T.~.}.(.}.(.(.L./.).l c XXXX).XX|.OXXX(.W./.K.T.F.H.H.F.T.T.H.T.|.E.E.E.T.T.(.T.T.T.W ",
"b  XW.W.(.E.T.E.T.T.K.A.T.Y.E.E.^.~.~./.(.~./.|.}.|.}.|.).L.).h v )././.(.OXXX).|.)./.H.!.!.(.H.J.!.T.S.T.~.(.[.E.Y.^.(.H.L.T.&.",
"..|.W.W.(.(.F.T.D.Y.T.E.`.^.[.!.~.H.~.|.}.(.^.|.}.(.(.).)./.L.j m /./.H./.|.(.|.|.|.(.T.(.(.(.H.T.W.F.H./.^.T.(.[.(.(.J.S.T.~.-.",
"k ).!.}.E.T.D.!.}.[.}.XX}..X}.T.H.^.^.(.OX+X|.|.|.|.|./.H.W./.0 .. X/.H.H.^.}.(.).|.(.T.H.T.E.H.H.(.H.W.(.}././.}.}.(.H.J.S.H.] ",
"v  X(.}.E.E.E./.!.!.oX.X|..X[.W.(.|.+X+X+XoXXX+XXX(.|. X/./.+Xh ..|.W.(.^.~.~.^.T.^.[.E.W.H.T.H.T.W.T.H./.).}.~.(.(.K.K.H.H.S.W ",
"$.:X=XXX&X.XXX=X=X}.$X.X&X|.K.!.XXXX-XOXXX XOXXX|.).).).).|./.q ..).W.(.^./.^.}.T.[.|.T.H.H.H.T.!.!.~.L.(.).}.}.(.).K.K.W.K.J.W ",
"c %X].].].].R.].{.].{._._._._.R.I.I.R.U.I.R.I.:.#. ./ j %.^ j $ .. XW.(.^.H.^.~.T..X}.T.W.(.!.!.(.(.(.~.(.|.|.XX|.(./././.K./.&.",
"  o o > ; ; t u f f w s s d d f i u G f s d f s s > = , 2 2 9 X $. XW.~.H.C.T.G.F.|.|.W.W.(.!.T.(.|.}.(.|.|.|.|.|.}./.W././.).:.",
"i n.q.w.s.9.0.v.m.v.c.c.M.b.n.y.r.s.c.e.7.c.c.N.B.d.y.b.c.c.b.V x  XW.F.T.D.Y.f.H./.^.T.T.T.T.W.^.XX*XXX|.XX}.XX).W.W.K.W.^.oX#.",
"D `.n.c.y.y.s.f.r.r.s.d.s.y.y.7.9.1.6.7.1.r.1.r.7.e.y.d.n.c.s.< | |.T.T.T.E.[.T.T.H.T./.T.F.T.}.|.|.|.XXOX}./.(.|.|././.(.(.XX .",
"r N.m.s.p.5.r.5.r.7.u.s.x.c.n.w.w.w.y.7.R 7.T 1.1.6.z.9.4.y.t., b =XE.}.!.}.&XE.W.H.H.(.T.E.T..XoX}.[.|.^.~.W./.W./.).T.T.(.(.j ",
"D m.v.r.2.4.2.5.5.r.r.r.r.z.c.u.y.r.r.<.P 1.1.T 1.6.e.s.7.1.5., b &X}.}.[.[.[.T.T.H.F.(.[.}.}.|.XXXX|.|.^.T.H./.W.W./.E.^.(./.! ",
"C d.w.r.5.1.4.4.r.r.5.r.r.4.e.a.s.y.r.r.4.7.e.r.s.9.1.m.v.s.2.& x -X.X!.!.E.[.E.F.!.(.}.}.(.}.(.}.^.^.[.}.}.^.~.T.(.T.(.^./.(.0 ",
"Z r.K <.r.r.,.7.7.1.1.7.y.x.u.c.'.x.s.9.,.r.y.y.9.w.1.p.x.y.1., ..:X.X^.[.[.!.T.F.T.E.}..XE.E.E.^.}./.(.(.(.}.~.H.!././.^.(.).| ",
"N 7.7.r.y.y.y.s.y.7.1.1.s.M.a.v.c.v.M.9.,.r.y.y.w.y.w.s.x.s.f.S h.;X}.}.}.[.[.T.H.D.H.T.}.[.[.[.|.E.H.G.H.L./.(.T.H.(.(.^.(.+X .",
"C r.c.n.y.y.s.x.y.y.e.7.r.r.1.2.r.r.a.1.9.r.r.y.s.r.x.s.r.w.v.i h.oX!.E.E.!.[.W.T.T.H.W.(.}.}.E..X(.T.Y.~.H.T.(.(.(.(.}.T.~. X%.",
"C u.f.s.y.d.r.1.6.r.x.y.a.y.w.s.a.r.a.4.,.5.5.5.r.i.i.p.5.2.b.H %.).H.T.^.~.~.~.T.J.T.!.E.E.[.!.E.E.}.}./.H.H.(.}.^.~.^.~./.).` ",
"D b.d.d.a.5.1.1.1.y.c.d.9.r.s.p.9.r.d.d.a.5.5.t.p.s.2.p.r.2.a.V { |.H.T.^.~.^.^.T.T.T.T.W.F.E.E.[.}.(.!.^.~.~.).).}.}.}./.K.).@.",
"F c.u.c.s.T 2.5.c.b.c.r.a.5.5.5.r.1.u.d.p.p.5.5.5.f.p.2.s.a.r.M .. XW.W.^.[.G.~.Y.Y.T.J.!.T.E.E.~.H.W.(.).~./.|.).|.).}.)./.(.^ ",
"U M.d.c.c.r.s.u.u.c.f.r.2.,.5.5.r.r.r.5.5.s.s.5.5.5.5.5.s.p.i.V } |./.(.(.T.i.T.!.W.!.[.[..X}.E.T.T./.}.XXXX}.|.}.(.}.^.T./.L.j ",
"F c.u.M.c.r.5.u.r.r.1.r.r.4.1.1.r.r.1.t.r.r.r.7.f.p.1.5.2.5.r.1 ^ |.(.(.E.T.T.!.`.(..X.X}..X}.T.H.(.|.|.+X+XXXXXXX|.|.).W.(. Xj ",
"C y.r.f.b.r.r.r.s.1.P 7.r.2.7.r.7.1.6.e.9.1.1.<.i.r.2.r.1.r.a.N -.=X|.|.|.E.}.}.|.W.oX.XXX}.W.!.XXoX;X+XOX+X+X+XXX/.). X/.).).q ",
"H b.5.r.d.u.t.1.1.7.y.y.y.y.y.x.y.7.7.7.w.w.w.<.9.1.2.r.r.5.7.2 k.>X-X&X-XoXXX;X;XoX&X.X&XXX/.).).|.=XXX).XX}.R.^.E.T.G.~.R.C.0 ",
"H M.r.r.u.d.y.y.s.y.M.x.y.d.y.y.y.e.R R 1.s.i.7.r.s.s.7.9.r.7.2 5 b k a z z h f z z x v x ..$...l l ..l a f l p p 6 6 : 5 : - X ",
"A M.n.u.e.u.x.s.f.u.c.y.s.s.t.R 6.7.T <.y.s.p.9.5.r.9.<.6.9.0.2 o F A L Y L ( X.O.q.;.0.l.0.8.8.8.q.q.z.0.0.q.q.z.6.P <.) w.z.V ",
"H c.c.n.y.y.R 7.e.e.c.d.r.4.1.1.<.1.1.r.b.x.w.2.1.2.5.1.<.6.) = s '.x.M.v.c.g.s.p.a.a.a.a.5.r.r.5.1.r.v.v.y.s.g.s.s.a.s.c.g.f.S ",
"H M.x.y.y.9.7.1.7.r.y.s.9.1.r.9.r.1.e.r.r.r.w.2.1.,.5.9.w.,.P % 2 m.y.c.n.n.u.d.s.s.a.c.c.x.y.5.r.r.r.w.i.s.r.s.r.t.s.9.,.a.a.B ",
"A c.r.<.7.7.9.w.r.r.r.9.7.e.r.r.r.1.e.e.s.<.<.1.r.,.<.7.1.9.,.% w M.M.c.u.y.r.t.9.5.s.s.x.x.d.y.r.s.9.9.1.1.p.i.s.r.s.y.,.9.a.B ",
"C s.r.7.1.1.2.s.y.9.9.7.w.9.9.s.r.5.7.1.r.<.1.7.7.w.6.w.<.r.2.3 w c.b.b.c.y.9.y.r.x.m.9.y.r.y.s.p.r.r.r.r.9.d.s.5.5.r.c.s.2.2.B ",
"i b.y.r.9.y.s.s.9.r.2.r.9.7.2.r.s.y.y.r.1.,.w.2.7.9.7.9.5.r.d.i < r.a.s.y.9.<.x.9.i.s.9.6.r.r.s.M.x.y.9.1.5.f.d.r.r.y.f.s.r.1.M ",
"V d.d.1.<.y.8.s.w.2.1.r.5.r.7.9.r.y.y.r.r.2.w.2.2.7.7.1.9.r.y.w + 9.r.w.9.7.9.7.T 1.y.s.c.B.s.b.Q.x.c.9.<.1.r.d.s.9.y.t.4.r.a.( ",
"3 t.r.R <.2.2.s.r.2.1.5.1.2.7.2.1.z.<.,.7.9.1.2.6.1.<.1.6.1.7.2 2 N.w.r.s.s.9.2.7.r.n.N.d.s.r.s.a.x.m.9.,.5.t.b.f.u.g.d.r.d.b.( "
};
