/* XPM */
static char *cabin_chimney_side_backup1738154879[] = {
/* columns rows colors chars-per-pixel */
"64 64 186 2 ",
"   c #070300",
".  c #0D0200",
"X  c #0C0904",
"o  c #120400",
"O  c #1C0400",
"+  c #170A01",
"@  c #1C0C01",
"#  c #1E1105",
"$  c #16120C",
"%  c #1A120C",
"&  c #1B1613",
"*  c #220700",
"=  c #230C01",
"-  c #2B0E00",
";  c #310D00",
":  c #241204",
">  c #2C1404",
",  c #2D1803",
"<  c #23150C",
"1  c #2A150A",
"2  c #2D1A0B",
"3  c #331503",
"4  c #3A1600",
"5  c #341905",
"6  c #3A1B05",
"7  c #33170B",
"8  c #381708",
"9  c #331C0C",
"0  c #3B1D0B",
"q  c #291713",
"w  c #221A15",
"e  c #2C1D11",
"r  c #341E12",
"t  c #3A1E11",
"y  c #3E2006",
"u  c #35210E",
"i  c #3D210D",
"p  c #272016",
"a  c #26231C",
"s  c #352314",
"d  c #3B2414",
"f  c #3C2915",
"g  c #372519",
"h  c #3B261A",
"j  c #36281C",
"k  c #3D2A1B",
"l  c #3E301E",
"z  c #342521",
"x  c #332B26",
"c  c #3D2D22",
"v  c #342D29",
"b  c #3E3121",
"n  c #37322E",
"m  c #3B332D",
"M  c #393532",
"N  c #401C05",
"B  c #421E0D",
"V  c #401F10",
"C  c #43220D",
"Z  c #4D270F",
"A  c #44290E",
"S  c #51240D",
"D  c #432513",
"F  c #4A2614",
"G  c #442915",
"H  c #4B2A15",
"J  c #432619",
"K  c #442B1B",
"L  c #4B2D1B",
"P  c #532D15",
"I  c #512E1B",
"U  c #592F19",
"Y  c #4E3116",
"T  c #46311E",
"R  c #4D311D",
"E  c #513116",
"W  c #52321D",
"Q  c #5C341C",
"!  c #56381E",
"~  c #58381F",
"^  c #62361B",
"/  c #432D21",
"(  c #4D2E21",
")  c #542E21",
"_  c #453223",
"`  c #4C3423",
"'  c #4D3A24",
"]  c #45352A",
"[  c #4B362A",
"{  c #473A29",
"}  c #4D3A2B",
"|  c #543523",
" . c #5A3523",
".. c #553925",
"X. c #5A3A26",
"o. c #533629",
"O. c #543B2B",
"+. c #5C3D2B",
"@. c #443B36",
"#. c #4C3D32",
"$. c #533E31",
"%. c #5B3F31",
"&. c #603721",
"*. c #623D26",
"=. c #693E25",
"-. c #623E2A",
";. c #693F2B",
":. c #603F30",
">. c #5E4125",
",. c #54402E",
"<. c #5D412D",
"1. c #4E4033",
"2. c #44413C",
"3. c #4C423B",
"4. c #554333",
"5. c #5C4333",
"6. c #5D4835",
"7. c #54443C",
"8. c #5B4639",
"9. c #574A3C",
"0. c #5C4A3B",
"q. c #5D503F",
"w. c #634227",
"e. c #684027",
"r. c #62422D",
"t. c #6A442D",
"y. c #6C482F",
"u. c #73462D",
"i. c #634532",
"p. c #6A4633",
"a. c #654935",
"s. c #6A4A35",
"d. c #634639",
"f. c #644B3B",
"g. c #6B4D3B",
"h. c #724734",
"j. c #724C35",
"k. c #7A4C32",
"l. c #714E3B",
"z. c #66513E",
"x. c #6D513D",
"c. c #735037",
"v. c #72523D",
"b. c #7A533C",
"n. c #5C4D42",
"m. c #5E5141",
"M. c #624E41",
"N. c #6A4E40",
"B. c #645243",
"V. c #6C5343",
"C. c #6E5845",
"Z. c #66544A",
"A. c #6B5749",
"S. c #6D5A4B",
"D. c #745542",
"F. c #795643",
"G. c #755944",
"H. c #7A5A45",
"J. c #76574A",
"K. c #7A5648",
"L. c #745B4B",
"P. c #7B5D4A",
"I. c #6E5D56",
"U. c #735E51",
"Y. c #795F50",
"T. c #7D614D",
"R. c #6E6158",
"E. c #756253",
"W. c #7C6353",
"Q. c #72625A",
"!. c #7B6759",
"~. c #7B6A5A",
"^. c #805742",
"/. c #835C44",
"(. c #835F4E",
"). c #885F4B",
"_. c #83624E",
"`. c #846552",
"'. c #866855",
"]. c #8B6A54",
"[. c #836C5B",
"{. c #8A6E59",
"}. c #936953",
"|. c #93735D",
" X c #8E7463",
".X c #8B7869",
/* pixels */
"E P P -.p.| G f u 9 , u u T f ,.s b { { #./ h / / / q t j ] s { K 4.0.O._ ' ` T O.T T ' k 0.0.z.f.o.| %.o.J F %.J ) f.K.f.f.J.o.",
"0 0 L 5.8.} j g p 2 # p s 1.f l s { 1.0.M.$./ / - 1 * 1 j ,.k 1.k K T O.,.' _ k _ f h T i } ' d.i.o.L ( L J d L ( ` ` +.) o.d.o.",
": @ @ < < % $ & & $ X a w $ X p # : : : 1 : = = r r 1 1 2 k # e 2 > 2 T _ k s u h 2 2 > . = @ 9 J s 1 7 s f k G [ _ 7 > > = 7 7 ",
"I.n.@.m v n n M   v n 2.v x n 9.9.1.k s k / [ 4.$.$._ [ { 1.u 1.l 4.0.4.' ,.} _ ' _ _ K 2 } ,.0.S.B.6.$.,.4.,.} 8.%.9 g 8.8.6.B.",
"[.~.E.S.C.q.#.c @ R.Q.9.b Z.~.Z.B.q.,.,.0.0.8.f.N.8.4.S.B.9.l S.S.~.~.A.z.A.S.f.0.B.M.$._ !.~.!.!.!.E.B.q.q.q.0.m.B.l O.~.~.!.~.",
"a.v.G.z.6.,.f , s B.O.O.' ,.v.z.q.q.9.9.f.0.8.B.Z.f.8.S.f.{ u q.!.A.6.0.m.0.0.0.0.B.M.[ s A.A.8.9.9.0.9.4.q.0.q.0.m.b { S.Z.9.4.",
"e.c.H.c.<.>.R D 0 ' C p.p.X.s.b.,.4.,.,.4.4.,.d.5.5.4.0.z.0.l q.B.4.o.$.8.4.4.4.$.0.M.4.K B.f.0.0.0.0.q.q.9.4.9.4.q.{ { q.9.9.4.",
"5 Y >.! i 5 : @ J T.V.G.<.X.>.G T } } ,.4.} ` O.[ %.' } ,.9.g T K $.$._ ( O.$.[ o.O.4.O.r k 9 h d 2 u h _ _ R _ ' 8.T s u u s u ",
"s p s j q # + . ] R.I.7.$.$.n.c k l f f G > d J 5 9 G ' 6.l f : r 2 - = > 9 J J J _ o.K t d J ` t 7 - - > t J 0 O.K J 7 t ( J 7 ",
"B.9.n.n.3.3.3.@.w x z z q . O 1 2 u T ,.6.R f.f.f.5.' d ' ' 5.B.N.V.g.g.f.f.f.f.%.J O.<.f.E.V.g.Y.K.N.d.%.i.d.%.( :.N.N.K.Y.Y.K.",
"V.6.5.4.] ] #.] n.Z.Z.Q.n.7 r $.f.a.C.G.z...G.D.g.V.L.<.H.C.<.C.g.V.V.g.f.a.a.s.J.<.[.P.a.G.g.x.g.;.:.:.-.h.K.K.p.(.g.h.h.:.F.F.",
"g.r.+.W J R o.` [ N.Z.J.N.o.N.`.L.g.V.i.L C G.D.D.D.T.R D.H.<.P.x.g.x.s.r.<.p.g.P.D v.g.r._.s.a.K.K.l.h.-.d.h.g.) (.p.l.(.l.D.p.",
"e.^ ^ P S U  .I L w.X.E I Q b._.v.a.g.r.F V K.K.F.g.h.0 a.P.i.T.F.D.v.v.r.X.<.s.s.0 b.v.s.].b.x.-.X. . .>.a.s.w.Z T.r.c.(.h.F.g.",
"k.u.u.^ &.-.-.I r.p.X.r.-.E ~ w.i.p.v.x.p. .F.;.;.p.h.I K.'.v.D.s.y.c.c.s.*.*.t.=.E ].].s.c.w.j.`.F.c.y.w.w.w.E c.|._.T.D.-.b.H.",
") I I F t t t * 1 2 1 k _ 9 > 7 > B L  .p.) ;.-.;.h.i.F p.F.K.l.w.^ t.y.y.w.t.c.w.H e.j.c.k.Q P ! Y E ! ! >.s.w.A w.v.y.>.Y E E ",
"0 0 t t r h h : e g < 2 r : : : - 4 4 4 I F ) I L  .&.F X.X.p.F C N 4 N 4 4 N Z &. .&.w.E C 6 C y y 5 y y f ! Y >.! >.Y y i y y ",
"J d.5.d.i.+.%.d ` g.5.f.+.R a.J C a.' <.a.r...a.r.-.i.h.:.-.;. .| W ! L H s.X.p.g.s...g.g.X.w.X.r...A >.g.>.<.b.>.r.p.r.r.+.w.p.",
"J +.X.i.a.i.+.0 | p.| w.w.r.D.W u a.! >.,.! Y ..-.-.p.l.h.p.h.;. .s.v.a.L a.r.H.s.s.X.w.+.R <.i.r.6.G Y <.r.z.g.r.+.| W W X.+.i.",
"D i.x.V.a.| | C D X.X.g.g.g.H.| D x.>.' K ! | >.i.|  .X.) I F B  .X.W L H s.+.X.L ! G H L L +.>.f R i K +...W i G C D L W | L D ",
"| D.`.W.l.r.-.+.X.v.P.T.g.X.-.F 5 ,.R ,...f.T.{.v.X.+.-.-.p.h.K.P.g.R W r.'.x.W r.r.<.p.F._._.G.a...y C R F L ! X.+.s.F.`._.l.X.",
"0 0 C D J D 8 3 L o.i.i.+.i.G.N.3 G i R 0 5 0 f | 8 0 V V I I  .g.s.I L D X.Y D 3 3 6 3 C E L D C T i R | G 0 3 C 4 3 B I L D 4 ",
"i...+.| | | D L i.X.) L J F D 3 > i f f.<.<.<.a.i.F -.+.) ) V I E | C F B D F L | +.s.+.W +.<.a.A <.R 6 y R <.E g.i.X.X.-.r.+.I ",
"'.P.`.D.i.i.X.D.P.g.V.D.N.D.i.` | ,.' z.a.g.g.i.f.o.K.P.K.K.p.G.v.g...G.P._._.P.g.s.D.g.a.g.r.x.Y T.{.T.T.T.`.x.D.g.g.l.l.p.-.X.",
"H.i.p.X.o.i.| f.i.| O.` K | o.` g.f.R O.R 5.s.O.<.L l.N.i.p.| g.<.+.F v.D.x.v.g.+.Y X.*.s.G.+.<.K v.P.G.x.a.x.v.p.p.i.i.-.+.X.| ",
"F.X.| X.X.X.+.L ` 0 d ( ) J t f.z.f.| G o.O.+.g.5.` `.N.L o.( X.r.w.F v.D.L X.W W | W | <.w.+.r...D.H.<.| +.X.X.R s. .I g.s. .X.",
"H.I I g.g.o.o.O.L J ` K [ $.[ 8.O...J K ' O.o.O.| ` D.s.` +.5.+.+.+.W D.H.| X.W +.p.r.+.a.s.<...G T.'.<.R r.g.s.r.g.r.+.p.+.L X.",
"E C D W L L J 0 J d d 2 t h 1 t d 0 i f J L J 9 7 7 K J 7 G ` F F G 6 | | 0 L H C H C 6 D F 0 3 y ' ! i i W E G G D C G B 3 3 B ",
"g.g.g.g.D.L.D.6.V.%.O.8.8./ r %.6.o.i.f.i.f.g.o.i.%.+.f.5.+.f.5.` W G X...F X.<.+...L L | | ! +.z.r...,.a.<...X.p.X.a.l.r.i.l.v.",
"g.*. .p.g.<.%.g.[.f.N.U.U.$.] I.f.%.f.N.d.A.J.d.T.N.d.L.V.O.%.5.X.i.s.G.G.s.g.s.P.v.s.D.G.s.g.`.G.G.D.G.v.f.s.P.a.+.g.l.i.l.P.h.",
"r.r. .W +.+.+.i.d.$.8.7.#.c r 8.[ o.o.o.o.%.d.%.E.f.N.J.N.O.` i.O.<.p.p.r.r.r.r.a.r.r.g.x.! R a.! <.<.! <.r.r.<.p.p.s.a.X.p.s.| ",
"-.F.s.L | 5.+.o.o.} $.[ / / z $.o.d.d.+.%.i.8.0.O.` %.` _ ( d O.<.r.<.W W +.<.+.+.r.p.s.x.w...<...a.,.R <.g.p...a.r.p.s.r.r.+.W ",
"+.r.X.W | L t / t r t r c / h $.J %.+._ ( / K ( h K 4.d d [ k 5.+.<.i.| | +...| | +.+.+.a.z.a.a.W <.r.<...` L +.o.| +.s.s.i.+.-.",
"V F  .N.d.( J r r @ < 2 h _ g 4.G G T z.6.h s s 2 g @ : _ O.7 O.s L ` O.+.F J o.V L L ) o.$.5.V...R R T G K K K 9 K O.O...z.s.! ",
"; ; ; F V r t 1 1 1 s r g h , k f A f ' } c b j e e < r h ` g O.d _ ' O.i.%.:.N.( ( J V t d K ' G y y G f K O.,.s T ,.O.' W R i ",
"l.:.o.:.o.h c r . O < = : 9 1 s u A u u s 2 2 + @ + : e @ s u k g f g d t 7 ; J 7 0 3 - 7 K } ,.T D f G 9 , r s , s K G T R R R ",
"K.D.g.N.N.$.4._ 2 c _ h _ 0.N.J.x.T.z.B.B.4.#.x < q s k p _ s { K k G K / J J | ( K t > 7 ` 6.8.z.a.C.C.5._ j s k s s u ,.6.x.x.",
"X.+...6.4.} } k r ] / s K 4.f.0.z.a.,.0.f.} } ] j 1.] ] 1.9.j 4.B.B.Z.L.Y.U.U.J.%.$.[ h g 4.S.f.z.x.T.{.!.S.B.0.S.7.` k x.C.G.z.",
"g.f.4.z.,.' { s s #._ / o.7.f.O.6.,.' 8.7.] } ] c m.1.@.n.m.s 1.~.E.E.!.U.L.A.0.} ` [ _ K 0.~.S.<.<.z.E.L.S.S.Z.E.B.4.k E.G.x.<.",
"6.a.6.z.4.,.#.b : [ ] { $.O.d.O.N.N.d.f.d.$.4.} / 9.9.9.m.B.l } U.q.q.B.B.S.L.M.6.4.9.4._ 4.B.0.z.5.f.C.S.S.Z.M.m.M.8.s C.z.f.,.",
">.6.z.z.4._ _ 2 : [ _ O.O.` 5.%.( f.0.d.8.4.$.j s c 4.m.4.q.{ { S.4.4.8.8.Z.U.M.0.4.0.0.b ,.z.4.5.O.5.B.A.A.B.0.B.I.B.s a.O.5.O.",
"# , f T u # + # = I..XJ.4.O.` o./ o.$.o.( #.o.( k / _ 4.4.0.g g g f T 2 2 ' z.,.,.' 9.4.k u > u 5 > > 7 / } ` g { $.K h 7 > 5 - ",
"' ' ' ,.' l e , + ` 4.' ` o.L K r t V / t r t / ` i i 9 } 4.k d u u f u , u s u s , d f d _ } 5.K D i 7 f / _ k K ` / / L f ' | ",
"c.6.>.6.f.6.6.,./ O.} / J > O * 1 1 V %.f.:.d.`.g.x.T...<.' 4.B.W.x.G.T.a.,.' ,.,.T <.6.a.G.V.V.P.G.N.f.i.f.g.f.f.6.N.f.L.+.D.H.",
"c.a.a.>.T T ' ,.4.B.V.G.V.J D i.`.M.M.V.N. .o.K.G.v.F.+.x.H.D.D.V.i.s.D.s.,.a.v.<.<.T.G.x.H.g.p.v.b.D.s.i.5.5.5.8.O.i.i.D.H p.v.",
"-.-.X.I A d K K / $.d.S.V.O.5. XL.` 9 G L F X._.l.b.s.*.:.^.;.:.v.j.l.l.r.X.<.r.Y ! v.s.y.x.b.b.c.j.s.r.<.+...O.%.R <.s.P.P s.b.",
"p.t. . .X.<.5.O.o.O.` ,.+.K R G.f.f 7 K | E +.k.u.^.k.t.) ^.N.^.^.b.b.j.*.! Y C G Y b./.b.b.b.^.b.s.w.-.X.| | X.X.L X.s.F.E s.b.",
"b.h.;.)  .o.| h +.O.` ..d.O.` i.f s K <.s.j.y.k.=.;.^ S ;.}.).^.j.;.k.b.j.y.y.w.E ! c._./.k.=.Q /.b.l.j.t.r.i.s.p.+.w.F.b.Q t.c.",
"C B 8 4 4 8 8 - * > * > d 3 O O = = , G ! X.X.&.;.k.^.U ;.h.F.h.t.Q U ;.X.W E E r.E w.y.s.j.Q U S H P E H B 0 D D C 0 X.~ N C Z ",
"B L o.F F ) K 0 7 | f 7 F J i d > f u u K G L L I I |  .:.:. . .B B 6 3 4 N 0 3 D C D W W F C G 5 H 0 > D D 5 y i y R R Y W C L ",
"o.i.i.%.5.d.5.( 0 D.D.s.g.+.X.+.i 4.,.,.5.<.f.i.i.p.s.s.;.N.;.:.L X.r.w.L X.X.| p.r.-.a.s.w.X.+.p.f...Y a.r...<.f.6.a.<.' <.>.z.",
"L 5.f.f.i.i...J 0 X.o.o.i.f.v.D., 5.d.O...' ` f d.:.:.%.:. .) ) I X.+.r.G r.a.+...W ! X.+.X.+.<.<.+.H R s.z.<.r...! ..R W <...X.",
"J i.P.Y.V.5.X.o.d i.i.s.D.g.a.+.> O.,.' ..O.i.f.d.o. .o.) ) ) ) +.X.L W 0 s.l.+.W W X.+.+.X.r.s.R K i Y x.D.a.a.>.R R | a.x.a.R ",
"L 5.v.G.g.<.o.| f g.E.P.g.+.f.g.R 5.` O.O.o.N.[.N.:.o.o.:.:.;.D.`.P.p.<.| P._.G.a.x.P.H.v.s.v.H.r.>.| <.T.T.D.x.D.f.! ..a.G.x.X.",
"d 6 7 0 i 7 3 - J O.X.O.( K i.f.O : > f K > 6 K o.V 8 0 V 0 V F | X.W 0 C D H Y 6 F | R C 0 D W f i 6 5 y D f 6 y D 6 i K G G 3 ",
"T.D.f.s.s.i.<.<.5.i.O.i.5.o.[ 9 > K ` N.P.f.g.N.g.+.o.d.g.+.o.+.| +.X.D r.L | +.E | +.X.| | +.a.W +.p.w...<.<.E ..s.a.v.v.f.s.! ",
"P.H.P.L.f.....5.P.L.g.f.5.5.N.5.+.a.O.O.i.5.i.%.p.o.:.K.(.K.p.N.D.g.a.W |.D.H.`.g.v.g.s.r.r.s.x.R g.'.`.T._._.g.v.G.<.r.s.y.s.K ",
"v.g.<.R R <.a.<.5.o.K ` o.d f o.o.V.d.f | D.f.+.N.J :.'.o.+.i.D.-.+. ..._.g.r.s.T.p.r.a.X.W r.r.L r.v.g.a.p.i.+.....X.+.r.r. .G ",
"'.<.H ! a.<.' R J f 9 f _ _ [ 4.D.V.O.J ` O.%.N.i.) f.P. .:.f.D.g.+.| X.H.X.G | `.x.a.X.R +.g.s.L v.`.x.| | X.X.L ! +.+.s.a.+.! ",
"v.! Y ,.f.>.T ' J T G f _ } [ O.o.| L J | ( | +.J ( X.5.J %.+.i.g.+.X.r._.+.W r.s.s.a.X.| p.s.| F v._.p.L  .:.-.-.r.-.+.| I D 6 ",
"Y Y G R ..| Y T T K s s r r @ 2 7 0 J d L ` L t > 0 J J 7 L t R 0 3 3 0 ..C i F 6 D C 4 6 D C - 6 H W C 0 F I D D F F D B C C B ",
"v.x.r.a.v.T.v.6.E.f.0.S.f.6.g $.J.V.N.d.g.P.J.s.N.f.s.V.g.V.+.D.<.r.s.+.g.r.r.+.g.a.+.X.X.i.i.s.v.v.s.p.s.g.g.p.r.p.s.s.p.l.P.P.",
"r.>.>.>.<.>.6.a.L.z.z.E.M.n.g 0.N.+.o.i.d.d.f.d.P.N.f.J.x.f.` f.D.F.H.g.v.g.v.s.D.g.s.g.D.s.a.H.v.l.g.g.p.a.p.l.g.v.g.p.i.p.s.s.",
"! w.w.>.R R <.a.5.,.4.0._ 1.2 4.+.( o.:.+.%.i.%.N.i.i.N.O.O.J 5.<.+.s.+.+...p.+.X.r.p.x.G.i.| s.| X.-.X.+.-.i.<.-.p.p.p.p.p.i.i.",
"a.v.x.R T <.<.f K T _ _ e 4.e 4.o.:.N.+.J +.N.o.| L O.6.G L D ..r.| r.+.+.E <.r...a.p.i.s.-.X.p. .+.X.| X.p.r.I i.p.g.p.i.i.X.I "
};
