/* XPM */
static char *mosaic11738154879[] = {
/* columns rows colors chars-per-pixel */
"64 64 256 2 ",
"   c black",
".  c #010101",
"X  c #020202",
"o  c gray1",
"O  c #040404",
"+  c gray2",
"@  c #060606",
"#  c #070707",
"$  c gray3",
"%  c #090909",
"&  c gray4",
"*  c #0B0B0B",
"=  c #0C0C0C",
"-  c gray5",
";  c #0E0E0E",
":  c gray6",
">  c #101010",
",  c #111111",
"<  c gray7",
"1  c #131313",
"2  c gray8",
"3  c #151515",
"4  c #161616",
"5  c gray9",
"6  c #181818",
"7  c #191919",
"8  c gray10",
"9  c #1B1B1B",
"0  c gray11",
"q  c #1D1D1D",
"w  c #1E1E1E",
"e  c gray12",
"r  c #202020",
"t  c gray13",
"y  c #222222",
"u  c #232323",
"i  c gray14",
"p  c #252525",
"a  c gray15",
"s  c #272727",
"d  c #282828",
"f  c gray16",
"g  c #2A2A2A",
"h  c gray17",
"j  c #2C2C2C",
"k  c #2D2D2D",
"l  c gray18",
"z  c #2F2F2F",
"x  c gray19",
"c  c #313131",
"v  c #323232",
"b  c gray20",
"n  c #343434",
"m  c #353535",
"M  c gray21",
"N  c #373737",
"B  c gray22",
"V  c #393939",
"C  c #3A3A3A",
"Z  c gray23",
"A  c #3C3C3C",
"S  c gray24",
"D  c #3E3E3E",
"F  c #3F3F3F",
"G  c gray25",
"H  c #414141",
"J  c gray26",
"K  c #434343",
"L  c #444444",
"P  c gray27",
"I  c #464646",
"U  c gray28",
"Y  c #484848",
"T  c #494949",
"R  c gray29",
"E  c #4B4B4B",
"W  c #4C4C4C",
"Q  c gray30",
"!  c #4E4E4E",
"~  c gray31",
"^  c #505050",
"/  c #515151",
"(  c gray32",
")  c #535353",
"_  c gray33",
"`  c #555555",
"'  c #565656",
"]  c gray34",
"[  c #585858",
"{  c gray35",
"}  c #5A5A5A",
"|  c #5B5B5B",
" . c gray36",
".. c #5D5D5D",
"X. c gray37",
"o. c #5F5F5F",
"O. c #606060",
"+. c gray38",
"@. c #626262",
"#. c gray39",
"$. c #646464",
"%. c #656565",
"&. c gray40",
"*. c #676767",
"=. c #686868",
"-. c DimGray",
";. c #6A6A6A",
":. c gray42",
">. c #6C6C6C",
",. c #6D6D6D",
"<. c gray43",
"1. c #6F6F6F",
"2. c gray44",
"3. c #717171",
"4. c #727272",
"5. c gray45",
"6. c #747474",
"7. c gray46",
"8. c #767676",
"9. c #777777",
"0. c gray47",
"q. c #797979",
"w. c gray48",
"e. c #7B7B7B",
"r. c #7C7C7C",
"t. c gray49",
"y. c #7E7E7E",
"u. c gray50",
"i. c #808080",
"p. c #818181",
"a. c gray51",
"s. c #838383",
"d. c #848484",
"f. c gray52",
"g. c #868686",
"h. c gray53",
"j. c #888888",
"k. c #898989",
"l. c gray54",
"z. c #8B8B8B",
"x. c gray55",
"c. c #8D8D8D",
"v. c #8E8E8E",
"b. c gray56",
"n. c #909090",
"m. c gray57",
"M. c #929292",
"N. c #939393",
"B. c gray58",
"V. c #959595",
"C. c gray59",
"Z. c #979797",
"A. c #989898",
"S. c gray60",
"D. c #9A9A9A",
"F. c #9B9B9B",
"G. c gray61",
"H. c #9D9D9D",
"J. c gray62",
"K. c #9F9F9F",
"L. c #A0A0A0",
"P. c gray63",
"I. c #A2A2A2",
"U. c gray64",
"Y. c #A4A4A4",
"T. c #A5A5A5",
"R. c gray65",
"E. c #A7A7A7",
"W. c gray66",
"Q. c #A9A9A9",
"!. c #AAAAAA",
"~. c gray67",
"^. c #ACACAC",
"/. c gray68",
"(. c #AEAEAE",
"). c #AFAFAF",
"_. c gray69",
"`. c #B1B1B1",
"'. c #B2B2B2",
"]. c gray70",
"[. c #B4B4B4",
"{. c gray71",
"}. c #B6B6B6",
"|. c #B7B7B7",
" X c gray72",
".X c #B9B9B9",
"XX c gray73",
"oX c #BBBBBB",
"OX c #BCBCBC",
"+X c gray74",
"@X c gray",
"#X c gray75",
"$X c #C0C0C0",
"%X c #C1C1C1",
"&X c gray76",
"*X c #C3C3C3",
"=X c gray77",
"-X c #C5C5C5",
";X c #C6C6C6",
":X c gray78",
">X c #C8C8C8",
",X c gray79",
"<X c #CACACA",
"1X c #CBCBCB",
"2X c gray80",
"3X c #CDCDCD",
"4X c #CECECE",
"5X c gray81",
"6X c #D0D0D0",
"7X c gray82",
"8X c #D2D2D2",
"9X c LightGray",
"0X c gray83",
"qX c #D5D5D5",
"wX c gray84",
"eX c #D7D7D7",
"rX c #D8D8D8",
"tX c gray85",
"yX c #DADADA",
"uX c gray86",
"iX c gainsboro",
"pX c #DDDDDD",
"aX c gray87",
"sX c #DFDFDF",
"dX c gray88",
"fX c #E1E1E1",
"gX c #E2E2E2",
"hX c gray89",
"jX c #E4E4E4",
"kX c gray90",
"lX c #E6E6E6",
"zX c #E7E7E7",
"xX c gray91",
"cX c #E9E9E9",
"vX c #EAEAEA",
"bX c gray92",
"nX c #ECECEC",
"mX c gray93",
"MX c #EEEEEE",
"NX c #EFEFEF",
"BX c gray94",
"VX c #F1F1F1",
"CX c gray95",
"ZX c #F3F3F3",
"AX c #F4F4F4",
"SX c gray96",
"DX c #F6F6F6",
"FX c gray97",
"GX c #F8F8F8",
"HX c #F9F9F9",
"JX c gray98",
"KX c #FBFBFB",
"LX c gray99",
"PX c #FDFDFD",
"IX c #FEFEFE",
"UX c white",
/* pixels */
"a.2.X.T m.C.G.^ ;.V.V.F.I.L.L.h.j.R n.z.l.5.~ S.t.D.J.1.f.M.b.n.y.n.M.3.I F.l.t.f.n.m.o.F ;.%.@.T q.M.v.f.J 8.g.M.0.f.y.j.5.A g.",
" .X.N h ` ( &.9 F <.<.%.^ ~ { X.~ k z.s.M.r.m Z Q w D M l S Q G P w Y s Y V.G.F.d.9.T.>.8 ] #.&.f q.V.z.K.Q ' u.+.v ( @...| I +.",
"a.M.X.-.q.i.M.T ^ [ D T / -.| ) ` l B.z.k.+.Q f.d.N d.`.R.Z.b.h.G.{ 3.,.=.R.i.v.J.B.T.@.C q._ 1.R &.Z.k.p.^ 2.v.t.B.M.<.z.U.f.7.",
"r.f.O.7.3.Z.c.) v.B.q.b.V.E.D.D.e.V k.v.S.#.[ J.n.Z -.j.b.0.;.x.l.T L W i W N Y M J Y B ~ I.s.I.@._ c.u.-.^ y.n.n.c.5.:.S.t.O.w.",
"T P G F 9 O.H z v B 6 V U R ( ` _ v 3.*.7.' ) S.b.k S E / I D U I j } 7.t...=.v =.>.6.0.N *.2.O.m U y.0.w.N i l ~ d g h S c S S ",
"p.r.n.9.M l.8.l.8.3.v U ^ g T S U Z ..! / c v F.J.L ,.C.b.N.N.E C.7.2.n.V.h.E. .g.S.c.B.A (  .W U k E Y E Z 9.k.9.i.i.F @.a.h.2.",
"c.l.G.d.F v.c.J.w.b. .0.g.I L.I.D.N.v.M.R.r.v 6.o.l E ,.&.1.x.F C.4.#.Z.f.c.x.H y.v.p.N.+.n.l.v.h. .j.A.1./ U.k.Z.N.x.U j.m.q.V.",
"c.l.x.i.P g.k.u.k.h.N ..x.Z v.-./ v.h.<.y.9.q H S E R W E B ` b l.! 3.u.v.e.l.J ,.T :.h.c h.V.g.8.3.f.m.a.^ Z.Z.i.;.g.V $.D.V.s.",
"z.m.x.4.m ' K / ] c k D ) D w J g R E h ! J R M.c.B.x.v.U.S.B.W x Z z P T B J n k m F N B N.h.M.v.f.z.0.B.L } R q h ~ : 1.z.l.f.",
"i.A.c.C.v h.O.s.a.g.h.7.p.j.:.:.:.p.k.8.k.` E D.C.B.l.h.b.l.B./ e.h.q.l.f.:.q.9.S.k.c.a.( B.z.1.z.u.m.f.q.] z.T ,.t.j.H s.G.c.g.",
"V.k.l.q.V n.2.e.z.9.4.3.3.X.W $.X.i.C.z.S.} T Z.v.f.a.a.t.e.m.W l.S.z.D.M.4.g.N.x.7.a.n.I 5.:.u { 4.@.#.>. .g._ t.m.x.P 7.N.d.i.",
"z.r.A.e.U p.Q C x Z D n N D n f < Z U g P b U J.c.a.c.S.m.c.P.) @.4.@.4.1.Q o.5.1.6.t.e.7 F ,.] ` ;.D ` +.T ..m 6.l.s.S 7.m.N.m.",
"Z.A.b.u.l b.9.Z.C.A.Z.B.k.6.] M s Q [ C ~ z c y.y.4.p.B.M.z.S.U K ` S ! ] B J ( ` ^ V / L a.C.s.F.a.4.L.j.l.U.W d.B.l.L u.k.m.c.",
"..+.o.Y i F q 4 F i w D G a e 1 w.v.H.Z.T.| V t.g.w.i.n.C.v.G.) e.m.6.f.K.x.m.F.s.E.Y.K.4.s.0.l.n.s.y.N.c.K.F.Z #.5. .j ` / Y L ",
"0.%.o.H y.2.>.U t.j.7.%.#.w.a.R x.v.x.d.L.@.U x.r.q.0.s.b.g.C.X.:.g.#.>.v.d.j.v.j.v.g.0.' u.7.B.M.k.j.a.n.b.*.p ^ -.J G E ! i s ",
"D.F.4.3.G.v.8.} A.K.V.Z.v.v.b.} e.c.c.9.c.W 3 m q p i l D b K 5 g U 8 5 m h j z B x H K h <.,.c.n.^ i.Z.z.x.r.B d.Q.6.F.c.G.[ +.",
"N.k.>.#.f.A.8.@.z.B.z.p.j.c.v. .9.S.<.e.v.o.+.e.<.N.C.u.j.j.z.S.m.h.p.S w.&.-.2.t.f.x.x.I -.y.y.` W 8.4.4.;.3.! >.1.9.7.@.&.C ! ",
"g.l.7.$.b.P.z.:.D.C.C.n.A.x.g. .R ~.M.j.Q.,.I 3.( #.,.( ' <.q.| %...m m f.L.b.g.c.M.l.k.V U ( I +.J I S G Q U i X.R I E I E c O.",
"m.x.&.v / ~ Y p } Y ] E [ J F p > R { ..-.^ Y 3.) / @.T Y ;.6.l 5.=._ s j.r.s.-.M.B.p.B.| e.W.E.S.f.s.j.h.F.5.( v.k.V.G.F.z.) =.",
"a.9.$.J 6.,.r.3.R N X.K ..' &.o.9.%.*.-...U W w.M.z.F.v.z.F.A.{ F.C.I.B x.r.z.t.d.c.y.V.Q ~ &._ Q R I ( E 2.E / n.m.B.t.t.r.T I ",
"x 9 c n ,._ ] >._ I j.` w.u.S.D.0.c.b.C.T.5.L 3.p.f.h.k.s.h.w.%.k.k.a.p ' M.5.9.n.A.b.H.^ ( o.! {  .] @.^ #.i A ! S I v Z R b c ",
"6.H @.*.d.{ A 7.X.H j.z I n C v n I J C A C F W z K M D s P N b V.Z.B.C ,.Y.k.m.h.d.d.z.` f.L.U.V.N.N.U.A.c.g J @.M X.4.q.5.%.$.",
"l.U 7.e.x.7.I I.*.C V.E a.w.j.v.g.k.B.Y.j.t.s.Y #.j.0.w.H N.s.' $.q.w.D 7.7.i.h.w.2.a.y.Q k.s.r.t.>.;.e.j.u.j @.V.Q y.C.n.z.N.b.",
"a.F r.p.g.9.l M.i.N j.B 5.O.-.7.<.:.D ] 5.*.>.( &.Z.x.g.l Q.m.z y W 5 j M c f c z q C V i h.j.z.:.O.1.u.l.:.2 ` 8.m 6.g.w.d.B.q.",
"h.W a.w.Z.s.o %.} f 8.c g G k b V m s I T H ~ q O.u.e.` E V.h.! P.i.j.S.I.k.#.9.h.h.D.k.W 3.b.g.q.B.c.X.,.y.K t h k u.i.a.m.v.;.",
"y.B 6.y.V.h.2 H N s Z q k.g.b.V.a.F.P.C.h.V.P.N 5.u.h.8.Y A.r.F 9.<.<. .#.4._ F :.( 5.a.T 9.D.9.D.f.i.y.s.-.F ! Y.{ &.v.f.x.i.M.",
"x.N =.q.d.t.R w.w.` g.r [ J.0.0.v.h.C.N.d.i.A.P 6.w.v.e.V P.i.D } ! ` ! Q { ! H ( Y h k j P U W W S H J J V i f K S 9.d.3.p.g.n.",
" .d ..0.d.O.I x.c.&.] ] ` 0.>.l.J.a.k.C.F.u.v.=.5.a.N.+.N T.x._ R.H.!.'.E.Y.W.!.K./.8.q.Z.M.5.x.d.g.z.f.h.A.b.7.q.b } ~ :.%.9.<.",
"~ m n q Q l % ! W K 2 f @.p.Q 9.y.n.v.t.M.v.t.W P _  .t p O.^ A ! ^ R P K Y E S j Z H a.J.Q.R.K.H.h.i.m.V.c.k.p.F.g g 3 f m T v ",
"b.D.c.( ~.b.t a @./ -.g O.m.Y m ..u.8...;.c.w.Q } +.*.~ >.:.%.>.*./ x K @.| ` _ X.X.B ] X.] / R +.X.` $.-...+.#.$.B #.t.P 7.g.t.",
"x.c.r.a f.a.a D L j S Y Y h P w V F A m 4 Q Q g  .:.,.0.a.9.r.3.8.+.A >.T.c.s.S.L.C.P R ' W H C : /  .' } ..&...=.5 U B.G ;.r.h.",
"f.u.n.I N.b.X./.L.G./.G.D.E.k.U.J.J.~.P.Q m.M.^ h E I ` Z Y ` y v ` D [ B.v.p.j.V.7.X.A.N.J.I.| 2 r.K.H.F.n.Z.V.H.o.v.b.n w.U.7.",
"p.l.f.K z.p.x >.2.&.^ ^ %.;.@.&.%.~ } r.@.f.b._ =.^.(.x.M.n.P.] %.|.-.| 8.c.b.a.M.&.E h.k.x.M.2.m ` w.@.! :.0.2.4.a 4.v.v u.i.+.",
"V U G Z m M ^ S W k M R C n H H ' ~ { _ F k.m.Y S Q L B I S ( m R $.L $.4.5.k.1.k.9.) s.c.z.M.c.v / { L R J p n b M D D h V v v ",
"<.,.( f.<.Y C.^.J.8.A.T.X.( j.B.k.v.P.7.L c.l.^ U P E E ) R ` ' ` *.j a ~ z V A P ! U l.D.j.9.%.a i.R.F.S.#.T I.t.G.} ( s.6.9.1.",
"P ' T L Z B y.z.b.0.G.D.( ) j.h.t.*.p.<.) n.7.T r.n.W.S.N.F.J.L.v.(.=.z 1...2.8.5.A K l.*.6.M.` M w.n.M.W.5.E H.^.Y.L c A F ..J ",
"+.Q X.>.| J z.4.N.V.R.C.1.1.3.! *.3.K.0.d A l l +.q.k.0.3.k.h.d.y.k.5.J ;.3.J.y.8.7.i a n w > i i U T V L M H H.8.f.$.2.! O.,.X.",
"=.^ I v.n.B &.%.~ @.,...U K S k } ' o.Q K f.3.J +.1.3.p.p.z.i.7.u.g.:.L q.<.d.u.0.+.( w. .@.s.2.=.6.9.9.i.[ a D D } P X.! @.Q ] ",
"C ) C Y Z G F N Z l H  .[ ` =.9.` $.| U K c.v.{ $.r.4.m.h.a.i.6.g.V.#.H n.y.6.c.b.3.` q.*.6.M.y.u.V.b.e.9./ Y F.D.d.Z m z C A P ",
"/.w.n.h.h C.k.l.S.E ) G.!.Z.C.N.Y.[.A.q.{ i.a./ @.v.7.u.O.@.u.w.n.g.;.] a.a.0.+.s.-.V $.r.v.C.p.9.y.+...d.+.Y P.M.q.o.9.3.:.A.a.",
"x.i.g.v.z 7.z.h.N.m %.f.m.n.M.S.M.v.J.e.o.u.P k ;.%.@.j.@.#.l.Z.B.Z.X.K B.i.;.c.0.&.D m.D.4.y.f.8.f.0.:.3.} ^ p.v.v.W q.( ,.w.h.",
"h.y.9.t.n 1.u.m.z.B K Y C K W I m z P A k Y 9 4 4. .) 8.,.1.i.1.8./ s ) S.a.x.a.i.r.g A n n L S y , l S 8 - E T.G.b.S 4.2.6.9.f.",
"a.b.c.a.s B N [ ) h R q.O.#.5.1.4.4.0.3.>.i.L u B a a v v j Z i > Q j P e.o.i.h.k.h.S ,.8.6.$. .] ` @.6.q./ E K.s.g.*.q.Z K c.s.",
"z.t.0.d.} f.0.2.v.! E v.4.<.h.m.w.5.-.8.0.e.^ J M.h.b.d.k.p.M.u.E d./ ) c.f.f.0.0.5.A x.Y.Z.*.{ q.7.' Y u.q.W t.*.b. .J H ] f.+.",
"N.n.H.v.K <.j.z.S.G 8 R v c M p T n 5 V D z s L 8.t.C.a.y.7.h.k.) c t J ` %.,.[ +.&.n [ X.*.( T -. .$.^ _ ] m L V r v K e F M.O.",
"$.] o.o.A =.3.=.O.B T ;.{ &...v q.e.D T $.<.) z k.4.4.5.B.K.h.2.L P P K d x Z Y P I B I g 0 x T H Z F d N M d y.f.g 3 Z U Y +.1.",
"p c N Z c z 8 N ] V ,.0.2.f.p.| Z.`.#.o.x.!.y.p J O.t.;.H A L 8.P 4.O.3.p.C.D.S.c.j.P.R.8.! w.F.g.m.b.y.U.7.k B.I.m / X.4 i V M ",
"g.y.` +.n.e.Z #.f.D <.r.l.M.2.S V.J.E ] ,.$.^ z ) ) ! F y h r W D C k w.*. .0.^ R ` 0.' n S j.z.N.w.h.q.s.>.A f.<.C <.2.[ Y.w.m ",
"9.e.O.h.2.a.| B.U.L *.2.%.B.9.Z 5.v.{ ;.f.@.x _ P.c.E.[ ..Z.m.c.~.R H P K C P g l s b m a H e.h.m...-.g.s.:.l 7.r.^ 6 C F f.' _ ",
"=.@.K u.i.1.n W / f j q + y n u $.x.! R f.H.2.@.S.M.M.,.#.h.u.q.+.b Q 6.y.s.c.t.l.s.k.h.*.F p.x.<.O.q.9.0.2.G 4.j.B i.j.g e.b.K ",
"r.;.' 9.>.{ P ) O.:.$.*.&.;.,.Y V.A.| *.Z.j.~ K f.i.S.o.I N.3.c.8.W H ..O.3.d.x.&.X.<.k.x.~ d.e.5.a.p.=.n.#.l V.v.~ k.' s #.t.@.",
"A X.c ; / ( D ~.m.S.D.I.P.F.9.j *.i.^ m R Q B g 4.&.R ` } -.8.x.z.o.F -.$...) [ M K +.#.) n / _ ~ z W Z n 2 6 ) W q L M r h b 8 ",
"F e ~ W / E j o.S l U J m ] ( q b ~ P A K m Z K J a B ; ~ H.y.r.y.P 5 L n 8 q x q h K u , E S I 0 V / f Z m k R B K t n S B J Y ",
"{ v 2.g.8.E s 2.a.&.q.;./ 3.:.N n.u.t.V.C.+.<.v.i.V.;.c +.d.A.,.7.] ` C.d.[ =.6.v { g.{ F K.q.c.W Q n.C.9.p.z.:.*.Y.! <.m.r.} _ ",
"k o < v 4 < L v.f.p.t.k.b.N.r.Z R K N a j f Q W I w 1 : x v p  .7.T N ! g   i w q $.U.X., v 9 R n ] 4.u.y.9.+.3.p.8.i Z k s a 3 ",
"-.D.W ^ 4.U c $.;.d.[ &.q.o.( 9 J V ~ -.4.W .. .@.;.F J +.8.K a $.J U =.X.G <.I +.8.k.( b A f A e | #.` ~ 4.=.:.U q.D ) a.~ c v.",
"e.k.%.*.G.0.Z -.s.k.f.;.[ 8.U j ;.m 0.q.y.,.7.c.5.1.P 2.p.Y.3.C H.[ *.2.q.K 7.f.| s.a.%.~ Y.,.v.~ e i 8 h j y 9 < u 0 L a.) #.N.",
"w.N.O.O.=.{ V c.&.6.t.4.,.j.1.E =.1 l a J m h N t v d &.0.c.} s N C N F 4 v A k ] :.0.*.x p.[ G v v >.8.u.p.e.>.k w...Z C 8 Q c.",
"k.p.Q | c.2.B ^ p g Z D z u x q c u w.u.s._ E q.1.;.P o. .;.] I s.Z.u.8.I x.1.v C 3.k.:.; N u < 0 V h.j.7.2.y.4.A N.] R *.{ +.-.",
"h.r.1.' B.R A G A C ( %./ h %.0.u.U >.:.g.Q 4 y S v - e 4 9 5 3 z x S m Z 9.e.E %.M.1.] W j.g.H._ A ^ U G G U u v u.D _ 5.] / @.",
"! ..2.} c.T @.=.w p m S v 5 / @.} M 1.,.e.E G w.u.9.@.e.t.y.y.t.6.=.w.P 7 7 0 O # k y b W u.3.y.n s D L F n W H f 2.I :.r.^ Y :.",
"d c w g ) J P k ^ *.$.~ ^ ) X.! o.z 1.t.N.;.#.C.G.n.9.a.h.j.m.n.w.a.n.4.V ;.#.} =.....~ l &.w.a.k ~ d.A.z.o.3.9.R 1.^ ..*.A a N ",
"a.i.R Z T R ] n t.G.Z.a.x.K.h.h.f.M +.O.=.E } m.a.f.t.l.m.l.c.a.0.t.0.%.b M.a.9.D.h.v.*.T g.w.>.Y ;.y.j.b.{ L k u x m x M s P d.",
"n.l.,.X.C.z.A.E r.N.m.j.l.m.>.A.0.u ^ W T c ) M.l.b.g.j.z.f.c.p.p.y.u. .z z.N.S.$.m.L.E c *._ q.j 7.x.t.9.E | =.7...8.9.0.! [ V."
};
