/* XPM */
static char *plainwallside1738154879[] = {
/* columns rows colors chars-per-pixel */
"64 64 206 2 ",
"   c #1A0B0D",
".  c #0E0F13",
"X  c #17181C",
"o  c #1B1B1E",
"O  c #141519",
"+  c #2B1B1C",
"@  c #261618",
"#  c #1D1E22",
"$  c #2F1F20",
"%  c #1F2024",
"&  c #222324",
"*  c #25262A",
"=  c #2B2C2D",
"-  c #27282C",
";  c #322223",
":  c #362628",
">  c #3B2B2C",
",  c #35292A",
"<  c #2D2E31",
"1  c #372E31",
"2  c #2F3034",
"3  c #333335",
"4  c #3B3334",
"5  c #353639",
"6  c #3B3639",
"7  c #37383C",
"8  c #3B3A3C",
"9  c #363837",
"0  c #443335",
"q  c #4D3336",
"w  c #453739",
"e  c #443B3C",
"r  c #4D3D3E",
"t  c #4D373A",
"y  c #513E3E",
"u  c #5B3F3E",
"i  c #472D2E",
"p  c #3E403F",
"a  c #3D3E41",
"s  c #453F41",
"d  c #4D3F40",
"f  c #533F41",
"g  c #593F40",
"h  c #3F4142",
"j  c #434243",
"k  c #4C4343",
"l  c #464749",
"z  c #4C4748",
"x  c #47494A",
"c  c #4B4A4B",
"v  c #494847",
"b  c #534344",
"n  c #5A4546",
"m  c #554748",
"M  c #5B4649",
"N  c #554B4C",
"B  c #5C4B4C",
"V  c #524847",
"C  c #5A504F",
"Z  c #52514F",
"A  c #4E4E51",
"S  c #534F51",
"D  c #5D4E50",
"F  c #545253",
"G  c #5C5353",
"H  c #565558",
"J  c #5A5759",
"K  c #57585C",
"L  c #5B5A5B",
"P  c #595857",
"I  c #614649",
"U  c #624C4D",
"Y  c #694D4E",
"T  c #604347",
"R  c #64504F",
"E  c #634E51",
"W  c #694E51",
"Q  c #6A4F58",
"!  c #645354",
"~  c #6A5456",
"^  c #625857",
"/  c #6C5857",
"(  c #655758",
")  c #6C5659",
"_  c #645B5B",
"`  c #6C5B5C",
"'  c #715556",
"]  c #725957",
"[  c #71565A",
"{  c #725B5D",
"}  c #795D5E",
"|  c #5E605F",
" . c #64605F",
".. c #6A605E",
"X. c #74605F",
"o. c #79615F",
"O. c #5E5E61",
"+. c #635F61",
"@. c #6C5E60",
"#. c #745E61",
"$. c #795E63",
"%. c #7A5F68",
"&. c #755E68",
"*. c #5F6064",
"=. c #646264",
"-. c #6C6363",
";. c #676669",
":. c #6B6768",
">. c #6C6A6B",
",. c #696866",
"<. c #746364",
"1. c #7A6365",
"2. c #706866",
"3. c #756668",
"4. c #7C6669",
"5. c #746B6A",
"6. c #7C6B6C",
"7. c #7C6867",
"8. c #72706F",
"9. c #7A706F",
"0. c #7D6671",
"q. c #736F70",
"w. c #7C6E70",
"e. c #737273",
"r. c #7C7272",
"t. c #7C797A",
"y. c #767678",
"u. c #816565",
"i. c #836867",
"p. c #81666A",
"a. c #826B6D",
"s. c #886C6D",
"d. c #8A706F",
"f. c #85706F",
"g. c #816770",
"h. c #846D72",
"j. c #896E73",
"k. c #866E79",
"l. c #847374",
"z. c #8A7375",
"x. c #827977",
"c. c #877079",
"v. c #8C7579",
"b. c #857A7A",
"n. c #8C7A7C",
"m. c #917576",
"M. c #927877",
"N. c #91767B",
"B. c #937B7D",
"V. c #997E7D",
"C. c #89817F",
"Z. c #9B807F",
"A. c #95807F",
"S. c #7E7E80",
"D. c #8F7783",
"F. c #8F7E80",
"G. c #947D82",
"H. c #997F82",
"J. c #957E89",
"K. c #9A7F88",
"L. c #8E8282",
"P. c #8C8688",
"I. c #948384",
"U. c #9B8385",
"Y. c #9C848A",
"T. c #958A8A",
"R. c #9D8A8C",
"E. c #968488",
"W. c #9D8591",
"Q. c #9F8892",
"!. c #9D9292",
"~. c #A08585",
"^. c #A28887",
"/. c #A0868B",
"(. c #A38A8D",
"). c #A88E8D",
"_. c #AA908F",
"`. c #A38C92",
"'. c #A98E95",
"]. c #A48D99",
"[. c #A68B94",
"{. c #A59294",
"}. c #AA9295",
"|. c #A69299",
" X c #AC949B",
".X c #AD9A9C",
"XX c #AC9897",
"oX c #B1969E",
"OX c #B29B9E",
"+X c #B09695",
"@X c #AD95A1",
"#X c #AF98A1",
"$X c #B39CA3",
"%X c #B99FA7",
"&X c #B69EAA",
"*X c #B59BA4",
"=X c #B6A1A4",
"-X c #B9A1A6",
";X c #BCA4AB",
":X c #BFA8AD",
">X c #B7A0AA",
",X c #BDA5B2",
"<X c #C1A6AF",
"1X c #C2ABAF",
"2X c #C2AAB2",
"3X c #CAB3BA",
/* pixels */
"! ( ! ! ! ! D ! G M w m w ; 0 : t 4 y R C y d V M y R C / B ( C / ! / G B ! m M m b k b B D ! ! ! / ! B / B b R m M b b M M V R ",
"> > : $ , + @ @ , ; , +     @ + ; + $ $ + $ ; $ > + ; $ : $ > : + ; > $ + ; $ > @ $ > > > > : + , > ; ; 4 , $ : > ; @ + , ; ; > ",
"! ! E ! ` / / o.n.<.6.M M 7.@.~ / ( ! n b / ` B B B X.R B y / <.! ! ` ! ! 3.6.l.3.7.7.f.c.z.5.! b R B B R R U ~ X.7.X.~ 7.C.C.f.",
"l.v.h.3.X.R ^ 9.I.a.a./ ` v.6.#.{ { <.` / 7.f.X.o.o.C.l.l.<.z.n.1.` <.{ 1.n.c.h.X.X./ n n R ! U X.l.n.z.l.l.z.n...1.../ 7.l.d.f.",
"B.l.7.7.z.l.z.Z.X.7.7.7.{ / d.f.{ ) #.4.#.1.s.j.a.~ ` 1.H.n.m.{ f.f.z.7.6.z.a.7.i.M.z.X.n n / i.` 1.a.6.a.h.a.<.h.3.1.l.z.1.<.z.",
"OXA.o.o.z.f.o.o.d.A.z.Z.z.6.R.A.B.a.j.B.N.z.H.'.}.n.B.U.OXOXOXY./ o.M.f.1.f.f.d.A.A.A.C.A.B.A.B.A.B.B.H.(.%X}.a.} z.z.p.f.z.z.z.",
"Z.s.] o.M.z.d.d.d.d.i.o.o.o.s.] z.1.p.N.z.a.j.N.1.} j.a.h.1.m.v./ o.A.i.s.M.d.M.d.] I X.d.d.u.] { $.1.1.p.H.V.{ Y z.m.[ $.B.N.4.",
"^.^.~.).+X~.^.OXZ.U.+Xd.o.Z.Z.U.H.z.H.(.(.~.H.N.B.M.).(.(.B.(.~.).)._.Z.^.OX^.Z.).M.i.i.i.o.o.i.{ i.B.m.4.V.`.H.'.(.U.(.}.~.U.).",
"u.u.Y } ] i.m.~.Z.Z.V.s.] u.s.i.p.m.' [ u.V.g.j.[ j.N.~.~.p.$.} I } i.i.m.~.V.V.).} u.m.i.Y u ] [ j.m.' Q m.m.Y { m.m.j.K.).K./.",
"} i.' } Y ] u.m.u.o.u.s.i.u.u.u.N.j.W $.p.j.[ [ ' s.s.j.m.p.u.%.o.] I ' m.m.} ] i.s.d.' Y s.s.u.T T [ $.[ } } [ $.Y T $.m.i.W u.",
"V.).V.~.s.m.m.m.Y 7.M.V.s.} o.i.4.$.{ N.K.V.p.s.g.g.%.m.H.g.N.^.V.M.d.d.N.i.u.s.m.d.V.s.i.M.j.$.g.p.V.'.K.j.N.(.H.j.j.H.H.u.u.K.",
"] } Y 1.] Y n q u i.z.o.~ ] } } ' { 1.a.u.Q W } ' ' I Q } ' #.p.Y o.] ' g i g { M.' Y Y T I I ] $.[ $.u.$.u.p.$.W $.{ I q q Y s.",
"H.B.p.^.H.z.1.$.j.B.z.4.m.U.N.p.U.(.(.H.z.z.U.(.N.oX(.B.H.~.^.z.N.(.z.a.p.p.H.H.z.s.N.p.{ s.N.Y.N.u.[ $.z.U.V.{ U.H.j.{ [ v.H.H.",
"$.p.[ z.$.~ [ 1.j.p.{ { a.{ U [ U U { { $.p.N.a.} $.[ p.a.~ ) $.<.m.[ ~ { { z.h.Y 1.Y.N.4.a.4.4.j.$.$.s.h.a.4.<.N.$.) ] $.j.j.%.",
"#.v.c.B.6.a.h.h.c.n.k.h.4.M M N.a.1.B.U.R.B.I.a.1.) W h.l.~ <.G.a.U.h.l.k.#.n.z.h.1.g.&.) <.) ~ { ) 4.h.{ I { a.z.1.6.l.1.1.a.p.",
"U.:X:X2X;X3X<XY.}.%X'.Y.[.Y.(.3X$X(.=X=XOXY.$XOXH..X(.B.H.Y..XXX<X3XOX2X<X(.$X XoXY.K.n.}.3X'.$.I.n.B.U.I.R.OX=X:X%X-X=X`.'.$XXX",
"K. X<X%X*X*X3XK.K./.*X[.K.J.].k.K.[.K.@X,XK.&XQ.J.@XJ.k.Q.D.k.&X<X%X%XoX<XH.D.H.[./.N.K. X%X X4.K.k.v.D.W.k.].,X&X,X#X&X#XJ.D.W.",
"c.G.<X;X%X<X<XD./.K.'.[.'.K.K.&.D.J.&X@X&X&X,X@XJ.@XW.].Q.@XW.@X<XOX<X<X%XH.[.oX).*X*X'.K.K.'.K.G.0.k.D.J.].W.&X>X>X,X,X].D.@X#X",
"@X'.<X*XoX'. XN.oX[.'.'.oXK.K.[ [ D.3X@X@X&X&X@XW.#X].;XW.&X].Q.<X'.oXoX'.N./.[.oX/.N.J.(.oX'.g.&X|.&X#X|.3X[.>X,X#X&X,XJ.D.#X].",
"g.g.j.%.$.Q D.g.D.k.p.g.g.p.p.Q I &.J.0.0.k.D.D.0.v.k.n.&.v.0.c.m.$.Q Q v.j.j.z.u.s.j.k.p.u.g.%.c.k.D.D.0.c.1.c.c.@.@.g.k.k.J.%.",
"k.oX[.oXK.g.<XoX'. XJ.D.v.k.D.G.`.(.G.4.0.~ 0.&.6.v.h.v.G.c.k.{.'.$XH.g.%X%X XOXg./.*XoXh.#.D./.K.B.k.z.G.3.Q.}.`.Y.g.H.@X X XG.",
"N.%X*X*XoXk.%X X*X;XK.N.%.%.g.k.h.z.k.R.*XY.$X XY.(.Q.|.$XU.H.;X'.<X XN.*XoX'.<XD.N.k.v.4.$.N.B. XK.#.4.K.a.=X%X$X=XY.R.$X.X.X$X",
"$.c.D.p.g.&.D.N.Y.oXj.%.#.%.[ #.#.` 6.z.H.<.<.{ c.a.4.v.l.a.a.v.k.h.j.$.v.j.(.OXg.p.$.u.{ [ z.N.n.l.U ~ #.{ B.n.v.n.h.z.B.U.$X=X",
"N.v.K.#.%.g.W W $.D.[ { %.v.4.{ 1.W p.~ { ) ` g.1.~ Y l.W n.N.l.(.[ { #.~ E a.g.p.[ g Q [ ~ #.~ a.v.a.h.<.v.z.v.6.) ~ #.U { n.<.",
"g.g.#.&.c.z.v.k.&.4.g.4.k.<.U z.<.~ 6.z.h.a.4.(.1.M a.4.1.1.a.4.~ s.a.N.1.z.z.<.A.7.z.a.6.N.7.~ h.a.4.Y <.B.p.z.1.a.z.l.) a.X.z.",
"%.p.#.k.Y.K.n.4.4.p.D.Y.|.Y.&.p.&.a.`.}.XX}.a.#.z.<.<.U ) <.<.h.{ a.n.|.I.a.a.4.7./ <.N.n.z.v.a.<.a.1.~ ` { <.{ <.c.R.(.N.I.<.{ ",
"I.c.) <.l.z.n.6.n.n.I.n.6.#.! ` ~ ! a.(.{.I.4.z.' 1.~ ~ a.U.h.I.1.a.l.z.l.` l.B.R.R.7.X.<.7.I.<.` a.1.l.z.z.(.a.p.V.G.a.~ 6.h.(.",
"` ) E #.6.6.c.#.c.a.h.<.M n n n Y ~ l.U.B.#.W ` I <.` { { a.~ U b { f.7.z.7.z.7.f.l.X.R M ~ 7./ { ) U { { <.4.y f X.z.I.p.z.p.l.",
"(.Y.B.n.X.U ! n U B ~ l.G.E.I.7.n 3.k.#.` 4.3.~ #.l.z.B.4.R.XXY.M.C.X.y B b ~ R U R f.A.f./ B f.<.) 4.4.k.}.R.z.H.h.U U U ` Y M ",
"1.6.6.6.B M 6.7.6.<.R ! ~ U M f U { ~ ) a.U.XXY.#.4.l.h.E { z.#.1.X.R / z.X.o.7.U b / ~ / / t ~ 1.{ v.#.) 6.{ &.6.) t ~ { 6.1.#.",
"7.B.XX=Xn.1.n.a.<.a.~ { <.! 7.n.h.6.4.'.:X X X(.4.K.`.[.`.K.$X{.1XOX7.7.z.7.` f...i./ y / z.z.6.h.U.`.H.G.R.`.$X$X`.4.K.k.#.#.4.",
"6.n.}..Xa.` l.7.n <.X.U.OXn.f.z.v.G.n.`. XY. XQ.a.[.`.E.XXG.`.|.R.XX7.X.7.7.R ~ X.{.(.I.A.f.B.n.n.#XY.E.`.R. X X Xn.Q k.k.@.@.1.",
"/ h.z.<.! ) B w M B b v.Y.I.0 ! B M <.G.h.! D / U g.v.R.(.#.~ h.z.X.! D B y f B b z.|.7.n ! ~ M <.n.R.{.a.! l.B.z.#.{ f d y ! n ",
"` ! ` <.~ f ~ n.I.n.6.` 6.h.M B B ! / { ~ B U { ` ! #.H.h.[ $.~ / 2./ M ! c.E.B.<.! z.-.b M r ) ) ` #.v.l.` #.! ` B B m <.k.n.{ ",
".Xh.7.R.`.c.l.(.R.(.$X6.7.! { ` B <.6.3.<.) M ! U M #.(.'.`.).4.7.I.R.n.v.{..X{..X<.B.c.7.3.b 6.n.c.w.R.`.E.n.@.I.U.I.l.`.XX=X$X",
"7.3.6.6.<.! ! { h.! <.` v.6.6.B M #.` ) <.` #.A.U.`.a.4.U.H.k.a.f.<.` / ! I B ! 7.( z.6.3.v.#.<.z.6.h.n.n.n.n.a.<.3.<.W { B ! 2.",
"3.z.l.) ! 3.h.3./ b n ( w.I.U.#./ <.@.<.h.#.<.`.n.R.<.W <.<.<.4.v.) D 7.v.<.B M M <.<.! M ` 7.U ! B ! ` ) <.5.6.<.` ` #.z.E n E ",
"I.v.<.( ` 6.6.) M <.6.c.<.I.!.h.( ` #.h.l.` ) n.4.a.z.n.4.c.^.z.<.` ` 6.6.<.` { <.v.3.{ B ! n.r.l.<.h.6.6.z.z.v.1.) <.6.b.! ` c.",
"6.6.l.3.! b b E G 7.` 6.5.z.l.B M k r b b b ` n.OX|.U.v.) [ v.6.6.<.! b w r ` b.@.` ( ` ! / n.I.C.r.n.l.7.c.9.l.` D ~ G B d ` l.",
"6.:./ ` ~ G B ! ( <.` 5.` B -.` ` ( / D r r B ! ~ 6.E b ! U ~ #.4.G B ! / ! ( <.` B ( ` ! D n C ` U ` B k ! ! <.<.E G M B ! 2.! ",
"` l.6.r.` r B B R.9.7.5.6.l.r.z.T.{.6.C 6.l.<.b.#.n.n.l.4.Y.l.6.1.3.B E N ! E.R.I.X.<.l.9.z.m ! l.<./ R z.R.r.6.6.2.b b B n.T.n.",
"G b b ` <.M b m ( m B / { 5.6.f.l.5...6.6.I.I.I.D 7.v.w.U ` n M ` r.<.m 0 b ` ! C ..2.M m X.C / ! b k w k B b ! <.@.! r b ` / ! ",
"l.` 5.r.l.<.-.z.l.( C C ! ! ( ! ! V r G b C b b B ( z.B.<.a.6.v.6.6.l.2.6.I.l.! ! 2./ k ..b.6.( B m <.9.-.~ ..n.7.w.n.-.6.6.! _ ",
"` 5.R.I.9.2.C ! ..R C 6.n.C.C.5.( l.! ..6.3.M b.6.( <.6.<.3.1.6.L.b.n.<.! C b ..a.x.6.5.{.I.T.I.! ` I.T.l.2.6.b.x.r.l.b -.-.B 2.",
"R C ` m b ` <.C.9.7.^ ` / C X.! 5.l.k e b N B !.z.` ` ` <.o...X.7.G B B 9.A.2.9.x.<./ ..E.x.l.9.2.3.x.x.-.` 6.X.<...<.C l.l.2.x.",
", 0 C ` C e t ! M ^ B C k d 6.9.C B ^ ` C d d b r r B b ..X.X.f.m @.` k b N r b ! ( 3...` C V t d m b ! / ..2.C C M b b ` ! U C ",
"x.b.C.b. .t V ` N 3.5.I.b.2.r._ ..C C k R ^ l.x.2.l.x.! z.C.f.C.b.b.B 4 N ( ( ^ e ` {.L.B C ( 2.! ` G 3.L.C.C.9.C.9.k m b k G B ",
"9.l.( ` 2.r.T.C.T.E.5.x.l...3.k ^ 7.9.J .XT.A.E.T..XR.B n.A.2.7.( r...l.!.C.I.!.3.e C _ C !.L.C.L.b._ 3.C.6.6.9._ 7.G E.P.n.T.x.",
"9.r...l.I.9.2.6.b.r.x.2.2.6.-.x.9.x.C.C.x.C.C.f.9.A.C...9.C.7.C.-.5.L.2.6.5.w.b.5.9. .! V r.x.5.9.X.2.r.F.b.5.2.5.x.b.9.6.b.x._ ",
"-.2.!  .:.F ! 2.9.8.l.2.2.:.C ( X.5.8.o.......^  .^ V ^ C.5.C ..` 2.r.m _ 2.r.r.9._ d k e ( G D s N Z 9.r._ >.` b C C F -.l.9...",
"V -.2.r.w.D G :.G P F V F ^ ! 2.^  ...X.2...^  . .^ V C  .C C 9.G :.w.N _ 2.@.D ..F z ( _ -.G _ m J k ..@.b 5.5. .-.Z V -.r.:...",
"2.P.T.T.!._ G ( ! G b w d V N _ ..^ ^ ....C d e w V C C R  .9.!.{.!.T.G G J S N ^ ! G ( S d e m N V w C +._ b.P.|.!.r.G ^ N e b ",
"V G S m <.z S D D J S S F S G ( Z d k  .9.9.8.2...X.2.2... .k d N V J k G S G :._ :.F w e w j G e e J _ @._ S @.N @.J S ^ G ! r.",
"e s e e q.@.w.q.D _ N D ( ^ -.5.r.2...8.x.x.8... . .9.C.9.N e V v N e.w.l.+.D -.5.r.-.V @.2.5.q.G _ T.r.G N , k k +.3.-.+.J J 5.",
"z z z k q.S J N =.>.S S S z H J G C Z C ..>.2. ...5.C.x.P 9 4 v k z _ S O.S J q.5.y.:.D q.+.S z F :.P.2.z z s G s J ;.@.+.+.-.5.",
"3 e s 3 +.s V s j D k N S s N z p k s p k C P Z Z  . .Z k k k 4 8 k L s z k k S z G S 6 S w 3 s e _ :.F e 6 8 6 s k S k 6 z S S ",
"P y.>.-.F.J H ;.L _ L =.G L l P P P  .P Z .. ...P v  .P 8... .y.:.:.e._ +.L >.L _ c _ P F G 8 G L S J :.t.S +.;.:.>.:.c +.L _ F ",
"_ e.:.O.>.S L >.e.>.:.+.J J k P v Z ..|  .8. .P ..Z >.,.y.,. .8.:.5.q.H +.=.q.-.>.H :.O.P F e P N L :.;.e.;.t.e.=.:.=.S 5.;.:.:.",
"H H L L O.h H O.K F L x A j 6 j F | | v Z | | | v j F F ,.P A P S O.H 8 J O.=.L =.c L F z j 2 j A O.;.+.+.H O.O.=.;.H c >.O.K :.",
"j a A K H 7 A A j 8 s < a 5 8 x x Z Z v c P c p v p v p P v p p K =.A 5 H A 8 = 7 * 3 5 5 3 * 3 3 5 8 A A 7 h x L H 8 8 H j < a ",
"A l K O.K A e.e.K j a & 3 6 x O.Z F Z Z Z Z F c 8.=.P Z ,.H Z A O.*.K c S.y.L j 7 * < a c c a l c A l =.;.H H A *.O.A *.t.;.j c ",
"j 5 7 = < 5 ;.;.A j j < 5 3 3 l p = o & & # 9 p v p = * p 2 p 9 < - < 7 >.*.F j j 5 3 j c l a a 5 j 3 a a h a - 7 5 7 O.>.*.h h ",
"K K A 5 2 5 O.x < 5 2 5 < < # = & & & p p = p h p p 3 = h p A H F a a a A 7 7 2 5 * # * * X # # O * X < - h F A 7 < 2 H l x a 7 ",
"O.>.=.a a - < . < < - < - 5 * a 3 = & p p = x | Z | c v Z h *.>.O.7 7 7 5 # - < * # O # # X * 5 # * O 7 a x O.e.A 7 2 a # # - - "
};
