/* XPM */
static char *rockfloorbig1738153521[] = {
/* columns rows colors chars-per-pixel */
"64 64 75 1 ",
"  c #1C1C1E",
". c #1F1F21",
"X c #232325",
"o c #262628",
"O c #2B2B2D",
"+ c #2E2E31",
"@ c #333335",
"# c #363639",
"$ c #3B3A3D",
"% c #3E3E41",
"& c #403F44",
"* c #434345",
"= c #464549",
"- c #48474C",
"; c #4B4A4D",
": c #4E4E51",
"> c #504F54",
", c #525255",
"< c #565659",
"1 c #58575C",
"2 c #5B5A5D",
"3 c #5E5E61",
"4 c #605F64",
"5 c #636265",
"6 c #666569",
"7 c #68676C",
"8 c #6A6A6C",
"9 c #6E6E71",
"0 c #706F74",
"q c #727275",
"w c #767679",
"e c #78777C",
"r c #7A7A7D",
"t c #7E7E81",
"y c #807F84",
"u c #828285",
"i c #868689",
"p c #88878C",
"a c #8A8A8D",
"s c #8E8E91",
"d c #908F94",
"f c #929295",
"g c #969699",
"h c #98979C",
"j c #9B9A9D",
"k c #9E9EA1",
"l c #A09FA4",
"z c #A2A2A5",
"x c #A6A6A9",
"c c #A8A7AC",
"v c #ABAAAD",
"b c #AEADB1",
"n c #B0AFB4",
"m c #B2B2B5",
"M c #B6B6B9",
"N c #B8B7BC",
"B c #BABABD",
"V c #BEBDC1",
"C c #C0BFC4",
"Z c #C2C2C5",
"A c #C6C5C9",
"S c #C8C7CC",
"D c #CACACD",
"F c #CECDD1",
"G c #D0CFD4",
"H c #D2D2D5",
"J c #D5D5D9",
"K c #D8D7DC",
"L c #DADADD",
"P c #DEDDE1",
"I c #E0DFE4",
"U c #E2E2E4",
"Y c #E6E5EA",
"T c #EBEBED",
"R c #EEEEF0",
/* pixels */
"70ehtttdttt>>74%t-#&>>1t4414tttt14tyytyyttt41tt&41&-->17747447y7",
"6f0tVKVhVdhVhtthnyylNNNnhcnlyytttyttcGSnNlyNytyylyylnCNnylnlyty1",
"7MnmVFCIGGKICnVGGKKKGSSCCCSSSGSn>nNnGGGGKGKICcNGGKIKGGSCGSGSGGGy",
"txmAccVVVCSVVGGVNGGSCCCSNSKGCSSnthnCnhNSCSSCCGKSNGGSNCCSNCGCCCSy",
"9lxckcnlncnVVCSVSSSCSGKSCSGCNCNcthccllccncnNCCSCSSCCSGGGSGKCCCCy",
"3MccVbkFVnVSSSSGGKGSSGSCKSNNCGSl-nNnCnlNCnCSSSGGKGGSSGSCGCNnCSN4",
"7cdkVVkGVnVVVSGSNSGGCCSSCSSNclll7chyCnnGCCCCNSGSCCGGSCCGCCGCNll7",
"3cMcxCFCGnnVSGKGGGGGGGGGSNNNnncy1lncnCGSGnnCSGGKKGSGGGSGGNNnNnl1",
"1cnyVKKCSSVSGIIGGKKKKGGKGGCcnNnl1hchnGGGGCNCGKKKKIKKKSGIGSGCcNC>",
"1yttycCSccnnhttcdtlSCCCnnnlttyhy1yttdnNClcnNlttyyylKSCGNnccyyyy1",
"11#%1>>4>1411tt1tttpyyytt>4t4-&->4>#-411>tt->tttyyyyyyyytt414-11",
"-&o&4t14t1t1>&-1>44>4444t414t>1t171-144>41>44&&4>y4>774744141&&-",
"yyycVNllnNVVlylVl4tcdthhthhdyllldllhlncllcnCcyycyttyyyyhhlychyly",
"lhcyyyyyycyhcSSNStthhtdytthhhyyydhhdyddyycndhNSSSyyccyhyyyylylcl",
"ttyyyccVnyyccyynct4tyhdtlyttt>ttytyydhclnyydllhhny7tlhyhyltytyy7",
"ttyyylhyllyylnnnn4tltdlhydytttt1t4ttyhlhchdhllcnny7yyycyyltyyy4y",
"tyyttynlfjfafzvjza2fzjzahyyyyytt8jfrrfzzjffafjzzlc4ygjjfaaiutwwr",
"ttttyyyhfaaffgjjaa5faajfyyyyyy4tqaaaaaaaaaaufjzfyyyysggftuuuuwqq",
"ttttyydharrafaffvf5afjzgyyytytt1qrqaauafauaafffaNy4yfjjgraitir89",
"ttttyttt888tauuaju8fgjjahyytttttuuqruuatq88aauuacyyyjxkhagirtq69",
"->&->%o .XO+@@##*:1r885841>-&%--,2;;,*$OOoo@$#$;144y0788582;;;;,",
"##+&>%Oo@$$@+@@@**%,%*=,&%%#%@%%$*+$;@oO@**@@$$####&&&&&**$@@***",
"wttykdlcfffar9rukt8q8trtttyttttt8aqqjffzaffr8558yy47yyyytwutqrt5",
"rlcnVFKCLHDDmzvDAVZJZFZDVCSSSnnl2vzfZLDZLZDDBfzZCCCCGCCFZmADvvxr",
"inmBbBZHDDZDDDDDCKGAGCCCVFCCCJGh8mmZmmDHDHHHDDDDDHHDZZZZmZDZHHHf",
"tmvmxxzmmBBBZBZBVSCVCGFFVGCCVCSlrmzmzzvmmBBBZZDZDHDZDDZDZDHBZDDr",
"8vxxvxzMvmBZDDDHGPFCFCCCCCFCVVVd2zjzvzzvvvmBBZZDZHZBDHZZZDDmBZBq",
"9MxxMBmHBVVZDDDDCSASGGGCKFVVncVh2mzmBBmZZBmZDDHDZLHZHHDDDZZZZmmr",
"qmzzMBMDBmmBDDDHFSFSSSFFVVVVccly8mzzmmBDZBmBDDHDZHDZDDZDZmmBBzz8",
"8xjxZHDHDBBDLLUTYPPPGSJJCCVVVcVy2vjvBDHLDZBZHHLLLLLLHDHLDDDmvvz5",
"8gafvDFHDBBBBvvmMcVGFFGFKCVyyhcl2fajmDHDZBBZZBBZDBDUHHLHZDZzzzv8",
"<9,:<wurrqrrq88q00dbcxkytttt774%2r,,2ufauuuur58qr5ammzzfaau988q;",
";Oo$2,*;2;,5,;,,,q2228,55,22;*$o*$+$,*@;,;;,;,2,,r5,55525,,2,*$*",
"tuuujvjfjzmvaraza58aurrufffjfaaqqr8qjvfazjzva8qjr85uuqrrauaffauu",
"fzjafffajzzzvvmZZqrBfaffuufjjjjjfzzfjjjazzzvvmmZBrrvjuffaafjjfff",
"ruaaffjzzfuuvmvvBrqfrafuuuaatrqquuffuafjfjutvBvzZu8juufaaaaaauur",
"5qqrufjvjjaazzzzzr5uujfaffatrq88q8ruajvvzjufzjfzvu5tuffaaaaurrq8",
"rfftajjfffaafjzvzu8ajzffaarrutrrqaarrfjfjfffjjzmza5ajzfjaaaurrqq",
"qaarafffjfaffzzfjr5fffaaafaruq8qqffuuffjfffuazvfja5aajafuaauurrr",
"rtuuauufaraaafzfjrqauzzjqaurrq8qruqufarfftufaajfja8arzzfruuur88q",
"qutuuufuq8ruffaavf5fjzjffjurrrqqrrqraafaqrtaffffzf5ajjvjaaataqr8",
"5q;*8,@$@@$;*#$5,55aurrr885552582r2,q2$;$@$,2;;25q2aarrqur855;5,",
"oOo+@XXXoOOoXo@+@$@;$@@$$$$$OXo@@*@++oO+XO@Ooo@O$*$2,*;***$@@@*$",
"8qtauqurqr8,,25,8,$*,5555;*,585,25258rfaar825q5*52$;2252558255t5",
";urtBZBZmzzzfqrjvjfjmZBvzvZmaruu8fuaDDBBmmBBfqumBvzmZZZBBmBvjaa,",
"uBBmZDDDUHLLHBZDDDLDHZZZZBZDZHHvumBBDZDLUDDHHZZHBZDZDDDBmmDDDDDf",
"9jBBzvDZBZBBZDDBZDLZZZZHZZDZBDDzuzBmjjZZmBZZBDDZHDHZDBZZZZHZZZZq",
"rvvjvzjvvmBZZBZDHZHmDHZZZZHZmDHjrvzjvvjzmmBBZZZZZZHBDDDBDZDBBZDq",
"5mzjmBvBmmBZZZHDDLDBDDZHDDZBmZBj5mzmmmjBvmZZZDHDHDHDDDZDDDDBBvZ5",
"5mvvvzvHDBmBDHHZHBHLZZDZZBBBmmvjqmjvmZmLDmvBDHHZZDDZZDHHZmmBBzv2",
"2zzvBDZLZBBZZDHHZHHZDHHHZBBBvzjfqmjvmDBDDmBDDZHLZLHDLHZDDZBBmzz2",
"2zjjmLHDHBmDLUUHUULHLHDHHHDBzmmj2vjjBULHDBBHHLLHULHHDDHUDHZvzvv5",
",frraBZDvvmvauuffqjHDBZZvzjauffr5a88uvmmfzmzuqrur5zHBZHzzzfuraa,",
",,@$*;*;2,285585r8rfuuu8q522,;*$22@$;**,52,,2qq8raaurur5q525;;**",
";;@2ru9588rq,*,2,52;2522q88r82;;22*,852555q5;*,2;5,,q5,5q55q5,*2",
"fzajjzzjmvBBvzvBz8uvfuffafjzjzzfajfazmvfzvBZzfzmm2rmurjfuffvjzfj",
"fffaffffjfffzmBmBurjfafauaaafaaufffffaafjjfjvmBBBuqvfaauaaaafffa",
"qtutaffzzfufjjzvmr5tuafuaaaurrqqruuaafjzjfaafzzzBu5aaafaaaautrqq",
"5rtrufjzzfafzzzzmu5affjaaauurq885rrraajzzjffjvvmvu2uaffaaautqq88",
"rffuafjjfffajvvjju8jjjjfaaauurrrqafuaffjfaaaffjzzuqffzzfuaaaurrr",
"raaruaafffurujzfju5afjfatttrqqqqqaauuaffffafjfjzju8ufjjarruurqqq",
"qtrraaaautufjfajvf5afvjzaaaurq8q8ruraaafuruaffffva5rfzjjuaaurqqq",
"qqqqurqq2,5uuqqraa5fajafaaurq8qrqrqruurq858rrruufa8ajjfjfaauqq8q",
"2;**;@XXOoOOO@#*$,,u85;52,;*$**;5,;;,*@@OOO$$$**;,,rr52555,,;;;;"
};
