/* XPM */
static char *synth_misc_13_256x2561738153550[] = {
/* columns rows colors chars-per-pixel */
"64 64 226 2 ",
"   c #2B1E2B",
".  c #2C212D",
"X  c #33242E",
"o  c #3A262F",
"O  c #342631",
"+  c #352A35",
"@  c #3C2D35",
"#  c #362D39",
"$  c #3B2F39",
"%  c #3C2631",
"&  c #3D323A",
"*  c #3F3037",
"=  c #2E2430",
"-  c #43262D",
";  c #422E34",
":  c #492F33",
">  c #443136",
",  c #4C3335",
"<  c #44343B",
"1  c #4B363A",
"2  c #46393E",
"3  c #4C393D",
"4  c #523635",
"5  c #5A3734",
"6  c #5C3A37",
"7  c #513739",
"8  c #533B3C",
"9  c #5B3D3B",
"0  c #573836",
"q  c #54322F",
"w  c #643D36",
"e  c #6A3E35",
"r  c #623F3A",
"t  c #713E33",
"y  c #713B2E",
"u  c #5D403E",
"i  c #6E4036",
"p  c #63413D",
"a  c #6C443C",
"s  c #6D483F",
"d  c #744236",
"f  c #7C4535",
"g  c #74463A",
"h  c #7A4739",
"j  c #74493E",
"k  c #7C4A3C",
"l  c #3F3640",
"z  c #423740",
"x  c #463A42",
"c  c #4B3D42",
"v  c #4B3F48",
"b  c #463A44",
"n  c #523E41",
"m  c #4E4146",
"M  c #4D424A",
"N  c #544144",
"B  c #5C4343",
"V  c #54454A",
"C  c #594649",
"Z  c #56494D",
"A  c #5B4B4C",
"S  c #5E4847",
"D  c #554B52",
"F  c #5B4D51",
"G  c #514650",
"H  c #5E5154",
"J  c #5C5259",
"K  c #575058",
"L  c #634542",
"P  c #6B4741",
"I  c #644946",
"U  c #6B4A43",
"Y  c #634C4B",
"T  c #6B4E49",
"R  c #734C43",
"E  c #7A4D41",
"W  c #65504E",
"Q  c #6C524D",
"!  c #765046",
"~  c #7B5145",
"^  c #74534B",
"/  c #7A554A",
"(  c #7C594E",
")  c #77584F",
"_  c #614F51",
"`  c #635253",
"'  c #6B5553",
"]  c #6D5856",
"[  c #635559",
"{  c #65585B",
"}  c #6C5C5C",
"|  c #6B5758",
" . c #715652",
".. c #735A54",
"X. c #7B5C53",
"o. c #725D5A",
"O. c #74625E",
"+. c #7D635C",
"@. c #7F6055",
"#. c #6A5E61",
"$. c #655860",
"%. c #6E6264",
"&. c #6F6669",
"*. c #746463",
"=. c #7B6562",
"-. c #766861",
";. c #7D6965",
":. c #766A6B",
">. c #7B6C6B",
",. c #726769",
"<. c #796E71",
"1. c #766D70",
"2. c #7D7274",
"3. c #7E757A",
"4. c #7E797D",
"5. c #7E706E",
"6. c #824634",
"7. c #844836",
"8. c #884935",
"9. c #824B3A",
"0. c #8A4D39",
"q. c #89503C",
"w. c #855C4D",
"e. c #845848",
"r. c #845F52",
"t. c #885E51",
"y. c #846155",
"u. c #8C6355",
"i. c #81655C",
"p. c #8B6A5D",
"a. c #88675A",
"s. c #906958",
"d. c #8D604E",
"f. c #A0715C",
"g. c #846B63",
"h. c #896F65",
"j. c #836E69",
"k. c #8D7266",
"l. c #8C756C",
"z. c #88756C",
"x. c #90756A",
"c. c #94796C",
"v. c #977667",
"b. c #837574",
"n. c #897771",
"m. c #8C7C75",
"M. c #817779",
"N. c #847B7D",
"B. c #8B7D7B",
"V. c #877971",
"C. c #937E73",
"Z. c #9A7E70",
"A. c #8E817C",
"S. c #948277",
"D. c #9C8375",
"F. c #92827C",
"G. c #9B857A",
"H. c #9B8A7D",
"J. c #96887F",
"K. c #A48979",
"L. c #A7917C",
"P. c #B1917D",
"I. c #B08D78",
"U. c #897F81",
"Y. c #877F81",
"T. c #8D8383",
"R. c #8E8689",
"E. c #878081",
"W. c #928685",
"Q. c #948985",
"!. c #9C8D83",
"~. c #958B8C",
"^. c #998E8D",
"/. c #918788",
"(. c #9F9083",
"). c #9D918D",
"_. c #978E90",
"`. c #998F90",
"'. c #9C9393",
"]. c #9B9495",
"[. c #A18F82",
"{. c #A49284",
"}. c #A99685",
"|. c #AC9986",
" X c #A4958B",
".X c #AA9789",
"XX c #A6998F",
"oX c #AC9B8B",
"OX c #B29A85",
"+X c #BB9D86",
"@X c #B19E8B",
"#X c #B49785",
"$X c #A19795",
"%X c #A39896",
"&X c #AB9C92",
"*X c #A49B9A",
"=X c #A99E9C",
"-X c #A09798",
";X c #B29E94",
":X c #B3A18E",
">X c #BDA28C",
",X c #ABA19E",
"<X c #ADA296",
"1X c #B4A493",
"2X c #BAA692",
"3X c #B3A59B",
"4X c #BAAB9C",
"5X c #BAA997",
"6X c #BFB09D",
"7X c #BDB2A9",
"8X c #CAAB92",
"9X c #C1AC96",
"0X c #CAB29A",
"qX c #D6B79A",
"wX c #C9A78C",
"eX c #E3BC9B",
"rX c #C6B8A9",
"tX c #D3BDA5",
"yX c #DDC4A4",
"uX c #DBC6A8",
"iX c #DBCBB2",
"pX c #E4CBAA",
"aX c #E7C8A6",
"sX c #E9D3B4",
"dX c #EFDEBC",
"fX c #F6D9B3",
/* pixels */
"w Y N m Z m V C C c 2 $ N N 9 6.k W B u u 6 w 7 @ j p A.-X~.'.2.a 6.U C 2 E | ]._ f ..*X/.~._.].<.B V v c p L u u > Y wXa < L k ",
"0 & 8 8 8 B 1 < < 2 c < > $ U 7.k u 8 p f h d 9 x L p B.*X/.^.<.3 h h p u p ` ,X` 4 ] =Xb.i.x.k.o.9 9 ; * 3 d f 6 2 T I , + p 7.",
"a N S 4 # u 4   O N Z X.V % ^ 9.j Y ' P k U u S.&X< 8 Q.*X~.].>.6 h 6.6.w d N } Z < F =X<.8 / r.B X.| ` m & 3 N B c x N u & 7 9 ",
"k 9.P O.V.D.K.V.*.7 z.>Xm.; ^ e.j $ & & 3 ` ` I A , > N.$XT.~.b.E E 7.h h f 3 1 > > 3 C x , K.wX}.|.1X1X@X2XXXXX.XXX.X XXX}.).>.",
"L 8.e h.S.G.H.!.5.> Y A V < N g i I Q Q p , 7 7 N ` Z N ` A C x 2 r a a 9.7.d & n I P T I p c & 8 C A Z A A A Z A D A Z Z F Z Z ",
"L f h e 1 < 1 3 8 B G.{.(..X).B j E ^ ! 9.i p g C.1XoX}.}.L.H.&XV 2 B s k 6.f a I n , 2 8 s T L u 3 > @ u 9 * 1 1 > 1 3 * > * 1 ",
"! f k k 3 2 u L P 9 B N C C Z 1 N N 3 1 1 > * > N Z ` | } } } ` Y 5X;.d 9.9.k g _ N./.2.B g k 7.d 1 Y C ..S x C N N Z n , 3 B Q ",
"1 r s R u c U j 5 2 C.m.C.b.O n N.3.4.4.4.W./.2.3 Z ~.^.'.'.).o.: A 1 q f 8 < @ ` %X`./.U 6.k k d 8 !.}.H..XoX}.{.}.1X2 @ B s 1 ",
"# 8 k p.k E k 8.e 1 ;.O.;.:.> H %X_.].].'.'.).R.I _ %XW./.W._.j.W C C D ;.O.> > ` *X).E.B k d w k a 8 c c < 2 1 1 2 V 8 3 3 9 > ",
"I P j Q 3 i 7.f j N , S c > $ Z =X_.^._.^.~.'.Y.N x x x < 2 2 | -X'.-X-X<XJ.< 2 | *X'.E.N g 9 3 f d < I 1   O X . . . a T 4.3.` ",
"k k f d < n 7.g I 8 F %X%XB.2 _ =X/.R.R.R.R.~.b./ / @ O + % O F -X/.~.b.C B 2 4 ] =X'.E.I 7.p a 0.f A W.Q.U.W.F.Q.!.;.s ' ,X'.O.",
"s 6.7.7.7.j f w 3 4 ` -X'.2.1 > c c c N C 8 c c ! e.k L L N & $ V Z Z _ R Q 2 2 ` *X^.R.A a k f L d  .].~.'.^.m.j.>.) u V { [ c ",
"B 7.k 7.6.f d 1 & w ..=X].2.8 $ + = N Q.B.N.N.Y g h 9.g a C.}.{.!.!.(.(.}.oX:X X1 x m M 8 P a e.Y g ` *X`.[.Q , 3 < n n G.H.H.&X",
"9 h j 9.7.f P I Y j ` ].~.b.n c n 8 ` ]._.'.'.' f f k g 9 Y A F F F D F V V _ Z 9 1 , > U 8.j s 9.h 7 N c c n c < U I S I F A ` ",
"Y  .T B p f E I I p 2 F H ` N c i f ' =X~.~.~.} I f 3 3 8 < 2 > # + > m N + > > B k 7 u a 7.d p / n N m O $ 1 # + 9 B 8 I C A C ",
"qXqXpXi., 7.6 & & 1 W ~.'.'.'.%.g 6.] =X`.~./.g._ a 1 3 {.{.[.{.L.!. X.X.X&XA.> 1 E y.3 ^ s.u. .n S.pXpXqX&XQ. XQ.n > > I.aXqX8X",
"Q +...w.p a 2 Q ] N W ].~._.'.%.p i ] *X'.^.^.] d R k 6 Y n 2 n A A C A D F A > 1 u ! ;.:X|.@X4X*.=.#Xa.D.rX,X,X,X, > 0 I Y S C ",
"Z Z u I 8 & # X.qX8X}.&X).Q.`.:.1 9 ` *XW.R.~.Y 9 3 > Z m.b.m.m.S.A.B.b.V 9 u N < < < u S C C H c , 7 ; N |  XrX Xn x P ^ x x c ",
"}.%Xi 9.i k.XXN W V Z m M m m z N e.1 b V Y v c A E.#.H *X`.-X-X].].*X-X] f f a u N ' u Q s 7 3 1 8 7 c , _ W.uX XT ^ P K.8X}.L.",
"C H p f i Q v.4 u 0 2 & @ & & < 8 9.g , n..X{.c ` ,X2.H *X~.W.T.W.W.R./.| f 7.k U ^ h * U 0.7.9.h L d a 1 b.$X~._.o.U n u B N n ",
"^.~.W.s.9.0 u ^ k E A u p I < j k 7.8.w Y ` H 8 ` =X2.2 C H b c c c x < 2 j 7., $ j k N d 7.d 8 L 3 9.6.i T.*X~.'.#.9 N !.^.^.!.",
"B.E.E.T.v.p > L a j ! ^ 7 Y 1 p f k f f d i 8 s 3 z < u P u u 1 > - o # < E 6.i u g 7.k 7.6.w & U R 9.9.g W.*X~.'.*.t ..*X`./.M.",
"x ; > * Q I + # 8 k 9.f./ A 2 < 8 ^ N a k E g h 6 2 1 u n ^ a.y.' 1 c c 1 u d 6.8.6.f h f d p 3 9 s g 9.w Y.=X~.'.,.t ..*X^./.A ",
", =.T.T.!.!.A.@ 3 a P w.w.I !.oX9XpXuXp.w N 2 1 , @ * @ L ).oXoXoX@X%Xn S A W U j f p N e.f 0.4 c m n N u M G m V b d ] =X`.~.' ",
" X X~./.~.h./ c N 1 8 ; 1 1 Z F N Z.k.w.4 Z N.W.Q.W.Q.^.>XF.o.` Z ` A 1 !.}.%XW R d f B I U ^ ` ).'.].#.p 7 @ > o % w W ].~./.X.",
"o.#.` V C B L a a n B ' N.T.M.A N 3 p ~ a | -X~.'.'.'.'.}.;.^ [.H.H. Xm.1 2 & 3 k 7.d ; > B i ` -XT./.,.d 0 N p.Z x M Z ` ` D m ",
".X.X5XC.o < 8 d 6.6 R  .-X~.].` E q.u c < | =X^./.~.).N.Z N u ' ` A J Z 9 W u N E g j 1 p 9.7.3 x c x x d Q ~.$X1X6X5X0X:X}.oXoX",
"c N A V $ n E 9.6.r I ` =X'.^._ , 0 C E.[ F %X~./.R._.;.D.F.> ^ ! a 9 , 1 S 7.g 3 p ( L g 7.f i 1 % > p f ' %X/.B.F C A F V 3 c ",
"A [ A 3 < 3 n 2 1 > , 8 D [ H A E.3.` =X,.2 Z _ V Z Z c T A ; L ~ R k L N B k f Y Q.j.j f f 7.7.p & 2 a 6.] =X].b.9 B u < < Z D ",
",X,X=X2.r A N.M.M.Z T .X!.[.F.A '.).H z c P h e ; + + > p , $ j 8.j j E 9 p g d ' ].1.e f f h k h u & 8 7.Y %X'.2.s ! f 4 A *X].",
"~.R.| C y.i.-X`.'.[ n A D A } N A G c 9 2 g 8.e 8 s r n ^ B > p i k u 8 g 9.h R N F X. .N u.N Q I 9 2 2 p , 2 c 3 X.) a.3 Z -X~.",
"'.~.@.|.|.@X).~.~.] 8 9 e C /.'.4X,., 9.k g 7.d 1 7.h R N J H J M S  .N C B d B B L.|.|.|.}.oX5XF.c 9 9 C B.m.b.c.|.{.L..X} %X'.",
"R.E. .S M V A A b N T u f  .-XR.'.} , g h E k f a f h e.] '.].=X/.' I c 2 < c < 4 B x 2 N 1 < m N , N 8 ` -X'.].` N c N | ` -XQ.",
"> # c a p N p g 8 u u m p ] ,X~.'.C , B I u.Y r 9.f 7.e ' *X~.`.T.3 n c L h.<X2 > C.!.J.S.m.V.A.A A '.2.H *X~.W.] 4 A oX&X8 A M ",
"c A R 8.7.9.f 7.h R ^ }.XXZ -X_./.Y 5 Q XX+X$X; e j L f  .=X`.`.T.B oX>.- 9 Z > , Q ` ` ] O.-.;.A ' *X2.x b m c $ $ c | Z 9 7.6 ",
"k k k p a h 6.6.8.f 9 Q A 3 V Z M 7 p L Y M A 2 a f 8 a ` =X_.`.E.A ] N c F c 2 N *.*.-.O.V.V.:.N H *X2.B 1 + N S.&.B i 3 R 9.7.",
"7.6.B K F ] T f s 2 > O X 1 n o   . $ 3 c O ; 3 g k > # [ *X^.^.U.Y d e ] =X^.I ] ,X$X).).-X'.7Xj.; Z c s 7 > ` *X~.T 7.L S ^ j ",
"^ f ' ].`.`.R.t.W N.W.Q.Q.W.Q.~.&XXXH.>X+XOXi., u E 3 n , b v c z n 0.f C N.1.B > & 2 b V A N F m u u 8 / 7 u 3 Z m n 6.Y A.{.W.",
"Z 0 ' -XT.U.~.A.| ].~.-X].'.).*XsXtX3X>X+X8Xs.: Y ^ 8 p @ $ < < < c P 9.8 $ # B 9 m B > m.}.H.[.!.n > B u p 6.g e 3 8 6.' ]./.].",
"A i > b v x # & A ,X~.~.R.E.N.~.x.A H Z n 3 B $ A ^ , 9 < n 7.h R E j h d g 9 h k ~ ~ 9 Y _ A ] F 8 a X.N 3 L j 6.0 n i o.,X^.'.",
"Y ^ K.K.K.D.>.A H ,X~.'.3.< & 2 > 9 9 !.}.&XY 2 Z ^   n  .u d./ ^ ^ ^ ^ ^ P n f 7.j U s 8 I 8 3 2 p 9.j X.oX).6 9.r $ 1 ` %X^.'.",
"n Q g.P.#XK.|.5.V *XQ.~.V.8 p u B P 8 F C F 3 9 C  ..X8X2X@X;X5XyXyXyXyXuXpXP.y U x $ @ N 0.6 $ @ i 7.y 8 ' H 9 j T B L 8 M V M ",
"L 1 < | N X $ < x _ H F g.T w.../ r.n n $ # > 8 ; 8 h.h.` A _ _ a.c.c.l.Z.l.X.r Y N.W.>.Y j 8 N & 3 w.^ T Q 8 3 r E  .R p 1 1 > ",
"I X.oXOX|.@X|.@X|.}.}.|.@XoX@X@X@X@XoXoX:X<X3 A Y.Y.Y.W.!.B._ c > 1 0 4 5 9 u 9 ` -X]./.^ d m.oX}.{.{.{.|.S.B > Y s.Q B r V | c ",
"^ s N M A W A _ ] ` A A A A A Z Y A A A Y A 3 _ %X`.%X,XrX XS 1 # O L 9.k 9.5 E 8 Z m l 9 6 I A A Z V N Z u , O.>X|.0X*.o  .oXm.",
"u 7 2 H j 6 4 7 2 N u 6 8 < & p p w 9 1 B 3 u | =X`._.U.%X^.b.z.>.*.n i R r 3 t.k 0 > + 1 3 8 > u 1 7 3 m I p B u C G N 2 u C 2 ",
"..k j j 7.d B T B > j i 3 S.} k k ~ B c 1 j f ' %X/.U.U.B.Y.Q.).rX&X, 1 9 t n u 9 9 L.[.&X*.@ N q.7.0.a 2 U 5 J A.M.A.A 6 7 5 $ ",
" .j 8.7.i 6 S Y w.s h h u h.^ a s B $ 2 & R k N D | ` A A F Z Z F 3 8 I r f d 0 , 8 N V ` c 1 ^ j T u u m s i A.,X'.,X] p c  .` ",
"5X` s f e > > 3 ! j f q.k ^ 3 m 8 B V Z A A a Q /.-XyXsXsXsXsX2X@ + p ^ C r.y.3 I ..# + ; + < c < < & & @ * u E.*XQ._.] T {.OX|.",
"H 3 < ) ..2 2 3 3 n L / Q u ;.oX}.9XpXyXpXtX! ' *XW.&XyX0X0X+XK.> & a d V.@X}.|.:X:X}.}. X{.L.!.{.H.!.{.{.Q.2 b.'.~.=.> 7 Y V C ",
"@ X ' oX}.|.oX@X XqXuXpXqXQ.Y A Z c #XZ.c.p.P ` =X'._.} , < % ; 2 & p f T W _ Z Z S A G D D A } :.O.#.#.-.%.N C H Z 7 N m N M * ",
"=.*.g.-.` | ` ` W o.+.D.k.G.N s : % , 8 N p f Q *X^.~.:.g i < * B u N q.h j U s m K N 0 8 8 A Q.).'.'.XX'.'.*X*X).@ c  X-X*X-XA.",
"^.%X5X4X&X{.[.XXA @ > u C B s 6.4 x r L 8 g 6...=X_.'.3.i a 1 2 s d 1 k 7.h U d ( qX>Xd 7.f Q -X/._._._.M.' W i.n., F ].T.T.T.W.",
"C C A ` A H F F 3 $ A L 8 u j d > z E t > g 6.' *X~.'.2.p g T T 9.j { u f a U 6.u Y Q L y.y.O.*X~.'./.~.b., u / P 1 < C Y A C N ",
").T.b.B.W.*.& * u A i.Q 3 3 N C 1 > 8 1 $ 8 6.' *X_.].b.8 i s 6 5 9 A B h s L f p J.}.XX@X|.}.%X'.*.c Z Z c N d.d.p Y ^.Q.^.!.^.",
"^.'.].].-X X@X1XoX}.|.1X* 1 ).'.>.Z Y.T.N._ d ` *X/./.M.u c N Q V $ a r 3 0 1 k a ` H ` Z S m n M < @ > U ^ I ~ u.f ' =X~.'.`.'.",
"U.Y.m.] F ` m.].3XiXrX>.9 | ].^.b.` -X`.].| f 9 V A D z ...X X:X3X1 9 g 9 B T f / L w 9 r 3 u I 8 3 2 < 3 B 9.4 p f ` *X~.~.Q.R.",
"> + L s.N.=.=.R.Q.sXdX<.i 1 2 V x { ,X~.~.Y f 7.d d p % 8 u 3 3 Z 3 & 7 1 < 2 p 4 s 7.6.j w I ~ 7.p H.H.XX} 4 8 f 7.8 N 2 & $ $ ",
"o.o.m.^.'.'.)._.~.&XfX!.r 4 # & @ ` *X~._.| f 7.k 0.d &.T.T./.,.c n c I j j P E 7 g 7.6.6.6.R k E L ` _ | N : 9 k P j L -.o.O.O.",
":.*.-.#.{ #.{ J { J O.@.1 p 0 B Y 1 x Z m x j , @ 1 3 A.].).%X3.s e $ e 8.7.6.6.g I h 6.6.h h R W a a h e 3 8 E U 3 / k.H.z.O.O.",
"> > = @ 3 < @ 2 N c c C Z Y ! Q  .Y Z N 3 m B C A.,.m T.*X/.`.2.r a 6 j ( k 7.7.h Q E 9.k k ( 2 2 7 R E e r k E a S.@X@Xl.3 $ > ",
"j K.!.H.J.!.{.oX|.yXyXtXqXtXyXyXyXyXpX4X1X3X< F ,X^.N N.*X~.^.3.L ^ R e 3 h 7.a I s U 2 1 1 y.A c 8 < > 7 s k k w S W Y H s 0.k ",
"0 A H ` | ` { [ | oXh.@.h.i.k.c.c.k.OXB.:.W 8 2 x x 2 T.*X/.`.<.P R r 7 8 8.L J < n F N.N.B.XX3X>., m A c 7 9 a 3 Q ^ I w k 7.f ",
"6 A.H.S.A.S.m.C.S./.*.p ^ a B p w , > O + @ 1 1 & & 1 B.*X~.`.b.R r < z 8 d ' ].{ a ' %X_.'._.].*.h.XXG.Q.3 ; 1 > G.8X9Xa g ~ k "
};
