/* XPM */
static char *rockbuildside1738154879[] = {
/* columns rows colors chars-per-pixel */
"64 64 142 2 ",
"   c #080000",
".  c #180D0B",
"X  c #1C1010",
"o  c #221615",
"O  c #2D1C15",
"+  c #271B1B",
"@  c #2A1E1D",
"#  c #30211C",
"$  c #2D2221",
"%  c #2D2825",
"&  c #322626",
"*  c #362924",
"=  c #3A2A23",
"-  c #362B2B",
";  c #3A2D2C",
":  c #3A302F",
">  c #3E3332",
",  c #42332E",
"<  c #413534",
"1  c #433937",
"2  c #4A3B34",
"3  c #433739",
"4  c #453A3A",
"5  c #4A3E3D",
"6  c #4C403D",
"7  c #52433E",
"8  c #4B3F41",
"9  c #4D4241",
"0  c #524645",
"q  c #584646",
"w  c #544946",
"e  c #5A4A45",
"r  c #564A4A",
"t  c #5A4E4D",
"y  c #5C504E",
"u  c #5B4F51",
"i  c #5E5252",
"p  c #614F4D",
"a  c #63534E",
"s  c #625655",
"d  c #685750",
"f  c #645956",
"g  c #6B5B56",
"h  c #625658",
"j  c #665B5A",
"k  c #6A5D5D",
"l  c #6C615E",
"z  c #73635D",
"x  c #6D6262",
"c  c #726564",
"v  c #756966",
"b  c #7B6A65",
"n  c #726668",
"m  c #766A69",
"M  c #7A6E6D",
"N  c #7C706E",
"B  c #7E7272",
"V  c #806F68",
"C  c #81736E",
"Z  c #827575",
"A  c #887672",
"S  c #837976",
"D  c #8B7A75",
"F  c #837779",
"G  c #867A7A",
"H  c #8A7D7C",
"J  c #917F7D",
"K  c #8C817E",
"L  c #92837D",
"P  c #8B7F81",
"I  c #8E8282",
"U  c #8E8986",
"Y  c #928584",
"T  c #988782",
"R  c #948986",
"E  c #9B8A85",
"W  c #938789",
"Q  c #968A89",
"!  c #9A8D8D",
"~  c #96918E",
"^  c #9C918E",
"/  c #9E9291",
"(  c #9F9A97",
")  c #A2938E",
"_  c #A29594",
"`  c #A49896",
"'  c #A99A96",
"]  c #A39799",
"[  c #A69A9A",
"{  c #AA9D9C",
"}  c #B09F98",
"|  c #ACA19E",
" . c #B2A29C",
".. c #AA9EA0",
"X. c #AEA2A2",
"o. c #AEA9A6",
"O. c #B2A5A4",
"+. c #B4A9A6",
"@. c #BAAAA6",
"#. c #B2A6A8",
"$. c #B5AAA9",
"%. c #BAADAC",
"&. c #BBB1AE",
"*. c #BAAEB0",
"=. c #BDB2B1",
"-. c #BEB9B6",
";. c #C1B4AC",
":. c #C2B5B4",
">. c #C8B6B6",
",. c #C3B8B6",
"<. c #C5BAB9",
"1. c #CABDBC",
"2. c #C5C0BD",
"3. c #CCC0BF",
"4. c #CABEC0",
"5. c #CEC3C2",
"6. c #D2C5C4",
"7. c #D4C9C7",
"8. c #D9CAC6",
"9. c #D5CAC9",
"0. c #D9CDCC",
"q. c #DCD0CE",
"w. c #DED2D1",
"e. c #DED9D6",
"r. c #E0D2CF",
"t. c #E2D5D4",
"y. c #E4D8D6",
"u. c #E5DAD9",
"i. c #EADDDC",
"p. c #ECE0DE",
"a. c #F3E4DD",
"s. c #EDE3E1",
"d. c #EFEAE7",
"f. c #F2E5E5",
"g. c #F4E9E6",
"h. c #F8EDE7",
"j. c #F6ECEA",
"k. c #F9EDEC",
"l. c #FCF1ED",
"z. c #FEF4F3",
"x. c #FFFCF4",
"c. c #FFFBFA",
/* pixels */
"/ $.:.[ l U | | | +.6.S &.R j N #._ ! P D ' >.} ..>.>.V >.P h A ..) ) K S ` &.| ......*.4./ ! *.4.P P W _ [ ..1.*.P *.P H Y ! ! ",
"&.$.N N c | ,.| ' ` o.l -.<.&.&.4.' #.@.P ..4.P A { #.k :.>.>.:.4._ O.+.G | 5.R ! P *.#.] P #.4.B h i ..*...! X.] x 6.$.$.$.P ! ",
"| 2.~ _ m G %.6.2.$.^ l =.0.3.R V P P b 5 ! f.4.#.} ] k ;.0.4.P b Y E v 5 ~ h.1./ ] *.P F n P ! j ..P / :.9.>.#.W k 6.y.4.G c ..",
"j R ' :.~ i l G K %.6.| :.| $.S A O.P ] @.' '  .' ' 4.#.>. .@.J Z { Y _ +.` / +...#./ 8 F P h W 4.*.n r k n ! :.1.:.$...O.Q W r ",
"` ! ` K I S G ` | 9.d.9.7.$.q.2.' p.:.@.>._ ..z.4.4.p.r.4.;.4.4.| a.&.$.&.^ [ c.4.u.4.] u.4.P ..! M G P Q ] *.w.t.9.4.u.t.[ _ G ",
"R G ^ j m [ ' | ,.2.%.| &._ | K P 4.@./ P #.! #.>.>.>.O.#.]  .P K 2.@.^ Q +.^ X...] W P W n u u B k W / _ $.O.%.1.$.=.! Q ] W / ",
"| K l w r +.%.| l R %.3.a.p.p.t.>.0.i.4.D Z q b 8 ! >.4.f.i.k.r.-.8.y.6.B M w v B n 3 & - @ r h u 8 u *.*.[ B _ *.*.z.z.9._ B :.",
"Q Y x S w K ~ _ G K K l B K K K p n D k , n 8 z C ! V k P D P J y z S l > v w c x ] n h P k n B n P 8 ! Q [ m W M Z F Y W I F Y ",
"R B R B G N S / R ( R U l f N 1 p z P ) c O.4.' P ' P P c h n 8 7 v ~ L l | 3.| ( ~ F H h 8 8 P Z G B B ! ! _ Q I G x m Z G B P ",
"G l | | R ' | l 3.x.t.t.p.u.+.R i.4.>.4.:.>.' h 1.c.u.r.a.i..._ a.-.&.q.2.&.^ c %.x.I i u 8 8 8 I [ G / W j q.z.u.y.i.k.9.<...] ",
"R l B j 1 l R f O.9.^ N l G w v  .P z n n k A n O.0.! V z F 8 V | L v v v l K M / 4.F i P ..n x u r ; c F h 1.4.P n M W c m m h ",
"B G K N U I K U I S _ _ l R N G ) P x c D c P b P D _ _ b P V H L ~ v l S v K l ~ M B j 8 x n B W M / / W Y Y Z [ W G ! Z W _ / ",
"| &.` K &.o.| ,.$.S 5.p.3.q.2.&.#.@.! ! ' A ..} ;.A 4.f.4.r.4.;.&.o.L ) | N ( | #.] ..6.../ *.! / Z *./ / *._ P t.y.9.0.<.*._ ] ",
"| &.~ w 0 f ' ,.p.+.$.! G K R -.@.4.4.k.k.4.r.f.i.O.@.! Z H ! ;.@.2.3.h.h.2.q.a.f.,...! P u r P n 8 t c #.0.w.*.[ _ M F W _ B m ",
"_ &.7.-.` ^ 9.7.u.q.:.R B S S 5.z.u.4.4.t.u.r.u.p.0.>.! V F P 1.l.p.3.3.q.d.p.8.*.X.*.n x > @ ..] _ / ..6.4.i.9.*./ m F ! <.<.:.",
"| | | :.,.| $.| +.3.-.:.` | S R .. .} ) P O.] ! *.>.:.>./ ..J P | ( ^ ^ L | ^ ( / #.n + u j P .._ $.$.[ ..[ :.:.:.O...O.H _ #...",
"x ! ] 5.{ ! x x W P $.M 0.u.6.t.w.t.k...Y 9.Y F / Z $.B 4.u.q.0.y.w.l.| U 9.K Z ^ R ,.&.[ +.q.-...t.! W i G G / { G 9.u.9.t...! ",
"w N { i.4.i t t k O./ 3 *.z.z.p.i.c.t.6.=.4.] 8 c $./ 5 1.z.z.s.y.c.w.6.,.6.| y m S H y S t.l.^ 7.g.1.u u 8 m ] Q 4 6.f.f.j.:.h ",
"/ ! X.4.[ x F / $.$.Y r ] 6.:.>...] [ ! ! :.#.*...=.P 8 [ 4.X.,.X.| ' ^ R &.| $.{ | $.~ K R | R 1.:.[ c P ] $.$.! 0 $.1.1.*.! n ",
"/ m X.I Q =.X.{ 7.W ] 0 & n 0 t W 0 x 0 - u > ! 9.! ] 8 ; m 0 s K 6 l 6 : y : ~ s.y.:.G w - 1 i Y F ] =.] =.q.I G > > j u M ! 4.",
"W k 1.! 1.u.9.$.c._ [ m t P r 5 / P 8 ; @ 4 i u c.[ ..M r P h 5 ~ I 6 ; @ 6 i y l.7._ R ~ A r > *.] <.e.7.-.j./ o.M i U 8 i %.1.",
"_ Y P ] G ! W ] <.:.*.4.0.1.O.[ 6./ r W Q n Y #.6.$.*.6.1.1.%./ 9.` y Q R l K | 1.,.( R ~ | _ R X./ B ! ( { <.-.*.<.-.9.*.Q <.( ",
"=.*.P ..B ] I ] k 5.f.y.q.0.k.i.:.q.z.9.$.0.[ _ r 1.z.s.q.w.z.i.%.9.h.9.&.q.{ ( l :.7.| R 3.9.+.U Q I | P ! F -.d.z.9.0.j.7.X.] ",
"w.<.1.B ,.l.k.q.*.G W G G W ! n u u [ _ Y O.B ..m n P Z P P P c i i | ` R +.m | G B N / o.0.6.,.*.B 7.u.d.q.Q ! I B B ! i m U z.",
"4.O.W <.$.:.$.4.,.:.$.6.4.1.1.4.7.$.$.:.! ! 4.0...W 6.6.4.4.6.4.q.&.2.| S K ,.7.! R @.9.&.5.| | ( o.5.2.2.2.2.2.$.5.5.e.-.-.-.-.",
"] M t.f.u.s.7.Y *.$.F u.s.f.0.1.w.<.! i./ [ ..u./ *.f.9.t.y.0.w.p.~ -.B 5 y m -.~ | &.:.w.3.| ^ 7.d.k.c.s.d.d.d.$.-.5.k.0.5.5.p.",
"x 4 4...W #.#.! ..G ; $.4.*.] W 7.<.] y.0.w.4.7._ *.7.*.t.i.<.<.y.3.+.l Y &.c L ,.-.[ x B m R U o.e.d.j.d.d.e.9.*.U ( j.5.o.( s.",
"_ F ! H G [ j / :.*.[ :.$.W O.$.<.#.$.4.y.0._ ! w.*.[ F P Q n B K R r c ,.o.B ^ N G +.` &.,.3.%.*.7.0.o.-.2.o.o.5.( o.c.7.o.B ~ ",
"{ :./ $.*.4.Y f.c.z.k.i.g.k.y.1.w.4.i.c.k.i.W 6.c.s.i.:.W F t 3 ` c & j N 0 l 0 m m ^ K s.z.s.e.9.e.c.o.e.c.d.x.c.e.e.d.-.0.o.U ",
"..9.1.1.[ ! Q 6.1.*.w.k.6.$.Y *.f.0.c.y.q.4.G O...#.t.7.#.7...m _ j y x K N B y K U ~ a s.<./ o.o.-.d.o.2.e.7.e.9.~ ~ o.( 5.-.o.",
"Y _ / #...../ Q W B F $._ Z j Y [ ..6...4.6.4.4.:.:.#.P B ..W Z B 6 v Z ` r : f > 0 : r ,.$.-.0.9.2.o.U B U ~ ( x % x ~ ( o.( ..",
"/ ] G / ! { H [ P ] / n F W *.] [ >.*.6.#.#.$.4.1.0.1.] ! =.$.y.9.K o.X.w.;.&.U u.5.N p.5.1.-.U ..~ w m h x B m S r U G G ( o.~ ",
"k u k x n u k s r s 0 k 5 F $.{ _ U +.,.q.y.2.,.1.-.,.^ X.h.c.h.2.K 0.>.t.3.8.Z u.;.#.:.! J P C ! / u _ :.*.P ..M Q k : t ] ` %.",
"k x r k c k r x 0 B n n u Y *.*.U N ^ | ' 3.w.1.y.| -.| | 0.( R D @.t.:.O.1.1.) ! ) 1.r.;.P 8.4.>.r.>.:.[ C [ z.=.r h 0 & 3 Q M ",
"B j x ! B B B m Z W Z c s x m m ^ K N m 0 0 j e Y N K K B X.i * { :.%.! @._ +.>.@.P x C h p $.] k k m n P x _ 1.Y h x ..G 0 j U ",
"x @ $ 0 G W [ W W F Y O.../ _ / K 0.6.3.7.0.7.,.1.l.y.2.i r 1 . | :.T c { ! #.>.P ! c / b A / P n k M n G M W P x x 8 h j Y H h ",
"W W M x [ B u m W x Z G h t M F K g.q.o.[ 2.&.R -.,.^ _ f l v c [ _ c  . .E / t.6.p.1.0.%.%.] #.......P P ] #.] X.,.,.Q ..] ..Y ",
"0 B n F M i < k Z x M n u M Y G K ^ I K y m Z l ! l j s m p.w.w.>.u.>.{ { >.:.$.' _ P A %.>.:.>.4.4.0.q.0.z.i.6...Y B h m M s r ",
"_ B M ! Y #.#./ H / _ _ _ <./ W | Z ^ i.&.&.$.,.-.+.,.m f ,.+.| ! _ / b 4.i.f.f.>.#.J k H / j.z.4.8.f.f.q.0.*.*.*.n M u   Y ,.! ",
"G Z ] ..O._ _ B ! ..B s k W Z <.7.$.o.3.&.1.` 1.^ K R c m | | K k / H p / 6.' ' } O._ @.P H >.! O.W Q ! [ ..Q #.Y o 0 s B [ ] ..",
"P t 4 ! Q _ m x X < ,.x k h [ 4.t.h.&.S c w Q ^ i.x.9.w.| | | { >.%.:.8.k.>.>...4.J O.i.t.8.8.t.u.=.I 9.] c O.Y :.X.$.$.7.,.[ ! ",
"M n t / W P F u 8 n :.X.7.:.7.*.$.6.8.2.:.R R B 2.,.-.6.6.X.$.&.4.@.0.;.4.} F ) k.q ] c.f.z.u.z.c.7.$.<...u h G W r Z X.z.*.#./ ",
"_ ....$.[ [ #.W ..*./ [ #.B G G ~ _ %.~ [ ,.:.+.+.&.| N S { $.%.@.O.4.@.1.@.A P 4.c ! 4.%.>.[ @.G .._ 1.$.,...[ [ [ ! ] 1.! ] X.",
"..] y.$.[ %.{ O.y.k.=.6.4._ x < f N _ l K l.c.h.c.h.,.~ B O.S ^ P :.>.4.] ]  .] >._ A J p k { 5 M j + u 5 c 1.:.W ! h 0 ; t / ! ",
"O.! w.*.:.:.] / s...F <.X.j 9 I K ` &.N m w.w.3.&.5.| M R x.q.,.{ 1.>.8.V *.4.O.! k.>.P b o J / 8 - > & k r 6...#.G Y B 8 - ../ ",
"P x k m P Z Z 0 t h Y ! m H Y ^ &.| ~ f 1 B K G +.K M v %.q.[ +.E _ >.0.Z 0.:.@.@.t.y.6.8.' >.:.s B W u H / *.1./ / ! [ X.G / #.",
"Y n t m P Z P u 0 $ c I Q =.0.[ p.9.~ Z 6 w w + j N Z l I U y y 8 p P O.x P V E P >.6.4.f.f.;.4.w.f.1.t...$.c O.$.4.P ..q.0.F P ",
"O./ $.1.5.1.%._ [ i _ *.X.#.y.` 7.9./ +.^ | -.N K ,.&.+.! | E 3.8.;.! 1.r.4...' } Y F / J P q x ! $.M :.m [ P F Y F *.7.5.=.1.<.",
"6.4.5.<.=.9.0.*.<.-.Y H Z x M M P ] u.u.i.u.q.5.! 0.8.%. .'  .) 2.L L h.a.3.p.,.4.>.r.4.4.>.4.#.$.*.Y P *.6.[ I =.,.*.1.5.] O.5.",
"5.5.-.-.5.5.<.*.%.5.4. .] 4.8.>.X.M X.X.X.U +._ Z q.8. .@.K T ,.L } K l.h.&.v L  .i.8.8.>.0.k.#.#.X.o j x #.1.G *.1.j.1./ ..6.y.",
"~ G 9 r U Q ( [ 1.m h m A / F P ! ] I M I / M x z @.%.D b C E _ L  .g ) N z e R  .} t.t.k.4.t.r.O.F M #.! k %.*...k B G Y ! ! W ",
"2.X.B j P j o.0.-./ <.1.] W O.8.4.6.-.5.f.w.X.s.<.0.;.E b T ) D l.2.K z ) @.` @.P ' P P n x V P x 3 4.O.F [ m ] #.[ ..O.1.*...m ",
"e.( ~ l U l 4.7.4.P P P ] P :.>.5.B o._ w.! &.2.>.6.` ;.) Y 2 z h.L z e  .A ; d g >.P A A = @.V ; u Z s h 5 n r W P i.z.f.0.#.Z ",
"5.x r - B ~ 7.X.%.P m V V q Q #.m x -.U / k ' -.) ) C T e p # t L 7 6 2 p d d  .) t.O.u.@.g P V r s O.t Y u ! ] *.0 4.0.] [ Q / ",
"X.K m 9 x ..o.o.P ] ..! H P Q W F x ! $.1.[ | ,.6.' J C 7 b g g L L L L P J V p p c P J P J P V r F Y t 5 r r ; $ 0 <.:.] { #.*.",
"o.-.o.I U s.o.-.i.;.! @...:.! >.i m k.<.j 5 / I Y M H @.a.8.C a L h.L L J 2 p z 8 g V } >.8.8.P #.O.0.$.X.! 1.6.B w.:.<.0.I #.0.",
"( o.o.i M =.P #.w.] C ..:.P m 8 $ 0 X.u - I +.m ) ^ z  .3.6 7 d 2 , e L L L L 2 d P P P f.f.8.P *.$.7.,.1.X.1.4.w.:...Q F M H ..",
"M G B u u j m U ! Z Z ] q q 8 o > x U ( H X.[ / ' &.'  .e # d , = = 2 L L L z 7 p V A P 4.' P } W ] [ / n [ ! ..Q ! I G P B c x ",
"~ I X.$.*.( ~ k O.] ] :.z ! ] O.7.X.-.*.X.X.e._ L ,. .) g L ) g L L L 2 L L L } V J ' @.>.P P P 8._ c G Z j k F i #.X./ / [ O.[ ",
"m x %.~ U B B j t.0.:.>...@.F ..7.B n I 9 B ] x g  .7 # b L 7 L L = d d d d L d J ) @.@.>.P P P H / 4._ Y x s h ; ,.4.O.] / ! m ",
"n i U x j h B B 4.] n p C Z h F c 9 i M j Q S ! Y N z b a d z z O V A d 7 L } L P P @.} ;.#.' ! c n [ 5 X @   @ 8 ! m M G P Z k ",
"N l h S B 0 P j Z h x h _ #.:.' ^ ~ 5./ G | | { ` | %.@.L V A V L L L L L L L d q p J P } J g n *.H Z / *.r m $.! $.Q :.:.! h r ",
"..~ ~ -.P x >.! P Z P V #.] 4.>.F #.<.:.m f.j.0.%.{ )  .d L @.L e } } V L e L L 2 p P P ' z 5 b 6.4.Y W ,.8 <.t.[ X._ :.[ ! m W ",
"m 1 l U 0 n ! 8 h M x c @.n V P x [ ! H G [ I l 2 < O a O L @.V d V a A V 2 L d 7 p p , q ; - A ! Q B j n m c P n P I W k m u h "
};
