/* XPM */
static char *stone15121738154879[] = {
/* columns rows colors chars-per-pixel */
"64 64 206 2 ",
"   c #070000",
".  c #0C0100",
"X  c #0F0800",
"o  c #120400",
"O  c #140A02",
"+  c #1B0C05",
"@  c #1E0F09",
"#  c #1D120A",
"$  c #171007",
"%  c #200D06",
"&  c #210F0B",
"*  c #22140D",
"=  c #28160F",
"-  c #2C190F",
";  c #241611",
":  c #251A13",
">  c #2A1C14",
",  c #2C1F19",
"<  c #271A14",
"1  c #311E18",
"2  c #272016",
"3  c #2A2017",
"4  c #2D221A",
"5  c #32241C",
"6  c #39251C",
"7  c #32281F",
"8  c #2D2320",
"9  c #352721",
"0  c #362922",
"q  c #3A2B24",
"w  c #362D29",
"e  c #3C2E29",
"r  c #392620",
"t  c #393027",
"y  c #3E322A",
"u  c #3B372C",
"i  c #3E3531",
"p  c #412F28",
"a  c #402F27",
"s  c #42342C",
"d  c #42382F",
"f  c #4A372E",
"g  c #443631",
"h  c #493733",
"j  c #453932",
"k  c #4B3C35",
"l  c #4D3F3A",
"z  c #503D37",
"x  c #503E3A",
"c  c #4E423A",
"v  c #52443C",
"b  c #59463E",
"n  c #53483F",
"m  c #4F4641",
"M  c #554742",
"N  c #564942",
"B  c #5B4C44",
"V  c #5D4E49",
"C  c #584844",
"Z  c #5B5047",
"A  c #5E514A",
"S  c #5E5550",
"D  c #614F46",
"F  c #614F49",
"G  c #63544C",
"H  c #69564E",
"J  c #63584F",
"K  c #6A594E",
"L  c #635651",
"P  c #695650",
"I  c #655951",
"U  c #6B5C55",
"Y  c #6D5E59",
"T  c #675958",
"R  c #715E55",
"E  c #715F5A",
"W  c #6B6057",
"Q  c #6E625B",
"!  c #73645D",
"~  c #79665E",
"^  c #75695F",
"/  c #6D6361",
"(  c #746661",
")  c #796761",
"_  c #756A62",
"`  c #7B6C65",
"'  c #7D6E69",
"]  c #766D6A",
"[  c #7A7067",
"{  c #7E716A",
"}  c #7F7570",
"|  c #816E66",
" . c #816F69",
".. c #817167",
"X. c #82746C",
"o. c #8A766E",
"O. c #83786F",
"+. c #847671",
"@. c #8A7771",
"#. c #867A73",
"$. c #8B7B74",
"%. c #8C7E79",
"&. c #917E77",
"*. c #917F78",
"=. c #898077",
"-. c #8E817A",
";. c #8A857B",
":. c #93837C",
">. c #98857E",
",. c #92887F",
"<. c #948075",
"1. c #948681",
"2. c #998680",
"3. c #958982",
"4. c #9B8C85",
"5. c #9C8E89",
"6. c #948D89",
"7. c #9B9087",
"8. c #9E918A",
"9. c #9A948A",
"0. c #9F9590",
"q. c #A18D84",
"w. c #A18F88",
"e. c #A39287",
"r. c #A3948C",
"t. c #A9958D",
"y. c #A4988F",
"u. c #AC998F",
"i. c #A59691",
"p. c #A99791",
"a. c #A59A92",
"s. c #AB9B94",
"d. c #AC9E99",
"f. c #A79F9C",
"g. c #B19D95",
"h. c #B29F99",
"j. c #AAA097",
"k. c #ADA29B",
"l. c #AEAA9F",
"z. c #B4A196",
"x. c #B3A49C",
"c. c #B9A69E",
"v. c #B7AA9F",
"b. c #B4A6A1",
"n. c #B9A7A1",
"m. c #B5AAA2",
"M. c #BBABA4",
"N. c #BDAFA9",
"B. c #B9B0A7",
"V. c #BDB2AA",
"C. c #BDB7B1",
"Z. c #C1AEA6",
"A. c #C1AFA8",
"S. c #C3B4AD",
"D. c #C8B5AD",
"F. c #C8B6AC",
"G. c #C5B6B1",
"H. c #C8B7B0",
"J. c #C5BAB2",
"K. c #CBBCB5",
"L. c #C6BCB8",
"P. c #CCBEB9",
"I. c #D1BFB7",
"U. c #D0BFB8",
"Y. c #CEC1BA",
"T. c #CFC8BE",
"R. c #C9C0B7",
"E. c #D3C3BC",
"W. c #D8C5BE",
"Q. c #D2C0B6",
"!. c #CFC6C1",
"~. c #D5C6C1",
"^. c #D9C7C1",
"/. c #D5C9C2",
"(. c #DACBC4",
"). c #D7CDCA",
"_. c #DCCEC9",
"`. c #DDD1CA",
"'. c #DED5D2",
"]. c #E3CFC6",
"[. c #E3CEC9",
"{. c #E3D4CD",
"}. c #E9D5CE",
"|. c #E4D8CF",
" X c #E4D6D1",
".X c #E9D7D1",
"XX c #E5DAD3",
"oX c #EBDBD4",
"OX c #E5DEDA",
"+X c #ECDED9",
"@X c #F0DFD8",
"#X c #F0DDD6",
"$X c #EDE2DB",
"%X c #F3E4DD",
"&X c #EDE5E0",
"*X c #F5E7E1",
"=X c #F4E9E2",
"-X c #FBECE5",
";X c #F4EEE9",
":X c #FAEFEA",
">X c #F8E7E0",
",X c #F9F0E7",
"<X c #FEF2EB",
"1X c #FBF5EC",
"2X c #FEF5F2",
"3X c #FFFBF4",
/* pixels */
"] ] i . X O # i y T c t a s X f l b V l H ^ ,.#.) p q v b s k C + * y s q 5 C f q G + G <._ U ! ..G C h n s h B N l s H I d q k ",
"6.C.C.f.V.L.0.%.=.6.V.z.~ <.M.u.r.b C ..U U L Y ` ..v P #.M.W.3.v s B B n G #.#.h 5 h ` X.$.` G V , a C I h 6 5 q q f : e M B X.",
"&X3X;XOX&X:X2X3X+Xs.S.H.v.e.Q.e.P.r.5 %.4.s.m...3.-.C Q.Y.s..X%XW.x.(.{.{.{.{.(.+X^ F.oX X{.m.S._.! ..x.H.V.S.N.m.4.s.U t.E.n.(.",
"!.)./.!.!.P./.;X3Xr.B.H.z.[ :.<.$.K.e ^ $.X.@.L g V v -X%XS.Y..X+XM..X%X%X@X/.E._.{ 1.{.<Xx.x.r.U.^ 8.Y.M.V.}.-XQ.,.%.G V./.d.Q.",
"L.'.OX'.+X+X~.M.{.Q i.F.8.x.F.B.r.r.P ! 2.t.3.(.H.s.! /.}.%X/./.-XN._.`.}.+X}.oX%X$.s.x.Q.G.F.i.x.U i.}.W.`.~.K.<.! ! ` oX XP.{.",
"OX'.).~.R.L.P.K.S.G U 4.>.y.>.7.s.Y 5 > > : : 0 s 5 * -.m.(.S.oXW.s.W./.K.V.V.S./.G ,.t.b.Q.:X{.x.H X.b.V.(.M.s.Y.n.X.+.{.oX+X(.",
"T M l M g 0 v ^ ` N 5 U ! d = O o 5 O 5 > * k 5 q k r h q G b ) C v ' ` M r v b _ C s #.) # ) s C 0 A ! B G s Y 1._ > * P 4.S.N.",
"l v C A A _ %.,...A s r.F.Q.K.> E X.G V ! ` U ' ^ ! h N v V s l ` ` <.` v s ,.M.8.$.t.' ) G C $.8.<.H.*XoXF.C I i.i.$...` U B v ",
"5.@.p.h.@.2.p.o.U c L N.d.N.P.l U S.t.x.x.4.4.t.r...l #.%.4.<.3.x.3.^ V p U U.Q.^.x.` V L $.` s.S.4.r.m.s.S.d.> s.H.(.{.k.t.k 9 ",
"p.w.n.w.p.) *.p.:.q V ~.1.x.n.l l K.x.E.V.r.s.1.5.| l 4.s.s.i.x.$.k.1.<.5 ,.S.X.S.G.8.4.X.+.U K.F.I ! 4.$.$.r.C ' t.2.5.4.4.e 4 ",
"p.w.w.n.p.b.n.n.G.l ; 4.5.L.#.e 5 s.4.G.i.4.S.s.x.#.q :.x.i.i.4.4.5.x.t.o N K.4.4.h.s.b.4.s.C Y 5.%.{ B X.M.3.0 3.s.i.1.8.2.5 G ",
"A.n.h.W.h.^.D.p.E e . q e C e 9 Y i.w.m.r.,.K.G.P.,.> X.V.S.W.v.x.V.Y.N.g s 5.s.) #.x.x.$...d > b v ` ) b ` ) 9 x.s.Q.m.N.m.s r.",
"1 a 1 a x p p C x x h +.S h T V l 1 5 5 s l $.x.$.Y . q v h ! B Y N.^ U e b q c b s n s h + . . . o o 5 + * . > G E 4.1.:._ . = ",
"o.| | R E | &.&.p.0.F %.f.+.5.b.i.U T G H G C U o.2.^ $.#...N.G.U #.) $.1.G.XXQ.i.m.i.V s.$.H @.! Q F ! s G V + + G k s v H #.*.",
"t.q.*.&.x  .*.C T w.x ) f.+.i S #.$.$.r.t.a.B , ` $.` <.X.I o.:.C d ` :.X.H s.X.L s.M.v #.>.{ ^ r.V.x.x.4.` #.C 5 t.4.-.s.s.N.F.",
"H | Z.z.n.h.[.[.G.P.T / %.f.V V X.4.G ! ! b.X.k G k 9 M A q 5 * q K ! @.#.G ) :.Q ! $.b ! t.,.s H ) ..#.<.` M.N 4 ) ' M :.@.s ^ ",
"f H $.*.) @.x.A.N.<.; -.5.s.C C ^ z d z V B s = s q e h * C s e s =.! z.l.z.A.(.|.W.Q.c ;.>.y.D N -.-.A ! =.x...k N j 6 c n d j ",
"f p l x q C +.C l 5 5 l v q U l s 5 + 5 d 1 : p 5 v ^ z > * * q * a Z =.[ D =.7.y.u.` 7 W 8.>.B L U j 6 n k y 5 + 7 q n 5 + j : ",
"D &.A.H.) ! x.X.` ! Y ! U s +.C ! ` U { ,.! ..{.N.s.s.s.W.G.W b K c c c b 6 B [ D c = 5 b c s G 7 j 4 * y c 3 y c G t J [ 6 7 c ",
"q.^.oX@Xs.X.M.2.:.s.3.$..., ` w.r.M.M.i.s.Y h G.N.U.K.{.+XW.J :.O.z.{.H.{.-.W x.[ =.O.W X.K k ` _ $.#.{ ` 7.! ` E.G.R.x.v.oXR.>.",
"i.}._.oXP.%.5.2.4.s.x.-.:.o ` ^.y.r.i.` 4.%.v Q.F.F.d.M.S.h.l 4.e.Q.`.B.K.s.{ S.>.y.x.>.1.` 5 Q y.2.s.R.8.x.Q f (.k.Y.Y.Y.|.Y.m.",
"4.XX{.[.M.G n U ..%.r.r.' ; U x.E.x.r.H 2.s.V x.:.:.i.#.<.! d 4.7.>.4.4.r.H.s.i.>.7.y.M.$.` * { B.j.s.y.A 4.:.Z S.(.B.s.v.B.M.r.",
". # . o + . . o . g s 5 o o o k s e q = l k . * o O e o ; 9 . r * * = $ . 5 d k v [ ^ ^ l N 5 c [ t.m.a.W 7.3.d B.^ ` 4.^ W =.` ",
"X.$.$.%.4.3.<.X.t.G.' . ' w.^ U l A C C Q U G ` Q ) @.Y Y N.#.q.r.y.^ d s 6 3 q 3 * . # < . . X * 5 + * O q j O o . : * @ 5 * t ",
">X%X+X<X<X.X+X`.x.#.t.* ~.%X_.(.%X.XE.Y.{.M.N.%XXXK.x.$.G /.) ,.:.=.N w j / k.k.J.1.< ] A j { %.X.W [ ^ ^ ,.X.! -.7.$.=.{ W S.S.",
"_.>XY.S.%X%X(.W.s.s.k.A N.F.{.{.}.%X|.K.N.4.W.{.{.P.4.+.Q s.W m.:.Q i %.a.B.m.B.k.6.w 3.#.f.'.`.%X$XoXR.W.Y.y.R.oX/.J.S.$.U Y.(.",
"s.i.` V $.s.t.K./.W.x.> /.H.W.P.X.s.W.-X{.$.Y.S.t.r.4.t.) 2.*.#.i.9.I B.L.'.C.0.L.8.m b.=.6.C./.T.{.$XK.Y.Y.8.E.XX|.B.:.U J k.7.",
"x.4.s.t.s.S.N.N.Q.M.x.: /.$XQ.P.Q.$X%XG.4.V :.H #.d.E.r.l ..N.1.3._ j b.b.b.G.&XOX1.m f.k.N.P._.G.S.W.R.$XS._ W.r.a.y.A.B.^ :.B.",
"{.x.G.H.N./.P.s.:.! | l h 4.x.U.N.8.i.i.4.q > 4 * 4 > . O B _ c :     S Z w l } S i 8 i S } j.V.E.$X(.8.G.k.n $.I [ 4.k.o.u X.R.",
"q : N ..Y s * : 5 * o : o = G ,.5 q q 5 q 5 6 q . . 6 k k l { { } S S m m j u l i 8 u $ w 2 w S 7.$.O.n 0 N y . * # 5 * . o G Z ",
") Y ,.s.H d ` >.` $.,.s.(.r.4.s.P.K.S.Q.4.X.s.F.V.r.r.K.r. .F.i.).0.R.'.3X&X0.6.9.#.6.=.f.} i m ^ = s U u 6 j * * . . : J B G J ",
"y.y.Q.k.0 U `.4.V.G.{.K.r.#.c b s./.(.@X$.$.oX+XU.-XM.N.p.^ s.' j.Q } S 6.!.] m S j.&XR.!.0.j Z j { ^ [ 7.-.^ N A -.Q S V.8.+.K.",
"I } l.R.i u Z _ a.B.B.{ c W $.G -.`.o.2.o.u.t.u.<.Z.F.Z.x.%.;.S #.2 $ $ ;.T.;.[ S ,.V.j.m.^ Y 4.` B.3.J ( / / S Z =./ S 6.=./ 0.",
"l.;.j.a.u   7 n O.j.a.3.O.k Z ` 1.3.Q U ~ o.>.>.z.Z.Q.F.n. .#.l } j u / / C.T.a.=.s.j.V._ : ,.#.;.$._ u w ; 9 u   , w V 1.6./ 6.",
"Z 2 u c 7   $ X j n 4 * t O 5 0 0 8 5 . o b g.u.<.z.H.u.) ; 9   u $ 2 u X u W m J 8.^ ,.! # _ [ Q $.[ _ T 0 / i O < m f.L.b./ 1.",
"2 S O.;.c Z J Z W ^ =.X.[ ` x.r.k.r.>.>.| K R K K R G k ) ! 8.+.7 2 2   u t $ S s > : F k 9 q : u 7 u v A A l , ; w ] b.1.] 8 w ",
"/.;X1X=X`.1X1X$X'.m.R.T.F.s.J.`.Y.L.' ..t.q.c.e.t.z.&.o.(.F.(. X|.O.v.M.C.C.T.T.K.:.+.A.[.@Xh.p.y.:.* @.r.#.2.%.] +.' T w %.6.N.",
"/.T.$X`.$XR.$X1X3X/.y.v.S.,.[ a.#.N.! q o.o.t.R 6 D H t.%XB.N. X,XT.F.,X;X`.$XW.U.H.) n.>X%Xp.Z.F.M.^ F.G.(.L.*X*XG.5.%.6.).P.'.",
"`.R.T.C.$XR.J.S.K.K.X.m.N.2.4.s.2.d. .P r.$.u.v.c.e.~ Z.-XoXW.W.|.E.B.,X|.|.@XW.>XZ. .W.A.K.A.g.#.t.P W.G.H..X^.G.' C F h.+XG.'.",
"T.,X,X|.$X%X|.T.{.v.d j.h.i.(.M.S.z.H l f c f D | H f $.c.}.@XE.%XE.W.W.W.oXW.W..Xg.E x.g.(.^.:X{.4.V E.~.~.[.n.A.n.h.] G.:X_.+X",
",.O.[ n n c n W 4.X.y ^ [ d 1 5 : p = o % + o 5 . 5 % q f R R &.e.G >.Z.p.E h E &.) = | @.b  .&.P P E ( C +./ F h.h.T e / h.[.G.",
";.J t 7 u W n y.K.+X}.XXn.4.G 5 H ) G t.s.G ' G X.' ) k U ^ | ~ b b D R &.*.2.*.&.&.q.q.z.D d ) ( 2.G.p.G.1.o %.5.b.) 8 e h x / ",
"`.=Xa.l.l.u.W l.W.P.n.K.U.W.<.U.}.Z.U.oXn.! b.t.b.` X.! F.@X}.Z.[.}.&.&.U.H.^.c.n.w.g.&.*.@.l.3X#X*XP..X.X~.x A.2./ %.] C +.T 8 ",
"R.T.=XB.W.S.$ K r.d.` *.}.%Xp $.c.| t.c.! j 8.! b.X.X.$.*.W.I.^.].[.E H Z.x.D.4.s.p.w.d.l v B.(..X~.^.h. ./ / f.5.%.] / +.).p.e ",
"7.B.B.x.T.z.q ^ h.i.U ! I.}.- ~ g.u.N.}.%.q G.+.5._ Y X.~ ].Z.c.D.}.2.P w.h.N.w.r.E.R.~.k 2 s.m.P.N.K.d.S 1.8 +.0.6./ / T 5.2.8 ",
"[ _ 4.3.=.y.u z.H.x.p.g.h.n.p K u.q.t.F.*.v d.1.%.a.N.4.K z.Z.g.Z.W.*.F z f h x E p.s.[ c 4 [ j.( T 6.' T w 8 +.} T } 0./ ] %.8 ",
": f q B y s k b D $.*.B 1 E B f f - : 6 M V l g M L C 5 % H | R &.>.F P q 1 p z 1 U ` Z Z : X 2 # $   # ; 8 i x 8 8 8 8 h w 8 8 ",
"9.i.#.O.-.=.k.q P 2.@.B f F K ~ u.W.<.U T C S V c Q U | v G D F E &.x E M ) $.L 1.G.b.N.3.` [ { n _ =.c / 6.0.f.N.%.0.} ] } } / ",
";X;X2X3X3X3XP.g N.E.>X}.Z.].g.| oX_.L.+.1./ 6._.!._.+X!.1.2X;XOX3Xl._ 0.9.a.J 7 A 8.K.2.) r.F.W.(.XX[ u @.' E b :.N.p.%.%.( 1.#.",
"OX;X2XOX'.*XN.l G.A.c.p.D.I.o.q._.!.&XP.m.C / f.).).'.b.+.:X:X&X;XR.;.J.B.a.>.Z O H g.w.| | *.s.7.C.6 c h.&.P 5.&.) E $.L N s.X.",
"'.'.;XOX*X:Xd.V s.n.h.>.g.Z.| q.XXi.).n./ h 6.%.f._.*X5.T 2X=X~.&Xl.9.l.C.y.j.O., C 2.g.h.g.s.F.m.a.0 ! w. .&.*.>.g.t.4.=.3.0.} ",
").C.XX'.).L.( x 1.*.d.g.t.g.b p +.$.i./ M ; ' N.2.G.G.] h 3X=XXX`.[ y.9.B.B.9.$.O d ` *.*.$.;.V.M.J.^ W H.s.q.w.U.p.s.$.^ A n A ",
"w , x e ; & . ; > @ h G a - o - Y ; ; T _ + , M x e l 8 ; +.V T d   t $ 3 2 * * = > * + : : $ u 4 3 # o J ^ ) q.| c.,.5 l q # o ",
"& < g , & h L ' X.v 4 v R ~ s . ; + 0 j < V 1.9 ; o l e g 9 o o $ 7 J W f : k t q > * 7 ^ =.Z n ` u ^ >.K H h D E ~ | 7.$.D ;.n ",
"Y E  .) Y :.0.+.J Z J v.P.OXS.5 %.5.V ( ' #.+.` x x F C S T P L >.a.=.^ s G B.Y.k.;.A u Z J Q j.a.0.E.1X@XU.! H H.#XF.V.7.$.W c ",
"5.5.s.h.2.5.p. .[ f J R.7.l.Y.4 ( P.b.H.d.i.1.r.f.%.M %.:.b.%.%.r.>.^ K y :.M.S.E.v.=.Q [ ^ _ B.B.$.y.8.,.s.t.1 h.c.M.K.s.y.$ d ",
"p.&.h.g.r.` w.s.$.4 Z !.6.j.m.w b M.x.P.M.r.d.:.M.$.s i.k.i.z.4.o.x.r. .% 2.S.#.J.B.O.j._ 3.Q B.l.Q Q #.o.t.&.F *.w.g.$.4.5.# M ",
"p.n.n.A.p.H.H.E.G.d w Q a.f.} # V s.s.N.s.r.A.z.M._ e t.i.x.F.o.y.M.A.s.5 ! s.y.O.j.m.T.l.l.u Q =.Q ,.B $.n.@.r q.r.r.p.:.4.4 =.",
"p.u.&.g.g.A.*.X.B . o X 8 i j c D :.r.t...w.K.I._.R % $.s.x.I.K.].c.N.2.% e =.=.W O.;.=.;.0.# X q d ) B 1 w. .p h.U.U.N.}.7.4 9.",
"% % 1 > 1 = M U G A U A 8 m N Q v * + 6 O q G X.v D + 1 6 q 4 z 5 B D 5 b G h s Z d d t t 7 $ 2   o > . ; p 1 > z 1 F E I t o o ",
"g.e.h.| ) E n.2.' A.G.b.#.%.%.+.r.> 5 q.g.e.4.S..Xs.v | >.<.B ! ` >.r.W m.%X%X|.<X{ c ;.a.^ =.9.y.Z c ^ | E @.b ` H h H q [ -.3.",
"| &.g.<.F < ( +.5.+X).5.0./ / ( M.) >.%X%X}.I.K.q.X.,.Z.>.c.=.b B [ S.a.G.E.Y.B.(.O.c [ ;.Q R.(.B.B.W 3.#. .q.N.q.E.r.$.r.k.C.{.",
"z.e...o.' 5 L 2.%.+.T C ] V C / E.I.F.F.r.z.Z.z.I.D R g.^ $.[ W : [ M.8.E.j.o.V.3._ 6 k { r.(.V.^ [ { J x 6 w.n.r.o.@.b n 4 y.=.",
"=.e.` K 1.p C %.1.V T +.T M h T M.s.>.s.4.s.S.Z.W.! U :.D ` ~ o.G d y.7.W =.S.J.+.O.Z G =._ I B n ! Z A x B ~  .| G ` X...t ,.W "
};
