/* XPM */
static char *e127411742144a24a5b19f9a0f45f97dJFgcat22kEwKeFRn[] = {
/* columns rows colors chars-per-pixel */
"30 30 114 2 ",
"   c #252525",
".  c #282725",
"X  c #2A2927",
"o  c #262629",
"O  c #2C2C2D",
"+  c #312D2C",
"@  c #32312F",
"#  c #2E2E31",
"$  c #312F33",
"%  c #2F3033",
"&  c #343334",
"*  c #383735",
"=  c #373936",
"-  c #3A3936",
";  c #363539",
":  c #38373B",
">  c #37383C",
",  c #3B3B3B",
"<  c #403E3C",
"1  c #42413E",
"2  c #3E3D41",
"3  c #403F43",
"4  c #434343",
"5  c #494745",
"6  c #4A4946",
"7  c #434248",
"8  c #444348",
"9  c #454449",
"0  c #464648",
"q  c #46454A",
"w  c #45464A",
"e  c #47464B",
"r  c #47464C",
"t  c #464549",
"y  c #494748",
"u  c #48474C",
"i  c #49474A",
"p  c #47484D",
"a  c #484848",
"s  c #494949",
"d  c #4B4A48",
"f  c #4B4B49",
"g  c #48484A",
"h  c #48494B",
"j  c #49494B",
"k  c #4B494A",
"l  c #4B4B4B",
"z  c #4C4B49",
"x  c #4D4C48",
"c  c #4D4C4A",
"v  c #4D4D4B",
"b  c #4E4D4B",
"n  c #49484D",
"m  c #4A4A4C",
"M  c #4B4B4D",
"N  c gray30",
"B  c #4E4C4D",
"V  c #4E4E4C",
"C  c #4F4E4C",
"Z  c #4C4C4E",
"A  c #4D4D4F",
"S  c #4E4E4E",
"D  c gray31",
"F  c #4B4A4B",
"G  c #504C49",
"H  c #514D4A",
"J  c #524E4D",
"K  c #504E4D",
"L  c #51504E",
"P  c #52514F",
"I  c #51524D",
"U  c #4C4B50",
"Y  c #4F4F51",
"T  c #4D4C52",
"R  c #4E4D53",
"E  c #4F4E53",
"W  c #4E4F54",
"Q  c #4E4D51",
"!  c #505050",
"~  c #525250",
"^  c #535152",
"/  c gray32",
"(  c #535353",
")  c #545351",
"_  c #575352",
"`  c #555553",
"'  c #565553",
"]  c #515055",
"[  c #525254",
"{  c gray33",
"}  c #555555",
"|  c #575654",
" . c #545456",
".. c #555557",
"X. c #545352",
"o. c #585755",
"O. c #595856",
"+. c #5A5957",
"@. c #595854",
"#. c #535258",
"$. c #545358",
"%. c #56555B",
"&. c #57565C",
"*. c #585659",
"=. c #585858",
"-. c gray35",
";. c #5F5E5A",
":. c #5A5A5C",
">. c gray36",
",. c #5E5E5C",
"<. c #625E5B",
"1. c #62615F",
"2. c #5E5D62",
"3. c #686866",
/* pixels */
"$.2.:., [ ! : Z -.-.>.! * 1.6 O.3.>., Z Y : u [ Y #.r & %.8 ",
"2 0 g & , g , , ; : : 4 * O.1 , 6 4 & 2 0 & , ; & # : # 0 , ",
"; : O O 2 : X , 4 8 ; 4 O , * * 1 * O ; 2 # , , 0 # , # ; & ",
"8 ..2 ; g Z : 0 -.Z , Z 4 8 1 5 ) , : 4 0 ; m ..0 & 4 , 4 2 ",
", , O O O ; # # 4 ; & ; O * * 8 , . X & ;   & ; ; # & o # & ",
"8 4 ; ; , , ; 4 & , >...4 c , 1 6 , ; , 0 , 2 & , U [ 8 m 3 ",
": g 8 O 2 m : 4 & * g 4 < z , * 8 6 ; , 8 , 2 # $ 7 2 ; 2 $ ",
": & 4 O & : # & O O , ; * * * , : 4 X : 2 O & X # 2 # ; 3 # ",
"8 = : Z Z 6 , y 8 g 5 O c ;.H H < < o.! 8 2 g 4 8 4 # 2 &.8 ",
", & ; 4 : : $ & * 4 4 . O , 1 1 @ 1 < 8 ; # & > 4 , o # , , ",
"; ; : 2 ; : , & c 4 * 4 4 c < * - , 4 , : 4 # Z : ; 0 2 4 , ",
"% & & ; # & , & < , * L 6 6 * * , @ , X : < O 4 : & m , 4 ; ",
"2 , ; & & ; , & O * * @ , , 4 3 4 4 * * 4 * 3 O : O & ; , ; ",
"W p y 3 g Y Z Z , * , O ! Z ..Z L X.< | ) L X.- : , & m U y ",
"> ; : o ; 4 ; , + . * & < , , , , * X , < , , & * : # : , ; ",
"0 4 m O , 8 & * 6 4 5 z & ! 0 0 ! Z * 5 K & H 6 6 6 8 ; Y 2 ",
", Z Z & : Z ; 2 , & , 8 $ B 5 1 c ) * - ) - 6 < - 6 < * c : ",
"; ; O O ; , O : , * & : O , * * , * O * 5 + < 4 < * * O , * ",
"g g ; ; 4 8 : 2 ! ! ; 4 , 1 6 6 L * , 6 c - H <.O.< z , 4 8 ",
": , & . O : O O , , O ; & * , 1 , @ O * * + < 1 , O , & & * ",
": : : # & 4 & 2 & & 4 m 4 4 1 1 4 1 & , 6 < 1 * < g K 5 g 4 ",
": , 8 ; ; 0 ; 2 & # m g 3 y , * c z * 1 c < < - : K 8 4 8 & ",
"; ; : & & , O # O O : O $ 4 ; & , * * * * + & & ; < + : 4 ; ",
"8 : ; g m 4 ; 8 , 4 4 & 8 *.m g : , { ..4 z K z ! 8 ; 8 ! B ",
"4 % ; , , ; % # > , g . O , 4 4 & 4 4 1 , @ * 1 5 1   & 4 1 ",
", & & , : & & O : : & , 4 g : ; : ; 8 ; * 1 * K - < g 8 Z * ",
"& & O & & O & O : , & g 8 8 : ; , O , O @ 1 O 4 * * c 4 g & ",
"> > & % & ; , ; X O & O ; ; : : , ; & ; , , * @ - @ * , , 2 ",
"m 4 8 > 2 U 0 r : & 4 & m Y Y m 0 g : g X.g Z * - 1 * Y 0 u ",
"4 ; 2 O & 0 , 3 & . ; X , 4 , 2 4 ; O : 4 4 4 & @ * O 2 3 : "
};
