/* XPM */
static char *_5a34c949da0454bc7c547c693663422X81sGyhU69TkaQdr[] = {
/* columns rows colors chars-per-pixel */
"30 30 252 2 ",
"   c #1A2030",
".  c #1C2134",
"X  c #272D3D",
"o  c #313649",
"O  c #323848",
"+  c #333949",
"@  c #373D4D",
"#  c #393E51",
"$  c #3E4356",
"%  c #3E4454",
"&  c #3F4555",
"*  c #3F4457",
"=  c #414757",
"-  c #404558",
";  c #424858",
":  c #444A5A",
">  c #44495C",
",  c #464C5C",
"<  c #474D5D",
"1  c #474C5F",
"2  c #484E5E",
"3  c #494F5F",
"4  c #4A5060",
"5  c #4B5161",
"6  c #4C5262",
"7  c #4C5164",
"8  c #4D5265",
"9  c #4F5565",
"0  c #505666",
"q  c #515767",
"w  c #505568",
"e  c #525868",
"r  c #53586B",
"t  c #545A6A",
"y  c #555B6B",
"u  c #565C6C",
"i  c #575D6D",
"p  c #585E6E",
"a  c #595E71",
"s  c #5A5F72",
"d  c #5A6070",
"f  c #5B6171",
"g  c #5C6272",
"h  c #5D6373",
"j  c #5E6376",
"k  c #5E6474",
"l  c #5F6575",
"z  c #5F6477",
"x  c #606676",
"c  c #616777",
"v  c #606578",
"b  c #616679",
"n  c #626878",
"m  c #636979",
"M  c #646A7A",
"N  c #656B7B",
"B  c #656A7D",
"V  c #666C7C",
"C  c #676D7D",
"Z  c #686E7E",
"A  c #696F7F",
"S  c #696E81",
"D  c #6A6F82",
"F  c #6A7080",
"G  c #6B7181",
"H  c #6B7083",
"J  c #6C7282",
"K  c #6C7184",
"L  c #6D7285",
"P  c #6E7484",
"I  c #6F7585",
"U  c #6F7487",
"Y  c #707686",
"T  c #717787",
"R  c #707588",
"E  c #717689",
"W  c #727888",
"Q  c #737989",
"!  c #73788B",
"~  c #747A8A",
"^  c #757B8B",
"/  c #74798C",
"(  c #757A8D",
")  c #767B8E",
"_  c #767C8C",
"`  c #777D8D",
"'  c #777C8F",
"]  c #787E8E",
"[  c #797F8F",
"{  c #787D90",
"}  c #797E91",
"|  c #7A8090",
" . c #7B8191",
".. c #7B8093",
"X. c #7C8292",
"o. c #7D8393",
"O. c #7D8295",
"+. c #7E8396",
"@. c #7E8494",
"#. c #7F8595",
"$. c #7F8497",
"%. c #808696",
"&. c #818797",
"*. c #808598",
"=. c #82879A",
"-. c #828898",
";. c #838999",
":. c #83889B",
">. c #848A9A",
",. c #858B9B",
"<. c #858A9D",
"1. c #868B9E",
"2. c #868C9C",
"3. c #878D9D",
"4. c #878C9F",
"5. c #888E9E",
"6. c #898F9F",
"7. c #888DA0",
"8. c #8A8FA2",
"9. c #8A90A0",
"0. c #8B91A1",
"q. c #8B90A3",
"w. c #8C92A2",
"e. c #8D93A3",
"r. c #8C91A4",
"t. c #8D92A5",
"y. c #8E93A6",
"u. c #8E94A4",
"i. c #8F95A5",
"p. c #8F94A7",
"a. c #9096A6",
"s. c #9197A7",
"d. c #9095A8",
"f. c #9196A9",
"g. c #9297AA",
"h. c #9298A8",
"j. c #9399A9",
"k. c #9398AB",
"l. c #949AAA",
"z. c #959BAB",
"x. c #9499AC",
"c. c #959AAD",
"v. c #969BAE",
"b. c #969CAC",
"n. c #979DAD",
"m. c #979CAF",
"M. c #989EAE",
"N. c #999FAF",
"B. c #989DB0",
"V. c #999EB1",
"C. c #9A9FB2",
"Z. c #9AA0B0",
"A. c #9BA1B1",
"S. c #9CA2B2",
"D. c #9DA3B3",
"F. c #9DA2B5",
"G. c #9EA3B6",
"H. c #9EA4B4",
"J. c #9FA5B5",
"K. c #A0A6B6",
"L. c #A1A7B7",
"P. c #A0A5B8",
"I. c #A1A6B9",
"U. c #A2A8B8",
"Y. c #A4AABA",
"T. c #A5ABBB",
"R. c #A5AABD",
"E. c #A6ABBE",
"W. c #A6ACBC",
"Q. c #A7ADBD",
"!. c #A7ACBF",
"~. c #A8AEBE",
"^. c #A9AFBF",
"/. c #A8ADC0",
"(. c #A9AEC1",
"). c #AAAFC2",
"_. c #AAB0C0",
"`. c #ABB1C1",
"'. c #ABB0C3",
"]. c #ACB2C2",
"[. c #ADB3C3",
"{. c #ACB1C4",
"}. c #ADB2C5",
"|. c #AEB3C6",
" X c #AEB4C4",
".X c #AFB5C5",
"XX c #AFB4C7",
"oX c #B0B6C6",
"OX c #B1B7C7",
"+X c #B0B5C8",
"@X c #B1B6C9",
"#X c #B2B8C8",
"$X c #B3B9C9",
"%X c #B3B8CB",
"&X c #B4BACA",
"*X c #B5BBCB",
"=X c #B4B9CC",
"-X c #B5BACD",
";X c #B6BBCE",
":X c #B6BCCC",
">X c #B7BDCD",
",X c #B7BCCF",
"<X c #B8BECE",
"1X c #B9BFCF",
"2X c #B8BDD0",
"3X c #B9BED1",
"4X c #BABFD2",
"5X c #BAC0D0",
"6X c #BBC1D1",
"7X c #BCC2D2",
"8X c #BDC3D3",
"9X c #BCC1D4",
"0X c #BDC2D5",
"qX c #BEC3D6",
"wX c #BEC4D4",
"eX c #BFC5D5",
"rX c #C0C6D6",
"tX c #C1C7D7",
"yX c #C0C5D8",
"uX c #C1C6D9",
"iX c #C2C7DA",
"pX c #C2C8D8",
"aX c #C3C9D9",
"sX c #C3C8DB",
"dX c #C4CADA",
"fX c #C5CBDB",
"gX c #C4C9DC",
"hX c #C5CADD",
"jX c #C6CBDE",
"kX c #C6CCDC",
"lX c #C7CDDD",
"zX c #C7CCDF",
"xX c #C8CEDE",
"cX c #C9CFDF",
"vX c #C8CDE0",
"bX c #CAD0E0",
"nX c #CBD1E1",
"mX c #CBD0E3",
"MX c #CCD2E2",
"NX c #CDD3E3",
"BX c #CCD1E4",
"VX c #CED4E4",
"CX c #CFD5E5",
"ZX c #D1D7E7",
"AX c #D2D7EA",
"SX c #D3D9E9",
"DX c #D4DAEA",
"FX c #D5DBEB",
"GX c #D9DFEF",
"HX c #D8DDF0",
"JX c #DBE1F1",
"KX c #DDE3F3",
/* pixels */
"D.aX&XoX&X:XlXN.3.aXaXQ. .wX:X$XuX+X7.+X:XuX9X3.).2X|.c.`.c.",
"J.D.T.lX1X X].p X.Q.:X^.3.DX$XaXuX X*.9XgX).2X<.).$Xn.-.c.<.",
"j.Z.n. X^.oX XA ` T.1X-.P GX1XtXuX2Xi.9X9Xk.%X#.n.+XV.p.7.K ",
": n.5.Y Y ~ t + k -.j.e 0 5.3.z.F.c.B w $ - ` j > v 8 v K e ",
"m oXZ.Q G z.K. X1X&X7XT.Q.p J z.Q.F.n.G < v { O.n.F.) y.|.f.",
"^.aXCXSXD.1XaX1X1X$X1X:XDXQ D.NX$XR.uX X#.V.y.).uXmXQ.R.|.v ",
"$X$X7XfX3.$XaX6X&X$XQ.n.&X&.i.oXgX-X|.R.E Q.Q.BX9XBX2X$X9Xe ",
"N.aX7X`.` n.>.-.P c m  .Q.z.#.&X XuX). X{ 9X:X-XBX9XV.n.BXS ",
"[ T.6XT.Q 3.z.J.K.&.6 J &.V j.:XuXO.j.F.8 v *.f.V.lXa ) 2X{ ",
"Y T.1X^.9.wXaXtXfX7XJ ^.:X1XT.wXj.n.R.*.S F.c.B K F.#.V.|.Q ",
"V D.Q.n.-.NXwX X$X7X6 ~ D.6X>.z. .{ ) S n.aX9X). XgXlXgX-Xn.",
"; ~ X.Q Y CXtXwXQ.wXG ` 7XoXc h { *.E % K R.-Xy.Q.2X2X2X2X|.",
"Q.tX$X5.X.bX6XbXbXaXY -.NX$X3.7X2XuXuX9.<.R.2X{ 9XHXuXgXAX9X",
"oX:XJ.u t N.5.N.D.i.h J.lX`.&.DXgX9XvX2XV.).9X{ O.F.c.V.F.#.",
"7XwX].5 h j.G f z.&.t u V V c z.7.f.*.P j f.n.# . o Q f.3.) ",
"^.1XtXA K.KX^.X.lXNXcX[ D. XlX].-X7.k f.P.|.P.) { a -XvX).2X",
"9.lXNXQ j.JX^.J.1XfXNXD.N.U.n.X.a.U.9.lX7X7X:XfXZXY N.1X`.U.",
" .9.#.Y ~ m h 3.lX7X X#.P a.K.D.a.` X.^.X.-.T.$X6X` D.$XK.9.",
"5 ].1X$X&X:X7X>.].bXtXz.oXaX1XcX6X~ P i.P f % + e @ m ` Q h ",
">.aX6X1X1X7X6XA e.oX1X#.&X7X6X1XlXZ.9.7XNX$Xk Q Z.n.^.K.n.G ",
"`.^.^.&X1X6XQ. .Z.T.aX` 6X7XCX].$XK.j.bXfX6X-.bX6XaXcXaXNX^.",
"P #.J.z.i.n.A % 5.T.K.9 ZXfXfXNXCXa. .:X^.`.z.$X X:XoX].7XN.",
"e f  .>.9.e.#.3.X.P 5   5.5.3.Q.Z.m u e.^.z.D.^.:X6X$X:XfXJ.",
"J.7XlX7XtXNXcXtXtX0 G 5.` X.3.5 [ e.a.e.^.e X.tX:X6X$X:X7Xi.",
"` 1XfX&X7X XJ.].oXi.7X:XwX`.lXD.&XcX6X&XaXN.[ D.K.`.].^.K.P ",
"-.&X`.K.K.3.>.n.7X5.].1X^.a.Z.A #.D.`.oX^.[ Y ^.j.Z.N.a.5.u ",
"2 5.Y V G f A N G P t 6 N A p f h P [ X.~ u = < P Y G k p X ",
"2 1XwXaXbXwX6X .&.:X9.J X.&X^.:X7XfX7X X&XtXN.u 7XtX6X&X:Xi.",
"Q lXoXT.].&XbXz.^.lXbXtXQ &XtXJ.T.^.K.i.Z.wX XY `.$X&X&XtXT.",
"5.6X$XtXlX1X7XN.`.wXlXbXm &.>.[ ` k < ; p  .X.c Q.$X&X$X7XK."
};
