/* XPM */
static char *result[] = {
/* columns rows colors chars-per-pixel */
"40 40 36 1 ",
"  c #5C401F",
". c #473717",
"X c #4B4B4B",
"o c #565655",
"O c #2A2A2A",
"+ c #545352",
"@ c #423216",
"# c #50504F",
"$ c #434343",
"% c #5E5F5F",
"& c #3E3E3E",
"* c #49391A",
"= c #484846",
"- c gray22",
"; c gray30",
": c #4F3A19",
"> c #573C1B",
", c #6F6F70",
"< c #747475",
"1 c #6B6A69",
"2 c #5B5A5A",
"3 c #656463",
"4 c #392C13",
"5 c #664523",
"6 c #544836",
"7 c #222222",
"8 c #473E2F",
"9 c #7D7D7E",
"0 c #78797A",
"q c #313130",
"w c #664E36",
"e c #6A5846",
"r c #818182",
"t c #685E51",
"y c #969697",
"u c gray54",
/* pixels */
"9,:>5         @:  :8390<<qOOOX1%o;#+2%3<",
",<o*5     >   @:>.6%%ww6%2qO=1%2+2%%%%%%",
"o<<+ 5    >  >@.8%<#:.@@@3%o1%%%%%2o++++",
"X+<3.   >   >@*o016..*..48yr2o;;;;;#####",
";X+<o*     :@=3<e:.*.*@@48y,+XXXXXXXXXXX",
"X;=20;:  :.81<16:.**@.@@48u%XXXXXXXXXXXX",
"X;=+0<+.@-+9<+>:*......44=9%XXXXXXXXX;XX",
"X;=X<,%o100,6::**..*@@*4429%;XXXXX==XXXX",
";X&31#+;1y9 ::::...*@@*44392XXXXXXXX===;",
"X&19o+o;$1e:>*.....*@@*48092XXXXXXXX==XX",
"$%,,2+o=Xo+::**.....4..4=1,#XXXXXXXXX;X&",
"%+.#3+#&#%t::.......4.4*w>#+=;;XXX;;X$-&",
"#>:@%%$$##3w......*@44$3>::1#$=XX=$&--$%",
">:*@8,;X##o3@*...*@44=,<%o1u<;-----&-=,2",
":.:.@13$+;=06@***@4$%%=$==%yy92&&$$-=,2:",
"..*.@+r;=$$914@@442<%$&--&-3u<,%--q$,1>:",
"::..@8<,&$1<0=44-o,2$$$&&&-o<#;,%#o,18*.",
"*::@@*,r11t55oo2,<o$&$$-&--2%=$;0uu<6...",
"..*@@8,0<e>  >391+=&$$&-&-$,3+##%912 .>>",
"...@480<%<t> @3<##$&&&&-$qoteeeeeww%6.>>",
".*.4.o,2+29t86<o$;=&&$&-&&355  > .>ew@:.",
".*@@o,%oo+299r3$&#=&&$---=255    >>66.*.",
"*.@o,,oo+o+2ry1&$#X&&$-q&,e55    :>w=@*.",
"..o10%ooo+o#2u<-$;;$&$-O;<w5     >>618@*",
"@+,01+ooo+o#X3u$-#;$&$-q%1555   > >6r,8@",
"o0y<o++oo+o#=o,2q&=$&$-q,e5w    > >633%+",
"3yuo+o2o+oo+$#o2$q&=$&q$,w w    > >6-7-#",
"O3<#o%2++o++$;o;o%q-&$q%0  55     >6&OO7",
"7=3++2oo+++#$=o&3y2O-&-,0t>55     >6&OOO",
"$1o#2o+o+o##&=$$,t32qO;9+2t> 5  > .#-77O",
"<<,##2+++o##&-=%6@@o%3<+OO+,6>   :=,;OqO",
"0,rr#=oo++X;-$%6.*@4891qOOO+<o>>*=%%3+%<",
"e551<#$+o#=&=%6...@.43$OOOOO+928;1o##+#0",
"   >we;&#$&;+6:...@@8oqOO7OOO+0393=+o#;1",
"     :66&&oo>>*...@@#-OOO77OOO#rr+#+oX#w",
" >>  >>>$oo* :.*.@@;#OOOqO77OOOo,+oo#=+5",
"    ::@63o**>:*..48%-qOOOO777OOOo3#+=;w ",
"    :480u2@*>*.*.@2$qqOOOOO777OOO=#X;;5 ",
"    @8,;2,8. :.*@=oOqqOOOOO77O7OOO3#ow  ",
"   @80+-&%+.>**.8%-OqqOOOOO77O77OO,1t5  "
};
