/* XPM */
static char *out[] = {
/* columns rows colors chars-per-pixel */
"64 64 256 2 ",
"   c #513C34",
".  c #613D33",
"X  c #5A453A",
"o  c #66463C",
"O  c #77473D",
"+  c #7F553D",
"@  c #5C4C41",
"#  c #6A4D44",
"$  c #774D43",
"%  c #68564A",
"&  c #775647",
"*  c #6B5C54",
"=  c #795B53",
"-  c #7A624B",
";  c #776359",
":  c #7C6F66",
">  c #875949",
",  c #965A45",
"<  c #945D4A",
"1  c #9B5D4A",
"2  c #855D53",
"3  c #925F51",
"4  c #A45D4B",
"5  c #8D654C",
"6  c #94624C",
"7  c #9B644C",
"8  c #966A4C",
"9  c #9C6B4C",
"0  c #9C704D",
"q  c #866758",
"w  c #9B6552",
"e  c #956956",
"r  c #9D6B52",
"t  c #9D6C5B",
"y  c #8E7659",
"u  c #9D7352",
"i  c #9B745A",
"p  c #A4654D",
"a  c #A7694E",
"s  c #A7744E",
"d  c #A36651",
"f  c #A46B53",
"g  c #A86A57",
"h  c #AC6C54",
"j  c #B36C55",
"k  c #B36E5B",
"l  c #B96B58",
"z  c #A37353",
"x  c #AB7455",
"c  c #A57A54",
"v  c #AC7A56",
"b  c #A3735B",
"n  c #AC745C",
"m  c #A57A5C",
"M  c #AB7C5B",
"N  c #B37355",
"B  c #B87856",
"V  c #B4735B",
"C  c #BB745C",
"Z  c #B47B5B",
"A  c #BB7B5C",
"S  c #866C64",
"D  c #976D62",
"F  c #887669",
"G  c #97786A",
"H  c #8A7B74",
"J  c #A47462",
"K  c #AC7462",
"L  c #A47B67",
"P  c #AB7B64",
"I  c #AE766A",
"U  c #AC7D6B",
"Y  c #B47562",
"T  c #BC7663",
"R  c #B47B63",
"E  c #BC7B63",
"W  c #B4776B",
"Q  c #B37D6A",
"!  c #BB7D6A",
"~  c #C16F5B",
"^  c #C2755C",
"/  c #C37C5E",
"(  c #C37C64",
")  c #C87B64",
"_  c #C37D6A",
"`  c #C97E6D",
"'  c #AD825B",
"]  c #B4825C",
"[  c #BA855D",
"{  c #938474",
"}  c #948475",
"|  c #998979",
" . c #AD8364",
".. c #A98469",
"X. c #B38464",
"o. c #BC8463",
"O. c #BA8A67",
"+. c #B4836C",
"@. c #BB836B",
"#. c #BC936D",
"$. c #AB8677",
"%. c #B48573",
"&. c #BB8572",
"*. c #B48B77",
"=. c #BC8A75",
"-. c #BC8C7B",
";. c #A8937A",
":. c #BB9579",
">. c #BCA477",
",. c #C4835D",
"<. c #C28365",
"1. c #CA8865",
"2. c #C3836C",
"3. c #CC846C",
"4. c #C48B6C",
"5. c #CC8B6C",
"6. c #D5896A",
"7. c #D48A6D",
"8. c #C7946A",
"9. c #D4956C",
"0. c #C48572",
"q. c #CA8674",
"w. c #C38B74",
"e. c #CB8B74",
"r. c #C38D7B",
"t. c #CB8D7B",
"y. c #D28B73",
"u. c #D58B77",
"i. c #C39374",
"p. c #CB9374",
"a. c #C5927C",
"s. c #CB937D",
"d. c #C79B7C",
"f. c #D49274",
"g. c #D3937C",
"h. c #D89878",
"j. c #E48C6D",
"k. c #E59678",
"l. c #D0A475",
"z. c #D5A379",
"x. c #E4A27B",
"c. c #9F8C84",
"v. c #9C9386",
"b. c #B88E83",
"n. c #A79789",
"m. c #BC9383",
"M. c #B09A8F",
"N. c #B89988",
"B. c #B0A78F",
"V. c #B9A48D",
"C. c #AEA396",
"Z. c #B7A896",
"A. c #BFB1A3",
"S. c #C59483",
"D. c #CC9582",
"F. c #CA9487",
"G. c #C59B84",
"H. c #CC9B84",
"J. c #C59989",
"K. c #CC9C8B",
"L. c #D39583",
"P. c #D49B84",
"I. c #DB9C83",
"U. c #D39D8B",
"Y. c #D99988",
"T. c #D39D93",
"R. c #E29D88",
"E. c #C9A58A",
"W. c #D8A687",
"Q. c #D3A28D",
"!. c #DCA38C",
"~. c #D6B48D",
"^. c #CCA394",
"/. c #C7A998",
"(. c #D4A493",
"). c #D7A696",
"_. c #DCAB93",
"`. c #D4AB9A",
"'. c #DBAC9B",
"]. c #CBB39C",
"[. c #D9B49A",
"{. c #E6A78A",
"}. c #E8B58E",
"|. c #F3B089",
" X c #E6AA95",
".X c #E3AD9B",
"XX c #E6B799",
"oX c #F3B999",
"OX c #D6ADA3",
"+X c #C8B6A7",
"@X c #C7B4AB",
"#X c #DCB3A3",
"$X c #D5B8A7",
"%X c #DDBBAA",
"&X c #D8BCB3",
"*X c #E6B7A5",
"=X c #E4BBAC",
"-X c #F3B8A6",
";X c #E4BCB3",
":X c #E8C29B",
">X c #F5CC90",
",X c #CEC3AB",
"<X c #D7C3AB",
"1X c #CDC5B7",
"2X c #D9C7B7",
"3X c #DCD1BB",
"4X c #E8C7AA",
"5X c #F4C7A9",
"6X c #ECD3A6",
"7X c #F5D6A9",
"8X c #E3C2B5",
"9X c #E7C8B6",
"0X c #E3CBBB",
"qX c #EBCCBD",
"wX c #F5CAB9",
"eX c #E6D5B8",
"rX c #E4D4BB",
"tX c #ECD5BC",
"yX c #F5D6BA",
"uX c #F5E5AF",
"iX c #FAE3B8",
"pX c #D2CCC7",
"aX c #DCCCC4",
"sX c #DBD6C8",
"dX c #E3CDC2",
"fX c #E8CAC2",
"gX c #F2CBC3",
"hX c #E3D4C2",
"jX c #ECD4C6",
"kX c #E5DAC4",
"lX c #EBDDC4",
"zX c #E4D4CC",
"xX c #EAD5CA",
"cX c #E5DBCB",
"vX c #EBDCCC",
"bX c #F4DAC8",
"nX c #E9DBD6",
"mX c #ECDCD4",
"MX c #F5DDD4",
"NX c #EAE3C8",
"BX c #ECE1CB",
"VX c #F6E4C9",
"CX c #EDE4D3",
"ZX c #E9E2DA",
"AX c #F2E3D4",
"SX c #F3E4DC",
"DX c #F3EBDC",
"FX c #F8E9D9",
"GX c #F8F3DA",
"HX c #ECE9E5",
"JX c #F4EAE3",
"KX c #F7EAE5",
"LX c #FAF5E8",
"PX c #FBF4EB",
"IX c #FEFAF3",
"UX c #FCFAF7",
/* pixels */
"> -Xk.L.U C.HXBXUXLXn.- S.5.2.w 1X]._ W W g 7 U +.&XMXK f A *XB.# J Y 6 > Z.JX#XtXtXv.; =.C g U %X<X@Xb.U 2XpXHX`._ C E V k.AX} ",
"Z.# > S kXnXQ b K.jXwX,X: ; ;.$XOXk u.*XOX( 7 9 :.zXaXr.n $.Y.:X<X; # V.JX/.d 2.R.9.6XrXF $ e ].%Xn m.e.6 E -.^.aX+.C 3.) g.k.lX",
"oXvX2XxX).T 9 p p V B z.9XeXrXJ < 1 4 F.~ V k 6 ^.JXfXt f `.8XV r.hXCX+XJ `.f 3.3.=.,.{.tXeXrXL.-X_ d 0.5.h./ ( n n ( g.) u.I.5X",
") jXFX*X&XC x r 9 f E o.,.kXq d k 3 1 K D.l Y 7 L #XJ.K g (.2.t.Y.-X+X, m.&XK C ( a ,.h.j.lXt , ) T -Xq.2.2.k C V P.;Xg.^ C xXt.",
"C yXZ.OX[.Z x f 8 8 v ] [ 3X$ U F.` I ` T.x g 9 7 f f.&.x G.@.R.OX%Xc.l ZXnXOX) t.[ N / j.9XO l ~ g  XD.4 ~ ) U.2.).OXK.t.3.I.~ ",
"l jXn.Q.d.T.B v z z z M X.6X$ T.;XT.T ~ ;XK f 7 r 9 e._.v @.e.-.gXKXc.) UXaXr.l 6.Z H.N 8.4XO j 1 W T g 1 1 7 d ).mXcXnXU.a C h ",
"9.4XB.A @.H.Z X.[ M z c c 9XH F.;XY.q.R.qX.X! r 6 r u h.f n I.hXKXSXA.T.KXKXwX.Xs.FX/.x 8.4X..g 4 _ g < , 3 K I A mXvXJXH.h ) E ",
"Z eXE.d.[.K <.[.[.d.' M 0 z.B.o F.K F.;XT.N.% | |   & Z d.@.+XJX&XsX&XJ.pXzXZXPXMX9Xp.E.lXLXZ.o u.k j 1 , e q ;   = L `.+.h l 7.",
"9X%XK.;X2Xr ).E.E.' c  .i [ <XB.X K T.%.2 V.BXXXXXeXC.% 5 +./.&XUXaX%XR.FXUXKXnX(.O.4.JX1XPXAX= 3 b 1 > & F 2XAXrX,XH % 5 p w J ",
"].r.&.^.&.X.$Xi. .8 y i ' u ] :XZ.% # M.lXN.d 0.z w.:XBX| X H sX+Xr.f gXwXSXxXD.C N bXIXsXmXIXlXn.= J q ].8Xs.I.bXVXAX$X; X G $X",
"p F.w.T t.V :.<X*...5 8 u 8 z / |.eXeX+XD > 6 ! n d =.PXPXBX0XzX8XO.] 9X'.I.2XA C d.JXLXnXsXSX*XwXFX+XBXE.2.^ g.;XY. X}.wXeX+Xm ",
"4 V w.r.s.x E.`.]. .y 0 ] c i.z ) VXZ.g 0.t r f R 8 `.nXUXPXM.qX`.s.d.[.8Xh.;X#X9X*Xd.,.I.bXxX'.k.5X0XK j f C e.Y.3.u.y.k.DXq > ",
"w k C w A f %.2X%XW.;.z d.O.] b d oX| Q *X*XP n V Q b %XPXCXn.^.H.`.E.W.%Xo.W.AXMXzXX.Z ,.1.{.T..X8X2Xh d j V ( g.!.3.) j.rX# > ",
"1 d g p x Z c i.d.E.c u v <.A P a _.C.MX;X=Xr.Y n g d g vXCXD =.&.%Xo.E.8.c x rXmX/.v ' Z A e.*XwXI.,Xd f a V C j A ) ( k.4XD J ",
"1 p k C R 2.Z m P #Xz 9 9 x 2.N j _.^.KXT. XU K e.+.r b w.CXF Z f.*Xi.*.v Z c ' 4.E.O.[ O.[ d.2X%. .B.j 7 < d C D.C h E 1.:X} > ",
"1 g g 2.n 5 - | | * 6 V p E 0.h 7 0Xg gX*X'.-.f V ) f x E }.Z.5 ! H.5XXXm 0 # X X v. .] O.9.VX*XL N.N.Y 5 , p a g C f C T {.,XX ",
"  w V t G +XeXyXtXtX{ # P OXm.w $X/.T ;XgXS.U f k h &.f <.}.tXS q &XP.*.q B.NXNXCX,X; % X.8.8.S.*.&XD 6 G &XK R Y ) 3.3.! 6.9XZ.",
"2X; # E.nXN.x B a ,.GX+X; ; G <X].p 4 #XMXOXR =.q.e.3.D.x p.wXbX@X* = n.pX,Xd.>.:.3XDXB.o y ..rXhXZ.e < i ^.S.E ! g V ) R @.1.4X",
"oXtXlXcXPX`.s s a @.xX4X3X<X9X@., l 7 OX*X;X_ R 3.e.3.+.*.o.I.tXbXcXNX3XE.:.:.A.| 3XHXUXIXZ.GX2XQ Y.U e , U d 0.q.y.Y 4 N A A f.",
"7.*X+XZXJXLX}.y.h K.KX*X{.2X& 4 p l T _ ! =Xq.f k V s.B x <.g.P.{.5XkXi  .:.<X].Z.PXZXHXHXNXV.b %.0.t._ K U -.q.JX(.k.q.*.k ^ 7.",
".XXXn.mXmX0XY..XL.'.IX=X-XcX$ 4 k d l ` 3.&XL.T f C t.3.o.A U.(.Q.W.n.u m E./.E.>.3XSXmXyXBXy L U Y 0.! T K W zXUXsXH.w.Q N M V ",
"W.[.C.dXjXK._.qX.XwXPXSXFXjXO l u.R.` ` ) 9X_ _ ) K.Q.g.A A Q.i.KXH.n.i i d.l.:.V.ZXZXSXvXtX5 o.w < n T K Y 9XHXUXHXnX2.Q h  .f ",
"<.[.2XjX(.Z d.aX0X_.SXAXKXJX; V q.4 l ) ) `  XL.u.fXhX'.p.( e.2.B E.| z i O.M ' :.mXmXmXPXHXq p p Y f h C %.dXPXPXHXJX*XP.L /.v ",
"X.kX&XzX+Xz [._.eXe.SXmXAXBXM.w ` T.l ~ ) ` q.G 2 D e.Y.y.y.3.U.3.%XV.R w.' ' X.i.mXcXnXJXLX} t w.! f k d L & : : v.pXXXXXnX1XG.",
",X+XrXIXUXJXbXX.E.yXd.zXE.6.4X= 2 l l l < b.JXUXsX@XH D H.( ) m.$.A.f ! @.s 0 ' 8.ZXcXnXmXFXlX; D Y k n & G <XAXHXaX{ % E.FXsX| ",
":.0X2XxXUXDXyX] $X:X7XVX<Xp.*X3Xn.o $ G 2XdX.Xy.q.*XCX@X: 3 L /.$X0.R.b ( f c u d.9XcXCX<Xh.yXBXc.  o G 2X2X%XjX.XUXPX3X} : BXsX",
"4.hXfXdXIXVXVX<X~.<X<X9.bXKXKXjXXXzXdXdX%.e.g.0.2.&.`.W.tX&XzXOXY k j 7.f x z 9 o.<.<Xd.[ <.[.oX5XeXeX,XD.^ 8XJX XbXKXIXLXLXNX+.",
"0.4XxXmXvX7X6XiXuXiX~.v _.MXvX:.l *XA.`.K.! 3.*Xe.@.%.K f.hXM.F.T.l h k a f f x d.E.f ] [ s.4.Q.{.tX<XZX&.2._.q.*X&XzXpXFX3X5 m ",
"A <.<XE.8.W.VXuX>X>Xl.' [ :X).i.j  Xc.%.pXw.#X(.(.5.P.`.*XjX%XL.q.Y.t.( ~ V f f 0.`.x ] A ! P.;XY.:X+XzXmX#X@.a qXI.bXkX9.eX> p ",
"e.~.c O.O.W.}.eXiX~.l.] 4.[ =.K.^ ~.c.aXzXS.U.2.OX@.=.OX{.*Xn.W T.` ( t.).) p h r.`.A A N ).8X_.@.AX2XxXmX#X2.Y =X'.P.$Xx.NXO p ",
"<.Q.v [ [ 8.~.3X[.E.l.{.8.k.jXE.) =X2XQ %.zX'.2.f.XX&.0.5.4Xc.b.T.T.u.&XS.OXN x +.E w.! ! o.#XvXf 3X@XjXfXQ.!.Q. XFX X=XCXCX- 9 ",
"<.E.,.[ [ :.H { { F :.9.^ f.LX%Xx cXS.&.-.nX^.J /.vXS.t r {.2Xq S.W 0.V ).&X$ # X $ /.)._ e.8X&X@.NX/.fXD.2.OXt.T..Xh.h.IXHXB.+ ",
"+ [ #.' - V.CXBXVXIXn.& 6 @.S.> @X/.K G *.^.! $.N.b.Z g.+.5.eXM.H 1 p p 3 $.FXGX3X/.: ; %.T /.q <XN.^.Y E w.#XA ( B N 8.4XtXtX* ",
"Z.X : V.iX/.' O.z.4X4XeX| o N.mX].K S.U i Q r.U D.:.t @.&.Z j.wX@X@ o F 2X0XU.^ ^ 4.4X@XF q @XFX@X< 7 h ! @.D.D.D.f ( 6.) ,.VXNX",
":XuXeX,Xi ' ] [ z.O.5.k.yXNX,X`.Y.(.Q n %.S.r.r.U.H.-.Y x h C 7.wXlX<XcXQ T.e.C A f ^ I.eXrX$XU U.J.w Y n ! #X'.t.a.3.6.7.W.VXl.",
"[ ~.B.u 0 ] ] o.[ 5.P.Q.j.lX#Xe.< U.K C q. X].&.Y.K.D.=.d V E ) 7.wX+XzX&.'.'.T C T E <.P.3X. T S.!.&.n U OX8XY OX=.I.R.3.4XlX] ",
"[ :X{ 8 a B ,.) g.P.!.p.6.<Xr ) w.m.! ( 2.Q a.a.!.G.R  XJ k C C K.k.} &XW &X).C e.w.L.!.wXPX2 , Y.K r.S.! T.fX^.*.2..X7.T P.A s ",
"1.>X| p C ) ) <.N e.P./ l 5X} y.3.w P d Z Q 2.+.s.-.w.I.{._ ( _ g.tX| N.g `.8Xg t.J.S.MXoXkX& g T F.;X=.D.`.sX@.s.%X*X*XoX` B ,.",
"~.:X>.B ^ ^ ) y.3.8.W./ / 7XZ.).@.( i $XJ h R o. X%.g 0..XI.a.y.P.W.n.x %.#X=.2..X`.m.H.I./.q T.T.s.#XU.0.K.#XG N.s.( g.h.6.,.z.",
"l.eXf ^ j l _ t.y.D.g.8X[ h.VX& %.!.@.g U 6 % } ; & > R..X(.S.) G.rXU f H.S.a.s._.w.H.M =.:XH $.b.`.T.w.R G H C.c.* > <.,.B 6.z.",
"2X:.q.e.Q fXg L.3.e.p.2.5./ iX3XF F.5.i q Z.sX4X9XBXn.X @.-XL.G 2XV.V h r.! b @.:.G.a.i.E.}.9XF S Z E 9 = 2X2XtXkXlXA.# 9 ,.] u ",
"+.E.3.Y J.J._ F.t.f Z 4.B ,.|.GX1X; & } sX8X%X*.I.1.4XCXc.* n.eXm.< r f D.%.< r e X.Q.P.d.s.4XGXM.  o | VX[.D.t 0.B 5XtX} X ..NX",
"r.T.T h T U.l 0.s.A 2.s s B {.~.XXDXGXUXaX4.[.:.g.!..X-XZXkXZ.J g b > R fXF.6 q 5  .W.P p.Y.P.~.4XeX3X[.G.xXs.=.Q 5 q.}.6XkX].-.",
").OXl _ T _ j L.;XE b s 9 ] 4.l.#.yX+XG.X.] G.).*XXXJ %.1.LXG J b.D.W b $.w L /.5 R 5.N.n X.4.Z 1.XXZ.r [.&XZ ..:.$.e.t.1.rXe 0.",
"F.F.).).T.T._ t.4X{.] s ' ] O.8.E.ZXv.u 5 z `.[.9XoXL B k.lX$.;XfX8Xg.0.f 6 J.&Xn x o.n +.!.R 0.8.XX{ z v 8 n dX+X=.V -.A rX= a ",
"` T W T t.D.4.P.[ W.B s s ' ' ' ~.LX{ 8 0 b _.{.W.|.w.T 6.-XZ.cXMXKXf.k j p fXaX*.8 &.K x <.s.R 1.XX;.v x z -.JX8XJ.R a./ 8X. _ ",
"` r.T E t.C ! @.[ ' ' ' ] ' ' ' E.GXn.8 9 M G.] z 5.h.A 7.5Xn.$XaXfXU.) e.a zXc.q 6 A U J.f E g.b ].+XZ 4.z ^.UX9XT.Y x ! [.G ! ",
"k ` j V h 5 % v.: X + ' #.0 y  .#.CXy y 8 O.E. .c Z T I.h.{.rX| $X8Xe.).).t C.C.c.H = 2X/.w J S.*.kXN.a.).r./.PX].D.2.=.8X*X/.$ ",
"2 g q.D q 3X3X4X7XLXB.- ..{ y - ,X;.u >.y ' i.=.~. XoXH.=X}.6X3X: ..Z :.v.$XFXBX[.yXZX} ; b.@XM.+X/.b.(./.T.xXSXMXfX%XxXmX!.hX: ",
"C.X # b.LXN.+.L h.l.VXGXv.% { ,XE.5 8 ' :.X.H.M w.9.oX!.OXeX6X7X3X: q ].NXd.^.l.s A eXyXpXH @XKX&X=.R D.KX2XT.nXMXZXaX(.(.Q.IXCX",
"LXBX0X$Xt m  .:.' ' l.uXGXkX~.' w.Z z [ l.O.m m u c ] k.|.{.~.:XuX3X,XV.9 9 s B N s _.h.bXCXzXgXMXN.3 U.+.%Xq.JXnXMXV.t Y jXSXLX",
"JXLXM.K n 8.z.#.h.u ' yXuX3X- 8 p s 9 R d.' z 0 ..E.:.z x.|.x.>X>X>X1Xs a s 9 B f.x w.W.oXAXG *XgX&XOXOX> J.).s.zXm.D.! `.mXmXnX",
"KXUXA.W f e ' 8.1.[.4XvXuXsX# 6 j 7 h Z #.*.v i :.V.*.z }.>X7X6XuX>XNX' ' 0 8 9 A z x X.2X2XS OXgX;X;X).3 `.^.K.;XwX{.=X/.E.r.jX",
"=XKX@XK.'.R x o.8.VXPXzX>XUXq e k Y d v A z f i i *. .Z 8.6.4XXX~.iXA.x.8.s 0 p [ o.a N.UXPXS OXOXgXOXT.^.%.`.[.w.qXPXUX&XK q.I.",
"y.qX9X/.@.L.<.s.G.z.GXjXjXIXc.W E Q 7 x ( f r 0 z v v ] 6.f.*XXXj.~.V.>X8.9.x.C s B ' N.SXLXn.N.OXT.W S.T.).K.+.w K.KXPX#XQ 2._ ",
"E BXJ *X9XI.( z .._. XXXW.bX&X2 < 6 7 d 6 6 X % * o y 4./ y.7.'.Y.NXY / z.`.Q.B j B s 8  .PX+X; W g k J.r.2 o H % # @X^.:.f V C ",
"$X@XT #Xs.).2.E }.J.W._.y.:XIXH % 6 7 w # N.LXLXlX0X| % J ) n b.0X&X_ E FX|.}.V B A P 0 m [.KXB.  w &.e q /.NXXXeX2XF ; -.( Z f ",
"$X1 _ U.( V ( 1.{.L.2.Y./ 6.|.tXn.  X y eXeX`.8XwXE.tXhX} # V.CXb.K.E V SX9.#.7 z E V z 9 0 z.iXZ.% # N.BX`.@.2.p.k.bX2X: & F +X",
"< g l t.V l T C 3.g.I.( Y.e.{.k.[.eXeX/.L n =.s.8XCXPXAX9X2X@XS.k S.l T MX9Xd.b f z Z z v O.] {.5XeXrX].+.^.'.=.0.<.R.yXBXsXvXN.",
"4 l y._ k C j g.L.) u.V A ( 6.W.h.5X].M.t t `.=X9XSXnXxXKXLXU l 0.t.l Y ;XFXK.v M Z ] 8.X.] d.p.5.{.M.U 6 0.r.! E 2.s.I.6.cXD 4 ",
"4 l ( ) t.Y.u.u.=X).y.2.5.A @.L.*XyXC.d 0.L '.=Xp.4.f.{.W.tX$ 4 j g l j =XgXjXA ..p.p.,.#.M O._..X_.| S.< f C E 2.2.e.n 6.sXO 4 ",
"l ~ q.) ` ) 3.u.Y.0X#X4./ J.HX-.I.yXC.t.{.S.Q d.z Z <.<.9.9Xo 4 4 4 C g g.3.9X2.0 Z [ p.M  .,.I.P.XX} J aXg k _ A 2.V g 6.cXO 4 ",
"` ~ T a l h l ^ l g.3.'.L.!.nXSX-.[.M.Y T 0.R 9 O.&.z 5.3.}.G 1 l j T T _ ( %X0.0 z s i.Z v B t.U.[.;.@X].&Xd 0.g.Y ( B A 8Xq l ",
") ` ` 4 t L S S ; # g T 6.7.J.'.b.bX%.-.B f 9 J X.+.w.b V h.C.. j T j V T 3 F n.F X e 5.1.j j g.! hXU b.=X> Q ^.Q.3.( A N I.C.> "
};
