/* XPM */
static char *out[] = {
/* columns rows colors chars-per-pixel */
"64 64 136 2 ",
"   c #746B5E",
".  c #776E60",
"X  c #7B7366",
"o  c #77726B",
"O  c #7E7669",
"+  c #7F7A72",
"@  c #80776A",
"#  c #827A6D",
"$  c #857E72",
"%  c #848177",
"&  c #8A8175",
"*  c #86837A",
"=  c #89867C",
"-  c #8B887F",
";  c #938B7E",
":  c #6D6981",
">  c #68648C",
",  c #706D8F",
"<  c #767185",
"1  c #7A7689",
"2  c #706E90",
"3  c #747193",
"4  c #7A7691",
"5  c #7E7A96",
"6  c #767398",
"7  c #7E7A9A",
"8  c #807C8D",
"9  c #817D95",
"0  c #827E99",
"q  c #8A8781",
"w  c #8D8B82",
"e  c #8B868E",
"r  c #8F8A8E",
"t  c #948E83",
"y  c #988F82",
"u  c #938F89",
"i  c #939087",
"p  c #9A9285",
"a  c #949189",
"s  c #9D968A",
"d  c #9F988C",
"f  c #868295",
"g  c #85829B",
"h  c #89859D",
"j  c #8E8A9D",
"k  c #918C91",
"l  c #918D9D",
"z  c #9F9B95",
"x  c #9B979E",
"c  c #A1978A",
"v  c #A29A8D",
"b  c #A59D92",
"n  c #A5A39B",
"m  c #A9A69E",
"M  c #AEA99D",
"N  c #B1AB9F",
"B  c #8582A0",
"V  c #8A86A1",
"C  c #8E8AA2",
"Z  c #928EA3",
"A  c #928FA8",
"S  c #9692A5",
"D  c #9995A6",
"F  c #9E9BA5",
"G  c #9692A9",
"H  c #9996AA",
"J  c #9D99AB",
"K  c #A29EA5",
"L  c #A29DAC",
"P  c #A19EB0",
"I  c #A5A1A6",
"U  c #A9A6A2",
"Y  c #ACABA3",
"T  c #A5A1AD",
"R  c #AAA5AD",
"E  c #AEA9AC",
"W  c #B3ADA1",
"Q  c #B2AEAB",
"!  c #B6B1A5",
"~  c #B4B2AB",
"^  c #BCB7AB",
"/  c #BEBAAE",
"(  c #A6A2B1",
")  c #AAA6B2",
"_  c #AEA9B3",
"`  c #A7A3B8",
"'  c #A9A6B9",
"]  c #ADA9BB",
"[  c #B2ADB4",
"{  c #B2AEB9",
"}  c #B6B1B5",
"|  c #BAB5B4",
" . c #BDB9B2",
".. c #B6B2B8",
"X. c #BAB5BA",
"o. c #BEB9BB",
"O. c #C0BBAF",
"+. c #C1BDB2",
"@. c #C2BDBC",
"#. c #C6C1B5",
"$. c #C8C3B7",
"%. c #C5C1BE",
"&. c #CAC5BA",
"*. c #CEC9BC",
"=. c #D1CBBE",
"-. c #BBB8C6",
";. c #C1BCC1",
":. c #C6C1C1",
">. c #CAC5C2",
",. c #CEC9C3",
"<. c #CCC9CC",
"1. c #D3CEC2",
"2. c #D3CECA",
"3. c #D6D1C5",
"4. c #D9D4C7",
"5. c #D6D1C8",
"6. c #DBD6C9",
"7. c #DED9CC",
"8. c #D1CFDA",
"9. c #E0DBCD",
"0. c #E2DED1",
"q. c #EBE6DA",
"w. c #DAD9E6",
"e. c #DEDDE9",
"r. c #ECEBE5",
"t. c #E6E4ED",
"y. c #F4F2E9",
"u. c #F8F7EE",
"i. c #FBF8EE",
"p. c #ECEAF1",
"a. c #F1EEF3",
"s. c #F7F5F1",
"d. c #F8F7F3",
"f. c #FCFAF4",
"g. c #F5F3FA",
"h. c #FFFFFC",
/* pixels */
"+ % U Y n Y Y Y E ~ Y n Y } ~ Y U Y Y  .Y U Y U Y Y n Y Q n z - t a Y Y ~ Y Y Y n ~ ~ U ~ n ~ m n Y U n Y n ~ U ~ Y U U n Y u o ",
"i r.i.f.h.h.h.h.t.a.d.h.h.h.f.h.h.h.h.h.h.h.p.e.h.r.h.h.f.h.y.- % r.h.u.h.f.h.h.h.h.h.h.s.h.f.d.h.h.h.h.h.h.h.h.h.h.f.h.d.f.y.i ",
"w 7.3.>.' J H ,.T H 6.6.o.,.4.4.6.4.%.X.4.4.V C ,.S C ` <.7.6.p a 7.5.1...( { 6.6.0.5.,.5.*.6.0.4.4.4.<.5.6.4.6.4.( G ..3.7.6.p ",
"* +.} ( .._ :.o.o.>.o.{ o.) 3.%.@.2.) ..( _ X..._ o.' _ ( >.*.p w #.,.J J _ _ T ,.3.o.1.A ) 7.6.9.6.) S 5.o.,.:.J J J H ) q.*.i ",
"w  .l } _ [ 1.4.&._ X.X.] X._ H L _ ..) _ H H +.4.3._ _ ] ( *.p - / R H :...X.) ( ' X.X.I ' o.:.@.%.) T } _ ( J L [ { >.P o.*.s ",
"- #.S F _ S 2.4.6. .%.} 4.6.6.3.5.6.6.4.) o.,.4.6.,.V _ ] J $.; w / S ) } ( _ } :.,.4.4.4.1.) E ) ( ,.6.4.4.1.%._ L Z [ _ _ &.c ",
"- +.j o.3.*.4.1.4.&.6.4.6.6.6.3.6.6.4.6.6.6.6.4.6.3.#.4.,.] *.t * / F T } _ ) 4.6.6.6.6.6.6.6.6.6.4.6.3.4.4.6.4.4.( ) X.[ Q &.p ",
"- +. .| 4.4.6.4.4.3.6.6.6.6.4.4.6.*.6.6.4.6.6.6.6.6.6.4.;.3.1.p - / &.J _ ..7.4.6.4.6.6.6.6.6.6.4.6.6.6.7.4.3.6.6.4.{ { { 9.&.p ",
"i j x } >.6.6.6.6.6.6.6.6.6.6.6.6.3.=.6.7.6.6.6.1.3.=.@.[ P l c = / &.#.P @.6.6.6.6.6.6.6.6.6.6.6.6.6.6.6.6.6.6.6.4.;.) ,.9.$.s ",
"w I j @.{ 1.4.6.6.6.3.6.6.6.6.6.1.6.1.6.6.6.6.6.6.6.O.S ;.H U c = +.#.%.( 1.6.6.6.6.1.6.7.6.1.6.6.6.6.6.6.6.6.6.6.6.*.) 5.9.&.p ",
"w O.*.E } %.6.1.6.6.6.6.3.6.6.6.6.6.4.6.6.6.6.7.3.4.X.V ..9.@.y w  .$.[ R 6.6.6.7.6.6.6.6.6.6.6.6.6.6.*.6.6.3.6.6.1.6...>.9.&.p ",
"w #.$.T ..] 6.6.6.6.6.6.6.7.6.6.6.6.6.6.6.6.6.6.6.1.L L ) 9.+.y w #.$.&.E 6.6.6.6.6.6.6.6.4.1.6.6.6.6.$.6.3.1.6.6.1.4.X.6.4.&.p ",
"w O.R Q I 3.6.&.6.6.6.6.6.6.6.6.6.6.9.6.6.4.6.6.4.4.@.L X.@.+.c w / ~ h J 7.6.6.6.6.7.6.6.6.6.6.6.7.6.6.7.6.6.6.6.4.4.( P 2.&.t ",
"% O.~ J } 7.6.6.6.3.7.6.6.6.6.6.6.6.6.6.6.9.6.6.1.1.=.| L ,.&.y = +.#.) E @.6.6.6.6.6.6.6.6.6.6.6.=.=.#.6.6.2.6.6.4.1.[ o.7.#.; ",
"w O.&.+.) 4.6.6.6.6.6.6.6.6.6.6.6.6.6.6.6.6.6.6.6.4.1.R 4.9.$.c - +.&.=.@.K 6.6.6.6.6.6.6.6.6.6.6.6.6.6.6.6.6.6.6.6.) %.9.9.$.p ",
"w +.$.} F *.6.6.6.3.7.=.6.6.6.6.1.6.6.6.6.6.4.6.6.4.2.L *.9.*.b w / &.*.o.) 6.1.6.6.6.6.6.6.6.6.6.6.6.6.6.6.6.6.6.6.[ @.9.9.$.v ",
"= O.*.~ H *.6.6.6.6.=.9.6.=.6.=.7.6.6.6.6.6.6.6.4.&.1.Z 2.q.@.; ; O.4.@.@.I @.1.3.6.6.6.6.6.6.6.7.6.6.6.=.6.6.6.6.6.[ %.9.9.&.p ",
"w O.*.1.' 6.6.6.6.6.6.6.6.6.6.6.6.6.6.6.6.6.6.6.9.1.4.L &.9.,.y $ O.@.6.@.I 9.6.4.4.6.4.6.6.1.6.6.6.=.6.6.*.6.6.6.6.L %.9.9.$.p ",
"- #.~ J E 6.4.6.6.6.9.1.6.6.6.=.6.6.6.6.6.6.7.6.1.$.6.[ L ,.*.; t @.@.K _ 1.6.1.6.6.3.4.6.6.1.4.6.6.6.7.6.6.6.6.4.6.3.} } 7.$.; ",
"w +.T E F 5.6.6.6.6.6.6.6.6.6.6.6.6.7.6.6.6.6.6.6.6.1.L ;.@.&.y ; +.O.0 J 7.1.6.6.6.4.3.6.6.4.6.6.7.6.=.6.4.3.4.6.6.4.) J 3.$.i ",
"= O.$.J ) ) 6.6.6.6.6.6.6.6.6.6.6.6.6.6.6.6.6.7.6.6.L P L 4.+.c t +.@.*.[ 6.1.6.6.6.6.6.6.6.6.6.6.6.6.6.6.6.6.7.7.4.4.X.3.7.$.a ",
"% #.*.E J X.6.1.6.6.6.6.6.6.6.4.6.6.7.6.6.6.6.6.6.6...C [ 9.&.; = &.*.Q R 1.6.6.6.6.6.6.6.6.3.6.6.6.6.6.6.6.4.7.4.6.4...#.7.$.i ",
"= K 0 X.J ,.1.6.6.6.6.6.6.6.1.9.6.6.6.6.=.6.6.6.6.6.,.A @.G R c u  .1.&.L 1.6.6.9.6.6.6.6.6.6.6.6.=.7.4.6.6.6.6.6.6.1._ 6.9.$.p ",
"w j Z E >.6.6.1.6.6.=.4.9.6.6.6.6.6.6.6.7.6.6.6.4.=.9.;.@.L e ; t &.&.+.S O.6.4.6.6.6.6.6.7.6.6.=.3.*.6.6.7.6.=.6.4.>.} 3.6.$.p ",
"* O. ._ 4.6.4.6.6.4.6.6.6.6.6.6.6.6.6.6.1.6.6.6.6.4.6.6.;.5.@.y q +.$.k P _ 4.#.6.6.6.=.9.6.6.6.4.9.9.1.9.4.4.4.7.6.o.| X.7.$.p ",
"- #.j  .3.&.4.4.4.6.3.6.6.&.6.4.6.*.6.6.4.4.4.6.1.4.1.4.;.H *.c - O.D S ) L H 4.1.9.@.9.=.6.6.6.4.4.4.4.4.4.9.9.4.] ..@.-.X.$.c ",
"* +.j T _ S ,.4.1.,...J 2.4.4.3.3.4.=.3.J [ *.6.4.&.0 _ ;.P @.v w ^ g Z ) Z H L @.;.1.6.6.;.E E _ P ,.6.4.4.3.@..._ ( } X._ &.p ",
"w +.j _ R _ 3.3.o.C B J H [ K C Z T [ D G 6 0 %.6.3.L L _ ] 9.v w +.I V @.L T H G L E [ K E @.@.@.@._ L .._ ) P ( ..X.>.' | $.p ",
"i ~ m F R T  .} } | T F T l 1.@.o.3.F R j L } [ [ @.L P L ;.+.c - ^ O.D C H J Z =.+.W 1.0 O.9.=.4.4.E S 1.+.,.@.L L ) L ) 7.$.c ",
"+ ~ +.~ S l l  .C 5 *.=.Q ~ *.=.=.=.~ E =.=.2 9 +.h 0 Z +.3.O.p = ! O.@.R Z K =.@.3.1.1.+.@.*.+.=.=.*.+.&.&.=.=.*.K Z [ 1.6./ ; ",
"+ v N W W M ! M < k M N W W W W N W W N N N r : W ! N W ! W b $ # s M W W N N W W W M O.W O.W N W ! W W N N N N N W N N ! W b & ",
"+ + # % # X . X + X & # # $ # X @ # & # $ @ # X $ $ # # @ @ y q b * # $ # # # # @ @ # @ @ @ @ # $ $ @ @ @ @ # $ $ $ # $ $ # ; q ",
"w w n Y m m Q ~ ~ n n U ~ ~ Y Y  .Q ~ U n Y ~ m ~ m Y Y ~ Y r q u u m n Y ~ Y ~ Y ~ Y m Y ~ E Y Y ~  .m Y n m Y m n Y Y U Y i q ",
"u r.h.r.h.h.h.h.8.g.h.h.h.h.f.d.h.h.h.h.h.h.t.w.h.h.h.h.f.h.y.s q r.u.f.h.f.h.h.e.e.h.f.d.d.h.h.h.h.f.d.h.d.p.e.u.h.h.h.f.h.y.d ",
"w 7.4.@.H J H ,.A 5 1.4...;.4.4.,.4.@.} 4.4.6 3 >.C g G  .7.4.t * 2.6.:.J J G >.G B 0.4.[ o.9.3.*.q.5.X.9.1.V G ,.G H J >.3.4.z ",
"= @.X.J _ ( o.X.{ o.) J _ J 3.o.o.1.h ) G J | ) } X.H H h } 5.; $ *.} C ' L :.X.X.@.R J E L 3.@.%.7.J { ( } o.{ | :.L { ' >.*.; ",
"= #.h L T _ 3.1.:.G C ( F } ( A A T R G G 6 g %.4.4.) H ) H &.p *  .V F J ) 3.4.>.H H ) L [ X.S G T [ T ) J J >.4.2.[ ) ..( &.p ",
"* / g I ) C 1.6.6.,.| P 4.6.6.3.3.6.6.3.H [ >.6.4.,.C ) L h &.p i +.5 J ) C ,.4.4.&.o.( 6.4.=.4.*.4.4.3.) o.,.6.4.1.A T ) ( &.s ",
"a / g | 1.1.6.1.6.6.6.6.6.6.6.6.6.6.6.6.6.6.6.4.7.4.,.7.%.j *.p - / g } 5.1.6.6.3.3.6.4.6.6.6.6.6.4.1.4.4.6.6.6.4.6.1.1.>.( $.s ",
"=  . .[ 4.6.6.1.4.6.1.1.=.6.6.6.6.6.6.6.4.6.6.6.4.4.4.6.X.+.&.v * *.@.R 9.4.3.6.6.4.6.6.6.6.6.6.6.6.4.3.4.6.6.1.4.6.4.4.:.5.#.p ",
"= f g [ &.6.6.6.6.6.6.=.7.6.6.6.6.6.6.6.7.6.6.6.3.6.6.%.X.H 8 v - 5 g R %.3.4.3.6.=.7.6.6.=.=.6.6.7.6.6.=.6.6.6.3.4.4.,.-.P l ; ",
"i I 4 } H ,.6.4.6.6.6.6.6.6.6.6.6.6.4.7.4.6.6.6.6.6.#.V | V } v a F 3 } Z ,.6.6.3.6.6.6.6.*.=.6.3.=.6.6.7.6.6.6.4.1.>.P >.H E v ",
"w #.&.T A X.6.6.6.6.6.6.6.6.=.6.7.6.1.4.6.6.6.6.6.4.[ 7 P 9.1.p * O.#.F A X.$.6.&.6.=.6.6.6.6.6.6.=.4.=.3.6.1.1.7.6.o.P X.7.&.p ",
"* / &.Z T ( 1.6.6.6.7.6.6.6.6.7.6.6.3.4.6.6.6.6.6.1.J S J 9.&.; =  .&.S L T 6.6.6.6.6.3.6.6.6.6.6.*.*.6.6.6.6.6.4.4.) _ _ 7.$.p ",
"= #.T R L 4.1.4.6.6.6.6.6.6.6.5.1.=.=.6.6.6.6.6.6.6.3.J o.X.&.v i / I T H 3.3.6.6.3.$.6.6.6.6.6.6.4.6.6.#.6.6.6.6.4.4.) o.;.&.y ",
"= #.~ D { 4.3.6.6.6.6.6.6.6.6.7.6.6.6.6.6.7.6.6.6.6.4.[ L 2.$.p i / ~ H _ 6.6.6.6.6.6.*.6.6.7.6.6.4.6.6.1.1.6.6.6.1.4.} T ,.&.p ",
"= / &.,.R 6.1.4.6.6.7.6.6.6.6.6.6.6.5.7.6.6.6.6.4.6.4.T 4.7.$.c - / $.*.T 6.6.6.6.6.6.6.6.7.6.7.6.*.6.6.6.6.6.6.6.6.3.R 4.7.*.t ",
"= +.&.| G 3.4.6.6.6.6.6.6.6.6.6.6.6.6.6.1.6.6.6.1.=.*.G @.0.$.c w / #.| G 4.6.6.6.6.6.6.6.=.6.=.6.6.6.6.6.6.6.6.6.6.2.J >.7.$.c ",
"i +.*.} A =.6.6.6.6.6.6.6.6.6.7.9.4.4.6.6.6.6.6.6.4.2.l @.4.$.; $ +.O.O.D 3.6.6.6.6.6.6.1.9.6.6.6.6.6.6.=.7.6.6.6.6.3.H >.7.$.d ",
"- +.$.=.T =.6.6.6.6.6.6.7.4.6.4.4.4.9.4.6.6.=.9.4.6.4.L 2.6.$.p 8 +.! @.( 6.6.6.6.6.6.6.6.@.6.6.6.6.6.6.7.6.6.6.4.6.1.T 6.9.*.s ",
"w +.~ H { 1.6.6.6.1.6.7.6.6.6.3.1.9.4.9.6.6.6.1.6.6.1.[ _ ,.$.c $ +.N G { 6.6.6.6.6.6.6.6.1.6.6.6.6.6.6.6.6.6.6.6.6.4.X._ 5.#.d ",
"% +.I R F 3.4.6.6.3.6.=.6.6.6.4.6.6.4.6.6.6.6.1.6.4.1.L [ @.$.y y +.K R L 3.6.6.6.6.6.6.6.9.6.6.6.6.6.6.6.6.6.6.6.7.3.R o.@.$.p ",
"= +.*.Z L F 6.5.6.6.=.6.3.6.6.6.4.4.4.4.9.6.4.9.4.4.L ) P 9.=.y t +.@.D ( ( 1.6.6.6.6.9.6.6.4.6.6.6.6.6.6.=.6.6.6.4.' _ ) 9.5.s ",
"i O.$.D 7 } 6.6.6.6.7.6.6.6.6.6.9.@.9.=.4.6.4.6.6.4.X.G [ 1.&.s w +.$.L A O.6.6.6.6.6.6.6.6.6.6.6.6.6.6.6.7.6.7.6.6.X.H X.9.$.s ",
"* x > _ B ,.4.6.6.6.6.6.6.6.6.6.4.9.4.9.4.4.6.1.6.6.,.J >.V R ; $ x 4 | L ,.6.6.6.6.6.6.6.6.6.6.7.6.6.6.6.6.=.6.6.6.,.J :.C o.p ",
"i 4 2 T %.6.6.6.6.6.=.6.6.6.6.3.3.4.4.4.4.9.1.6.6.6.4.>.o.` Z y $ 9 V E @.4.6.6.6.6.6.6.7.6.6.6.6.6.6.6.6.6.7.6.6.6.4.>.o.H h s ",
"- O.~ E 4.4.6.6.6.6.6.6.6.6.6.7.9.4.6.9.4.4.6.6.6.=.6.4.@.,.$.y w  . .R 4.1.1.4.4.6.1.6.6.6.6.6.4.6.4.9.6.6.6.1.6.6.6.1.@.2.#.t ",
"* +.3 [ 2.1.6.6.6.6.6.6.6.6.6.6.4.6.4.&.9.4.4.4.3.1.1.3.;.L *.c - +.g Q 1.1.4.4.6.4.6.4.6.4.4.6.6.4.4.4.4.4.6.6.7.4.,.5.>.H $.p ",
"w +., Z L V 1.6.6.,.} P 5.6.4.3.3.6.9.6.L @.>.4.4.&.A [ ) { =.y * +.g J ) A ,.4.6.1.@.R @.6.6.3.3.1.4.=.L @.,.6.4.,.C _ ) G &.c ",
"* O.2 h D L 3.6.&.A B T P } _ H L L } L _ S L @.9.5._ P ) P *.c w O.A [ L _ 3.4.;.L J [ R [ R D D P [ L P L L >.4.4._ _ ) J $.; ",
"t +.I 0 H Z @.} E | R K [ T 1.@.@.3.L } L K @.} | @.P [ L ;.&.p - +.U J R R @.@.O.@._ R _ L 1.@.@.=.L O.L } @.} | @.L ) J :.*.p ",
"$ ~ +.E 0 f h +.g 5 =.*.~  .1.*.=.=.+.} =.&.4 j | j h S +.4.+.; $ W O.Q S l Z @.S 0 @.1.Q +.*.,.=.=.O._ *.=.0 Z @.j C Z X.4.+.; ",
"w c W W N W N ! < r N N W W W W N N N N N N k 1 N N N W W W b $ + d N N N N W N 8 r M M N W W W W W W W W W u 1 N W W W W W b t ",
"$ $ X @ @ $ # # # $ % O O O + X # @ # @ @ # # # @ . @ @ @ $ t n u * X # @ # # # @ @ @ @ @ @ @ $ @ . X @   @ # $ $   # $ $ # $ b "
};
