/* XPM */
static char *out[] = {
/* columns rows colors chars-per-pixel */
"64 64 90 1 ",
"  c #736C6C",
". c #7B7473",
"X c #7E7876",
"o c #7B777A",
"O c #7F797C",
"+ c #847D77",
"@ c #847D7A",
"# c #8A8275",
"$ c #87807B",
"% c #8D857D",
"& c #8F887F",
"* c #928A7E",
"= c #777493",
"- c #7D7A96",
"; c #847F81",
": c #817E99",
"> c #868184",
", c #888486",
"< c #8D8A85",
"1 c #8A8789",
"2 c #8D8A89",
"3 c #958D82",
"4 c #988F83",
"5 c #928E8C",
"6 c #999184",
"7 c #95928D",
"8 c #9A958D",
"9 c #9D998F",
"0 c #85829C",
"q c #89859C",
"w c #8D899E",
"e c #979493",
"r c #9B9691",
"t c #9E9A92",
"y c #A29B8F",
"u c #A29D94",
"i c #A19F98",
"p c #A6A095",
"a c #A9A296",
"s c #A6A299",
"d c #ACA59A",
"f c #AEA89D",
"g c #B0A99D",
"h c #8986A2",
"j c #8E8AA4",
"k c #928EA4",
"l c #9591A4",
"z c #9A95A5",
"x c #9E9AA6",
"c c #9692A8",
"v c #9996AA",
"b c #9E9AAB",
"n c #A19DA7",
"m c #A29DAC",
"M c #A29EB0",
"N c #A8A6A0",
"B c #AEABA1",
"V c #A5A1AC",
"C c #AAA5AC",
"Z c #AEA9AD",
"A c #B4ADA1",
"S c #B1ACAE",
"D c #A6A2B1",
"F c #AAA6B2",
"G c #AEAAB3",
"H c #B2AEB5",
"J c #B2ADB8",
"K c #B5B1B6",
"L c #BAB5B4",
"P c #BEB9B7",
"I c #B6B2B9",
"U c #BAB5BA",
"Y c #BDB9BB",
"T c #C2BDB5",
"R c #C2BDBC",
"E c #C6C1BE",
"W c #C9C4BE",
"Q c #CEC9BB",
"! c #C3BEC0",
"~ c #C6C1C1",
"^ c #CBC7C2",
"/ c #CCCAC5",
"( c #CECDCA",
") c #D1CCC3",
"_ c #D0CFCC",
"` c #D6D1C4",
"' c #D9D3C7",
"] c #D2D1CE",
"[ c #DBD6C9",
"{ c #D5D4D1",
/* pixels */
"O/{{(]]((((]/](2,({(((]/_{(]/((oo^^((]({_/_/_();<(/_]/]((///((^7",
"s/IGIIRHGRKJDJ'sa)HGUJRGFYvMkG'it/GbFGRGGRFFmJ'dBUFGIYHE~IEIGGEg",
"tCH)YGIRYIGI)JIfunH)UFURRIMJ)HJatbH)IFIYRKFU)UYiamvhGzY^^EFIcDIf",
"pz)[[)[/)[)[[/Mfuw)[[)[))[)[[)vfr:^[[)[))[)[[)Jiumv[[R[[[[E[[vUd",
"tnY[[[[[[[[[[HmduwK[[[[[[[[[[Hmau0I[[[[[[[[[[GUiuSI[[[[[[[[[[K~p",
"pxG)[[[[[[[[)bcdu:m^[[[[[[[[^bcdu-b)[[[`[[[[)MJduHFR[[[[[[[[RD^p",
"8SIQ[[[[[[[[[HRauCH[[[[[[[[[[HRauZH[[[[[[[[[[K!BuCR[[[[[[[[)[RYa",
"2zY)[[[[[[[[)UVe1:R)[[[[[[[[)Yn5,qY)[[[[[['[^RFy9L^[[[[[[[[[[^/u",
"ezR)[[[[[[[[)UV52qR)[[[[[[[[!RM7,qUQ[[[[[[[[)RFr8L^[[[[[[[[[`W)d",
"8SK[[[[[[[[[[HRguMG'[[[[[[`['R!upZK[[[[[[[[[[JRdunR'[['[[[[['RYf",
"8wM)[[[[[[[[)mvai=n)[[[[[[[[)mMdt-b/[[[[[[[[)mMayHmR[[[[[`[[RM^a",
"uzK[[[[[[[[[[HDuy:G[[[[[[[[[[KGupqK[[[[[[[[[[JJuuCJ[[[[[[[[[[I~d",
"uw)'[)[^)[)[[)May:^[')[!)[)[[)Md80)[[/[))[/[[)Gy8Vk[)R[[[[R[[MYu",
"ymH)HmHRRIML)HIdyzC)HnKRRHMK)KRuuxG)KnHYUIVU)IYgpnbkHmR)^!GUDGYu",
"5TCkzkKnnLmmzS'85TC:k:HzzTmmnG'y7ENwzqLzzLzVmI[88SGGLTKRRLTTKH~u",
".%**433@@3*43%<  +44443++**434;.o$*6*36@@*636*%+#63*6*43*46**4*&",
"u(_]_/]_]]_]_]{s1(/({_(]//___(/;5^(_)/{)_{]]_{(y;^]{{{({]{(]]]{2",
"dIDGUYGERHRIFZ!As^VjchIvmUjvcJ[NdUJJURJR!FRUJJ!di^GbVbUDVYDGbH[s",
"8xl0GlKW^UlH0cHaizZ^HbIYUHnH)IUgtVFvJcRR^RmJmFRuyVH)UnUYUIDI)JIs",
"pz0[[L[[[[R[[:Jas-)[[)'))[)[[/Fu9ZD''R[[[[!''mRa9j)[[/'//[`[[)Md",
"uCG[[[[[[[[[)GRdu0H[[[[[[[[[[IJdpZY[[[[[[['[[U!uslK'[[[[[[[[[IDd",
"tSzE[[[[[[[[Rk~du0m)[[[)[[[[)MFutLGE[[[[)[[[!M)duqV/[[[[[[)[)mmd",
"9VY[[[[[[[[[[UUdpZH[[[[[[[[[[H!gpVE'[[[[[[[[[RRg9ZK[[[[[[[[[[H~d",
"8LW[[[[[[[[[[^/u7wR)[[[[[[[[^RF58L^[[[[[[[[[[^)u<lP/[[[[[`[[)YJt",
"tL/[[[[[[[[[[^)s7lY)[[[[[[[[)RFytL^[[[[[[[[[[^)i5lR)[[[[[[[[)RJt",
"iN~[[[[[[[[[[RRatZU[Q`[[[[[[[H!uunY[[[[[[[[[[W!uuSK[[[[[[[[[[I^a",
"iLIE[[[[[[[[RD^aslx)[[[[[[[[)mFapSzT[[[[[[[[RJ)d8zM)[[[[[[[[)FIu",
"uSU[[[[[[[[[[I~p8zI[[[[[[[[[[UJiiCG[[[[[[[[[[U!gunU[[[[[[[[[)UUi",
"uCD[[R[[[[R[[vYd8w/[[)'/`[)[[)Gftnj[[R[[[[R[[MRuyz)[[)[))[)'[)Fd",
"uVSmIDLW^YzGlDYduVZ`KxKYYIVI`IRdpVbjFcU^WRMKvGYauCH)ImIUUHnK)HYa",
"9SZKLPSETZPLGGWp7PClzwLzzLmCCU'u8ZCZKYZTRSRLGHWd7THznzKnzKwllG'7",
"&6*6336&&&3&&663.#&*&*&$+34*63&X&66**633&4*343*3.%44343+@3*4*3%@",
"r__{_]__/___/{/u8{]/]//(]/{)/]]yO/___]]()_/_{/];;){]]/]((__]_{_1",
"BUGHYRJR!GRUHJ!gsYGIIRHE!H!UIH!Af/ZlvlUMMRMFMJ[iu^FccjUmvIhkjF[i",
"ubvcHMR^^RcGkFRutCIDImR^^RMJMGUutnG/KbIYRJMR)JUuunF)HnGRRHmH)GHu",
"8nk[[R[[['R''MRgpZG[[R[[[[R[[vYau:/[[Q[/)[)[[)Mgi:)[[)[)^[^[[)nd",
"dCH[[[[[[[[[[H!ipZY[[[[[[[)[[J!dtqK[[[[`[[[[[RHuy:H[[[)[[[[[[HMi",
"uSbR[[[[[[[[RF)dtLIE[[[[[[[[RM/gp:x/[[[`[[[[)MMAi:n^[[[[[[[[)vvd",
"9VY[[[[[[[[[[!!guZE[[[[[[[[)[RRgtZK'[[[[[[[[[H!iuCH[[[[[[[[[[H!d",
"7L^`[[[[[[[[[^)u7L/[[[[[[[[[[^)i2wY/[[[[[[[[^RF71wR)[[[[[[[[^RFr",
"8L^'`[[[[[[[[Q)i9L/[[[[[[[[[[W)d2wYW[[[[[[[[)RMy5wR)[[[[[[[[)RF5",
"9ZE[[[[[)[[[[RRu9nY[[[[[[[[[[RUutZK[[[[[`'[[[J!dyCH[[[[[[[[[[L!u",
"tLGE[[[[[[[[Rm^g9KMT[[[[[[[[Rv^d90b/[[[[[[[[)mmdu:m^[[[[[[[[)MLd",
"9ZU'[[[[[[)[[H!iuNH[[[[[[[[[[HWd9qK[[[[[[[[[[HMiu:K[[[[[[[)[[RRu",
"tCv[[R[[[[R[[jUd9Vv'[~[[[[R[[vYapq)[[)'))[)[[)Mgi:)[[^[^)[^'[)Id",
"snmcGbYW^YbHjbIpsVGVUGY^^RFIbJUf9xG/IVIRRIVU)HIdinG)JnKRRHmR)U!d",
"rZCZLPSRRSLLCGWf9SKLLEUERHTUHH~u7ENlxzUVCPmmlH'y4TmkzkKnzTnmmK[r",
"%636**6&**33366#%******&3**3336%.&6&*6*%@36364%. @***44++;*4*3@+",
",/^/(^((]__/(^(>>]](^_(((/{/]]{2>)]{___)/({]{{]24__(/_]/^^]/(](s",
"r/GlvlUvbUjvlG[stQKMFbPMbUkvvG[di)JvMMRMMRMmvF'dNTFFURH~~IYYKI~d",
"uVG/KxKYYHbK/KIppVH)IMIYKKbI/IUpumH)ImKR!JMJ)JRuummjHmR^^RDIbJUi",
"8w)[[/[)/[/[[/Ds9w)[[/[//[/[[)Gfuk)[[)[^)[)[[)Muync[[R[[[[~[[bYp",
"plZ[[[[[[[[[[UDgpkK[[[[[[[[[[LIduxU[[[[[[[[[[JFduZH[[[[[[[[[[I~f",
"uwV/[[[[[[[[)bbdtqx([[[[[[[[)FIdilV)[[[[[[[[^mMuuHFR[[[[[[[[!D/d",
"9ZI`[[[[[[[[[G~ppCI[[[[[[[[[[I^suSI[[[[[[[[[[H!iuCR[[[[[[[[[)RYf",
"5lP/[[[[[[[[/YFt5wP)[[[[[[[[)YIt7zY)[[[[[['[)RGr7L^'[[[[[[[[[^)i",
"5lR)[[[[[[[[)YF5,wY)[[[[[[[[RRJy2zY)[[[['[[[)RFryL^[[[[[[[[[[^)u",
"yZH[[[)[[[[[[HEduZK[[[)[[[[[[U~yuSI[[[[[[[[['H!dumR[[[[[[[[[[RRu",
"ujm)[[[[[[[[)mma9:m)[[[[[[[[)mMgtwm^[[[[[[[[^nviuSmR[[[[[[[[RG)u",
"alL[[[[[[[[[[JGuywH[[[[[[[[['JMaswI[[[[[[[[[[HmdiZH[[)[[[[[[[U!d",
"8k)[[)[))[)`[)Mguq)[[)[))'W[[)vu9:)[[/')^[)[[)vayxh[[![[[[R[[vYu",
"umH)UMKRRIML)UYdunH)UCIIRHbH)JHgyzFQUVIRRKmH)HHuuzk0CkK^^RMHvMUg",
"8TSmCmLnmTmZmH'85THCHSLmnLwkwCQ8<TCzmmPCCLlzkZ'uuCCCLTCRRGTLCZRu",
".+*4*63++34*44<@ %44343%@#4*33$ +@6*63#@<44444%@%#3*444*344*44y4"
};
