/* XPM */
static char *out[] = {
/* columns rows colors chars-per-pixel */
"64 64 212 2 ",
"   c #40422F",
".  c #4A4B36",
"X  c #4A5038",
"o  c #53543D",
"O  c #59563D",
"+  c #575840",
"@  c #5C5B43",
"#  c #615E43",
"$  c #656146",
"%  c #6A6546",
"&  c #65644A",
"*  c #69664B",
"=  c #6D6A4D",
"-  c #716D4E",
";  c #6B6A51",
":  c #716E51",
">  c #6F7150",
",  c #757253",
"<  c #797555",
"1  c #7D7956",
"2  c #747459",
"3  c #797759",
"4  c #7D7A5A",
"5  c #7D7C62",
"6  c #837D55",
"7  c #827E5B",
"8  c #7E855C",
"9  c #85815C",
"0  c #8A845D",
"q  c #968E5F",
"w  c #858464",
"e  c #8A8661",
"r  c #868D64",
"t  c #8D8A63",
"y  c #8B8D6B",
"u  c #918C63",
"i  c #8C9365",
"p  c #879068",
"a  c #8D936B",
"s  c #949164",
"d  c #9A9363",
"f  c #92956D",
"g  c #99956B",
"h  c #95996E",
"j  c #9C9A6C",
"k  c #868A76",
"l  c #898B75",
"z  c #8C8F7A",
"x  c #8D9276",
"c  c #8E917B",
"v  c #929471",
"b  c #969A72",
"n  c #9B9D73",
"m  c #93957D",
"M  c #97997D",
"N  c #9A9B7D",
"B  c #A29A68",
"V  c #A09B70",
"C  c #9DA175",
"Z  c #9DA47B",
"A  c #A3A375",
"S  c #AAA574",
"D  c #A5A976",
"F  c #A9AA77",
"G  c #A4A47A",
"H  c #A9A67A",
"J  c #A6A97B",
"K  c #ABAB7C",
"L  c #B3A973",
"P  c #B2AC7B",
"I  c #B4B17E",
"U  c #BBB47C",
"Y  c #C3B97E",
"T  c #949781",
"R  c #969982",
"E  c #9B9D83",
"W  c #999D89",
"Q  c #9FA085",
"!  c #9FA886",
"~  c #9EA18B",
"^  c #A3A385",
"/  c #ADAD82",
"(  c #A8A887",
")  c #A3A58C",
"_  c #A7A98E",
"`  c #ABAC8B",
"'  c #B2AE82",
"]  c #B0AE8A",
"[  c #ADB282",
"{  c #AFB08C",
"}  c #B4B383",
"|  c #B9B684",
" . c #BCB986",
".. c #B4B28C",
"X. c #BAB68A",
"o. c #B4BA8A",
"O. c #BDBB8A",
"+. c #A3A791",
"@. c #A6A992",
"#. c #AAAC93",
"$. c #ABAF98",
"%. c #AEB096",
"&. c #AEB199",
"*. c #B4B592",
"=. c #B8B792",
"-. c #B4B892",
";. c #BBBA93",
":. c #B1B59B",
">. c #B6B89D",
",. c #BDBE9B",
"<. c #BCBEA2",
"1. c #C3BB85",
"2. c #C4BB84",
"3. c #C2BE8B",
"4. c #C1BE92",
"5. c #BEC28D",
"6. c #BEC19B",
"7. c #BEC0A4",
"8. c #CAC087",
"9. c #C5C18D",
"0. c #CBC48C",
"q. c #CCC88F",
"w. c #D0C78D",
"e. c #D3CA8D",
"r. c #D9CE8E",
"t. c #C5C392",
"y. c #CBC692",
"u. c #CDC994",
"i. c #C4C49C",
"p. c #C9C79B",
"a. c #C5C89E",
"s. c #CDCB9C",
"d. c #D3CC95",
"f. c #D9CF94",
"g. c #D3CE9A",
"h. c #CCD098",
"j. c #D6D096",
"k. c #DBD395",
"l. c #D5D19B",
"z. c #DBD59C",
"x. c #DED99E",
"c. c #E0D595",
"v. c #E3D995",
"b. c #E0D79C",
"n. c #E3DB9D",
"m. c #E8DF9E",
"M. c #E7E09A",
"N. c #EAE19E",
"B. c #C4C5A3",
"V. c #C6C8A4",
"C. c #CCCCA4",
"Z. c #C2C5AB",
"A. c #CCCEAC",
"S. c #D1CEA3",
"D. c #CED0A3",
"F. c #CED1AC",
"G. c #D4D3A4",
"H. c #DAD6A2",
"J. c #D7D8A5",
"K. c #DDDAA3",
"L. c #D4D5AA",
"P. c #D6DAAC",
"I. c #DCDBAA",
"U. c #CED1B1",
"Y. c #D3D5B3",
"T. c #D6D9B3",
"R. c #DADBB5",
"E. c #D4D6BB",
"W. c #D6D8BC",
"Q. c #DADBBB",
"!. c #E3DDA3",
"~. c #E1DEA9",
"^. c #DBE0A6",
"/. c #DFE1BF",
"(. c #E6E1A5",
"). c #EAE3A4",
"_. c #EEE8A6",
"`. c #E5E2AA",
"'. c #EAE5AA",
"]. c #EDE9AB",
"[. c #F3EAA5",
"{. c #F5ECA7",
"}. c #F2ECAC",
"|. c #E4E4B5",
" X c #E8E7B6",
".X c #EDEBB3",
"XX c #E4E4BB",
"oX c #EDEDBC",
"OX c #F1EDB3",
"+X c #F2F0B3",
"@X c #F6F2B3",
"#X c #F9F4B5",
"$X c #FCF9B4",
"%X c #F5F3BB",
"&X c #F9F5BA",
"*X c #FBF9BC",
"=X c #DADBC1",
"-X c #EBECC2",
";X c #E6E7C9",
":X c #EBECCB",
">X c #F4F4C3",
",X c #F8F7C3",
"<X c #FDFCC4",
"1X c #F5F6C9",
"2X c #FEFDCB",
"3X c #E8E9D3",
"4X c #EBECD2",
"5X c #F3F4D2",
"6X c #FEFED3",
"7X c #F6F7DA",
"8X c #FEFEDA",
"9X c #FDFEE0",
/* pixels */
"@.#.y.B.G.s.I.P.J.C.p.C...L.L.P.F.P.A.T.F.T.a.;.C.P.S.) D.Y.&.&.$.@.t./ ..z.s.i...g.L.-.J.A.A.D.V.T.F.L.C.` B.6.6.-.;.T.L.>.%.&.",
">.@.d 0.z.!._.n.S _.{.z.}.).).z. X].'.'..X}.5.`.'.'.}.u.5.I.>.:.$.$.q Y v.N._.v.| k._.D H !.z.}.l.@X|.!.OXn u.J l.%Xt.l.].u.&.:.",
"6.-X( 0 e.u.u.v.1.j.z.f.n.9. .K 9.(.I.I.`.(.t.z.`.u.(.t.K ) XXY.i. X_ 7 q.M.n.m.!.k.3.x.j.d. .n.z.'.(.t.u.g.d.t.n.'.'.H.9.) |.E.",
"..I.>X( 6 0.z.w.z.l.q.).I.H.z.d.b  .!.i.a u.`.'.!. .g.n m t.*X<X*. X2X^ 6 w.k.N.m.!.d.l.d.} | '. .9.x.d.z.~.].!.z.'.H.H ) H.*X|.",
"..!.&X2X^ , S 8.9.k.j.n.N._.'.!.} C y.l.G g.l.l.~.b.g W G ^ ].l.{ C.,X8X( 1 d.r.n.m.0.!.| n._.'.G j.`.l.G.u.`.].`.!.| Q p.).].s.",
"_ z.z..X8X` = S e. .i 9.n.x.j.'.).n.t.!.G z.].l.!.G R C.!.k.!.G.Q I.`./ o.( 0  .m.m.2.| k.).I.!.C  .`.d.| b x.~.z.b m S.].].%X2X",
"( K.'.y.!.2X( , 8.z.k.n.).!.l.z. .y.H S.P.'.'.3.| R G.].K.3.'.6Xm J.].O.J 8X%.0 j.j.n.A n.(.!.L.O./ d.n.!.X.k.`.O.W g.l.d.`.@X-X",
"x u.d.| l.`.I.~ 9 0.H.).z.9.} y.!.'.(.z.(.I.l.2 T 4.!.b.H.| u.!.` l.I.`.l.[ `.M t t.s.} C j.n.).K.9. .'.'.u.n X.^ 4.l.x.l.'..X6X",
"*.9.t.u.'.[ OX8X_ 7 t. .).9.d.!.f.!.!.f.d.X.f ) t.l.'.!.u.O.C .XM v l.].!.x.]..XE w w.!.e.f f 9.!.!.H.O.).H.G Q p.z.O.H.z.~.*X8X",
"` X.3. .b C K.%X8X) < P !.0.t.k.d.!.'.u.u.w ~ t.(.K.9.n.d.( y.5.G / (.].].I.~.%X,X( 7 w.!.H n '.l.n b.G 3.} ) H.!.G...u.3.'.%X6X",
"N P 3.(.y.x.`.'.$X&X` 1 d.).!.!.'.!.!.!.4.#.N G !. .5.'. .y.l.'._ `.`.].~.C.I.].K.6X^ : u.'.~.n.b.K | 3.' ) B.'.!.~.b.f.H.'.R.<X",
"M !.n t.).~.'.).!.K.8X#.3 ;.].'.!.~.!...#.J (.!.} u.K.K.[ '.%X2X..(.(.z.!.I.H.'.].9.J.M t f.!.!.d.g.!.1.W p.].n.H.!.!.l.z.!.%X6X",
"E 3.g.d.b./ J / g.`.%X7X:.7 d.).!.u./ ) G.n u.g.X.d.C p  .'. X2X^ d.!.d.].~.~.'.'.} l.XXR u u.3.g.B.` ^ u.d.z.'.A x.I.y.3.!.!.<X",
"( 3.y.!.`.9.y.y.' !.P.Y.8X@.3 3.3.G +.t.).h.z.| } !.n.t.`.'.@X2X..(.G ].G.`.V.C.k.].'.&X:Xm t 4.g.` W 4.].'.s.p.C x.!.`.].(.u..X",
") !.z.g.J.'.(.y.y.].'.'.3.8X#.2 w +.G !.!.).~.l.3.A (.!.`.'.@XoX( !.K !.A.'.(.).t.K.}.'.%X|.z ; v #.] n.3.O.~.f.t.x.'.!.!.'.&X6X",
"*.!.'.z.I.t.a f ~.'.'.'.n #XoX&.) ] u.} x.`.!.| g.f.g.u.G | O.2X( } y.y.`.).`.I.L.S.`.'.g.!.XX@.#.x | '.t.!.l.3.y.x.'.!.).(.'.<X",
"..(.z.t.I.n.b  .'.).~.d.).}.G.>.W 5 3.P.!.!.| 3.9.z.K.z.9.9.l.'...z.n.'.'.d.9.n.X.k.u.O.y. .i.:.@.9 f.'.I.x.d.y.9.d.O.'.K.~.d.%X",
"..9.).d.G.'.).K G X.x.u.S.9.#.'.-X7.; ' !.'.!.K.).u.C.'.).z.y.<X=.O.(.x.n G z.).!.).!.J.].' ) i.=Xz u ' K.B.K.3.O.).k.3.z.`.).C.",
"` ).z.A D '.n.n.f.d.K H ..W ( d.@X8X#.& j 3.!.(.'.j.!.).n p l.2X..u.9.(.i 0.y.).f.u.!.j..._ / 3.oX3Xz g S.~.!.9.X.).d.].H.0.].oX",
"N } n.3.0._.'.'.G.!.f.I ) J n 9._.%X6X#.@  .n.].'.| H.). .h ].2X_ l.n K.O. .n.n.).).n.3.W  .x.t.z.&X3XT f k.n.H !.!.0.!._.j.l.oX",
"x i N.I._.)._.G.V.!.P ) l.G d.O.u.).oX8X&.5 9.y.n.z.k.I.(.f.F x.X.!. .9.G.p. .n.'.| S ) u.).(.b.J.].>X:XT V g.b.G.s.).n.n.'.@X].",
"^ I z._.n.z.k.'.H.P ` 4.x.!.b.f.L.).J.T.2XZ.w 1.). .h j.N.x._.*X{ P D n.N.d.p _.n.X.~ s.).).l.n.O.P.3.<X3XT g 3.n.n.n.m.n.(.}.o.",
"N f.n.0._.d.n.n.X.) O.].).].!.z.g.).y.'.$X2X,.3 I j.I n._.N.}.2X..n.d.f.j.f.A F n +.i.d.u.n.k.).g.B.].l.y.XXR g g.!.m.n.k.I 0.K.",
"] k.N.N.1.0.l. .) u.!.!.).b.t.).g.7.H.'.g.).2X:.% 9.).N.).!.P.,XX.k.z.n.).).l.G &.l.N.z.!.n.~.z.x.'.).g./ `.;Xk g I S q.x.e.).<X",
"b d.s b.w.U X.) l._.!.3.0.!.).!.y.I.].3.b y.*X8X) 9 f.n.f.c.}.oX..n.n.q.k.v.} @.9.9.0.z.G.j.H.l.u.`.].l.!.u.H.;Xm 0 F | v.N.}.2X",
"X.K P F w.n R t.n.!.k.).'.f.G.k.!.`.'.g.u.d.4.&X9X( 0 e.e.N.}.R.` 0.I U P P ~ z.k.q.!.n.!.K.`.).3.l.'.'.H.!.`.-X;Xz 6 w.| U {.).",
"O.r.m.m.P #.1.n.0. .j.j.G.!.~.H.9.`.).].z.u.!.~.XX4Xm % k.g.{.P.( j S v.U ) d.!._.I K.`.d.).n.O.O.y.3.].'.!.H.P.,X;Xm 0 U 8.U h.",
"X.2.v.P #.y.).).).1.G.).!.!.).!.| y.d.'.'.!.G.V.L.oXD.l 9 O.[.J.] w.r.P Q h 0.s.x.d.).0.d.!.n.K !.d.3.'.!.'.l.y.+XK.:Xx 0 r.{.I.",
"/ 3.N #.' U N.G.). .).!.u.).!.n d.d.9.].'.(.!.G.].l.#X4XM u v.G./ U P ~ y.i g m.n.b.I H !.!.z.D y.9.n ).C.I./ } I.I.*X3XM u k.J.",
"G t #.' v.r n n.x.b.n. .f.n.d.| !.y.' `.L.~.t.O.'.z.).<X5Xm 6 X.G w :.d.v.f.s q.e.m.3.e.n.n.).x.} l.} t.C.!.3.n } `.H #X:Xx B h.",
"+.) | | w.S u 2.w.k.f g k.d.f.K n } a 3.,.g.H b 4.p.O.H.}.|.$.@.@.W I Y e.8.S e.S } d.P 0.z.x.j.(.K.G.O.' g.d.4.l.z.t.O.%X-X:.#.",
":.W e % % #   $ O # * * ; - : - & , & ; ; : & o @ , + ; 3 ( >.:.#.) w , % % - , $ # = , : < , 2 4 4 2 O X * < 2 3 7 3 & , G &.+.",
"@.@.u.y.X.G.s.g.L.t.G.C.;.i.M C.-.C.L.L.P.C.C.C.i.S.P.Y.F.T.&.#.@.#.=.i.l.p.s.L.L.F.a.A.a.-.P.L.L.E.R./.Y.B.T.A.V.T.P.A.i.A.:.+.",
"&.R V r.k.!.b.f.z.).!.[.{.).u.3.d.3.x.]..X@X!.d.!.`.'.H.OXF.:.&.$.+.w t.v.A N.n.I.N.n.~.x.u.} h `.|.@X .'.O.}.}.OX].}.!.[ s.>.:.",
"G.:XM 0 r.z.!.!.).n.).N.(.).n.x.3.k./ H.!.t.H d.!.`.K.K ;.@. XW.=.XXm d 2.P k.m.n.k.z.(.).I.N.C d.]._.j.).y.K.].'.G.~.'.G $.XXU.",
"*.y.:Xc q d.b.).).).H.u. .!.'.~.9.X.3.J.G.O.H.).J. X~.} ~ J.,X=Xi.*XC.m u k.v.f.).(.9.d.(.j.K l.l.!.`.`.!.O.l.t.t.t.).t.#.J.<XE.",
"_ y.G.3Xz 6 d.!.n.k.1.x.a x.n.!.u.C l.I.b.!.!.).u.9. .~ =.`.oXW.{ i Z P.m u 0.m.N.`.n.I (.(.).P.).y.d.y.u.l.} t.!. XP W ] OX&XE.",
"` | `.<X4Xk t d.n.q. .'.n.d. .x.~.O.(.).].~.'.] G w W 4.O.~.>XU.;.o.a [ P.m , e.(.N.m.n.z.y.d.z.`.z.).K K x.n z.d.H m 4.H.'.XXY.",
"x 9.I.}.<XXXQ u A n.1.z.n. .u.'.).z.`.t.G.`.~.O.t.^ 4.u.K.!.*XL.-.`.O.[ y.:XE 0 e.).b. .).(.!.!.'.9.l.!.H.9.} t.d.W y.g.H.!.,XY.",
"m I.`.~.'.'.:Xl , q.q. .I r '.j.z.'.I.l.O.O.k.n Q G.!.H.].u.h.V.-.`.`.`.z.*XB.z 0 z.).).`.'.'.`._.(.y.O.!.).K 8 ( ;.P.p.9.!.`.L.",
"^ b } u.d.I.-X4X^ 9 f.d.K | (.'.!.'.).!.O.t.H c i.L.g.'.~. .[ L.=.P.~.H.`.K P.4XR e 0.x.'.~.~.'.'.'./ '.!.'.' W N x.~.~.].~.f.P.",
"{ z.G.} G g.L.%X7X~ 1 u.!.x.q.9.z.} l.z.n.f c g.!.P.~.G g.t.| ;.` !.x.g.'.f.l.&X:Xm - n b.~.J.~.!.!.| ].z.P ^ X.3.b.].!.!.].&XQ.",
";.P.~.!.d.!.!.3. X8X) 0 l.j.K K I.`.J.V.O.) G.t.z.y.I.u./ P.oXW...`.'.!.H.!.L.'.~.L.R % b k.G.G V `.).!.' T ..3.d.!.'.!.'.~.'.Q.",
"-.C.I.).t.!.'.K.'..X6X@.e d.u.`.`.`.'.9.E u.O.O.'.K.K.| O.).oXp.` H.'.| l.d.l.z.t.#X2XW @ b !.P 3.!.4.1.) 4.f.u.4.d.O.~.~.~.f.U.",
"=.I.H.).].' G 3.z.'.%X7X#.e d.(.K.f H ~ u.!.K '.`.'.!./ u.g.*Xi.-.l.u.O.].!.!.!.`.].%X8X@.7 | 4./ !.| ) i.B.I.4.3.'.l.3.H.'.'.,.",
"=.I.!.].'.} 3.d.].].'.%X8X#.4 9.K ; E X.(.H.] d.!.k.`.x.!.n.}.E.=.(.x.d.H.C.L.!.'.'.'..X>XE : ;.G.| R G.~.~.~.3.X.).g.].G.y.OXY.",
"*.!.V.A.k.].).(.'.n.`.O.} 8X) $ 4 ! s.3.K G  .C 3.(.'.!.).'.*XT.=.V.`.'.!.(.k.).k.!.!.!.'.;Xm - y ~ 4.J.I.!.!.J !.~.y.'.'.k.G.Y.",
"%.`.!.'.t.K.].`.(.9.H G j.*X:X$.+./ x.'.'.P.l.0.d.'.~.x.l.A ~.^.*.`.O.'.d.g.!.l.!.H.1.!.z.#XR.@.+.X.3.~.~.'.!.!.L.S.).!.!.].%XL.",
"*.).!.I.J.S.~.'.d.3.!.!.0.}.`.:.@.y G 3.b.'./ h u.`.y.h  .u.].'...!.d.O.n g.A } `.`.z.k.9.@XH.>.+.7 y !.].B.H.d.!.n.).!.!.'.#X=.",
"..u.9.!.| k.u.1.t.' 0.A 3.X.) R.;X@.7 9.).~.!.'.u.z.l.| n.).@XL.{ K.G f 0.!.n.d.!.].l.| x.| &.|./.z : 1.d.d.0.!.!.!.!.!.b.} y.i.",
"x A z.!.!.).!.J.}.d.3.3.1.) p.(.%X8X_ 7 f 0.b.k.9.d.k.d.n.'.u.o.*.!.x.3.b.P.S.'.(. .G  .t.#.s. .g.XX` < 3.b.z.B.'.3.H u.x.d.`.Y.",
"x 9.0.).f.u.!.j.G.!.!.2.) i.].).).OX`.) + } S.K.).b.!.`.u.| {.%X..G.H.k.).V.G.!.).y.x.O.! ;.d.y.!.OX2X#.u d.!.!.!.k.O.| n.'.@XQ.",
"N  .n.n._.).N.).).d.U W ..j.'.'.3.d.| -X_ 9 u.).).9.j. .K 9.}.t.^ n.| | [.).n.n.d.x.O.%.X.z.z.O.f.g.!.9X` 7 } ).!.!.k.).X.X.@Xs.",
"` i. .n.). .j.G.x.U ) ;.z.'.| K !.!.g.oX<XE 4 X.j.| A n 1.z.{.*X..2.a d.z.k.n.j.9.1.@.g.n.n.`.'.!.'.'.*X2XW , z.n.I !.n.e.q.5.u.",
"O.y.r _.N.z.).q.X.E  .`.'.).1.G ).!.F.I.&XoX@.0 0._.N.n.G.n.k.<X` A d._.).0.' A G R g. .f.`.C.I.`.!.~.~.'.2XW u j.3.d.N.n.).$XoX",
"X.d.A F  ._.k.j ) p.| '.(.).d.3.!.3.J.~.'.@X9X#.* A _.!.!.n.C 5...A ).M.N._.| L W d.).0.j.).n.).].).g.!.J I.5XN 7 k.N.d.n n.OX|.",
"] m.x.S 0.n.1.E p._.0.d.!.'.`.z.).L.V.F.g.H !.5X_ & 0.).n.r.A h.( 2.N.).N.U i Q } n.!.).).n.| `.~.(.} ).u.| .X1XQ u f.!.m.).{. X",
"} k.k.I I j ~ 3.m.e.P 3.9.n._.).l.!.G.~.g.y.!.OXoX( % 2.k.A k.<X/ r.k.N.n.U k t.A | H n.).0.9.`.!.d.| l.'.g.u.z.5XM 0 u.n.8.0.oX",
"G 3.0.0.9 M K c.n.9.0.m.F ).`.).!.3.].}.3.!.OXK.}.6X) = s I {.$X( 2.N.n.S ^ n I 1.x.z.| j.y.n.'.!.[ !./ l.G O.`.&X7XN 7 S 8.N.OX",
"X.r.r.s M C 8.n.n.2.A n.A 3.K.C.y.G d.L.K.'.].'.(.s.2XE 6  .m.$XX.r.m.Y E 0. .j.8.n.).).l.K.d.x.} k.!.H. .a o.'.u.<X5XQ 0 2.M.].",
"..g d N 8.U k.c.n.N.1.9.u.D D.!.t.' b !.y.X.!.'.t.K z.^.( 7 f.$XG Y L N d.k.n.N.f.N.).q.b.<.].].' f (.!.K.`.!.x.`.H.,X,XQ % r.`.",
"G e Q n c. .2.m.).).n.].`.n. .t.z.d.b.).!.| !.'.'.`.o.}.8X@.d 4.H S E 0.f.2.x.).n.).j.).J.!.y.[./ !.).u.}.I.3.G j.y.K.|.5Xm q X.",
"#.+.L u Y Y 0.r.1.u.s.k.t.O.i r d.g.g.l.l.y.O.' p.t.H | z.,X#.W @.+.} Y 8.8 A e.0.2.t 3.A ' y.3.3.3.| z.z.z. .C p.C.S.C..X X~ ) ",
"#.) 7 * O @ * = . = & = * + . O & @ = * ; : = & ; * X $ : N $.+.#.R , % % $ O = = $ # o @ * ; : @ + @ ; ; , , , 4 , > 4 ; w >.+."
};
