/* XPM */
static char *out[] = {
/* columns rows colors chars-per-pixel */
"64 64 89 1 ",
"  c #555657",
". c #585755",
"X c #5B5C5E",
"o c #605C53",
"O c #64625C",
"+ c #6A665D",
"@ c #6D695F",
"# c #766F5F",
"$ c #5D5E61",
"% c #5F6063",
"& c #616265",
"* c #686763",
"= c #6C6A64",
"- c #646669",
"; c #67686B",
": c #6B6B6C",
"> c #716E64",
", c #706F6B",
"< c #6F706E",
"1 c #747166",
"2 c #7C7565",
"3 c #74726C",
"4 c #7A766C",
"5 c #7D796E",
"6 c #6C6E71",
"7 c #6F7174",
"8 c #757472",
"9 c #797772",
"0 c #7C7A73",
"q c #7C7C79",
"w c #827A65",
"e c #887F64",
"r c #827C6B",
"t c #817E74",
"y c #8E8364",
"u c #87816E",
"i c #8B826B",
"p c #918666",
"a c #918769",
"s c #94896C",
"d c #9A8F6D",
"f c #9D916E",
"g c #858175",
"h c #8B8573",
"j c #8F8876",
"k c #84827A",
"l c #8A867A",
"z c #8E8A7D",
"x c #938B74",
"c c #998F71",
"v c #938D7A",
"b c #9D9274",
"n c #97907C",
"m c #9A927D",
"M c #A1936C",
"N c #A29674",
"B c #A59975",
"V c #A89C77",
"C c #A09779",
"Z c #A59A7B",
"A c #A99E7C",
"S c #ADA17D",
"D c #B3A271",
"F c #B9A774",
"G c #BEAC75",
"H c #B2A57B",
"J c #BEAD7B",
"K c #C0AE77",
"L c #C1AF79",
"P c #C3B27C",
"I c #8D8A83",
"U c #9C9682",
"Y c #9F9883",
"T c #A69D82",
"R c #A99F82",
"E c #ACA281",
"W c #B2A683",
"Q c #B5A984",
"! c #B9AD85",
"~ c #BAAE89",
"^ c #BDB291",
"/ c #C6B582",
"( c #C8B784",
") c #C7B886",
"_ c #C9B886",
"` c #CABB8A",
"' c #D0BF8A",
"] c #CFC090",
"[ c #D4C493",
/* pixels */
"XXX&$%$XXXXX$%$tVFLLLPKGL_/KPPKPGGGGLPPPGLPL/PPS=$XXXXX%XXXXXXXX",
"XXX$%%$XXXXX$$%gZJFGPLLLLLPPPPPPGGPL/LPLGGPGPPKS+%XX%XXXXXXXXXXX",
"XXX$$$XX$$$X%$-lT/GPL_KP(P_PP`P_GP//PPKPPPGP/PPN1%&&XXXXXXXXXXXX",
"X$&%$$$$%$$X$X%gC///_(LKPL(LPPK/P__/(KLGPPPPPP_B4%XXXXX%X%%X%%XX",
"XX$$$%XX%$XXXX%lm_/_LLGGP/PPP(PKP___PPKK/PKPPG/E9;$XXX%%%%$$%%%$",
"%$$%$XXXXXXXXXXgbLLLPLLPPP_PKPPP_/`PK(KPPKP/PP/S0%%XX$%X-$%%%%$%",
"$XX$$XXXXXXXXX&5NLL`'`_`PPPPGKPP_PPPPPPKKGP/P/PB5$XXXXXX$$%%$$$X",
"%-%$$$$$XXXX&%%5A/`L/)P/`__PKLPPPPPPPLPK_GPGPPPN5%XXXXXXX$$$$$%%",
"%X-XXXXXXXX-%$%gZL/L/JL//L//GGL/P_PPKPPP/PGGPK/Sl:&XX$XXXXX%%$X%",
"XX%$-XXX$-XXX%=jTRLLKL/LP//`/GGPP/LP//P//KGGP/bvx2&X$XXXXX$%%$$$",
"XXXXX&;;%XX%%1j98hCFLLLLLPP_/P//P(/KPKGGGGGP`Su89v2%X%&$$XXX$$XX",
"XXX&XXXX$--$5z8;;9nxJ/LLL/KKPP`/PP/KGGGJPJGJbu3O%8g1%;:$$X$$$XXX",
"XX%%$X-XX%%5v8%$$%8vc//LLGGGLKPPL//L/L/GGKJMu=&X$%<h3-<%$X%X$$$X",
"$XXXXX-XX%3j3%-X$$$8vC/)GLGGPGLP//)`/``LPJNw--XX$$%8v4:X$X-X$$XX",
"$X&XX--X =h:-$%XXX$%:nc/PJFJJJJ/__P//LL//N2-&XXXXXX&3z5&%%-$%$$$",
"o=>+*4t45nq----;-$%&-,vcNcdNacsybAVBscascx3-XX&$XX%%-0Y551#1=oOO",
"QQ~!!!~~~v,-X$$-;$--%>ht9kI0gkg0t0tqtqIthhO&$$$&-XX%&=xCCSZNZEWQ",
"PP/GPP/P]!h*&%XX$X-:;u36-%&%X--&-$&$%$$%:>r&$XX$X%X%&hQPPP(`P/_/",
"PKPPKGGGP`Wh=&&$XX&=u8;-$XXXX$X%XX$$-%$$$69rX$%$$%$*nZPLGP___GPP",
"PGK/PKGKP_PVh86%$$-u4-&&$XX$&XX%XX%$-6%$$&7grO6o$-*xNP/GPP/JLLPP",
"P/P_PPPKPPP]RU=;&*r,-$X$X$$$XXXXXX$$$$;%$%$:k2&&:-hW(LLGPP/////P",
"P/_`PPPKPP_P/Hv=*x5-$$X$$$X$XXXXXXX$$$%;$&$$6tw&=r!LGKPG/PP//P//",
"PP`KGKKGGPPPPLQmv5%%X&X%$%%XX$XXXXX&$$$-&%$&$6ksh!`/PPPLPP//(PPP",
"P//KGGPGKGPP/LPcg%%$$$%-$$$XXXX$XX$$%$$%%%%%$$:gA``/PPKK_KKKLGJL",
"P`/PPGPKPKKP(PPM>&X%$$$XXXXX$$X$X$$$X$$$-$&%-$&9BP/P/PKP___`_`_P",
"PP(PPGP/GGGP(KKN=%XX%XXX%$%%%-$$$$$%X$$$%%%&%%-0C/PP/P_PPPP/PPKP",
"KPPPKGGPKPPPGGKd1&&X&X-%$X$$$X&$$$$$X-$%$&%$-%;tcJPPP_(`_PKPKPPK",
"KKLKKGPPP/PKGGPb4&$X-%%$$X$$$$$%-%$$$$$%--&$-$6tcP/P(PPKFKP_`_PG",
"PPKPPGLPPPGGKGKC1$&$&$$X$$$$$$$$$$$$$$$;6-$$XX-gbLPL(PPKKFFGGKKG",
"PPPP_``LGGKGGGPV1$$X$$%X&$$$$$&$$$X$$%-%&$$$$X&rRGPLPKPGKFGGGPGG",
"PGKPGGKGPKPKKGPV,X-X;&X$$$$$$$$$XX$$X$-%-$XXX$%tZGK/KK(PKPPGGGKP",
"KPP//PP/LJ/GPPPB4%&X---X$$;$%--;$$%%X$%$:$XXXX$0cLGPGGGK(PPKPG/P",
"PLLPPLPPL(`(PLLA1$$X$%%%%%-%X$$-;$-%$$%$$XXXX$$5ZPPGPGGG/GKP(PPP",
"P(LLKKPLLP_PPP_A0%$$$%%%;$$$$$$$$$-%%%%%$$XXX$$rc/P/PLKG/KFPPPPP",
"P(KFKKKKLLLPLP(V8%-$$X$%%%$%$$%$$X$$$%%6%$$XXX$>iLP/PGGPPGGKGGPP",
"P_KKKFPPKKKPPPLs3$$XX$$;%;$%$-6%$X$$%$$$-:%$$$&5xLPPGGLPKLP//_`P",
"`(PLPPPPKKKKL/_V1%XX$X%-6;$$$$%;%$%%$$$$$XX%&%&5c`PGGGPPPPPPP(_P",
"(L_PP(PLKFKKLL/N4-XX$%$X-%$%$$%%$%$$$$$$XX$X--&gn`PPJGPPPPPK/P//",
"L_PLPPPKLKKFFGLc2$XX$-;$%%%%$-$X$$%$$$ $XXXXX%Xrb//PPK/KPP_/_/_/",
"PPPPLPPKPLKKLGGC5XXX%%-$$$%%$XXX$$$X$ $$XXXX$&-gdP/PPP_/(PPP/(_L",
"PKLPLKK/PPKFKPLbr&XX&-$XXX%$X$%X$$ --$XXXXXXX%&rxPJ/_PL`/PL//P_L",
"PLKLLLL(_/GGGLsvv>XXX&XXX%%%%XX-$$$%$$XXXXXXXX=vxZ//PPLL//P/(G(K",
"(KFLL/((_(KKLSv90h1%&$XXX%$%%XX-$X$$$$XX$XX$%@u0qhaGPGGL(L///LPP",
"KGKP/PPPPLKPBh,%&8v1X$XXXXXX%$%X$XX$$$$X$%%&4r<%-8hx/`//KG_LKLP_",
"LGG/L/_LJLLShq&$%&,h>$&%XXX%%$$X$$X$--%X$X$1v;&X$&3hdLKGG//GKPP(",
"LLGLL_PPL/Rh,-XX&$-,m=X%%X$$%$$$XXXX;:;X$&=r,--%-:68rpLGPLPPLPKL",
"LLFL!/)LJBv,&&$XX$$%8x1&-%$X$$$$$$$%$;:%$=x,--&XXX;-,riD//`L/LFG",
"eaddbcCNclt6$$X$XXX$$0x5>>++#=14=11=@O>++w:-%&XXXX$$&0reewsiiipp",
"kttttkkkIx*o$$$$XXXX%=jEEWWWH!SS!HZRTE^QWxO%XXXXXXX%%:ug5glkllzg",
"%%%%$$---9r*$%$$XX$$;vJP//PPPPPPPKPP_/`/`ShOXXXXXXX%=r4;&-:;%%%-",
"XXXXX$$$$&,#%;$$X$&=hSPKP//GPKLKGGGLP`/PPPSr.$XXXX$=r4-$XX%%X%XX",
"XXXXXXXXXX-tu&&$$-=rCP(/PP/PPKPPKGPLP//PGG(Sv*&$X$*58;$-%XX%X;6$",
"X&XX$X$XXXX;gr*o%=gW_/P/PPGPPKGKKGPPPPPPPGKPSu&%O*25-%$$$$$XX-7%",
"%-XX$$ $XXXX;gr;3nQ__PK/GGFGKKGKGLLKPPG_/PGP(!w==r5-%%$X$%$%X-;$",
"&&XX$$$X$$$XX*5hnH`PKGKKPGFGK(PKK/PPPPPPPPP(/[Shhg&&%%%X%$X%-%%%",
"&$$XX&$X&-&XX%;gSPPGKKPGJPGGKKPPPP/__/_`(GPPP`[C07&$%$%$X$XX%-%X",
"$$$$$$$$%&&$$$$3BLPGLPKPGPPPPKKGGGP/P_/G_PPKP__ZO%X$$$XXXXX$$$%X",
"$$$$$$$$X$%$$$$0APPPPPGPGPKPGKKGGP(PPPP/P//P(`]E=$$%X$XXXXXX%X;$",
"$$$$$-&&--&$XX$0SKP/JGGP/P/PKGKGK(/PKKPPGGPP(KPB=%$$XXXXXXXXX%-X",
"$$%$$$$$%$$%;X$5BPGPPPGPPKPP_(KJKPPPKGKPPKPPPPPM+$--$$XXXXXXX-$X",
"$$$$$$$$$$XX$&$tAJG/PKKPPKPP``PPPPPKPKPPPJPKPPKN=$7-$XX$XX$X-$$X",
"-6;$XX$$$XXXX$$0V/LGPPPPL//PP_GP/PPPPKPPPGPPGGPV=&-<;%$%XXX%%$%%",
"$$;$XXXX$XXXX$$tA/PP(PPPG_`PPPPPGPPKPKKPPPGPPP(S1%$--$%X$XX%%-%$",
"X$$$$XX$XXXXX%$tSPPKP_PPFP]`KPPPGGGGKPKPPPGKP/_f=$X%XXXX$X%$%%XX"
};
