/* XPM */
static char *out[] = {
/* columns rows colors chars-per-pixel */
"64 64 212 2 ",
"   c #3F463D",
".  c #424A3F",
"X  c #3C424B",
"o  c #3E4854",
"O  c #434746",
"+  c #454D44",
"@  c #4A4E46",
"#  c #454B4C",
"$  c #4C4F4B",
"%  c #4D524C",
"&  c #52554E",
"*  c #58574E",
"=  c #52594E",
"-  c #444B54",
";  c #464E5B",
":  c #4E5552",
">  c #46505C",
",  c #4C545D",
"<  c #4E585E",
"1  c #525653",
"2  c #545A54",
"3  c #5A5D55",
"4  c #50565B",
"5  c #545B5B",
"6  c #5A5E5B",
"7  c #605E57",
"8  c #5B6156",
"9  c #57605E",
"0  c #5D625B",
"q  c #5E6C5E",
"w  c #61655C",
"e  c #68675B",
"r  c #65695E",
"t  c #6B6A5E",
"y  c #4B5563",
"u  c #4E5866",
"i  c #4E5A6A",
"p  c #545C63",
"a  c #595F62",
"s  c #525D6C",
"d  c #4F5D70",
"f  c #535F70",
"g  c #576265",
"h  c #5C6363",
"j  c #5E6963",
"k  c #56606D",
"l  c #5C646C",
"z  c #5E696B",
"x  c #566273",
"c  c #5A6573",
"v  c #5E6974",
"b  c #576578",
"n  c #596779",
"m  c #5D6A7C",
"M  c #626663",
"N  c #636B63",
"B  c #6A6D64",
"V  c #61666B",
"C  c #636B6B",
"Z  c #6A6E6C",
"A  c #706F64",
"S  c #657265",
"D  c #6B7365",
"F  c #65726D",
"G  c #6B746B",
"H  c #6D7A6C",
"J  c #717566",
"K  c #72756E",
"L  c #747B6B",
"P  c #7D7C6C",
"I  c #636B73",
"U  c #6A6E72",
"Y  c #636E7A",
"T  c #686F7A",
"R  c #667275",
"E  c #6B7374",
"W  c #6D7974",
"Q  c #66727A",
"!  c #6C747B",
"~  c #6D797C",
"^  c #717676",
"/  c #737A74",
"(  c #7A7C72",
")  c #72767B",
"_  c #747B7C",
"`  c #797B7B",
"'  c #817F6E",
"]  c #78806E",
"[  c #748274",
"{  c #7C8275",
"}  c #74837A",
"|  c #7A857C",
" . c #7C897C",
".. c #848273",
"X. c #83857A",
"o. c #888678",
"O. c #828B7F",
"+. c #8C8A7C",
"@. c #5F6D81",
"#. c #616E80",
"$. c #6C7682",
"%. c #6E7983",
"&. c #6A798A",
"*. c #747C83",
"=. c #797E83",
"-. c #747E89",
";. c #787F89",
":. c #768284",
">. c #7B8384",
",. c #7E8A84",
"<. c #75818A",
"1. c #7C848B",
"2. c #7B8988",
"3. c #7D8691",
"4. c #7E8992",
"5. c #838585",
"6. c #828C85",
"7. c #8A8D86",
"8. c #81868C",
"9. c #888788",
"0. c #848B8B",
"q. c #8A8C8C",
"w. c #908E8A",
"e. c #859186",
"r. c #85918B",
"t. c #8C948E",
"y. c #93948C",
"u. c #98998D",
"i. c #858B92",
"p. c #8B8E93",
"a. c #858E99",
"s. c #908F90",
"d. c #869192",
"f. c #8D9493",
"g. c #8E9891",
"h. c #8D949A",
"j. c #88959D",
"k. c #929395",
"l. c #9A9793",
"z. c #939A94",
"x. c #999C96",
"c. c #93969A",
"v. c #959A9C",
"b. c #9A9B9D",
"n. c #A19E98",
"m. c #97A099",
"M. c #9BA29C",
"N. c #A3A49E",
"B. c #A9A59F",
"V. c #8E95A2",
"C. c #8F99A6",
"Z. c #969AA2",
"A. c #959BA6",
"S. c #9A9DA2",
"D. c #A09FA0",
"F. c #9DA1A4",
"G. c #9CA2A9",
"H. c #9BA7AA",
"J. c #A2A4A5",
"K. c #AAA6A1",
"L. c #A4A9A5",
"P. c #ADAAA4",
"I. c #A3A5AA",
"U. c #A8A7AB",
"Y. c #A6A9AB",
"T. c #ABACAC",
"R. c #B0ADA6",
"E. c #B1AEAB",
"W. c #AEB0AB",
"Q. c #B2B2AD",
"!. c #B8B6AF",
"~. c #A1A7B2",
"^. c #A5AAB4",
"/. c #ACADB1",
"(. c #B2AFB0",
"). c #AFB1B2",
"_. c #ADB2BC",
"`. c #B4B4B4",
"'. c #B8B6B3",
"]. c #B7B8B5",
"[. c #BBB9B5",
"{. c #B5B6BA",
"}. c #B8B7B9",
"|. c #B7B8B9",
" X c #BBBBBC",
".X c #C1BEBE",
"XX c #C3C1BE",
"oX c #BDBEC1",
"OX c #B8BCC7",
"+X c #C1BFC0",
"@X c #BFC0C2",
"#X c #BEC2C9",
"$X c #C4C3C4",
"%X c #C9C6C6",
"&X c #CCC8C7",
"*X c #C4C5CB",
"=X c #C9C7C8",
"-X c #C7C8CB",
";X c #CCCACB",
":X c #D2CDCE",
">X c #D4D0CF",
",X c #C7C8D1",
"<X c #CCCDD3",
"1X c #D3CFD0",
"2X c #D5D1D2",
"3X c #D9D5D6",
"4X c #D4D4D9",
"5X c #DBD7D8",
"6X c #DDD9DB",
"7X c #E1DCDD",
"8X c #DDDDE4",
"9X c #E4DFE0",
/* pixels */
").F.g.g.R W W W z 8 2 7 h ` v.v.v.<..X$X;X;XE ..L Z R h 5 < k *.~ c u 9 Z %.x x l y U.y.M.P.5 6 + % z `.!.Q.[.<.b.k.k.W 6.|  .6.",
" X X X[.Q W R W j % O 1 M _ S.Z.S.1.;X;X;X/.<.p.<.*.8.S.{.-XXX:X&X$X@X`.h.k ! T Q s k.6.m.*.a w % 2 h ].'.Q.XXC R 0 j j | [  .e.",
" X X.X5.F R F W g z 2.z 5 a.S.c.S.8.$XU.Z.S.I.I. X&X<X$X X.X;X$X$X$X$X;X$X> OX`.Y.8.R z U 7.Z D 2 : , ].'.'.'.` B w w r 9  . .g.",
" XQ.` N 0 5 E } W 6.q [ / G.v.v.Z.-.0.S./. X;X-X=X;X=X$X$X$X$X$X*XXXQ. X[.y oX`.|.`.oXH.>.k p k :.4.h.c.`.'.'.l.r w * 8 r 9 | z.",
"G h r w w t h g O.H h 5 I J.Z.i.i.I.oX}.%X}.}.$X;X;X$X$X;X;X2X-X X X`..XJ.T OX[.|.|. X`.`.).1.g :.v.v.0.`.E.Q.[.C w 8 q 0 ~ W R ",
"| 6 w 3 w B F W C W  .O.1.c.k.k. X;X;X{.%X+X X X$X$XJ.i.>./ / N B W / E z c T.`.`.}. X@X X X@X).l p f.2.T.Q.'.'.D.8 r r C } } } ",
"} q 0 w B 0 R / e.H | F i.c.v.;X;X=X.X$X'.;X.Xb.k.v.v W S S S S S N S S H } E E >.U.`.{.|.@X@X|. Xh.Y 1.9.'.[.'.'.S.0 q :.} } } ",
"} z r r 2 } r.G O.O.E a I./.;X:X=X$X.X+XZ.s.b.R.R.R.>.E D j q q j N q q q S H D S j F v.|.|.|. X`.|.I.:.z v.[.'.Q.'.H.R } } } [ ",
"F g j F |  .O.| S e.1.v.}.=X$X$X X`.J.k.J.R.K.R.P.R.l.k H S S S H S q q q q q q q q S G _ v. X X`.). X|.4.Q P.'.Q.Q.`.[.k.=.6 j ",
"z H F [ W H  .[ W ( k. X}.%X}.$X.X9.D.R.P.P.K.P.P.P.R.- j 0 6 g 9 9 j D H S S q q S H H / G V  X X)./. X X=.C T.'.'.E.Q.'..Xz [ ",
" .] [ F N W | H 1.b.%XXX X%X.XJ.9.R.R.K.P.B.R.E.n.7.s.S.oX2Xk.`.$Xs.4.*.s _ h w S S G H G N o R F.`.).|.`. X=.T x.'.'.'.[.L.F [ ",
"[ [ {  .H H h ! G.$X$X$X%X=XS.x.R.R.K.K.K.R.y.` *X).;X7X6X{. X2X$X;X2Xq.j.S.S.h.W N [ W H - m L.~ c.|.|.`.`. X<.a i.P.'.].7.[ [ ",
"[  .{ F V u u ^.$X.X'..X$XF.N.P.K.R.K.R.s.Z.*X(.U.+X1X3X}.;X;X;X;X:X:X` G.v.v.v.S.c.*.j 5 ~ 0.M.M.<.>.oX).).|.`.) I.U.p.q.E >. .",
"g.1.v l 6 h p.U.$X;X X XF.T.P.K.R.K.R.q.*X9.` V -.`.(./.T.5X5X:X:X:X5XQ I.S.Z.S.v.v.v.Z.l F.z.h | M.) 0.`.|. X|.I.~ I. X;X|.c.1.",
"2X2XF.y 5 u Z.$X%X$X$Xk.J.B.P.P.R.n.T 6X5XoXoX4X X3X.Xs.) i.>.4.i.,.5.Q *.q.S.v.Z.c.c.S.S.*.z z.r.z.z.T h.}.|. X}.p.1.1X1X2X2XJ.",
"2X1X1Xl Y >.=X;X$X$XU.x.R.R.K.R.l.- T 5X=.`.3X1X8.v.S. X_ L.F.L.T.L.J.T.T.f.1.=.F.S.v.S.v.S.8.d.t.M.t.z.>.S.`.`.}. X~ S.1X1XU.;X",
"1X:X1Xc h.oX;X=X+X X5.E.P.P.R.n./.,Xi.*.{.c.(.c.T.W.W.Q.,.I.L.L.W.F.M.L.Y.L.T.L.8.i.S.S.c.Z.S.i.7.g.z.z.7.:.U.T.`. XI.I `.$X}.1X",
"s.p.k.$.v.:X$X=X$X_ V K.P.R.l.U.1X1XF.<X1Xi.I.E.W.W.W.W.b.h.W.T.Y.L.L.T.W.L.L.F.E.I *.b.b.c.c.S.i.r.m.m.>.z.~ /.`.oX|.8.I Z.-.s.",
"Q.9.) p.T.}.<X%XU.G.a.- 5.E.;.2X:X+XZ.+X5.T.E.T.W.W.`.Q.L.z 4.a.i.:.6.M.W.F.J.J.=.OX2X=.Z.c.b.c.F.>.y.t.^ _ g.k.`.|.|.).v P.Q.y.",
"x.T.l S.`.$X:X;XA.`./.U.V X U.:X%Xs.U q.`.E.L.E.Q.Q.7.U I 2.>.Q >.Q Q :.E :.M.v.C.;X7X+Xi.S.S.c.c.F.R y.>.z.x.>.|.).|.|.5._ >.q.",
"b.q.v.F.`.;X2X/./.}.{.U.p.^.+XU.T.;X5.Q.W.W.Q.!.z.Q T :.~ R *.~ 1.1.~ ,.,.r.F l 6X:X:X7X,X8.D.c.c.v.p.` E q.t.g.M.{.`.`.S.Q P.N.",
"P.l.Z.`.%X=X$Xc.}.{.{. Xp.p.&X:X2Xf.|.`.Q.W.W.>.Q _ 1.h >.C _ _ >.} >.,.6.>.| | 8.7X:X,X1X:X$.b.v.c.F.1.z.7.h > _ oX{.{.).*.x.L.",
"*.<.S.'. X$X|.Y.OX}.(.S.+X1X(.&XE.y l.[.`.`.^ z >.*.~ *.~ ! y c 2.C g.2.6.| ,.>.5.;.+X(.+X+X_.8.v.v.v.Z.5.r.- _ T ). X|.`.i.Y , ",
"v.k.I.].`. XZ.oX+X(.{.S.1X1X2X(.I i y F ].0.i.d.z :.>.>.V c -.OXOX^.h.W 6.| ,.6.6.q.k.+Xk.&X1Xs.v.v.c.S._ y F.g.C <. X{.|.U.*.~ ",
"T 1.;X X.X}.c.oXT. XU.{.3X:X7XU.y f x y ; 4.>.y m z _ Y :.W j.2X3X3X3X4X) ) 7.,.e.,.,.I.9.! +X+X=.v.Z.F.d.` >.Z x.g  XoX@X@Xv 0.",
"i.8.E.+X$X}.F././.`.i.{.:X1X3X) y s f u %._ l -.1.~ 4.:.:.W 3.1X:X$X&X&XU w F r.,.,.e.:./.V.*.i.s S.b.S.S.E m.b.q.,  X@X@X@XT i.",
"8.T b - z V *X|.`.*Xv.! (.2X&Xy y s m f l > 5.*.>.<.R W *.d.Y 2X1X1X3Xq.L D N W ,.| >.,.S.*.p.U.I.v.S.G.S.) y.Z O - Z.oX@X{.=.E ",
"v.*.V s i x $X*XU.+Xa l.U.D.l.u y y f Y <.> k h.< p R :.d.~ c Z.p.k.E.B r A J j | } ,.6.>.c.8.A.7X$.I.S.S.=.v V.OX,X8.|.|.|.k.M ",
"l.f u -.^.A.*X@X/.T.a.A.a.$.u u u u s I T z %.E p 6.G p E 0.I.L.l.M 5 e P r [ ..Z } ,.6.` v.- z U T J.S.v.k.{.3X1X5XS.oX X@XI.6 ",
"i.; m h.OXI.$X$XT.S.1X1X2X4XI y y y y s k a ~ l C | [ E -.+XXX}.` * 7 2 P ( N D C | ,.6.t.c j.C.g.*.S.S.v.S./.3X1X1XY. X`.`.oXp ",
"c.i OXU..XZ.;X$XT.c.3X1X:X4Xl y s y y 7.` j h u s 6.( ` 3.XX X.XK * * 7 4 : *.5.E r.,.,.g.~ d.,.0.~ I.Z.v.F.G.5X1X2XI. X|.].oXl ",
"p.V.+XoXF.s.{.).`.h.1X:X:X2Xy i f b s X.D 3 r Q l 5 K z p.k.N.T.* * * 3 =.'.E.[.M.,.| ,.d.| 7.,.r.^ I.S.b.I.Z.2X:X5XH.@X X}.$XI ",
"<.I T =.1.0.p.S.U.i.1X1X:X>Xy f b v n O.S = 8 W O._ P C u.u.u.w.D.9.( Z =.R.N.B.w.d.,.r.t._ r.2.r._ F.S.Z.I.Z.1X%XU.a.h.*.l k -.",
"N w 5 5 a k l k U T (.1X:X3Xf u f b m { 8 8 w p ~ ,.h.d.y.u.u.w.B.U.Q.Q.v.E.B.B.5.Z G | g._ r.5.6.%.I.F.J.f.p.i.T < g p 6 M M C ",
"1 1 % 1 B ; Z 0 3 5 U ` s.1X-.u s @.b / w 0 r ^ T.L.T.Q./ u.y.y.N.Q.!./ b.R.P.E.5.+.( ^ h >.6.2.0.*.I.i.2.<.h 5 6 6 5 2 2 : % 1 ",
"2 : : : h o w & @ 1 3 5 4 ; a y f c l ^ S w w j N.P.P.E.T.Z 7.k.B.B.5.%.;.>.B.R.^ ' ' ../ d.6.r.r.*.;.W 5 1 : : : % % : : % : : ",
"9 6 1 2 0 , 3 @ @ @ $ & 3 w I $.b x c V K 0 B 8 / P.T.P.J.OX^.A.v.&.~ i.5.! 1.E ..' P ..! r.7.:.<.E 9 : % # + : : % : 1 : 1 0 h ",
"5 6 : % - - 2 2 & $ @ + @ % 2 0 a s f y ^ B 8 = 6 d.W.W.I.1X:X2X1XT d.p.8.p ! ( ' P ' ' :.,.i./ a 2 : : % : : 1 8 0 5 > : 2 9 2 ",
"0 0 2 0 N B 6 % # & & & @ @ $ $ 6 6 8.s a D 8 = 8 9 t.b.1X1X:X1X:X0.d.=.n -.=.' P P ..E 1.i.g 9 1 % : : 2 2 5 p ) V.l Z 0 8 0 0 ",
"3 3 3 8 3 3 3 0 0 6 % $ & & @ @ & 1 6 p.l N 8 = 8 8 0 ! +X1X2X;X1Xv.^ m *.( ' ' ' ' ( z i.6 9 : : % : 5 1 R c.Y.U.Y.,.h 8 = 8 8 ",
"0 8 8 3 3 = 8 3 3 8 0 r : % 2 @ $ @ % 3 ` ) N 3 = 3 r r 2 _ 9.n.l.T I _ ..' ' ' ' o.=.*.9 1 % 1 2 2 : -.I./.I.I.I.I.k.p r 3 0 w ",
"5 = 1 3 B r 8 8 8 8 = 8 w N # w & % & @ 3 U K C r 0 8 0 w L E o.o.+.o.' ' P P ' o.=.) h 2 % % 1 5 V A.T.U.J.J.I.I.Y.T.> 0 2 : 6 ",
"M.z.z.~ v >.9 3 0 8 8 3 r h ; , M 3 @ @ $ 3 Z ) 2 3 B K K J / ' P ' ' P P ' ..L >.^ w 1 : : 1 5 =.I.I.U.Y.I.I.I.c.1.>.1.d.g.m.m.",
"g.t.m._ ^..X X^.` 1 0 M D , f s i a 2 @ @ @ 3 ) U V Z K / F o.' P ' P ' ' P K *.*.h 2 : % : 4 V.U.T.I.I.U.I.9._ 0.x.z.z.t.t.z.z.",
"t.g.x.U #X X@X$X$X+X8.6 5 s f f s i 2 2 $ @ % 2 q.G.I.=.M l +.o.' o.' B ^ >.0.1.6 1 : : : g A.U.I.I.I.I.f.=.d.t.g.z.g.t.t.z.m.g.",
"x.M.M.%.-X$X=X$X+X;X<XoXI ; s f b m b p * $ + & 2 c.+X+X$XU.s.9.5.s.! d.z.t.1.5 : : : : g H.J.I.J.I.J._ r.g.z.t.g.z.t.y.z.z.m.z.",
"~.f.p.-.p.T.$X*X;X;X1X+X+Xi.y u s &.Y s h * @ @ & 6 I..X$X$X.X.X.X.Xn._ z.a 5 2 % % : 5 S.I.S.U.U.k.=.z.y.g.g.z.z.z.6.E V f.f.^.",
"=X;X:X;X;X/.c.x.<X1X+X+X}.{.Z.s f @.Y f y M & % @ & =.b..X.X%X$X.X.X.XC 9.a h : : : 5 v.U./././.c.=.g.g.r.g.z.m.` Q $.G.T ;X=X;X",
";X=X;X%X&X:X&X&XZ.J.$X`.E.).+X/.u f f @.f ; w $ $ & 6 q.'.$X$X.X.X;X$XI i.g 4 % : h *.T.T.Y.U.c.0.z.t.t.z.z.>.:.v.I h.M.! #X=X=X",
";X&X;X%X+X:X%X%X&Xi ) }. X XoX+XJ.y c f n c p 7 @ @ & ^ *.h.p.9.9.f.v.&.E 9 % % h z T J./.Y.c.>.z.z.t.k.z._ >.Y _ <.v.z.0.^.:X=X",
"^.k.l.}.:X+X+X&X9.a 6 a ).`.}. X*Xi.s s I b b M & @ @ 2 8.z.g.z.k.z.z.i.: : % 6 M x x s 9.Y.1.g.t.g.g.z.) ! Z.*.i.M.h.h.1.! G._.",
"oX/.I a M s.%X.Xa 2 . @ : ).}.}.+X;X! b n f f c 6 $ @ & ) >.t.t.r.e.>.^ 2 : : 0 s x x i y l z.t.g.g.z._ p.<.2.>.h.h.:.i._.6X6X6X",
"4X}.; M 1 4 h p 8 +   + $ a }.}.+X=XoXf b m c s C & @ & 1 p.r.6.g.g.1.2 : % 6 V s b s s d v.g.g.t.x.! ` :._ *.h.p.A.1X9X;Xc.;.G.",
"9X+Xp 7 2 w 5 6 X @ + @ 2 3 ) +X%X+X*Xp.b @.v n p 7 @ @ 2 q.5.z.x.,.=.5 : : 9 p , s y y *.z.g.g.z.~ -.%.#.U T h.*X6X:X7X3XOX5X5X",
":XU a 3 * $ 1 $ 3 O 3 % 2 3 3 S.oX X XoXf v c b y N & @ & V ) 4 # Q V 1 % : V ; s s y ; c.t.t.t.>.y l j.H.~.1.8X9X:X8.+XU.G.&X+X",
";.-.I : 7 1 @ * 6 3 # @ % 2 5 M =X+X;X;X8.s c b s a 2 @ @ 2 5.C g i.5 = : 2 g y s i y T z.t.t.g.N C a I q.4.S.9X+X^.V.8.b.` a *.",
"2.2.2.d.a 4 & * 3 2 1 # $ * $ 6 v.*X$X$X`.> s b f s 8 % $ 3 ! M M 1.a 1 % h p n b x u j.g.t.g.| 9 9 1 V u ,X3XY 4X2Xl.U K A U >.",
"} 2.:.5.6 6 # * 1 3 3 : 3 2 & 3 U +X+X;X;Xf s b s i e % @ 2 , z C 8.w M 6 Z s b x k s M.t.t.g.C 0 = = 6 h.3X7XI.7XB.Z A e t M >.",
">.2.9.C 7 3 4 1 3 a 3 3 1 8 % 2 2 T.+XoX+X8.f f x f 6 % & & 5 ~ 4.%.f - # < x b x k *.z.g.z.y.5 1 = 1 6 =X%X:X).{.U A t e e e >.",
"~ C ^ s a a M 4 a p h 7 < w 2 6 M i.;X$X}.k.c $.:.5.5 & @ & 1 F.OXh Z B U l x x k b c ` 7.m._ 0 = % 6 p.6X3X{.T $.M A t B B 0 *.",
"Y.6.! a x U 4 Z a M M * 1 2 $ $ < ;.;X+X}.`.K X.] L 2 % $ $ & p.J.6 7 3 w a x x x k 4.*.! > < = # % 9 i.5X:XY A.H.F.*.w e V.4X1X",
"L.| r.*.s < h w 4 a 1 * w I C.~.I.i.+X}. X=XG [ L L 0 & @ + & *.h.3 * 3 M l x b c i W.W L.I h 9 2 = j %.1.C m 1.Y.L.F.c.a.1X3X2X",
"z.e.t.g.s i a h 4 7 $ $ w ;.G.v.F.4.{.[.$X;XS L L ] N 3 @ $ 0 *.8.M 2 & M I m m x u z.M.` 2.9 2 % 9 h }..X_.G.<.M.M.J.0.2X:X:X1X",
"F g.g.4.*.2._ _ Z 1 @ 3 o ) v.v.v.>.`.oX-X;XG L L ] C 2 2 3 K 3.h.( e 6 A v m v c u W.N.9.L.5 8 % : z ].[.'.`.:.c.d.k.! 6.M.U..X"
};
