/* XPM */
static char *out[] = {
/* columns rows colors chars-per-pixel */
"64 64 149 2 ",
"   c #050709",
".  c #070B0F",
"X  c #080A0E",
"o  c #130E09",
"O  c #16110B",
"+  c #1A130D",
"@  c #070C13",
"#  c #0A0E13",
"$  c #090F18",
"%  c #0C1116",
"&  c #0C131A",
"*  c #1D1610",
"=  c #1F1812",
"-  c #11171F",
";  c #11181F",
":  c #21170E",
">  c #24180F",
",  c #201710",
"<  c #241B13",
"1  c #2A1F15",
"2  c #271F18",
"3  c #2C2117",
"4  c #2C231A",
"5  c #31261B",
"6  c #35291D",
"7  c #392B1F",
"8  c #0D1622",
"9  c #0F1826",
"0  c #0C1729",
"q  c #0E1A2A",
"w  c #101723",
"e  c #121924",
"r  c #131C2A",
"t  c #191F2B",
"y  c #0E1B31",
"u  c #0F1F39",
"i  c #111E32",
"p  c #1A222D",
"a  c #0F223E",
"s  c #132135",
"d  c #1C2534",
"f  c #14243C",
"g  c #1C2A3D",
"h  c #2D2720",
"j  c #362C22",
"k  c #3B2E22",
"l  c #3D3124",
"z  c #363029",
"x  c #3D352C",
"c  c #3F382F",
"v  c #212D3C",
"b  c #3D3630",
"n  c #3E3932",
"m  c #413326",
"M  c #42362B",
"N  c #44392E",
"B  c #4A3C2E",
"V  c #443C32",
"C  c #4A3E32",
"Z  c #4D4235",
"A  c #4D443A",
"S  c #514436",
"D  c #514639",
"F  c #554A3C",
"G  c #5A4D3E",
"H  c #132543",
"J  c #152946",
"K  c #192B45",
"L  c #132649",
"P  c #152B4C",
"I  c #192E4C",
"U  c #1B304E",
"Y  c #162E52",
"T  c #192F52",
"R  c #162F58",
"E  c #173155",
"W  c #1A3255",
"Q  c #17315A",
"!  c #1A345B",
"~  c #1D385D",
"^  c #202C40",
"/  c #2C3545",
"(  c #23334C",
")  c #29364A",
"_  c #2E394B",
"`  c #313C4C",
"'  c #273A53",
"]  c #2B3E57",
"[  c #313E52",
"{  c #1A3661",
"}  c #1C3A63",
"|  c #1D3D6A",
" . c #203D6B",
".. c #294164",
"X. c #31456C",
"o. c #324971",
"O. c #344F78",
"+. c #4F4840",
"@. c #574D41",
"#. c #5A4F41",
"$. c #5D5245",
"%. c #5E564A",
"&. c #615546",
"*. c #61574A",
"=. c #645A4D",
"-. c #6A5E4F",
";. c #665D51",
":. c #6A5F52",
">. c #676055",
",. c #6C6255",
"<. c #6D645A",
"1. c #6F685C",
"2. c #716556",
"3. c #776955",
"4. c #706759",
"5. c #746B5D",
"6. c #7A6E5E",
"7. c #7A705F",
"8. c #766D61",
"9. c #786F61",
"0. c #777063",
"q. c #7C7364",
"w. c #7E7669",
"e. c #7F786B",
"r. c #807566",
"t. c #807769",
"y. c #847B6C",
"u. c #887E6F",
"i. c #867E71",
"p. c #887F70",
"a. c #8A806F",
"s. c #878074",
"d. c #8B8374",
"f. c #8D8679",
"g. c #8F887A",
"h. c #908676",
"j. c #918778",
"k. c #938A7B",
"l. c #998F7F",
"z. c #958E81",
"x. c #988F81",
"c. c #979081",
"v. c #9A9282",
"b. c #9D968A",
"n. c #9E988B",
"m. c #A09788",
"M. c #A29A8B",
"N. c #A69F93",
"B. c #A8A192",
/* pixels */
"5.,.<.<.<.<.<.V t ` ` ` ` _ K ( $.r.-.3.3.,.=.;.;.:.<.;.:.<.;.h h C k %.=.=.;.,.-.,.,.<.,.>.-.Z 5.i.w.;.r.f.q.>.H P J E P K ) v ",
"d.j.k.i.y.u.p.C e W  .} } ~ } ~ &.a.l.h.u.w.w.q.q.y.i.f.f.f.y.l j f.y.q.q.4.5.y.t.y.f.a.y.t.y.Z ;.q.d.i.d.y.5.w.P I E Y W ~ ~ ~ ",
"i.d.z.f.h.y.q.N e W ~ } } | } W $.u.t.y.5.5.q.5.y.q.d.d.d.z.3.m 1 :.9.5.4.4.q.t.t.u.u.q.r.u.t.Z @.y.a.f.f.q.q.q.Y L E P E E ! H ",
"y.d.d.y.y.u.f.Z r ! } ~ ~ ~ ~ W D a.y.5.5.5.q.q.i.i.i.d.i.i.3.7 1 ;.9.q.5.q.q.r.y.y.t.q.t.q.u.B ;.f.y.y.u.u.y.d.! E E E E E ~ E ",
"D y.d.p.d.j.d.C e W ! ~ } ! { H N y.d.w.>.q.q.5.q.s.i.i.e.e.3.< < *.5.y.9.6.y.t.r.y.q.y.y.9.t.C %.w.y.r.y.y.u.d.! ! Q ! E ! ! f ",
"c y.p.q.d.j.d.Z r W ! ! Q Q W q N w.y.7.8.5.5.9.8.y.i.i.w.w.,.1 = =.q.q.w.6.q.r.r.q.y.6.6.6.r.N #.w.r.u.y.h.u.y.{ { ! Q E ! } 0 ",
"V 9.q.y.r.u.y.Z r W K ' W W U r j 5.5.5.y.5.5.9.q.y.s.i.5.q.,.> , >.r.w.7.4.6.5.2.q.q.6.5.5.7.B $.w.5.t.q.d.t.u.~ } ! E E E ~ p ",
"< 6 7 7 k 7 7 1 X - & & & & & # j 5.2.2.q.8.8.9.w.i.i.0.<.8.2.< 3 ,.q.w.2.q.w.4.5.y.t.u.p.r.r.B V q.q.-.,.&.2.Z 9 q 8 $ q & 8 % ",
"d [ [ ` ` [ ` t V <.1.<.<.<.1.V j <.q.9.q.9.4.5.0.8.w.q.q.r.8.1 < ;.5.5.t.t.q.y.t.a.h.d.u.y.y.F f Y { Y H f I 9 Z q.-.>.7.7.7.Z ",
"t ! { T ! T T r V f.k.r.i.g.k.A N :.8.6.q.9.5.t.8.q.w.q.9.r.9.5 + ,.y.5.7.y.y.r.y.h.h.y.t.k.h.G I } Q Q T T W e x a.a.a.q.g.k.D ",
"w R R T P T J r c y.p.d.y.d.f.%.V 5.6.5.q.r.9.q.t.9.q.t.t.t.6.3 * ,.7.5.q.q.d.t.a.d.h.a.a.h.h.D T } { Y ! R W e c e.h.a.d.h.k.Z ",
"w T R L L Y T w N i.d.w.q.t.t.5.C 9.9.9.q.q.6.y.y.8.y.9.i.9.3.3 = *.5.w.7.y.d.f.h.a.k.d.u.u.h.G J { Q { ! ! I r Z s.d.a.y.d.a.Z ",
"0 T P P L L I w c y.r.q.y.r.y.r.+.r.9.t.t.p.r.9.t.8.8.q.y.w.,.> 3 l F q.d.k.k.d.k.h.a.a.y.h.a.F J Y Y Q ! ! ! r N a.a.k.h.k.l.Z ",
"0 T Y Y L L J w N y.r.d.6.q.y.9.C 9.9.t.9.t.t.9.9.q.t.p.t.r.r., 4 5 l Z 5.a.l.h.v.d.k.k.d.u.y.S T T L L L ~ ~ q B y.d.t.d.a.d.S ",
"0 L R T H J J w V <.t.y.q.t.w.6.F 9.t.t.t.r.t.t.4.=.*.*.*.&.G 5 4 j 3 * 5 G 4.y.w.w.y.y.u.h.a.S H K H J I ~ W r F y.r.r.r.6.r.G ",
"# & 8 y 8 @ # @ 1 6 B F &.=.,.F m *.#.D C C B 6 6 6 3 3 , , 1 + o 4 4 * + 3 5 7 l l k k m m m 3 - % & # % & & & l 7 6 7 5 6 7 7 ",
"z :.5.:.*.=.:.;.$.Z ;.>.=.>.5.*.f.j.z.d.g.k.c.5.( H g ) [ t [ t @.8.8.<.<.>.>.q...o.X.o.o.o.O.] C N j j B 4.<.=.:.<.4.B 6 k =.4 ",
"z t.8.t.r.r.p.y.d.a.a.k.f.y.g.$.8.i.f.g.g.g.f.i.R Y Y I W Q ! r V g.j.k.f.d.n.f.! { Q } Q I W s F m.N.N.k.u.j.u.8.p.k.d.p.y.4.k ",
"z 8.8.r.q.r.t.r.d.k.y.g.h.s.h.@.8.y.g.f.u.y.y.t.L L L L H L I 9 V p.d.a.v.l.B.g.} | Q Q Q Q W f k t.p.h.j.u.d.y.9.5.q.q.<.9.2.j ",
"N r.8.y.y.i.t.r.d.k.f.k.y.f.f.#.0.d.f.y.q.y.q.p.R L L Y L L Y 0 A d.a.l.b.l.M.M.Y Y } } L P T f @.t.u.p.j.k.d.j.y.8.6.r.9.4.5.M ",
"b w.p.p.p.p.z.p.e.y.y.c.d.d.d.=.y.y.w.w.t.f.y.d.Y P Q L Y R W 9 x d.h.m.l.j.y.v. .Q L Q { { Y f C w.d.u.l.l.j.d.6.q.r.y.9.5.5.N ",
"V 9.p.k.p.z.v.p.s.d.s.g.g.d.f.%.i.y.y.a.u.j.h.f.Y Q ! Y L Y ! 8 c d.j.c.c.f.s.y.{ { { Q ! Q Q P Z y.u.t.j.l.j.3.5.,.t.u.t.4.9.N ",
"x 9.t.k.j.p.j.p.d.q.y.d.y.y.d.%.q.w.w.u.q.h.d.f.Y Y { L { Y E 8 x q.j.l.l.h.t.y.! } { Q Y ~ T f C p.y.r.u.u.u.y.=.w.<.y.t.5.5.N ",
"x w.t.p.j.i.y.p.y.0.e.s.s.d.k.-.q.q.r.a.d.f.f.y.L Q { Y R y $ @ < B *.$.S =.f.F q } Q Q Y T R r V d.h.u.y.6.u.t.q.5.5.9.w.y.r.x ",
"z p.d.j.d.t.,.q.y.y.y.i.d.w.l.3.! I E E ! } ~ | s.g.k.k.k.-.=.Z t ^ L I K I W I 8.c.d.d.y.y.r.-.Z j.d.s.a.5.q.5.5.y.q.y.d.i.w.N ",
"z 9.p.d.d.d.8.y.f.y.q.i.y.i.f.G I Y P ~ } P J } s.d.g.l.s.a.q.Z w W ! ! } | } P s.h.s.a.h.h.y.r.A h.w.y.1.5.5.q.5.q.f.d.w.w.q.N ",
"h 8.t.t.p.y.r.y.y.y.y.w.q.w.s.F I W E ! U U Y f %.e.g.s.q.0.e.Z w L Q { Q { } f a.d.d.a.d.u.a.t.A s.y.q.w.5.9.q.w.w.h.d.8.5.q.B ",
"M w.d.9.j.t.q.t.y.a.d.5.y.y.y.Z J E E E W U Y & z e.s.i.q.q.7.N w I Y R R } } W f.k.d.a.d.d.a.h.D a.y.y.5.5.5.5.7.5.7.5.q.8.5.j ",
"j 9.h.8.k.d.y.u.u.d.h.q.a.w.q.Z J I Y Y Y I I ; n e.f.0.e.s.a.N e T Y R Q Q ! { h.d.h.d.f.d.7.u.$.s.7.q.0.5.y.7.5.h.5.6.0.q.=.3 ",
"2 8.F 9.d.d.p.u.r.q.u.d.d.y.y.Z f I P J J J I e n i.i.e.5.q.e.Z r ! ! ~ { { { { h.l.d.h.a.5.q.q.$.y.5.q.5.5.1.,.7.w.q.r.<.-.F > ",
"< B 6 F #.5.h.t.d.d.y.f.j.g.w.N i I I K Y J K 9 V 5.e.7.5.5.7.Z e W I W W W ! f q.k.k.a.d.h.s.q.A w.w.w.5.<.,.-.D D G G Z 7 m < ",
"o , + : < 6 7 k 6 6 7 7 m l k < 9 q $ # % % % % = 6 6 6 6 6 j 3 X - % % % % - # Z a.k.d.y.s.y.=.4 x l x k 3 3 6 > < + : O o = o ",
"* h 5 N k k S <.1.5.5.5.,.5.5.C ,.d.-.>.<.<.1.n p ` _ ` ` ` ` p c <.<.N 1.8.<.$.U ~ Y Q Q J I K A ,.=.=.;.$.=.<.Z 4 6 4 = 2 5 = ",
"2 g.M.M.N.d.d.d.f.k.l.d.u.f.a.D =.d.d.t.a.e.a.Z e K Y Y W W ~ p 4 =.2.q.i.f.j.S q ! E E Q Q I J A y.d.y.w.7.w.q.y.d.l.k.g.g.t.4 ",
"* <.p.y.q.e.0.q.i.h.k.j.l.p.t.B G d.a.s.a.y.k.Z p U E I K U r 9 n 5.d.f.i.k.j.C 8 E E Y H J P f C y.5.5.y.w.5.y.<.<.y.w.w.,.A 2 ",
"* 5.p.q.q.q.w.e.y.f.h.f.f.d.a.Z Z k.a.e.s.g.a.Z r U E E ~ J ~ e N e.d.e.f.p.p.Z 9 Y Y E I H H f Z y.w.q.7.q.d.5.8.y.i.y.q.4.q.= ",
"< 8.w.8.0.d.y.q.q.f.y.f.a.h.j.S %.a.y.a.a.a.k.A q ~ U P E E U 9 b e.w.y.9.w.w.C 9 K J Y P H P K N w.r.y.y.y.q.f.h.f.q.q.5.8.2.= ",
"4 5.y.q.1.0.w.8.5.q.h.d.a.y.h.G 4.a.d.q.h.h.d.D q ~ U P E Y U ; x i.i.t.t.y.y.C 9 J H J J J I f x w.q.q.u.u.f.l.k.d.e.w.5.5.,.< ",
"A y.d.y.8.1.w.g.d.y.d.d.t.y.l.S 1.k.s.y.l.a.h.G f E Y P I P K e n y.d.y.q.q.y.B e J H U I I E i x 5.w.y.2.y.a.k.f.f.d.a.<.0.<.7 ",
"V d.y.t.w.q.y.i.g.d.y.a.d.y.h.S $.y.N F D Z 6 N q i & & 8 & % % 2 j k m 6 5 k < . % @ 8 Y I & % j 1.w.w.6.q.5.M.c.j.l.q.5.8.5.B ",
"Z w.q.q.d.i.i.i.f.e.z.z.i.i.y.M f f s a P g ( K =.5.%.$.q.>.7.,.^ f K ( U v ` p V >.=.%.w.s.-.Z x <.w.0.8.q.f.v.c.l.f.f.w.5.q.N ",
"n w.i.i.i.s.i.s.e.f.z.z.f.d.6.< ; J f P I ~ | s 5.w.q.q.y.y.y.y.W W Q Q E ! U ; c q.0.q.y.y.g.D j 5.q.y.f.i.e.f.g.k.k.s.y.y.y.V ",
"b e.d.s.s.y.w.w.w.s.n.l.k.f.6.< 9 I E E ~ E ~ J 0.i.y.w.y.s.s.y.L W T Y I E U 9 x w.s.y.q.w.w.N j <.e.y.w.q.e.i.w.e.k.s.y.d.y.N ",
"n f.i.d.d.y.8.e.s.g.n.k.z.k.2.3 r K f L J E E Y y.i.w.w.d.y.y.w.P Y Y P ! E Y 9 c s.y.q.y.y.s.B < ;.w.f.e.5.i.s.y.y.s.y.e.d.0.l ",
"n s.d.s.s.s.i.q.s.g.g.g.h.h.r.3 q U K a Y E E Y t.t.y.w.w.q.0.0.I L Y E Y E W 0 n s.s.a.s.e.s.Z 4 >.e.g.y.y.i.s.w.s.c.y.e.e.8.j ",
"5 5.f.d.a.y.w.w.e.q.w.s.c.k.3.1 ; f H H Y J J J 5.w.y.k.e.5.w.w.P Y P L P Q W e n y.d.d.e.d.d.Z < 8.g.e.9.y.d.s.e.w.s.y.e.y.<.4 ",
"5 ;.5.y.i.a.w.e.0.0.7.%.=.$.&.5 ; s e s K K K g 5.y.i.y.0.0.w.0.H W I H Y ! U 9 Z <.0.a.a.y.a.Z 5 $.,.*.G &.*.=.>.*.$.*.&.&.G 4 ",
"+ 3 4 5 7 M V j 5 6 5 3 1 < 3 O .     . & @ # @ j *.&.$.$.$.$.m & r y s 8 $ % # = 5 6 k 7 6 l l + 4 < = + > 1 3 5 3 3 < > > < + ",
"V <.1.<.>.k.a.,.d g g / / _ _ p 4 C 5 3 1 6 6 %.>.<.=.=.%.;.=.x n 4.4.;.>.<.>.<.>.&.Z M m m S 4 A 1.8.1.<.<.<.A i _ ` p d ` e p ",
"V i.j.f.l.a.t.$.q J H H H K f % z s.f.y.y.y.<.8.w.d.w.5.q.y.q.V c 9.y.q.q.w.p.d.u.5.d.M.v.l.h.7 V i.i.z.d.g.p.C w P I f s f ' p ",
"j 4.k.q.5.u.w.G 0 a a a u a f # = j =.5.5.>.5.5.0.w.9.8.w.0.w.N k 9.4.8.q.w.y.w.5.r.c.h.j.l.r.3 b w.i.f.i.w.t.C e J P I J q I ; ",
"V t.d.,.1.q.q.M $ L s a f f s % h %.$.>.5.q.8.5.8.5.5.y.w.w.w.M x w.8.w.q.5.0.y.d.q.j.g.k.a.7.5 b e.i.i.i.w.f.S r W J J I I s r ",
"Z y.y.q.q.6.5.l 8 H H P L H J ; < <.y.q.-.5.w.q.8.<.8.q.5.0.q.M V g.i.w.w.q.q.y.d.y.y.t.a.s.7.3 n i.z.p.v.f.p.S e J L I P L H # ",
"V y.6.u.5.5.5.N 8 J a J H H H ; 3 1.q.0.5.,.>.0.q.8.q.0.0.5.q.M Z z.f.q.y.q.y.y.y.d.y.y.y.y.7.5 V i.i.f.f.f.u.S e f L T P ! T p ",
"x >.r.y.q.>.-.m & f H f K H g ; , 5.7.5.y.y.w.5.8.q.9.y.0.0.1.x V f.y.q.q.w.y.d.l.i.y.d.s.k.a.5 b e.i.y.y.f.p.S e U W J K I I e ",
"< 6 7 7 6 3 3 < @ % % % % % % @ > >.y.r.y.y.6.0.q.q.5.q.q.w.5.c Z k.k.y.y.d.y.d.z.d.y.d.f.l.a.l 2 5 2 6 5 k m 5 & r # # # % # # ",
"p ` / [ [ [ [ p b >.<.<.<.1.<.n < ,.w.a.t.a.y.7.5.q.q.<.q.w.4.N A k.k.h.d.j.s.f.d.g.d.f.g.g.v.D v K v ( / ] [ f <.l.*.-.<.>.>.V ",
"e K W I ..W W e V e.w.s.s.e.w.V < w.d.y.h.a.w.y.d.y.q.5.d.9.r.C Z x.l.p.y.h.d.d.s.f.g.k.d.k.k.F K Q P L f ! E R e.i.b.f.j.w.w.M ",
"- J P L Y Y U e n q.e.y.y.y.i.C < 5.l.y.u.a.5.q.q.2.5.,.q.y.k.N n j.d.y.y.g.d.i.s.f.k.j.s.a.q.D J J R L Y P L L y.w.j.y.l.5.5.m ",
"w u H L P Y I e V q.s.w.e.k.f.C 4 5.h.h.l.f.5.w.q.w.8.8.5.6.9.k N y.y.d.y.g.f.y.y.s.g.d.s.w.w.F K Y Y P E Q L H q.8.d.d.h.q.8.M ",
"w J L L P J I e n i.y.y.i.y.i.C 4 <.y.y.y.w.y.q.8.5.q.0.5.q.q.m x y.h.s.p.y.y.d.a.w.y.d.a.a.d.F f ! { L P E P H t.w.y.f.d.h.7.M ",
"& J H H I P T r V e.i.y.i.k.g.N 4 <.h.f.y.y.d.w.5.5.w.y.8.w.5.6 k q.y.y.d.s.y.d.y.y.q.y.q.s.a.F Q E Y E P E L H q.t.t.y.u.q.y.M ",
"w ^ K u J I K e n 5.4.=.q.u.h.V A u.h.f.f.l.w.-.5.0.q.5.6.5.2.6 4 #.G 7.s.d.d.q.q.7.4.q.e.0.e.F J E Y Y P E K E y.a.q.j.f.w.q.M ",
"X % % # # % % @ < 6 6 < 6 7 C C 3 B M N k 6 5 1 3 7 6 4 5 5 k + O < < 5 5 6 6 5 5 5 3 5 7 6 6 5 f Y P 0 0 H J a $.q.s.5.m 6 6 3 "
};
