/* XPM */
static char *out[] = {
/* columns rows colors chars-per-pixel */
"64 64 102 2 ",
"   c #2D1807",
".  c #2F1C0D",
"X  c #331D05",
"o  c #331E0B",
"O  c #362107",
"+  c #36210D",
"@  c #3A230E",
"#  c #3F280E",
"$  c #352211",
"%  c #3C2612",
"&  c #3D2915",
"*  c #41290F",
"=  c #50320F",
"-  c #402712",
";  c #432B14",
":  c #482E15",
">  c #442D19",
",  c #492F19",
"<  c #4C3116",
"1  c #47321E",
"2  c #4C331B",
"3  c #543515",
"4  c #51361C",
"5  c #54391D",
"6  c #5A3C1C",
"7  c #4C3721",
"8  c #4E3923",
"9  c #543C23",
"0  c #593E23",
"q  c #553E29",
"w  c #5F411F",
"e  c #62421E",
"r  c #5D4124",
"t  c #56412A",
"y  c #5C432A",
"u  c #5F482F",
"i  c #5E4933",
"p  c #624425",
"a  c #6A4625",
"s  c #664826",
"d  c #694826",
"f  c #62462A",
"g  c #65492C",
"h  c #6B4C2C",
"j  c #714E2D",
"k  c #6F502F",
"l  c #74522E",
"z  c #654C32",
"x  c #6A4E32",
"c  c #675036",
"v  c #6D5234",
"b  c #6C5439",
"n  c #735434",
"m  c #795734",
"M  c #755837",
"N  c #7D5B36",
"B  c #725639",
"V  c #755A3C",
"C  c #7A5D3D",
"Z  c #7F603C",
"A  c #755C41",
"S  c #7A5E41",
"D  c #7C6143",
"F  c #7C6448",
"G  c #805E3D",
"H  c #81623F",
"J  c #826544",
"K  c #886641",
"L  c #866946",
"P  c #896B47",
"I  c #836749",
"U  c #856A4A",
"Y  c #8A6D4A",
"T  c #8E714E",
"R  c #90734F",
"E  c #866D51",
"W  c #896E51",
"Q  c #8D7252",
"!  c #8F7558",
"~  c #927552",
"^  c #967956",
"/  c #987B57",
"(  c #917758",
")  c #957A59",
"_  c #9A7D5A",
"`  c #997E60",
"'  c #9E815D",
"]  c #A0835F",
"[  c #9D8262",
"{  c #A28562",
"}  c #A68965",
"|  c #A88C67",
" . c #A28769",
".. c #A68B6B",
"X. c #AA8D6A",
"o. c #AD916C",
"O. c #B0936E",
"+. c #AD9372",
"@. c #B29671",
"#. c #B59873",
"$. c #B49A78",
"%. c #B89E7E",
/* pixels */
"A x p 3 w g 2 4 y 5 y r t 5 5 r y z z z g p s r f g c v b C b 7 A z D e e 5 p p k r k h v n B v v k g v g s D k w 6 3 e k r v # ",
"V F [ _ ' Q H n h k d g a h r l l n Z N N h a h l m J ^ K K n % A u F [ M B Y Y C F M C K P K J J P R G B / T ^ ^ ' ~ T I L v o ",
"u E [ ~ T Q T / ' [ ' ) [ [ / ' .._ ~ ^ ' } ] ] { ^ / ' { K v @ 9 D v ~ ) Q J ~ ^ ' ^ ^ | ' ' o./ } ] T } T _ ' T ] ' T ' Z r + ",
"y Q ' ~ T Y T / _ } ^ ' Y T T ~ Y T Q ^ ^ T T ] _ _ ~ _ ^ C n X y g B ' ] ^ ^ ~ _ T ~ T T ^ ~ ' ' T L R ] R ^ ~ ' ^ ' ~ [ Z s $ ",
"y Q ~ { _ { P / / { ^ { } L Q ' T T T / / / T P ~ T T ' ' C p X b ~ F T ~ _ ~ Q ~ ^ ~ ~ M Y ~ ^ R R ' ^ Y R ~ _ / ~ _ ^ ' Y v + ",
"9 ~ ^ _ P Y ~ T } ' T T ~ T T / T / T T T R ~ T T T / ' ' U h X y o.C ^ T { ~ _ ~ ^ T T K Y ~ ^ / T T ~ T T / } _ Y _ ' [ Y r O ",
"b [ ^ T ~ / ~ _ ' ' / ~ { T R ^ J P ~ ^ Y T R Y P T / ~ _ ~ y O r _ ' L I ' _ | P T ~ | { ) ~ R T ~ ~ D H ~ ~ L _ ^ { _ { _ y O ",
"g ~ Y Q T Y Y _ ' / ' { ' ' / / Y T L ~ T R ^ / T T / ~ X.Y h o x Q ~ ~ ~ ^ ^ ^ ^ ~ P _ J ^ ~ ^ ~ P T ~ / / T T ~ Y T ' ) } ^ # ",
"D ^ R T T L ' ' ' / L T T T T ' _ Y ~ Y ~ ~ Y R Y P { _ ] U n + 9 ! ^ ~ Y ) | ^ ~ ^ ' _ ~ ~ ^ ^ ~ ~ _ Y Y Y R Y ~ T T / / / ~ # ",
"9 ' Y T / ~ ' ] ' ^ } ^ / ~ / T Y _ ~ ^ ~ ~ T Y Y ^ R ~ _ C M + h F T T K ] T ^ L ~ T ~ T ~ R / _ _ ~ R Y ^ ~ ~ ~ P ^ ~ / ' Y ; ",
"v D ' ^ T ~ ' { ' ' { ' ' } ' ~ P K _ ~ U Y / ^ / T ~ _ ^ G h + p D ^ T T ~ T _ ~ T ^ _ ~ R ~ ~ R _ Y Q ~ ] ^ L ~ L ' ' ~ ' D $ ",
"n Y / ~ ' _ _ ' ' ' { { ' ~ L ' ~ Y _ ~ U P R T ~ T _ ~ _ C k o f ! ^ T ~ _ ' ] ^ _ ~ Y ^ ~ _ _ / ^ ~ / / T _ T T ~ ~ ' _ } D + ",
"g U / / U { ] ' _ ' _ ' / J ' ' _ ~ ~ T ~ T ~ ~ ~ _ ~ ~ _ C h % y [ { ^ ^ Y ] Y / Y ~ ^ Y ^ _ | ' Y X._ _ _ T ~ ) / ' ' ' ' f O ",
"k F } T } _ _ ' [ ' | { ~ ~ { ' ^ _ ^ Y T T ~ ^ _ _ ^ ~ ^ Y g + g Y { | { _ ] W Y ^ _ _ F x _ B _ / / ~ _ ~ _ _ ' _ ~ ' ' X.h $ ",
"n 0 8 g } I f _ 2 i v x v n Z 9 4 : x T Y _ V o.S 4 4 ; 4 B V + z y p p < U 1 6 h 6 p 4 p 4 : < x x B ^ U { _ { | F _ ..x U x % ",
"& + + & < , % % y r 4 2 & & + & o 9 o - - o o - , % @ o o ; 1 $ > $ - @ - % ; @ + $ % + @ + o - ; @ o + % ; ; > < o % 1 & ; ; $ ",
"i b g g M V < p h 5 x s h g g h k g y r B f = g h g w y p h B 8 z B n r l M p s p v h s h h h p 6 p p p f < p 2 v < j r 5 h A t ",
"q T D } } U ; ! _ n ' } ^ %._ v F } U ~ ' ' N _ T ^ ^ J J L k 5 u ~ ..| { O.U Y P Y ' o.X._ J _ U X.~ Z ! _ ..^ { Y J T B } J 4 ",
"> b _ Q ~ D v ] ~ B _ ~ ] | { } | T L { ^ T Q _ ' T Y R X.~ M ; y y { Y ' ' { _ } { ^ { { { } _ _ U ~ ~ ~ Y ~ ~ R ' ' { U X.n < ",
"8 y _ ^ ^ v V { } B Y { } ' ' _ ^ ' ~ ^ ~ T J T ] J Y L Y ^ G : < U _ _ T ~ ] ] ' / ' ' _ _ ] ' R ~ ^ ~ ~ ~ ~ R ^ _ { U K { S < ",
"t g ' ' u Z ' ' T I ) _ _ ^ Y ~ v { T ~ ~ J L T T T J ~ Y _ Y 6 i [ ' [ } R _ _ } _ / _ _ ] { { ~ Y T T T ~ ~ T _ _ _ I _ _ B < ",
"1 g ] g v ~ Y [ c ' ~ L ~ / ^ c T T ^ ~ T L T T L ~ ^ ~ ^  .X.3 t ' } ' T P ~ } ^ ] ^ { { { { _ / T ~ ^ T L T R ) _ } Y [ | M 5 ",
"8 v B t ) ^ [ u / ^ ~ ^ ^ / v _ ~ T ~ L ~ T L ^ Y T ~ ^ ~ _ | < 8 { ' L R R } { { } ' ] _ { { { _ _ ~ P R ~ T L _ _ | { { | x < ",
"8 V } c F [ Z Q { ' ^ ^ _ g W _ Q L ~ T ~ / R R T T ' ~ | _ } : 1 ' { ' Y ] } / } } ~ ] { / ~ Y P R ~ ~ L L L T _ ) { { | { h < ",
"w t ^ ' V z b ^ T ^ ^ _ U Y _ ' ^ / R ~ T ' L T T P ~ T ^ ~ { 3 i { ' _ _ T R ] _ { ^ ~ _ } ^ ~ ^ _ T / Y K T R R ~ R ^ ] ] p < ",
"& D T ^ ^ ) b { / Y Y U ~ ' [ R T T / L Y L ~ ^ ' T / ' { _ } 0 8 ' Q Y / R ] ] ^ _ ^ _ _ _ J U ~ ' ' ~ T L ^ _ P ~ _ ' ] ] h 2 ",
"t z ' { J / V A I Y A U _ _ ^ R P T T _ P T ~ ' ^ ~ / / _ _ { 4 8 ' ^ _ } _ ' / { { B B z U _ ^ / ~ ^ ^ T ~ R ^ J Y | _ _ _ G 5 ",
"8 Q b ' } ~ ' X._ U V ^ T ' R L ~ T ^ L T I { ^ / ~ ^ / _ ] { < 8 Q _ T ' } ' } _ ) { [ { { | [ ' ' T ' T Y ~ _ R ~ ~ Y ^ _ Y 4 ",
"4 b ^ ^ c X.' J ' ' ^ J Y Y Q Y L / T T ' _ ~ ^ ' ^ ^ ^ ~ { _ 3 , ) _ ~ _ ' ~ _ _ { { { ^ ' { T ~ ^ Q ^ | _ T Y ~ _ _ ~ _ ' #.0 ",
"t U / ' V Y [ _ _ ' ' Q J T ~ ^ T ' { ~ / ' ~ S B Y [ [ { ' ~ : 9 I { ^ { _ { ' _ _ { { ^ ' ^ _ / / ~ / ] ) ^ L { / U ^ K _ { ; ",
"D +.^ v v f 9 S I 2 I #.g ; 5 ; 2 V J B g 2 ; % $ ; f V ) X.J 5 z g 4 4 f 9 ; 2 9 4 0 ; y < f o.D V / ' n Y _ ~ R ~ _ ^ _ [ I @ ",
"& ; @ 2 ; < % , & $ . & o $ ; + o + ; ; $ & + o + $ % & % + ; ; , ; ; o + + + + + > $ $ % + O @ + & O . + - - @ O @ % & < < r 9 ",
"D D f < p g 6 2 4 9 r z 4 4 y 9 6 6 z , r f y 0 9 z y q 9 h 9 ; S E a 6 h x z x b z ; y c z u 9 h 4 9 y 5 3 r v w h r V Z Z Z & ",
"o.} ] Q ^ ' L D V 0 n l h d +.~ Q C p h 6 a l n p a e n D #.h ; W ) X.R n l N m N f 4 y 2 9 M v B C E Y _ o.' | | _ / Y ~ / ~ & ",
"E [ T ' T ^ ~ ] T ..+...{ ' _ { | _ / { $.X.| ..[ ) _ [ { J 6 % A W ~ ^ B ) _ ) X.^ ! _ } +.| _ _ ^ C A J [ ^ Q Y Y Y T T ' T # ",
"U { } ^ / ~ T Y _ ^ } o.{ { ' ' { ' ) ' ..X.{ _ ~ T ~ _ _ g 2 o q ~ ^ Y _ ^ ^ ~ ^ R Y U ' _ _ [ T ~ ^ A ' J T ~ B T I L L / r & ",
"F ' ^ T R _ R L _ { X.{ { ' ' ' { ' ^ _ ] | { T ^ Y ~ ^ _ 0 9 o 9 _ ~ ^ C ) ~ ~ ~ b ] / ~ ~ ~ ] ~ _ [ I [ ^ T T J L Y T T ' < ; ",
"B { / T ^ _ ^ L _ | ' { / ^ _ / _ _ ' _ } ] { | _ ^ ' ' X.f p + 0 X.Y T b ^ _ ^ ^ S _ U ~ ~ ~ ~ ^ | ) V ' _ L v n ^ ~ ^ Y ' * & ",
"c { ' ~ T L Y T ~ { ' ] | _ _ T | { ' ^ { ~ { ^ / _ { { | n h @ 2 W o.{ } { / _ / Y ~ / / _ ] / ^ _ _ D ~ T Q I { ^ _ ^ } V y @ ",
"g ' | / ^ ~ T P Y ~ R ^ T _ / T ~ _ T K _ ] ] ~ _ ^ ^ ] _ F M % 7 W } { { _ ^ ^ ^ ^ _ / Y { ^ _ ~ _ T U X.g Y J ^ J { _ _ Y 6 o ",
"F X._ T _ ~ T ' K P Y T ^ ~ _ Y / L / } { ' ' { ^ ~ T _ _  .p ; 0 S { _ } H / Y / _ / { R ] { ] ' ' L ~ Q { R T J L } ' ] } < + ",
"! ' ' ~ T ^ ' ' U L T R ~ R _ P Y ^ J ~ / ^ ' ' { ] ^ _ ^ { S % B J X._ _ R L Y R _ ] ] _ { } { ' ~ | ^ ^ J ' / T Y X._ ' ' Z + ",
"[ _ ' _ ' / ' ' ^ / / P T ~ ~ / / I T / T ' / / _ _ ~ ~ ^ { / @ 0 | | | _ / ^ Y _ / ] / / ' ] ~ ^ ] T ' } ^ ' L L ^ T ~ { / Y # ",
"t _ _ ~ { ^ ^ { Y R Y P Y ~ ~ R ~ ~ ~ _ T / ~ ' ^ _ _ _ _ ' 9 + q ! { { _ _ ~ Y P Y ^ ~ _ } _ ~ ' ] ' } ' } ~ L L L R T / [ x + ",
"0 S ) { / ^ R { / _ U L P R ~ P ~ Y { [ ~ ' / ' ^ _ ' _ _ ' 2 + 4 S ` { ` ~ ~ ~ P ~ ' _ _ T ] _ ^ ^ ' Y } ] } _ T ^ T / ' ' y o ",
"y z Y X.} ..{ ' W _ Y _ ~ R ~ R T ~ } | { } / / X.| ^ | { o.B $ , ~ I I ] { ^ Y ~ ^ ^ ^ R / Y } ~ ^ ' ' T ' / T ' J T / ^ } 4 + ",
"y 4 9 f ; z D r 4 9 } R { ~ ] } / V _ [ r ; 4 2 , x D I v 2 9 & f f 0 > : B | ~ y ; 2 J Y { } X.} _ ^ ' ' ] ] } ' ' } ~ V o.z & ",
"& % & % $ $ + ; % o , ; @ @ o ; ; + & ; . o + $ . & 2 + & $ & 8 & & 8 % $ o o - < % + @ + % ; - @ O * * : @ ; ; & O + + + ; q & ",
"c y 0 q 0 9 p 0 0 e h d h h p l p a M x 9 f f 2 , 4 r y g z c 9 7 c g 0 g 6 5 < k r = p V n h 6 d M h C 3 e M C C S g 0 f x b 9 ",
"q  .G C D ..~ ~ ( ~ X.X.| ^ @.{ { _ @.| V _ J C B 4 h l l S M 4 & U W J D J V D [ _ D } } | o.X.X.} { ] { ~ ] O.{ _ { ^ [ V B 9 ",
"8 ) | _ { _ _ _ { { { { { ~ _ ^ { _ _ _ | _ ^ { _ ) _  .` W f 4 t B ' ' _ ~ / ^ ~ / ' } { ' ' ' _ _ ] / _ / ^ { ~ / _ { _ _ a ; ",
"1 Q ' ' Y ' { _ Y | ) X.' { _ { _ R ^ / _ ^ _ _ ^ _ _ / P U p ; & q ' ^ ] ' ' ' { / Q ' / / } _ ^ _ / R ] ~ _ / _ _ ^ ^ _ ^ p 0 ",
"1 Y | _ _ _ ' _ _ ^ T ^ | { _ | ^ _ T R ~ _ ^ { _ _ _ ~ P K p * q t ^ ^ ~ ' ^ T / ^ ' ' ~ | R { Y / ^ ^ ~ _ ~ ^ ^ ^ T ~ ^ ^ p , ",
"% X._ T _ { { { _ / ^ / ] { } _ ^ _ R ~ T L Y ~ R Y _ Y Y U h : 7 c ^ ^ ^ R ~ T T T L / T ' Y ~ ~ _ ^ ^ ' ' T T T / _ ~ R { B o ",
"8 @.[ ^ ~ { _ _ Q / ' ~ ~ { _ } _ _ ~ T T ~ L T U / Y Y ^ ) N ; t y Q Y / ' / / / / ^ ^ ^ ~ T L / ~ T / ~ ^ ~ _ Y ~ Y R [ _ K 3 ",
"> ! ^ Y ' ~ Y ~ Y T ' _ / K Y ~ } _ ] L ~ R L Y ~ R T ~ Y ~ f ; 8 v Q T R / ' ~ ^ ' ' } T T ~ ^ ^ _ R / _ ' { / Y ~ U L X.~ W , ",
"o C / ] _ ~ ~ ^ T { J T R T ^ ' _ _ _ Y _ Y T ~ R Y Y R T } p : t z Q Y ' { / ' ^ _ ' ^ ~ T _ { _ ^ ' ] ' _ ~ Y T Y J T / / v + ",
"7 Y ^ ^ / ~ Y ^ T T L T T ' T ~ Y X.| L { T ^ T Y / ^ P ~ _ r : 1 c / L } } / T T ' | Y _ ~ ' / _ ~ _ ^ ~ ~ R L T ] / H / _ Z @ ",
">  .R R ~ _ R Y / T J ' ~ H ~ Y R ~ T Y L ^ _ } T P T H Y R h ; 1 Z ( ) ' ' ~ ~ ~ { ^ ~ } _ T _ ~ ~ ~ Y R Y Y Y Y R K Y X.o.Q @ ",
"2 _ ` Y _ ^ T T T T ] ~ ~ ' ~ L U R K Y ^ Y Y ^ ^ Y ^ ] U ~ M 4 t Z ' } ] / T ' ~ | ' | ~ _ ~ ^ ^ ^ ~ P T Y T J ] Y Y Y ' / #.# ",
"q X.^ _ R ~ ~ L ~ T ~ ) ~ / T ^ U P R Q ~ Y ~ ^ R ] K _ P _ C 2 V Q X.~ T / ' ^ _ ^ _ { _ [ ' { ) _ T R Y R ~ K T ~ R R ] ] ' 4 ",
"q { _ ^ ^ ^ T v B ' ' } o.{ T ^ U n V v _ _ _ Y ~ Y _ ~ T ] B < i | [ ' / / ' ' _ _ { ^ { ~ ~ J T _ _ _ ~ ] ] R Y T K ~ H } K ; ",
"q X._ { S $ o $ o % < t 9 u Z ; @ : @ ; : , < < 5 < 4 9 9 0 K 9 i Q @.{ { | ' V D g g f 2 p 3 < y v D Q / R ^ ^ ^ [ _ ~ | ] { 2 ",
"7 ;   + > % o . o . $ . + + o & - o $ $ o o o o o + ; $ % ; $ , + @ < O ; @ & 5 - , + @ $ - @ o o @ & ; @ X @ : @ @ - , ; @ ; @ "
};
