/* XPM */
static char *out[] = {
/* columns rows colors chars-per-pixel */
"64 64 108 2 ",
"   c #2D1A07",
".  c #2E1C0C",
"X  c #301C07",
"o  c #321E0B",
"O  c #35220D",
"+  c #3A230E",
"@  c #362411",
"#  c #3B2612",
"$  c #3D2914",
"%  c #3E2B19",
"&  c #44270E",
"*  c #432A0E",
"=  c #402612",
"-  c #432B14",
";  c #492E14",
":  c #432E19",
">  c #4A2F18",
",  c #463016",
"<  c #4C3116",
"1  c #45311C",
"2  c #4C341B",
"3  c #4E381E",
"4  c #533515",
"5  c #52361B",
"6  c #54391E",
"7  c #5A3B1D",
"8  c #473420",
"9  c #4B3620",
"0  c #4E3922",
"q  c #543C24",
"w  c #5A3E23",
"e  c #533E29",
"r  c #5F411F",
"t  c #62411E",
"y  c #574027",
"u  c #5C4125",
"i  c #55412B",
"p  c #5C432A",
"a  c #5F482F",
"s  c #5F4831",
"d  c #634424",
"f  c #6A4625",
"g  c #664825",
"h  c #694826",
"j  c #62462A",
"k  c #684729",
"l  c #64492D",
"z  c #6B4B2C",
"x  c #734F26",
"c  c #714F2E",
"v  c #73512E",
"b  c #644C32",
"n  c #6A4E32",
"m  c #704F30",
"M  c #675037",
"N  c #6C5134",
"B  c #665139",
"V  c #6D543A",
"C  c #735332",
"Z  c #785732",
"A  c #775B37",
"S  c #7C5A34",
"D  c #72573A",
"F  c #74593C",
"G  c #7B5D3D",
"H  c #7E603F",
"J  c #755C41",
"K  c #7A5E42",
"L  c #7D6243",
"P  c #7D6549",
"I  c #805E3D",
"U  c #82623F",
"Y  c #836644",
"T  c #896644",
"R  c #866946",
"E  c #896B47",
"W  c #826749",
"Q  c #856A4B",
"!  c #8A6D4A",
"~  c #8E714E",
"^  c #90734F",
"/  c #866E53",
"(  c #8A6E51",
")  c #877052",
"_  c #8E7252",
"`  c #8D7458",
"'  c #927552",
"]  c #967956",
"[  c #987B57",
"{  c #917759",
"}  c #967A59",
"|  c #9A7D5A",
" . c #967E60",
".. c #9E815D",
"X. c #A0835F",
"o. c #9D8262",
"O. c #A28561",
"+. c #A68965",
"@. c #A88C67",
"#. c #A68B6B",
"$. c #AA8D69",
"%. c #AD916C",
"&. c #B0946E",
"*. c #AD9272",
"=. c #B39671",
"-. c #B99C76",
";. c #B49A78",
":. c #BDA17A",
/* pixels */
"b b d 4 r l 2 3 p q p u u 6 s , b V b l j j d u j j M N C A K 6 b D A d d 6 g t N u m z z F Q 2 B N z N z g L c r r 4 d z u V * ",
"s D #.| ..~ U C h v h k z Y n O p L W G S z h x v Z E ] U ^ ! # a Q X.o.u D Q ( L L A H E } G @ b ! ] G V [ ~ ' ] ..' ~ R ~ R O ",
"y L .._ ~ _ ! [ o.O.|  .o.' u O j i } ] X.+.X.X.O.] [ | O._ C $ : u j L O.~ ~ ' ' ..n Q @.] z $ u V O.! +.~ [ ..~ ....~ ..! j O ",
"e Q ..' ~ ~ ~ [ [ +.} | ~ G w O 0 q ' ] ] ~ ~ X.| [ ' ..] ~ z O q V o.J +.' ' ' ..^ ] ~ H n k @ y N ! ^ +.^ ] ' ..] ..^ ..' d # ",
"e L ] O.| X.E [ [ ..' O.#.G d # 9 y { ] [ [ ^ Q { ~ ~ ..| ] d   y #...N ' | | ] ' ] ~ ] R L m O q i ..[ ~ ~ ' | [ ' | [ ....m # ",
"e Q ] | E ~ ' ~ +...' ~ ] Y w # 2 a ' ~ ~ ' ' ! ~ ~ [ ......d O q %.| ! L ....| ' ] ~ ~ R H z O q e ' ' ~ ~ ] @.[ ~ [ ..o.[ j O ",
"p ..] ~ ^ [ ' | ....| ] O.E k @ 6 b ] ] ! Y ~ ! R ~ [ ' | X.u O 2 _ ..E L ..| +.~ ~ ] #.+.R z O p p [ ~ H ^ ' R ..' +.[ o.@.m # ",
"j _ ~ ~ ~ ! ! | ..| | O.o.{ k # q D D E ~ ' ] Q ~ ~ [ ' %.[ v O u / ' ' { Y | ] ' ' R [ R Y v O p b { ^ [ [ ~ ~ ' ~ ~ ..[ ....$ ",
"L Q ' ~ ! ! ......[ R ~ ~ Q u $ p M ] ~ ^ ^ ~ ' ! E O.| ..| C @ u L } ' ~ Y @.' ' [ ..[ { Y C O e V ..! ! ~ ~ ! ~ ~ ~ [ [ ] ..1 ",
"1 _ ~ ~ [ ' ......' +.] [ | C   e P ] ] ' ^ A ~ ! ] ' ' [ ~ C @ b V ' ~ R X.~ [ R ' ~ ' ' Q z + e D ] ~ ! ] ' ' ' E ] ' ..] ..3 ",
"p F ..] ~ ' ..X.....+...o.%.v O e p | ' ! ~ [ [ [ ~ ] [ ] ! k O p n ] ~ ~ ' ~ [ ~ ~ [ ..] ~ d O w L ..~ ~ ..' E ' E ....' ..Q , ",
"n F | ~ ............+.....[ k @ j j O.' ! ! V ~ ' ~ | ' | Q k O p L ] ~ ^ ......] ..' Q } ' g @ e L ' [ [ ^ ..~ ~ ' ^ ....X.E O ",
"l D | } ! +.....| X.| | [ E G $ 9 p [ ! ' ~ ] ' ' ] ' ' ..Q d # a ` @.' ' ~ ..~ ..E ~ ' ^ ] C $ u / $.| | | ~ ^ ] [ ....| ..G + ",
"j D O.! X.| [ [ ..| O.O.~ ' | O q V L _ ~ F ' ' ] | ' ' } | d O y G X.....[ ..^ ~ ] ..[ ~ R d @ b _ ] ^ ] ' ..| ..[ o...| +.H - ",
"y D | | | ] ' X.[ | | O.O.} A $ 0 b L Y ~ Y ~ [ ..' [ E ' | Z O 0 G O.+.^ ' ~ [ X...] ^ ' E 6 O b ` ~ ~ E [ [ | | | | ] ] O.z $ ",
"3 P ' ] ] | | [ o...] +.....k $ 2 ` ' ' L _ ] ] } ] | ' _ ..F O p F +.{ ' [ ~ ~ ] ] ..] ] L j O N L ! ^ ^ ] ' ] | ....| ....p @ ",
"q J } ' | [ X.~ | ' ~ ~ o.+.Z # N } ~ ' V E E | ..] ^ ^ ' [ g + p J @.' ..| [ ^ ~ [ ] ] o.| C O e ~ ~ ' ' ' | ] ....[ [ [ O.I O ",
"p D } ' ] X.[ ~ | R E ] +.+.D # 2 ' ! ' ~ ' E { ~ ~ ~ ..[ [ u $ n Q ..] ] X...| | ] [ [ ] O.C # q O.' ' ^ [ [ | | +.] ] O.X.C + ",
"2 V | ! ~ ~ ' [ ~ ' ] ' ..@.^ - F O.} ..^ ~ ~ ] ..! R ~ +.~ m X b N O.E | | X.] O...] X.O.O.} O e ' ~ ' ^ ' ' ^ ~ [ ..[ ..| k O ",
"y N | ' ' ' E X...' E O.+...] ; b +._ ] ' ~ Y ~ X.Y R R Q [ Y O 2 { [ [ ~ ] X.X...} ....| O.G $ w _ ] _ ' ^ ' ^ ] | ..] o.+.G # ",
"b D | [ ' ~ | | ..' ] ] | | R , 2 P ' ' ' R R ~ ~ ~ Y ' ! | L , G O.| O.+.^ | | +.| | | | | z $ 2 J _ ~ ! ] { ! [ ..| | ....C O ",
"j V O.' [ ~ ! ..| | ' E ' ] ! = u H [ ~ ~ R E ~ E ' ] ' ' +.| ; ) | O...~ E ] O.] X.] O.+.+.C # j L ] [ ! E ! ~ ] | O.] ..+.C $ ",
"p J | ] X.' ..] ] ] ~ ] ' [ _ ; d V [ R ' ~ R [ E ~ ' ] ' ..%.* M O...E ~ ^ +.O.O.O...X.O.+.G @ j P } E ^ ' ~ E | | +.O.+.$.C @ ",
"j L +.E [ X.[ [ ....] ] ] | Q $ , j [ ^ ^ [ ~ ' ~ ~ ..' +.| %.- D | O.o.~ X.O.| +.+.] X.O.X.& O p W ' ' E E E ! | ] ..+.#.[ z @ ",
"e b ] [ ^ [ ! ] ! [ ] ] } ] j # 1 K ' ' ! | ! ! ^ E ' ( ] ] $.< Q O.....| ~ ~ X.| O.| ] ( | d - a } ^ [ R R ~ ~ ~ ' ^ ] X.~ l # ",
"e Q ~ ] ' ' [ ..[ E E ] | O.k O 2 W ..E E E ] ] | ] [ | X.| $.< ! ..~ ! [ ~ ..O.[ | F b K ' ' 5 g W ..' ~ R ] | E ] ......| j $ ",
"p ( | O.Y ] [ X.] E | ^ | O.p + p } ~ | ! ' ' | ] ] [ | | X.@.< B ..' | +.| X.[ X.( ] | ! @.G # j W [ ] ~ ] ' ] Y ~ +.[ | ..U $ ",
"N  .] @.X.O.[ +.] ] ' ^ ~ ! ,   1 P ] E ! R O.[ ] ' [ [ [ ..$.; M ..| ~ ..+...+.| O.O.| O.O.[ 2 P +.~ ..! ~ ~ | ^ ^ ] E { | E + ",
"0 L ] ' ' +...Y | | ' ! ! G u   # Q ! ^ O.[ ' { [ [ [ ' ] O.+.; p { | ' ....' ..X.O.O.| ] ..} $ F [ ' ] +.| ' ~ ' | | ' [ ..+.5 ",
"q ' } [ [ ] | | | ..| o.] ( w . $ { O.' | | ' K F Q  .O.O.| K = w { O.[ O.] ....| | O.O.] ..D ; B ..' [ ..} ] R O.[ E [ R [ X.3 ",
"J | ] Q o.O.L K Q 2 W =.b > n + i K L V n 5 = $ # = j F | &.G - P b 5 > w q : 2 e 6 w > w 2 w 2 F Y } %.W [ | ^ ' ' | ] | ..@.2 ",
"= = + - = + X : # o o $ X o 8 = # O - : # # o o o # # $ = o > - 9 - ; o # + o + X # # # # + $ # @ $ O + & + & o + + + # 2 2 2 ; ",
"q Q h 6 q l 7 2 6 0 w n 6 6 b w s j b > u j p q i j p y 6 k w ; e ` h 7 j l n M V l : j b j B p b w 7 u 4 4 u m r z u F H A ) 6 ",
"s :.%.Q U [ Y K G w C m z n *.5 : K k z 7 h v C g f d C K @.' 7 e O.$.Y I x S Z S k k C A Z A 5 # / P | ..#...+.@...[ ~ ' ] @.6 ",
"- j b O.~ | Y O.! #.*.#.O.+.n 5 8 o.| O.;.$.+.%.o.} | o.o...k ; = [ ' ] } | | } *. .{ | o.| n 5 e 1 ~ ] [ ..' ~ R ~ R ~ ~ [ +.3 ",
": O.' | ] ' ^ ! [ [ @.$.@.' K 5 9 N | O.+.$.O.| ' ~ ~ | ] / 2 ; # F [ E } ' ] ' ] [ E E o.~ g e 2 e } | ..] ~ ..[ ~ R Y R ' ] 6 ",
"3 #.[ ~ ^ | ^ R | O.$.O.@.} W 2 % e ..| X.+.O.~ ' ! ' { } Q 4 - 1 D ] ] ' ] ' ' ~ ] [ [ ' Y 7 q : p X.O...] E ~ E ^ ~ ! ~ ~ ] 4 ",
"# ..| ~ [ | ] Y | @.O.O.| | 6 = 8 j +.| @.X.+.+.| [ ....@.! w > 9 _ ~ ! _ ' | ] ] E ] ! ' Y 7 p 1 l #.| ..[ R R R | ^ ] [ X.=.< ",
"$ ) ..{ ! E ! ~ ' O.| O.@.' w - y k +.] X.^ O.] [ [ X.+.O.O.Z ; % e =.O.O.X.] | ] ! ] [ | ( f 5 : 2 ..] ^ ~ [ ~ X.] | ] ..| L * ",
"- l @...] ' ~ E ! ' _ [ ' Q 7 $ $ 6 [ E ..X.X.^ ..] ] ..|  .| 2 : w %.O.O...] ] ] ] [ [ ^  .5 e % a ] ' +.E E Y ] Y X...] [ W ; ",
"1 o.| ^ [ ] ~ ..H R ~ ~ [ R 6 : % @ o.+.o.....o.] ' _ | | O.} ; 8 3 o...+.U ' ~ ] ..] +.' Q d w q ' ~ ' ..X.~ ~ Y R @.X...[ R $ ",
"p ` ..] ! [ X.| ~ R ~ ~ ' L 7 - $ 1 G { ..' ....O.O.] ! { ..#.; y p *.| ..~ R ~ ~ [ ....| $.c u y ..%.' ' Y [ ..~ ~ @.[ ..' ] ; ",
"l L o.| ..| | ..' [ [ R ~ ..; 3 1 ; P [ ~ ....] [ | ' ' ] ..=.< 1 ! $.+.[ [ ] ! [ [ X.[ } O.| ; 9 %.~ ..@.[ ..R Y ] ~ ' X.' ..< ",
"@ 1 o.] X.] ] +.~ ~ ~ R ~ ..q $ % $ _ ..~ [ ' [ } | | | ! ..Y # : V O.O...| ' ! R ~ ] ^ | $._ ; 9 $...@...+.' R R R ^ ~ [ X.[ + ",
"2 ; | +.[ ] ^ X.[ [ R R E ' ~ < 2 , o...] [ [ ..] | _ L ! [ G $ $ 1 O.X...^ ] ~ E ' ..[ | ' %.< 9 ....~ +...@.| ! ' ~ ] ..] A + ",
"1 < _ +.X.O.X.[ R ' R ..' ~ +.5 $ 2 %.+.....' ' ..[ ] +..._ Y = # q #.O.[ ..' E ~ ~ ' ' ~ [ [ 6 9 ......~ ..] E ..E E ' ^ ..! + ",
"1 u &.O.| O...| @.Y [ E ..E X.7 % P +...+...+.H | +...| | | n : 1 J O.o.| ' ' ' ] ..' [ ..[ %.; 2 [ ~ { [ | [ | ~ ~ ~ ] ..[ Y 2 ",
"1 p $.X.X.O.| X.....@.~ ~ ..[ 5 y $.@.@.[ ~ Q ~ ~ ~ ' ! ..o.; q $ J +.' ] ] ~ ~ ..] ~ ' ..[ @.5 % ....' [ ' ..@...' ~ ' _ ..' - ",
"8 s O.o.....] [ | [ ..] E ^ [ 7 % @.+.+...@...~ Y E ' ....$.6 9 9 K | ' | Y ^ ~ | ] ! [ ] | &.< y @.....' ..O.+.+.[ ' ....+.R q ",
", } E ! ~ ] | | ..[ ..X.X.^ =.5 2 { +.[ ' ~ Y ] ' E ~ ..O.Q l ; : a O.~ ~ ] ! [ ^ ] ] | | X.&.6 3 @...[ [ R [ @.[ ~ [ ..] ..k 6 ",
"2 ' O.] | [ [ ] ....+.O.X.] +.< 0 O.| [ +...^ ..^ Y ~ ' _ L g q i b ..[ [ ! ' ^ ' ] | O.O.X.+.< 3 +...[ | [ ' X.~ ' ..X.] ] g ; ",
": Q O...~ O...[ ~ +.] @...O.+.5 y ] ] ] [ ' [ ..] ..[ ] R E t 5 # e | [ X...X.| O.] ^ | | | %.6 i ..[ ~ ..' ..[ ...._ ] ..{ k p ",
"% L +.[ | [ ..| | [ ! ] +.+.+.7 8 O._ ^ ^ X.] O.....[ ~ R P t , 2 e ] [ ] | ] ^ ] ] | ..' +.| k 9 ..] ] ' | ' ] ] ] ~ ] ^ ] z 2 ",
"# @...~ | +.+.O.| [ [ [ X.+.-.< 0 +.' ' ! Q E ' ~ E ..! E R v 2 , j ] ] ] ^ ^ ^ ^ ^ E [ ^ ..' 5 e o.] [ ....~ ~ ~ ] | ^ ^ X.C o ",
"- -.o.] ' +.| | ' ] | [ ] @.C 2 1 _ ] ~ ^ ] E ! R ..E ~ ] [ H < 0 j ' E [ ..] ] [ | ] ] ] ' ] ; i { ~ [ ' ] ' [ ! ' ! ~ ..[ %.6 ",
"% / ] ~ ..^ ~ ~ E ' | [ } ! - - $ J O.E ^ ~ E ! ' ~ ~ ' ~ ~ z 2 , n ' ~ ] | [ ] ] | ..+.~ ' ..; i .._ [ | ..+.] ! ' ! E @.] +.< ",
"o V ] O.| Y ' ] ! O.E ~ ' L 5 q % J | ! o.! ! ' ~ ! ! ^ ^ O.h 6 2 b _ E | O.[ ..] | O.] ' ^ +.7 i ....X...| ] ! ~ ! R ~ [ ] L + ",
"1 D ] ] | q ~ ] ! _ E ~ ~ ! < - $ b $.E O.~ [ ~ ~ [ ] E ] | u 2 - j [ R @.@.[ ~ ! ..+.! | ] ' 6 , ..| ] ^ ^ ^ E ~ X.[ U [ [ ^ + ",
": | _ ^ [ D ' ! [ ~ Y | ' E 7 - # V ' ! Y [ | +.! E ! Y E ' k 5 1 F [ [ | ..' ^ ] O.] ] O...u < - _ ] ! ^ ! E E ! ^ R ! @.$.+.* ",
": O.O.( ( b _ ~ ~ ' O.' ' O.7 ; @ 5 E E [ ! ! ] ] ! ] X.! ~ U ; 0 V X.@.X.[ ' ..' +...+.] X.z < 1 L ' E ^ ! ^ Y X.E ! E X.] $.& ",
"9 &.] | K N ' Q ' _ ' | } | n q # = ( ' ] ! ' ] ' X.Y [ ! ! q j M R %.^ ~ [ ..] | [ | O...O.A 2 2 Q ' ~ ~ ^ ] T ! [ ~ ^ X.X.&.4 ",
"0 O.| ] K ( _ m D O.| +.$.@.l - : 9 b V | [ [ ! ' ! | ] ! Q D w 0 +.....[ [ ....| | O.] ....C - - G ..[ ^ X.| ^ ! ! Y ' U +.E ; ",
"> &.| +.j + o + o = > e q b G - 8 e = = ; > 4 2 5 2 5 q 5 w T j y { =.+...$...F K l l u 2 z l 2 3 b P ~ ] ^ ] ] [ X.| ] @.X.O.6 ",
": = X o - = o . . o @ . O o o : # @ # O O o o X o + # + $ $ + 2 + + ; $ = + - 6 # ; # + # - $ @ $ + $ - & o o ; + + # ; ; + $ = "
};
