/* XPM */
static char *out[] = {
/* columns rows colors chars-per-pixel */
"64 64 93 2 ",
"   c #472F19",
".  c #4C3217",
"X  c #47301A",
"o  c #4C341C",
"O  c #533617",
"+  c #5E3C17",
"@  c #51371A",
"#  c #543A1D",
"$  c #5A3D1E",
"%  c #603E18",
"&  c #4C3720",
"*  c #4E3821",
"=  c #543C23",
"-  c #593F23",
";  c #533F28",
":  c #61401E",
">  c #574026",
",  c #5B4125",
"<  c #574129",
"1  c #5C452B",
"2  c #5F482E",
"3  c #5F4930",
"4  c #624424",
"5  c #684721",
"6  c #664827",
"7  c #6A4A25",
"8  c #624629",
"9  c #644A2D",
"0  c #6B4D2D",
"q  c #704F2B",
"w  c #6E502E",
"e  c #745027",
"r  c #72522E",
"t  c #79562E",
"y  c #644D32",
"u  c #694E31",
"i  c #675036",
"p  c #6C5234",
"a  c #675238",
"s  c #6C5539",
"d  c #6F583D",
"f  c #735534",
"g  c #795732",
"h  c #765836",
"j  c #7B5A35",
"k  c #715739",
"l  c #755A3B",
"z  c #7B5D3B",
"x  c #7E603E",
"c  c #755D41",
"v  c #795E40",
"b  c #7D6142",
"n  c #7F684C",
"m  c #825D36",
"M  c #815F3A",
"N  c #84623D",
"B  c #89653E",
"V  c #8D683F",
"C  c #836542",
"Z  c #896741",
"A  c #866946",
"S  c #8B6A44",
"D  c #826748",
"F  c #866A49",
"G  c #8B6D4A",
"H  c #916D46",
"J  c #916F49",
"K  c #8E714D",
"L  c #947047",
"P  c #93724C",
"I  c #99754D",
"U  c #9D794E",
"Y  c #896F50",
"T  c #8E7251",
"R  c #927552",
"E  c #997751",
"W  c #967955",
"Q  c #9A7B55",
"!  c #977B58",
"~  c #9A7D5A",
"^  c #A37E54",
"/  c #9E815D",
"(  c #A1835E",
")  c #9F8361",
"_  c #A28561",
"`  c #A68965",
"'  c #A98B66",
"]  c #AA8D69",
"[  c #AF916C",
"{  c #B4946D",
"}  c #B39671",
"|  c #B59974",
" . c #BB9C75",
/* pixels */
"s C f k f f u p k p p d p 9 f y s k s s u 2 w 9 w w p s x c d b a s s p u 2 w k A k l k k x b a s y x x j x C N x r r B F l l y ",
"y N S B B B g x G x x x x r g y u x x B B w N x x t x U C k n l s s p x p x w p 1 u w k x n l i y b A A N x r g S K B L P L x 9 ",
"9 x _ W R K G E P B A N B H g u 2 9 N G / 0 / L P A H E K g x x 2 2 p f B r r f h N h j C x p b i p L K Q j N R R ( / K / ! B 9 ",
"9 N T R K G K ! / ( W / K x g y > f x W K O G / / / R / F 6 x u i p x x A x t x x t x t f x u s a p x F / R W K / ! / R / A B w ",
", N K ) / / G ! / / R _ ' j x w 1 g x / / N d x E G G / x A N , 3 x x r x V V B N N N B 7 g 2 s 2 f x A C R R / W W ~ W / R L w ",
"1 h R ~ F K R F _ / R K W x j w 1 x x W x x 6 f x K / / n R N 6 2 d x x x V A A x B N j r f 2 s 2 w h F w l ! ` ~ G ~ / / ! N 4 ",
", z Q K P ! R / / / W R ( x j y o 0 w x 7 q 0 , k K / K x W x u 2 h x q r x x x w r f B C f p 9 > p N B g x T A ! W _ ~ _ ` N 7 ",
"4 C K K K K K / / ! / / / K x p 2 u w f w r w k , / / A / G N 6 i p / N g x t x f f 0 z 9 z p i 2 1 k f w x K R R K K / ! ( S r ",
"u f D C f f l z l f 9 9 6 f 6 u i 9 9 2 9 w 9 f r 8 h 9 z z J 0 2 p x f f x A h h h x x p 9 l s y s z q r y ~ P R K K W ~ Q Q r ",
"u B w g f 9 f h f 0 h w f f y 2 2 s u p i 2 > > = p 7 9 f 0 N p 3 x $ f f k 1 1 > 2 1 2 * 1 2 i a 1 2 8 , 6 = & 1 4 p 7 u 0 M C ",
"O   # O . O - y 1 , 9 1 , 8 u y 1 1 a i 2 2 a i a 8 , $ @ # # 1 2 < 2 1 1 2 2 s 3 2 i a i i y i y a u 2 8 u 2 # , . $ $ @ O . $ ",
"Z M B A z A G k a Q A l F C k k s u x p u 9 p i y G S z C z x N b x p p h K ! s i K x w k d l x l u s c C l l p 8 l p C A C S Z ",
"N M 0 q m Z z a 2 A z p h g u S N x x h z k l i 2 l f N V B m S L x P x f f C 1 3 x N N j N C P C M I S H J 0 u y k z h | g C M ",
"h R ` P _ f u s a a C l h 0 f z C j h k j 0 s i y k D Q / / ~ / / x x N j w B 0 1 B / B t r N j B N H B J B j y a k C p 0 ( ~ ` ",
"l T Y R ~ h p d u k C z G u N S j x t x f 9 0 a i f C F K W ~ ! A l j B P Q j 9 i N F Q P j 7 B I I N Z B N f s s k p 8 f f ~ ( ",
"G 0 M u 8 h z a c c b l M h B P N I j k u p a s i y C K Z c b G R / ` / W K N 6 2 N K ! W x C L H N N S S j f a y d v h C B j h ",
"A g g m z M C y i s z 9 f L N B N h , h h h u k d k 4 + 4 R ~ / ~ ^ ` R ^ E M 8 , Z Y Q ~ K J B m m N A H j h u s c z z N N N M ",
"0 r 8 8 z C k y s 8 9 k a p z h 8 8 p h g z 0 s 9 u f G ( ~ Q ( _ ] ~ W Q _ H 7 y M Y ~ Q Y E G B P V J Z j z s a C z h z f f 6 ",
"h f l 9 h k f s 9 s x h C f u l D C j b h h y s a 9 - ~ T C ) F ~ ! ~ F ~ _ H 7 0 B Y ~ ` Q ^ N j 7 g f f j l 9 y k D z C C l M ",
"v r k 9 9 f 8 c s a 0 b C l c k p v f k f l 9 9 i @ h 9 0 q h = 8 l 0 u f c Z f u M M f l D v f 0 f j j j j h y y l z k l l z k ",
"i y y y 1 ; i s s y 2 y u y < 2 9 a 2 9 2 * 1 2 2 > = 8 = 9 8 9 8 8 8 u f - u u u f 8 u 0 9 f f u < = = = < y 1 i i u y y y y y ",
"a y s a s y 1 c d i y > y y y 3 1 2 2 2 1 > 2 9 1 9 - # @ - @ o * - 8 - @ . - u , 1 # 1 - 8 - ; < , 2 6 # # < y a y c y d d d d ",
"c v N u v y J C C N z C l z l k i s l 2 l k w l p z j B Z I P 6 k E I j M B ^ E I E H k v k D u 2 Q N N V S h g z I G C F D v c ",
"a D Z 9 S C 8 z J H Z N u S C u 3 9 l u k f f f G ! ^ E ] _ E 7 0 A ] ' E _ ` ^ E _ J Z A z l y = z G L B B N S E P E J J G N a ",
"y u 8 J V L B 7 - B Z H j M C s a l p u f B w G K K R K W W J 5 u J ) ~ / K R / ~ Q ~ q M G l u 1 B F ~ G C R T R W W N H B z d ",
"y k r S B B H I V r 5 V J h C 9 2 p p > U f P R / T ! / _ _ h f 7 A R G ! K / _ Q G 4 M A M C u 2 N ~ W K F W ~ A R ~ Q Z B k k ",
"y N M J t V Z I H m Z 7 8 j u y 2 p u l A A K / W R ! ! / h J q 0 G W ~ ` ~ ( ~ ~ Z S J m Z M u 1 f ! W K W R W C G ` W I M z c ",
"c z g I I I H ^ Z H H J 0 S g 1 9 p p > A f F ! ! R ! ! k ( J 4 0 A ! J ) ` / ` Y ~ ^ J S Z A f p z T ) C A R ~ R R W G ! Z f a ",
"y v M M M I J g Z Z Z 7 r f u 8 2 d 9 w b w 6 ! / ! / p W _ B 6 u A ~ R ~ / R ~ Y E A Z q C G 8 9 h W R ^ T R G R ~ ~ W ! ' M l ",
"y v M f f 0 8 k g g f u f q 9 y 1 x l 2 f w w f 0 w w F G [ S 4 u A _ G ! F G G R f f m g N M u 2 z W G r A ! F _ Q A Q A ( v k ",
"a y y 8 9 u y ; - y y s u u y y i x 3 > 9 s 9 8 9 = 0 9 p 8 8 p s A f 6 0 q 8 1 y u l f z h C y 1 A 0 8 q f u r u g z k N E 0 d ",
"3 y ; y - 8 - c s i y 1 = - 1 y 2 1 a i 2 y 1 o o i 2 < = < < , * - @   o & = < ; 3 - ; 1 ; = < = = & = * . = X @ = @ @ 8 - 1 8 ",
"p k k s s k k s y k c b k a s c c u u 9 l v z y y k c z z k j k M M h f h k z d k c a a s s s p k p 0 p z 7 x r 9 N e t j m t 0 ",
"H S C g N h p y i k c C u y u f u N M J g D J v y z M B B Z I Z S S P S B B E k d l 0 l j l z x l A x w h Z ^ a p P H x A N B N ",
"U S j V g S 0 f 2 a c h z j c C C q C _ { N z k y 0 A P ^ ~ _ _ R Y E P G J j 8 s s 9 g j A g r z G $ r N z z 1 - g p C C W Q V ",
"P U U A L N u y y p k ~ Q A z M } ' J c ~ f z s 2 u u ~ ! ) K G A G W A W J j 2 y y 6 R [ ! _ Q h 0 K P J 0 u y , 9 f N B C N U ",
"P P S H k j u 8 s c u  .S N A ` ` _ ! ~ ] C u 8 y 0 p ! Q R R R ~ R R E A C q y y u v _ R T Q _ R ~ D Q S j 0 9 = r w C x z N U ",
"E / ! P ) M u 8 a F u ] h f z z F ~ _ ~ ] Z v c y h g _ ` ~ W D ` ~ Y K G M h y y u h P R R R R W ' Q z x M 8 8 > a r S L I P ! ",
"W / / R P f u 8 y k b c h f 0 6 y C ~ ! ] g l p y h C ] _ ` ~ C W ~ [ ~ ` A z u y u k ~ ~ ~ ~ ~ W ~ Q j r f k 9 s k j z I L S S ",
"T / ' K v M f 8 1 h A f w l h w f f = z F q C u a h k F D F k Y Y Y ` ` ] A j y y f l D c D v D c R ~ 0 Z 6 1 , i 9 b j f w N Q ",
"F R 4 4 0 f g f , 4 0 0 s f k 9 u - p s k M C c y k u - 8 y 8 8 u r 9 0 u 4 M 9 y z u f 8 u f r 0 r , f h C 0 i , w F z j p p x ",
"9 p s w 9 p l k 1 9 < y i 2 s 2 8 a , < k u v u d k 1 u 9 s s a u f c r u 9 9 9 y k f k u k l z l 9 C w 1 6 d i 2 9 b p k w 8 8 ",
"1 1 0 9 y y y y < y y 1 2 i y i i - y y = y 2 y y y y y y s s i 3 i s s y y y - y y y y y i u y 9 u # 4 p 1 s 2 > 2 1 2 a 1 < 2 ",
"9 A s p C h l n p p f p p k p i s v h C h v z v l c z v v v v k c D D v l k v f u u k s v b c s d b C L C C k 9 u 9 k p l b x p ",
"y 8 B J z g g C C N 4 $ 6 u M 0 u z L H N M z C M C C C z z z s ; k A Z A f 8 l r A S N l z F u y z ( H Q I L B t x g x A N x p ",
"9 0 F ` B ' ` / K _ ( { _ j A 6 , j } _ ^ G j j H Z N S S Z h a 1 k v l A E g 9 7 , A 0 f Z f l 2 h _ ( K ( ! A / P j N N B B w ",
"9 B C ) R ! ) ~ ' C Q G ~ % S u 8 C _ ( ] Q ^ P G _ ^ J j M z u y k v k F E m m ^ I 5 W _ M M u y h R W ! / ! / K A A I / P B s ",
"k z C ) ) T ~ _ / ~ ' R G N N f u z ] ' ! R A G R C F S S h h s y k D 9 X M G r D k u E _ E B u y l ~ W ! R / ] / P R W P / j p ",
"y z b _ ~ F ~ ~ ~ W ~ ~ f D z z = Z ` ` / ] ~ G b C K Q J M k y i y 8 f z z K K ~ F t 6 7 h Z f s x ~ _ W ~ _ _ ` ! E _ ~ Q A k ",
"2 C f K R N ~ ~ ~ ~ ~ _ J R J w y f ] W R R F ! P G P _ ` N f k a v C h 0 k G R J E M ~ P H y a u C / W ~ A Q ] ! R ! ~ W ~ H l ",
"= z ~ b F 9 D c D D ] ] u ~ M 9 p j / ! ` ) G R ~ k z b C N f s i k l h g r M l F ! h ~ k y h f y b ( ~ ~ ! R _ R K ~ ` ~ ~ g f ",
"k f f f 8 g 1 6 - f 8 F 8 A m k y u G S f - 8 6 6 p 0 0 , 7 M s y v l k l f y g r u u S f u b k 0 x F x F v F D k G 9 8 9 - M l ",
"d y u u y y y y y ; - - i u y f 1 9 - , 1 u 9 p u y 9 8 = = 8 2 a - y y 8 y 1 ; - = ; 8 = s 1 p < 0 8 6 8 9 0 6 1 - 8 ; 1 - 8 s ",
"< 3 2 = 3 y s y y y 8 9 k y y 9 4 , = o @ @ @ = & # , = @ $ 1 y y 1 - 1 y 9 3 3 1 1 = - - 9 - 6 , = # = = , @ o ; y 8 = = 8 = ; ",
"h b C h u J A k y v S C M S A G Z C N 0 M N g 1 < J M M Z S A C N S A M h v z 8 y J M N N z g g N S C H H h J h y u f f D z l v ",
"G P N j c J k u ; 8 v M z g m m J J Q M Z P 5 4 8 h A N q S S P E J A J P ~ J u < S R ^ S W / ( / Q C W ^ ] z r 1 v M 7 G f 0 v ",
"k D F _ p , 2 y y c 7 f Z R F ` ~ _ ! P Y P m u ; g F B m r 0 C Y G Y G ~ ( B u 1 Z z l p u D ~ K K / _ _ ~ C 6 - h ~ N M j h q ",
"R C C B h p y s 1 u 9 8 ~ Y G W R ] ] C ` z N 6 - h f M S B r G N K W F ] ` B 4 # h _ G ~ Q / ! ~ R ! W R E N 4 - C ~ C J M C : ",
"F W v z 0 a a 0 a y 8 u h A R F G R G G F z j k - m q j m r A S G ~ W W ~ ^ m 6 , S ! W ` ! G ~ W R R G T A M 6 : z A 0 S ^ - g ",
"k F C 6 f h f y y s l 0 c ~ W A z R C G ! h g 0 ; m A R B g z G R ~ ~ ] ` Y M q , D _ ` W ~ R ! R R T S R K C % f f R 0 g 8 6 M ",
"C l f k 8 k p 1 y u y h 6 Y R W G G Y G Q M f 0 1 H l ^ 0 6 8 q A Y _ R G ~ E 0 6 z ) _ ~ ~ / _ ~ ~ R R G T G 4 4 C ! q S u h f ",
"z M j 0 u f 0 2 y a z l v u C 8 - - 6 1 8 r z = - j D f 0 M M M ~ Q _ ~ ~ ~ J 0 8 N _ W ~ R b 0 p b ) ~ ! ' ( + 4 j N 4 4 l M k ",
"u h f u l f 9 s 3 a k k u u u 7 9 f u r r f Z - = A C - w 9 z D B f h f k j L f 2 g r 1 9 - = < < < - y ,   - , 1 M C N z y l k ",
"1 - * - & = ; 2 1 2 2 y 1 * * ; - = = * * & o = * * - 1 ; y & ; * & o & @ @ = - , =   - 1 a y 3 8 2 2 - # , 8 8 =   @ = y - y ; "
};
