/* XPM */
static char *out[] = {
/* columns rows colors chars-per-pixel */
"64 64 83 1 ",
"  c #4B331C",
". c #53371E",
"X c #56391C",
"o c #5A3C1C",
"O c #4D3721",
"+ c #4F3821",
"@ c #533C24",
"# c #593E23",
"$ c #553F28",
"% c #574027",
"& c #5C4226",
"* c #574129",
"= c #5C452B",
"- c #5F482E",
"; c #5F4930",
": c #624525",
"> c #664927",
", c #6C4B27",
"< c #61462A",
"1 c #644A2D",
"2 c #6B4D2C",
"3 c #724F27",
"4 c #704F2C",
"5 c #6E502F",
"6 c #72522E",
"7 c #7A562F",
"8 c #644D32",
"9 c #6A4F31",
"0 c #675036",
"q c #6C5234",
"w c #6C553A",
"e c #6E583D",
"r c #735534",
"t c #795732",
"y c #765836",
"u c #7B5A35",
"i c #725739",
"p c #745A3C",
"a c #7B5D3B",
"s c #7E603E",
"d c #755D41",
"f c #795F41",
"g c #776044",
"h c #7D6242",
"j c #7E6649",
"k c #815D36",
"l c #815F39",
"z c #856137",
"x c #84623C",
"c c #89653D",
"v c #8E683F",
"b c #836542",
"n c #896741",
"m c #866946",
"M c #8C6A44",
"N c #826749",
"B c #856A4A",
"V c #8B6D4A",
"C c #926D45",
"Z c #916F49",
"A c #8E714E",
"S c #957046",
"D c #987247",
"F c #93724C",
"G c #99754C",
"H c #9D784E",
"J c #8E7251",
"K c #927552",
"L c #997750",
"P c #967955",
"I c #9A7B54",
"U c #977B58",
"Y c #9A7D5A",
"T c #A17D54",
"R c #A07E58",
"E c #9E815D",
"W c #A1825D",
"Q c #A9875E",
"! c #A28561",
"~ c #A68965",
"^ c #A88B66",
"/ c #A98D69",
"( c #AE926E",
/* pixels */
"0wqapwwhpprqdegdfpdfpdpf8=<=810w1ggqehgphwp0whpghpewqwwepqpss0s0",
"8AKFFZGVVMvHahhhZbbYFFnVxaxyayq1wq5shBswqa0aybsaaqqqprsshssBhgj0",
"8bvMuSvckkvvvuaSSvHCCzvcx7u7zt510=9ysVmxbxMxnxxkxzxxcxtssxmnsBpe",
";xITGTLGMVMQW6~~WKVWMVFGMMMcu61-0=1szczcxxCMcvnMccxcMK6yscxcSAgs",
"-1a!YEUYKVmK^VEU~UKA~KYPYAKUxu>8qwysVEZFFAKU!UAPPPPUUAVzk5zccxj1",
"8prVPVE/U!AUUGAUUY!YbYKZPAEUVzaq-qrtmAKKAPPAYUFmAJFKAAbcc7uux5qw",
"wwy2NUPUKAJVKLGB!UEAV/UPKEEESMs1-ytsbKEEUKVPUEVVVAAABsuxccu5tssp",
"deb6upmbmAPAnMaEVYFP!~PPAFEUxt51-qyxAPAEUYVbBVVVVVABbzsczc75tayw",
"pfauxuGVMBmAMMbUR!JVPKb/~UUACta<0qt7NEPEEEyVPPbfJ~VPFxkkxc7u>rhq",
"edax6k4bba9bZxVBYYPBYVPPVbF!n>ywqstthPVEEEEPbPKnKUUbKxMxxxz65ya8",
"wwr2k6uu5>>tyurVNJKPUb!PEVAVMy-9&ss7JPAJQEEKPPPPJJFMPlu4tu62uah8",
"8putMx,q2ru264r:94pNKY^9hbVWZrx<-rCs!MUFEEUEU!~YuhB94r76x65yMus8",
";2a2>a2rrfBy9,q2tlr24uuaaJbbylu8@sxAbxpjNEKUJ!^a,>262yauar2uuay0",
"wpru2bapabrpy9rqbpqp89fr81rruax9-ssy2t6rr5&yyaa#9r9i18<wa==><91q",
"8w29ihhp<ddii<=08=80qqww89ruayba1m6yr5ryay5r8#yw01iddp80111=181e",
"w8=--8*888w;80188d88dw0818$=%@-&&%%*%@=81-88=$81;dww8-0==1---;8-",
"g9pwqj998idqwi0dedw0Nddppbhqaprsparwpwfaafhjjwidddjffdwwiipqqpdd",
"bbraxsyybbiwamfwpdbhhip0w&yCCGvMDGcMxnMxnnBZamNiwNVhbaarxxaaqppj",
"yttMz77cxnbbVbbw0pmatqxbbpFIRYIIWVGCCCCCCDlaBbB$dbBbMaurxxx6yuxx",
"lCccvs7cnDalMfhwe=881MxaxuuK!E!!PFKIY^RLUrllaVfi;fna4al2CctxvcMx",
"AEPKKAAIKPuClbpwwwqr12xxFVFE!U!UYFJVUYUY~Clxnbp8e894l!YZE!VEEEIW",
"PKPIKKAEVZVubap80qqy5>SIAUP!!^~KEAVgKPPYhunxtBfii=qq8KPUUU^EEEYP",
"EAEPEUbKPbVutay08qrqrobVPE^E!~UPUm!AY!UUVZnVlNip8mlrYU!YU!EEE~EA",
"sMBJ~EEAZPVVlywdwwpqbxsW^JEKPEP/PEUVPPPUYJVl6rq9wbu6wR!!EEUAPUPV",
"ZFZsusPPVPVFxu19wqpyqWPmEU!~EEAKNAVKAUEKRY!foba1;1alK~!RJJNKUUb4",
">56urupEU!Pbtr98dwNp>jVyAK^E!!UYAnAAIEEE~KRu16980ialN/PVxsy2KBKb",
"2-&5r>2yb!p2k<9w=qyhphasPV~EP:apABnBPEEEYKKlRurqwpluJV96ry2,:>4t",
":p9X&:&2aX2may989wyjr>qh5yrpf2r,UABj!IEAKKPJKbb98ib99<uffaqyaa:2",
"1pyqxyapy22>au81swBsyy5>&r2raqy&pbmhVEAKYJKPKuaiwwa9fpaafappaby9",
"1s5qyssq5t*,9y=8epspyr11t6y5r1i1rr&y91%1=ur29rr08w9<ipfffdaiiaa2",
"=-pwhpqw181-1w80wd-;8-w0$&@88w<i2&26x66rqr>:691=0w;wdddpdfeddpi8",
"q0-0;0;;8;--;88dew0000;*=%@=--8@$  $=%%@$#+$O+=dw8000w8w88e80*w8",
"--wddeggwdq088idpw0qeq0q190w880d88appfwhppry8qws080ed00qeweeeq88",
"-pppjjVf0rrpiprpywqpwyNsqy11qajdebxw9hprya<12q5q8pwees8jeweqqeee",
"8pahbahy,qta<<2bBspssp1qsbys5qhpw8yryw<q2>5rqqrq9q9wpphhjsp8sesw",
"0wbbbpn=qtntwr<as56yssaysbpnVsre889yyywyrrusq5yq5915q0syysqeesg0",
"0wyyxZy+6z6xlut4v6uxxnxVssrssaspepirappbuKV2<<9<8sx5ysyrwssBsqew",
"0q5rb2#lcuxCMMKZosSHzEAxt6ssyp1-00hayrmM!Px>x1ryrMssr&uss=0s5p9w",
"1qry<uMtkvSGMMKKx&MIAFSzscs7phhq0dd01=qu2l:tuuu6ssMAsumuCs00esp0",
";p:2bxkMu6GMMlPGcz3AxmMcczzyyyp81gNba8uu64tct6kxzczvcKxFMsx51sqw",
"-pMuxuzvc7klxCPMMZyq5ucMznuuyrq=8prhtwu424tuMZCZllkkbblP3nxsqp-q",
"-tF6tszvMk9xYKZZVn3xs:otCxal9<1--1qyb,66auryaKVrral:bZJfnmzZKc51",
"%cs5xtuclloPKVLZcrn>::6u2X$9wq1801r6aMrrryr21#r,t222NffbKEEEWVx1",
"=CYxzucxctoKZPIZ3B1565(G6<>xurr8==s5#2>,y2ryrayq9LtranYJAKEBFMc1",
"1CKYuxtunKoKPY~r662y>2yar>:ytpr80pyV#<ryaaqy2pp9ab9bYY~RWW!BAAcq",
"8lapVsMzuJ9JhbV:xVarrpytp112raa90:y>&y9ipwf8118raaa<pyyy9pybbhC6",
"@MlttMxnkknrla4na9808=rq&qh5q9rwwp2t9y8<p888h8088<=9#<ukx66utkG&",
"OO  O@OO  +#oO O@*80w*;8$8$@$$-;;;$*<8-;0-88%-1808$=<=@  @@.   <",
"8wa9ssq55>bbsss5w88ifffryf8iqappiw1bbai8q898dii88bpflbblaryrr6ra",
"CZFVAnMyHuDHSMGqdiNfBKFFMZbnVlxbbrZGZnxkbaabr2!i1KCDMMullMCCCzDC",
"kcvzvzczCIEQQIy8d8nlMZCFCvCkvxxCCnrCbIVLmZPl1ll9<lrl^YPYYRYUFIWT",
"LIMLF~FKWFV^Kts188bMnnnuDGTZvklzFurulbPPRYRlnlbq;lunJRRPYLY!~~U!",
"EPPAUKKPVEEJPkb18$bnM7CDaY!!W!KY~KFYlYKYYKBbxIlr8rl1tYRUKFP!VAKU",
"mKVJIYFAb!Y!Vzx08wrBkkDTDpKY!YPPiPFPLbYKJ!mmlnr$w<9xJVPJUUAPVPKV",
"PPVVJPPAAA!VaCMwdwZilCMTTTnYIFBVylshIMbxfPBCktM#8abulZVZAVKEKYVA",
"APJVJAKKPPPIZkMwd<rnrZGHIZGbbFlb>VVAYbxZnALMCln1wfatlVVKPUVUAhaB",
"KKBKYVJRKP/KVx580wbVruMLTnnnCIbx4amGsFMKuYVxntC8wrBnbaVZPPPAKFNV",
"FPFBKKJYUEUUMla88dbbl2TFxGSzktVVb>mbVGVrnKLCcut88MaluubMPAPPJAAV",
"UKBKKKR/PKUPbxi0ddbul9Muxv4x2,<,,2y.mYocCZVLRxri<pu6k6bmUUAYUPKA",
"PJJJYJJYEPKKaxapi0baxn9nurlua2u>u&:t:>sFPZYJ!lxi8aaua9k:piUYEKJA",
"iyyp4irryyiyia28w0ananlytruxuntry2rrr:XBNbrbunyi8fbayr9a96imsmbp",
"ttllClllMnlu<2af88uncty9t4u4tbr&<2w9up:a:1qtura08ppr16ywal915tuu",
"uryr9qrprayy<$w88$0q9ybi#+r#18@&1ww29wwr889firf9epwww888898w<rax",
"$$$@+O8==$*;08;ddd0;=8$;<@@$%8$=*&$==08818@+8;8=ew888-888*=08=@*"
};
